<svg viewBox="0 0 597 501" fill="none" xmlns="http://www.w3.org/2000/svg">
<g id="No Results">
<g id="circle">
<path id="Stroke 13" d="M308.792 6V10.2672" stroke="#D2D8DF" stroke-width="2.07741" stroke-linecap="round"/>
<path id="Stroke 15" d="M295.991 18.8027H300.258" stroke="#D2D8DF" stroke-width="2.07741" stroke-linecap="round"/>
<path id="Stroke 16" d="M308.792 31.6041V27.3369" stroke="#D2D8DF" stroke-width="2.07741" stroke-linecap="round"/>
<path id="Stroke 17" d="M319.461 18.8027H315.193" stroke="#D2D8DF" stroke-width="2.07741" stroke-linecap="round"/>
<path id="Stroke 18" d="M61.2949 185.224V191.624" stroke="#D2D8DF" stroke-width="2.07741" stroke-linecap="round"/>
<path id="Stroke 19" d="M42.0927 204.425H48.4934" stroke="#D2D8DF" stroke-width="2.07741" stroke-linecap="round"/>
<path id="Stroke 20" d="M61.2949 221.493V215.092" stroke="#D2D8DF" stroke-width="2.07741" stroke-linecap="round"/>
<path id="Stroke 21" d="M78.3638 204.425H71.963" stroke="#D2D8DF" stroke-width="2.07741" stroke-linecap="round"/>
<g id="Group 42">
<path id="Stroke 22" d="M520.56 417.867C525.659 417.867 529.794 422.004 529.794 427.104C529.794 432.206 525.659 436.34 520.56 436.34C515.461 436.34 511.326 432.206 511.326 427.104" stroke="#D2D8DF" stroke-width="2.07741" stroke-linecap="round"/>
<path id="Fill 26" fill-rule="evenodd" clip-rule="evenodd" d="M562.82 334.07C568.303 332.36 576.707 325.654 578.653 318.439C580.417 324.817 587.813 332.36 594.485 332.93C586.974 335.59 579.792 343.491 578.653 349.699C577.877 343.372 567.944 334.992 562.82 334.07Z" fill="#EBECEE"/>
<path id="Fill 28" fill-rule="evenodd" clip-rule="evenodd" d="M0 415.023C2.74236 414.168 6.94285 410.816 7.91553 407.209C8.79765 410.396 12.4946 414.168 15.8311 414.454C12.0762 415.782 8.4861 419.734 7.91553 422.838C7.52791 419.674 2.56123 415.484 0 415.023Z" fill="#EBECEE"/>
<path id="Fill 30" fill-rule="evenodd" clip-rule="evenodd" d="M50.8917 118.221C50.8917 122.178 47.6856 125.383 43.7315 125.383C39.7755 125.383 36.5713 122.178 36.5713 118.221C36.5713 114.265 39.7755 111.059 43.7315 111.059C47.6856 111.059 50.8917 114.265 50.8917 118.221Z" fill="#D1D8DF"/>
<path id="Fill 32" fill-rule="evenodd" clip-rule="evenodd" d="M529.021 137.452C529.021 144.063 523.661 149.423 517.053 149.423C510.442 149.423 505.084 144.063 505.084 137.452C505.084 130.841 510.442 125.481 517.053 125.481C523.661 125.481 529.021 130.841 529.021 137.452Z" fill="#EBECEE"/>
<path id="Stroke 38" fill-rule="evenodd" clip-rule="evenodd" d="M181.149 72.2099C181.149 76.1669 177.943 79.372 173.989 79.372C170.035 79.372 166.829 76.1669 166.829 72.2099C166.829 68.2548 170.035 65.0479 173.989 65.0479C177.943 65.0479 181.149 68.2548 181.149 72.2099Z" stroke="#D2D8DF" stroke-width="2.07741" stroke-linecap="round"/>
</g>
</g>
<g id="search">
<g id="documents">
<path id="Fill 1" fill-rule="evenodd" clip-rule="evenodd" d="M361.064 445.52H186.099C173.784 445.52 163.704 435.41 163.704 423.054V173.545C163.704 161.189 173.784 151.084 186.099 151.084H361.064C373.384 151.084 383.464 161.189 383.464 173.545V423.054C383.464 435.41 373.384 445.52 361.064 445.52Z" fill="#E0E2EE"/>
<path id="Fill 3" fill-rule="evenodd" clip-rule="evenodd" d="M346.129 456.187H171.164C158.849 456.187 148.768 446.077 148.768 433.721V184.212C148.768 171.856 158.849 161.751 171.164 161.751H346.129C358.449 161.751 368.529 171.856 368.529 184.212V433.721C368.529 446.077 358.449 456.187 346.129 456.187Z" fill="#E8EBF2"/>
<path id="Fill 5" fill-rule="evenodd" clip-rule="evenodd" d="M331.601 464.61H156.275C143.934 464.61 133.833 454.542 133.833 442.236V193.761C133.833 181.456 143.934 171.393 156.275 171.393H331.601C343.947 171.393 354.048 181.456 354.048 193.761V442.236C354.048 454.542 343.947 464.61 331.601 464.61Z" fill="#D8DBEA"/>
<path id="Fill 8" fill-rule="evenodd" clip-rule="evenodd" d="M331.601 464.61H156.275C143.934 464.61 133.833 454.542 133.833 442.236V193.761C133.833 181.456 143.934 171.393 156.275 171.393H331.601C343.947 171.393 354.048 181.456 354.048 193.761V442.236C354.048 454.542 343.947 464.61 331.601 464.61Z" fill="#F1F2F7"/>
<path id="Fill 11" fill-rule="evenodd" clip-rule="evenodd" d="M306.33 247.095H176.83C173.131 247.095 170.104 244.215 170.104 240.696C170.104 237.173 173.131 234.293 176.83 234.293H306.33C310.028 234.293 313.055 237.173 313.055 240.696C313.055 244.215 310.028 247.095 306.33 247.095Z" fill="#E0E2EE"/>
<path id="Fill 13" fill-rule="evenodd" clip-rule="evenodd" d="M306.33 285.5H176.83C173.131 285.5 170.104 282.62 170.104 279.101C170.104 275.578 173.131 272.698 176.83 272.698H306.33C310.028 272.698 313.055 275.578 313.055 279.101C313.055 282.62 310.028 285.5 306.33 285.5Z" fill="#E0E2EE"/>
<path id="Fill 15" fill-rule="evenodd" clip-rule="evenodd" d="M306.33 323.905H176.83C173.131 323.905 170.104 321.025 170.104 317.507C170.104 313.988 173.131 311.104 176.83 311.104H306.33C310.028 311.104 313.055 313.988 313.055 317.507C313.055 321.025 310.028 323.905 306.33 323.905Z" fill="#E0E2EE"/>
<path id="Fill 17" fill-rule="evenodd" clip-rule="evenodd" d="M306.33 362.31H176.83C173.131 362.31 170.104 359.43 170.104 355.912C170.104 352.389 173.131 349.509 176.83 349.509H306.33C310.028 349.509 313.055 352.389 313.055 355.912C313.055 359.43 310.028 362.31 306.33 362.31Z" fill="#E0E2EE"/>
<path id="Fill 19" fill-rule="evenodd" clip-rule="evenodd" d="M244.427 400.716H176.859C173.144 400.716 170.104 397.836 170.104 394.317C170.104 390.794 173.144 387.914 176.859 387.914H244.427C248.141 387.914 251.181 390.794 251.181 394.317C251.181 397.836 248.141 400.716 244.427 400.716Z" fill="#E0E2EE"/>
</g>
<g id="search_2">
<path id="Fill 21" fill-rule="evenodd" clip-rule="evenodd" d="M380.808 351.08C354.913 376.971 314.824 379.891 285.721 359.902C282.001 357.302 278.461 354.381 275.16 351.08C273.46 349.386 271.858 347.638 270.349 345.798C267.33 342.122 264.685 338.203 262.519 334.153C258.702 327.312 256.106 320.054 254.689 312.551C250.117 289.022 256.953 263.697 275.16 245.499C293.409 227.247 318.739 220.455 342.272 224.983C349.771 226.444 357.036 229.039 363.878 232.812C367.934 235.027 371.8 237.67 375.481 240.689C377.316 242.193 379.065 243.8 380.759 245.499C384.066 248.8 387.03 252.334 389.582 256.058C409.58 285.152 406.654 325.239 380.808 351.08Z" fill="white" fill-opacity="0.1"/>
<path id="Fill 23" fill-rule="evenodd" clip-rule="evenodd" d="M373.562 345.981C346.622 372.926 302.963 372.921 276.018 345.981C249.108 319.071 249.108 275.407 276.053 248.467C302.963 221.557 346.622 221.557 373.532 248.467C400.472 275.407 400.472 319.071 373.562 345.981ZM387.388 234.625C352.808 200.045 296.772 200.045 262.192 234.625C227.617 269.2 227.587 325.271 262.162 359.851C293.634 391.313 342.962 394.15 377.657 368.318C381.046 365.792 384.31 362.959 387.423 359.851C390.531 356.738 393.363 353.475 395.885 350.086C421.717 315.385 418.855 266.092 387.388 234.625Z" fill="#E0E2EE"/>
<path id="Fill 25" fill-rule="evenodd" clip-rule="evenodd" d="M523.475 490.201L522.024 491.653C512.419 501.263 496.691 501.263 487.082 491.653L398.399 402.971L434.793 366.577L523.475 455.26C533.085 464.869 533.085 480.592 523.475 490.201Z" fill="url(#paint0_linear_2754_11766)"/>
<path id="Fill 27" fill-rule="evenodd" clip-rule="evenodd" d="M397.797 347.373L424.003 373.579L405.398 392.179L379.197 365.973C382.655 363.394 385.98 360.504 389.162 357.333C392.333 354.161 395.224 350.831 397.797 347.373Z" fill="#E0E2EE"/>
<path id="Fill 29" fill-rule="evenodd" clip-rule="evenodd" d="M522.148 454.168L485.986 490.325L479.476 483.81L515.633 447.653L522.148 454.168Z" fill="#AE7CFF"/>
<path id="Fill 31" fill-rule="evenodd" clip-rule="evenodd" d="M436.804 367.828L399.652 404.981L394.132 399.461L431.284 362.309L436.804 367.828Z" fill="url(#paint1_linear_2754_11766)"/>
<path id="Fill 33" fill-rule="evenodd" clip-rule="evenodd" d="M355.727 239.198L264.615 330.306C261.184 324.156 258.851 317.631 257.582 310.885L336.306 232.16C343.047 233.478 349.577 235.806 355.727 239.198Z" fill="white" fill-opacity="0.5"/>
<path id="Fill 35" fill-rule="evenodd" clip-rule="evenodd" d="M385.598 260.854L287.096 353.776C283.568 351.453 280.211 348.84 277.08 345.886C275.468 344.365 273.943 342.806 272.517 341.159L372.219 247.096C373.965 248.446 375.623 249.884 377.229 251.405C380.36 254.359 383.177 257.521 385.598 260.854Z" fill="white" fill-opacity="0.5"/>
</g>
</g>
</g>
<defs>
<linearGradient id="paint0_linear_2754_11766" x1="464.541" y1="300.436" x2="332.258" y2="432.719" gradientUnits="userSpaceOnUse">
<stop stop-color="#883FFF"/>
<stop offset="1" stop-color="#AE7CFF"/>
</linearGradient>
<linearGradient id="paint1_linear_2754_11766" x1="415.468" y1="340.973" x2="372.796" y2="383.645" gradientUnits="userSpaceOnUse">
<stop stop-color="#AE7CFF"/>
<stop offset="1" stop-color="#D0B3FF"/>
</linearGradient>
</defs>
</svg>
