<!-- Generated by IcoMoon.io -->
<svg version="1.1" xmlns="http://www.w3.org/2000/svg" viewBox="0 0 4096 4096">
<title></title>
<path fill="currentColor" d="M3584 1873.068v-507.732c0-188.512-152.82-341.332-341.332-341.332v0h-1024v-223.916c52.052-46.764 85.332-114.004 85.332-189.44 0-141.384-114.616-256-256-256s-256 114.616-256 256v0c0 75.436 33.28 142.676 85.332 189.44v223.916h-1024c-188.512 0-341.332 152.82-341.332 341.332v0 511.66l-12.288 0.852c-88.8 6.52-158.38 80.168-158.38 170.064 0 0.032 0 0.064 0 0.096v-0.004 341.332c0 94.256 76.412 170.668 170.668 170.668v0 853.332c0 188.512 152.82 341.332 341.332 341.332v0h2389.332c188.512 0 341.332-152.82 341.332-341.332v0-853.332c94.256 0 170.668-76.412 170.668-170.668v0-330.752c0.304-3.82 0.476-8.268 0.476-12.76 0-23.4-4.692-45.704-13.184-66.024l0.42 1.132c-34.476-83.284-108.372-103.252-158.38-107.86zM1194.668 2048c0-188.416 114.688-341.332 256-341.332s256 152.916 256 341.332-114.688 341.332-256 341.332-256-152.916-256-341.332zM2730.324 3072c-170.836-0.512-1364.82 0-1364.992 0v-341.332s1194.836-0.34 1365.676 0l-0.684 341.332zM2645.332 2389.332c-141.312 0-256-152.916-256-341.332s114.688-341.332 256-341.332 256 152.916 256 341.332-114.688 341.332-256 341.332z"></path>
</svg>
