<svg width="16" height="16" viewBox="0 0 16 16" fill="none" xmlns="http://www.w3.org/2000/svg">
<path fill-rule="evenodd" clip-rule="evenodd" d="M7.71537 14.6673C10.4309 14.6673 13.3332 14.3375 13.3332 10.0607C13.3332 7.98875 12.836 6.30205 11.8417 5.00065C10.9129 6.55622 10.2245 7.33398 9.77647 7.33398C9.10447 7.33398 9.77647 5.30422 8.9994 3.76445C8.48134 2.73796 7.56247 1.9278 6.24281 1.33398C6.42631 2.81295 6.38661 3.88578 6.12367 4.55245C5.72924 5.55245 2.38355 7.30398 2.68578 10.3123C2.98801 13.3206 4.99984 14.6673 7.71537 14.6673Z" fill="#E4735B" stroke="#E4735B" stroke-width="1.33333" stroke-linejoin="round"/>
<path d="M7.23587 8.00293C5.96761 9.1557 5.42704 10.2226 5.61424 11.2038C5.77537 12.0484 6.41624 12.459 6.89897 12.5913C7.27321 12.694 7.92117 12.7514 8.50014 12.2357C9.11341 11.6896 8.86904 10.9131 7.97974 9.95253C7.60461 9.54733 7.35664 8.89746 7.23587 8.00293Z" fill="white" stroke="white" stroke-width="1.33333" stroke-linejoin="round"/>
</svg>
