<!-- Generated by IcoMoon.io -->
<svg version="1.1" xmlns="http://www.w3.org/2000/svg" fill="currentColor" viewBox="0 0 4096 4096">
<title></title>
<path d="M3885.804 768.028c-280.044-280.228-735.972-280.304-1016.32-0.228-0.548 0.548-1.024 1.16-1.556 1.724l-497.856 497.916c-44.688 44.688-44.672 117.144 0.016 161.816 22.336 22.336 51.616 33.504 80.908 33.504 29.28 0 58.572-11.168 80.924-33.52l499.608-499.672c0.336-0.336 0.612-0.716 0.96-1.052 191.216-189.708 501.012-189.296 691.496 1.312 191.004 190.956 191.048 501.7 0.124 692.704l-700.452 700.44c-92.504 92.52-215.52 143.476-346.368 143.476s-253.864-50.944-346.396-143.476c-44.688-44.688-117.144-44.688-161.832 0s-44.688 117.144 0 161.816c135.756 135.744 316.236 210.504 508.216 210.504s372.456-74.76 508.2-210.504l700.452-700.452c280.168-280.228 280.092-736.172-0.124-1016.308z"></path>
<path d="M910.484 1611.104l-700.452 700.44c-280.028 280.228-280.028 736.172 0.032 1016.412 140.12 140.136 324.168 210.196 508.244 210.18 183.94-0.016 367.94-70 508.016-209.968 0.032-0.044 0.076-0.076 0.124-0.124l499.608-499.748c44.672-44.704 44.672-117.144-0.032-161.832-44.704-44.672-117.128-44.672-161.832 0.016l-499.608 499.748c-0.016 0.016-0.016 0.032-0.032 0.044-191.020 190.88-501.716 190.804-692.644-0.136-190.896-191.020-190.896-501.82-0.032-692.812l700.44-700.424c191.004-191.020 501.776-191.036 692.78-0.060 44.688 44.688 117.144 44.688 161.816-0.016 44.688-44.688 44.672-117.144-0.016-161.816-280.244-280.18-736.216-280.152-1016.412 0.092z"></path>
<path d="M1898.184 810.532c18.248 44.076 60.86 70.688 105.776 70.688 14.584 0 29.416-2.808 43.728-8.728 58.388-24.168 86.14-91.1 61.96-149.488l-129.212-312.144c-24.152-58.388-91.1-86.128-149.488-61.96s-86.14 91.1-61.96 149.488l129.196 312.144z"></path>
<path d="M2347.808 872.476c14.328 5.936 29.156 8.744 43.756 8.744 44.888 0 87.5-26.592 105.764-70.656l129.336-312.084c24.184-58.388-3.524-125.32-61.912-149.52-58.372-24.184-125.308 3.508-149.52 61.912l-129.336 312.084c-24.184 58.372 3.54 125.32 61.912 149.52z"></path>
<path d="M1373.84 1017.36l312.024 129.348c14.328 5.952 29.172 8.756 43.772 8.756 44.888 0 87.484-26.592 105.748-70.64 24.196-58.372-3.492-125.32-61.884-149.52l-312.024-129.364c-58.372-24.228-125.32 3.508-149.52 61.884-24.196 58.388 3.508 125.336 61.884 149.536z"></path>
<path d="M2197.848 3285.496c-24.184-58.388-91.1-86.14-149.488-61.976s-86.14 91.1-61.976 149.488l129.18 312.128c18.248 44.076 60.86 70.7 105.776 70.7 14.584 0 29.4-2.808 43.712-8.728 58.388-24.168 86.14-91.1 61.976-149.488l-129.18-312.128z"></path>
<path d="M1748.112 3223.524c-58.404-24.196-125.32 3.48-149.536 61.868l-129.38 312.024c-24.212 58.388 3.48 125.32 61.868 149.536 14.34 5.952 29.188 8.756 43.788 8.756 44.888 0 87.484-26.576 105.748-70.624l129.38-312.024c24.196-58.388-3.492-125.32-61.868-149.536z"></path>
<path d="M2722.052 3078.612l-312.116-129.364c-58.388-24.212-125.32 3.508-149.52 61.884-24.196 58.388 3.508 125.32 61.884 149.52l312.116 129.38c14.328 5.952 29.172 8.756 43.772 8.756 44.888 0 87.484-26.592 105.748-70.64 24.196-58.404-3.508-125.336-61.884-149.536z"></path>
</svg>
