<svg width="14" height="14" viewBox="0 0 14 14" fill="none" xmlns="http://www.w3.org/2000/svg">
<path d="M7 8.75V7" stroke="#363E49" stroke-width="1.16667" stroke-linecap="round" stroke-linejoin="round"/>
<path d="M1.75 8.75H7H12.25V12.25H1.75V8.75Z" stroke="#363E49" stroke-width="1.16667" stroke-linecap="round" stroke-linejoin="round"/>
<path d="M1.75 3.64616V3.35449" stroke="#363E49" stroke-width="1.16667" stroke-linecap="round" stroke-linejoin="round"/>
<path d="M1.75 5.24967V4.95801" stroke="#363E49" stroke-width="1.16667" stroke-linecap="round" stroke-linejoin="round"/>
<path d="M1.75 2.04167V1.75" stroke="#363E49" stroke-width="1.16667" stroke-linecap="round" stroke-linejoin="round"/>
<path d="M12.25 3.64616V3.35449" stroke="#363E49" stroke-width="1.16667" stroke-linecap="round" stroke-linejoin="round"/>
<path d="M12.25 5.24967V4.95801" stroke="#363E49" stroke-width="1.16667" stroke-linecap="round" stroke-linejoin="round"/>
<path d="M12.25 2.04167V1.75" stroke="#363E49" stroke-width="1.16667" stroke-linecap="round" stroke-linejoin="round"/>
<path d="M12.2499 5.25H11.9583" stroke="#363E49" stroke-width="1.16667" stroke-linecap="round" stroke-linejoin="round"/>
<path d="M2.04167 5.25H1.75" stroke="#363E49" stroke-width="1.16667" stroke-linecap="round" stroke-linejoin="round"/>
<path d="M2.04167 1.75H1.75" stroke="#363E49" stroke-width="1.16667" stroke-linecap="round" stroke-linejoin="round"/>
<path d="M4.08341 1.75H3.79175" stroke="#363E49" stroke-width="1.16667" stroke-linecap="round" stroke-linejoin="round"/>
<path d="M6.12492 1.75H5.83325" stroke="#363E49" stroke-width="1.16667" stroke-linecap="round" stroke-linejoin="round"/>
<path d="M6.12492 5.25H5.83325" stroke="#363E49" stroke-width="1.16667" stroke-linecap="round" stroke-linejoin="round"/>
<path d="M8.16667 1.75H7.875" stroke="#363E49" stroke-width="1.16667" stroke-linecap="round" stroke-linejoin="round"/>
<path d="M4.08341 5.25H3.79175" stroke="#363E49" stroke-width="1.16667" stroke-linecap="round" stroke-linejoin="round"/>
<path d="M8.16667 5.25H7.875" stroke="#363E49" stroke-width="1.16667" stroke-linecap="round" stroke-linejoin="round"/>
<path d="M10.2084 1.75H9.91675" stroke="#363E49" stroke-width="1.16667" stroke-linecap="round" stroke-linejoin="round"/>
<path d="M10.2084 5.25H9.91675" stroke="#363E49" stroke-width="1.16667" stroke-linecap="round" stroke-linejoin="round"/>
<path d="M12.2499 1.75H11.9583" stroke="#363E49" stroke-width="1.16667" stroke-linecap="round" stroke-linejoin="round"/>
</svg>
