<!-- Generated by IcoMoon.io -->
<svg version="1.1" xmlns="http://www.w3.org/2000/svg" viewBox="0 0 768 768">
<title></title>
<path fill="currentColor" d="M294.368 435.168c31.744 42.464 77.76 68.032 126.336 75.040s99.936-4.544 142.4-36.288c7.648-5.728 14.88-12 20.96-18.176l95.84-95.84c37.216-38.528 55.104-88.032 54.272-137.12s-20.448-97.952-58.592-134.752c-37.504-36.224-86.016-54.144-134.368-53.856-47.744 0.256-95.488 18.272-132.384 53.856l-55.392 55.072c-12.544 12.448-12.608 32.736-0.128 45.248s32.736 12.608 45.248 0.128l54.688-54.368c24.64-23.744 56.416-35.744 88.32-35.936 32.288-0.192 64.512 11.744 89.536 35.904 25.44 24.576 38.496 57.056 39.072 89.856s-11.36 65.728-35.52 90.752l-96.16 96.16c-3.648 3.712-8.416 7.904-13.696 11.84-28.32 21.184-62.464 28.864-94.944 24.192s-63.072-21.696-84.224-50.016c-10.592-14.144-30.624-17.056-44.8-6.464s-17.056 30.624-6.464 44.8zM473.632 332.832c-31.744-42.464-77.76-68.032-126.336-75.040s-99.968 4.544-142.432 36.288c-7.648 5.728-14.848 12-20.96 18.176l-95.84 95.84c-37.216 38.528-55.104 88.032-54.272 137.12s20.448 97.952 58.592 134.752c37.504 36.224 86.016 54.144 134.368 53.856 47.744-0.256 95.488-18.272 132.384-53.856l55.136-55.136c12.512-12.512 12.512-32.768 0-45.248s-32.768-12.512-45.248 0l-54.272 54.336c-24.64 23.744-56.416 35.744-88.32 35.936-32.288 0.192-64.512-11.744-89.536-35.904-25.44-24.576-38.496-57.056-39.072-89.856s11.36-65.728 35.52-90.752l96.16-96.16c3.648-3.712 8.416-7.904 13.696-11.84 28.32-21.184 62.464-28.864 94.944-24.192s63.072 21.696 84.224 50.016c10.592 14.144 30.624 17.056 44.8 6.464s17.056-30.624 6.464-44.8z"></path>
</svg>
