<svg width="14" height="14" viewBox="0 0 14 14" fill="none" xmlns="http://www.w3.org/2000/svg">
<path d="M6.99997 7V3.5M6.99997 7L3.9375 8.76811M6.99997 7L10.0624 8.76811" stroke="white" stroke-width="1.16667" stroke-linecap="round" stroke-linejoin="round"/>
<path d="M4.08333 4.66667C4.08333 5.31099 3.56099 5.83333 2.91667 5.83333C2.27233 5.83333 1.75 5.31099 1.75 4.66667C1.75 4.02235 2.27233 3.5 2.91667 3.5C3.56099 3.5 4.08333 4.02235 4.08333 4.66667Z" stroke="white" stroke-width="1.16667" stroke-linecap="round" stroke-linejoin="round"/>
<path d="M4.08333 9.33366C4.08333 9.97798 3.56099 10.5003 2.91667 10.5003C2.27233 10.5003 1.75 9.97798 1.75 9.33366C1.75 8.68934 2.27233 8.16699 2.91667 8.16699C3.56099 8.16699 4.08333 8.68934 4.08333 9.33366Z" stroke="white" stroke-width="1.16667" stroke-linecap="round" stroke-linejoin="round"/>
<path d="M8.16634 11.6667C8.16634 12.311 7.644 12.8333 6.99967 12.8333C6.35535 12.8333 5.83301 12.311 5.83301 11.6667C5.83301 11.0223 6.35535 10.5 6.99967 10.5C7.644 10.5 8.16634 11.0223 8.16634 11.6667Z" stroke="white" stroke-width="1.16667" stroke-linecap="round" stroke-linejoin="round"/>
<path d="M12.2503 9.33366C12.2503 9.97798 11.728 10.5003 11.0837 10.5003C10.4393 10.5003 9.91699 9.97798 9.91699 9.33366C9.91699 8.68934 10.4393 8.16699 11.0837 8.16699C11.728 8.16699 12.2503 8.68934 12.2503 9.33366Z" stroke="white" stroke-width="1.16667" stroke-linecap="round" stroke-linejoin="round"/>
<path d="M12.2503 4.66667C12.2503 5.31099 11.728 5.83333 11.0837 5.83333C10.4393 5.83333 9.91699 5.31099 9.91699 4.66667C9.91699 4.02235 10.4393 3.5 11.0837 3.5C11.728 3.5 12.2503 4.02235 12.2503 4.66667Z" stroke="white" stroke-width="1.16667" stroke-linecap="round" stroke-linejoin="round"/>
<path d="M8.16634 2.33366C8.16634 2.97798 7.644 3.50033 6.99967 3.50033C6.35535 3.50033 5.83301 2.97798 5.83301 2.33366C5.83301 1.68933 6.35535 1.16699 6.99967 1.16699C7.644 1.16699 8.16634 1.68933 8.16634 2.33366Z" stroke="white" stroke-width="1.16667" stroke-linecap="round" stroke-linejoin="round"/>
</svg>
