<!-- Generated by IcoMoon.io -->
<svg version="1.1" xmlns="http://www.w3.org/2000/svg" viewBox="0 0 375 375">
<title>more-verical</title>
<path d="M187.5 120c12.426 0 22.5-10.074 22.5-22.5s-10.074-22.5-22.5-22.5c-12.426 0-22.5 10.074-22.5 22.5s10.074 22.5 22.5 22.5z"></path>
<path d="M187.5 210c12.426 0 22.5-10.074 22.5-22.5s-10.074-22.5-22.5-22.5c-12.426 0-22.5 10.074-22.5 22.5s10.074 22.5 22.5 22.5z"></path>
<path d="M187.5 292.5c12.426 0 22.5-10.074 22.5-22.5s-10.074-22.5-22.5-22.5c-12.426 0-22.5 10.074-22.5 22.5s10.074 22.5 22.5 22.5z"></path>
</svg>
