<!-- Generated by IcoMoon.io -->
<svg version="1.1" xmlns="http://www.w3.org/2000/svg" fill='currentColor' viewBox="0 0 375 375">
<title>more</title>
<path d="M120 187.5c0-12.426-10.074-22.5-22.5-22.5s-22.5 10.074-22.5 22.5c0 12.426 10.074 22.5 22.5 22.5s22.5-10.074 22.5-22.5z"></path>
<path d="M210 187.5c0-12.426-10.074-22.5-22.5-22.5s-22.5 10.074-22.5 22.5c0 12.426 10.074 22.5 22.5 22.5s22.5-10.074 22.5-22.5z"></path>
<path d="M292.5 187.5c0-12.426-10.074-22.5-22.5-22.5s-22.5 10.074-22.5 22.5c0 12.426 10.074 22.5 22.5 22.5s22.5-10.074 22.5-22.5z"></path>
</svg>
