<!-- Generated by IcoMoon.io -->
<svg version="1.1" xmlns="http://www.w3.org/2000/svg" viewBox="0 0 768 768">
<title></title>
<g id="icomoon-ignore">
</g>
<path fill="currentColor" d="M148.365 384v209.455c0 21.678 8.823 41.368 23.013 55.531s33.852 23.013 55.531 23.013h314.181c21.678 0 41.368-8.823 55.531-23.013s23.013-33.852 23.013-55.531v-209.455c0-14.452-11.729-26.184-26.184-26.184s-26.184 11.729-26.184 26.184v209.455c0 7.227-2.907 13.746-7.672 18.511s-11.284 7.672-18.511 7.672h-314.181c-7.227 0-13.746-2.907-18.511-7.672s-7.672-11.284-7.672-18.511v-209.455c0-14.452-11.729-26.184-26.184-26.184s-26.184 11.729-26.184 26.184zM357.816 185.383v277.157c0 14.452 11.729 26.184 26.184 26.184s26.184-11.729 26.184-26.184v-277.157l60.035 60.035c10.238 10.238 26.81 10.238 37.022 0s10.238-26.81 0-37.022l-104.726-104.726c-2.411-2.41-5.288-4.346-8.485-5.681-6.415-2.644-13.643-2.644-20.055 0-3.089 1.283-5.97 3.167-8.486 5.681l-104.726 104.726c-10.238 10.238-10.238 26.81 0 37.022s26.81 10.238 37.022 0z"></path>
</svg>
