<!-- Generated by IcoMoon.io -->
<svg version="1.1" xmlns="http://www.w3.org/2000/svg" stroke="currentColor" viewBox="0 0 375 375">
<title>share</title>
<path fill="none" stroke-linejoin="round" stroke-linecap="butt" stroke-miterlimit="4" stroke-width="30" d="M270 127.5c20.71 0 37.5-16.79 37.5-37.5s-16.79-37.5-37.5-37.5c-20.71 0-37.5 16.789-37.5 37.5s16.79 37.5 37.5 37.5z"></path>
<path fill="none" stroke-linejoin="round" stroke-linecap="butt" stroke-miterlimit="4" stroke-width="30" d="M105 225c20.71 0 37.5-16.79 37.5-37.5s-16.79-37.5-37.5-37.5c-20.71 0-37.5 16.79-37.5 37.5s16.79 37.5 37.5 37.5z"></path>
<path fill="none" stroke-linejoin="round" stroke-linecap="round" stroke-miterlimit="4" stroke-width="30" d="M232.503 109.31l-94.958 57.532"></path>
<path fill="none" stroke-linejoin="round" stroke-linecap="round" stroke-miterlimit="4" stroke-width="30" d="M137.538 206.73l100.053 59.123"></path>
<path fill="none" stroke-linejoin="round" stroke-linecap="butt" stroke-miterlimit="4" stroke-width="30" d="M270 247.5c20.71 0 37.5 16.79 37.5 37.5s-16.79 37.5-37.5 37.5c-20.71 0-37.5-16.79-37.5-37.5s16.79-37.5 37.5-37.5z"></path>
</svg>
