<svg width="20" height="20" viewBox="0 0 20 20" fill="none" xmlns="http://www.w3.org/2000/svg">
<path d="M4.50446 9C4.59409 9 4.66879 8.96584 4.72853 8.89742C4.78829 8.8291 4.82713 8.7436 4.84505 8.64102C4.91676 7.96415 4.99443 7.43759 5.07808 7.06153C5.16174 6.67863 5.29021 6.39149 5.46349 6.19999C5.63673 6.00167 5.8967 5.85126 6.24324 5.74868C6.59576 5.63937 7.08277 5.5162 7.70421 5.37945C7.9014 5.33846 8 5.20855 8 4.98975C8 4.88718 7.97007 4.80171 7.91036 4.73334C7.85654 4.65812 7.78489 4.61709 7.69525 4.61026C7.07979 4.50769 6.59576 4.41197 6.24324 4.32308C5.89073 4.22735 5.62778 4.08034 5.45452 3.88205C5.28124 3.68376 5.15278 3.38633 5.06912 2.98974C4.99145 2.59317 4.91676 2.04957 4.84505 1.35898C4.81517 1.11966 4.70165 1 4.50446 1C4.3013 1 4.18479 1.1265 4.15492 1.37949C4.08321 2.05642 4.00554 2.58291 3.92188 2.95898C3.84421 3.33504 3.71573 3.61881 3.53648 3.81026C3.36319 4.00171 3.10029 4.15214 2.74775 4.26154C2.39522 4.36411 1.91122 4.48034 1.29578 4.61026C1.09859 4.65128 1 4.77778 1 4.98975C1 5.21538 1.11353 5.34529 1.34059 5.37945C1.94408 5.4957 2.41911 5.60511 2.76567 5.70769C3.11821 5.81027 3.38112 5.96067 3.5544 6.159C3.72769 6.3504 3.85316 6.64106 3.93085 7.03078C4.00852 7.41367 4.08321 7.94356 4.15492 8.62052C4.18479 8.87351 4.3013 9 4.50446 9Z" fill="white"/>
<path d="M11.9956 19C12.1362 19 12.2534 18.953 12.3471 18.8588C12.4409 18.7646 12.4995 18.6422 12.5229 18.4916C12.6459 17.4745 12.7836 16.6146 12.936 15.9115C13.0941 15.2084 13.2992 14.6309 13.5512 14.1789C13.8031 13.7269 14.137 13.366 14.553 13.096C14.969 12.8261 15.4963 12.6158 16.1349 12.4652C16.7795 12.3082 17.5704 12.1732 18.5078 12.0603C18.6543 12.0477 18.7715 11.9881 18.8593 11.8814C18.9531 11.7747 19 11.6459 19 11.4953C19 11.3572 18.9531 11.2348 18.8593 11.1281C18.7715 11.0214 18.6543 10.9585 18.5078 10.9397C17.5704 10.8267 16.7824 10.6918 16.1438 10.5349C15.5051 10.3779 14.9778 10.1644 14.5618 9.89455C14.1517 9.6183 13.8177 9.25736 13.56 8.81166C13.308 8.35969 13.1029 7.78531 12.9448 7.08853C12.7924 6.39175 12.6518 5.53171 12.5229 4.50847C12.4936 4.35782 12.4321 4.23541 12.3383 4.14125C12.2504 4.04708 12.1362 4 11.9956 4C11.8667 4 11.7525 4.04708 11.6529 4.14125C11.5591 4.23541 11.5034 4.35782 11.4859 4.50847C11.357 5.53171 11.2134 6.39175 11.0552 7.08853C10.9029 7.78531 10.6978 8.35969 10.44 8.81166C10.1881 9.26364 9.85412 9.62771 9.43813 9.90396C9.02214 10.1739 8.49484 10.3873 7.85622 10.5443C7.2176 10.6949 6.42959 10.8267 5.49215 10.9397C5.34568 10.9585 5.22557 11.0214 5.13183 11.1281C5.04394 11.2285 5 11.3509 5 11.4953C5 11.6459 5.04394 11.7747 5.13183 11.8814C5.21971 11.9818 5.33983 12.0414 5.49215 12.0603C6.42959 12.1921 7.21468 12.3396 7.84744 12.5028C8.48606 12.6661 9.01043 12.8827 9.42057 13.1526C9.83656 13.4162 10.1705 13.7708 10.4225 14.2165C10.6744 14.6622 10.8795 15.2303 11.0377 15.9209C11.1958 16.6177 11.3453 17.4745 11.4859 18.4916C11.5034 18.6422 11.5591 18.7646 11.6529 18.8588C11.7525 18.953 11.8667 19 11.9956 19Z" fill="white"/>
</svg>
