<!-- Generated by IcoMoon.io -->
<svg version="1.1" xmlns="http://www.w3.org/2000/svg" viewBox="0 0 375 375">
<title>tip</title>
<path fill="none" stroke="currentColor" stroke-linejoin="round" stroke-linecap="butt" stroke-miterlimit="4" stroke-width="26.7857" d="M187.499 343.749c43.147 0 82.209-17.488 110.484-45.764 28.278-28.275 45.766-67.339 45.766-110.486s-17.488-82.209-45.766-110.485c-28.275-28.276-67.337-45.764-110.484-45.764s-82.209 17.489-110.485 45.764c-28.276 28.276-45.764 67.339-45.764 110.485s17.489 82.211 45.764 110.486c28.276 28.275 67.339 45.764 110.485 45.764z"></path>
<path fill="currentColor" d="M187.501 85.938c10.787 0 19.531 8.744 19.531 19.531s-8.745 19.531-19.531 19.531c-10.787 0-19.531-8.744-19.531-19.531s8.745-19.531 19.531-19.531z"></path>
<path fill="none" stroke="currentColor" stroke-linejoin="round" stroke-linecap="round" stroke-miterlimit="4" stroke-width="26.7857" d="M191.406 265.625v-109.375h-15.625"></path>
<path fill="none" stroke="currentColor" stroke-linejoin="round" stroke-linecap="round" stroke-miterlimit="4" stroke-width="26.7857" d="M164.063 265.625h54.688"></path>
</svg>
