<svg width="24" height="25" viewBox="0 0 24 25" fill="none" xmlns="http://www.w3.org/2000/svg">
  <path fill-rule="evenodd" clip-rule="evenodd" d="M12 21.308C17.098 21.308 21.2308 17.1752 21.2308 12.0772C21.2308 6.97917 17.098 2.84642 12 2.84642C6.90198 2.84642 2.76923 6.97917 2.76923 12.0772C2.76923 17.1752 6.90198 21.308 12 21.308Z" stroke="currentColor" stroke-width="2" stroke-linecap="round" stroke-linejoin="round"/>
  <path d="M12 11.6157C13.2745 11.6157 14.3077 10.5825 14.3077 9.30797C14.3077 8.03347 13.2745 7.00027 12 7.00027C10.7255 7.00027 9.69232 8.03347 9.69232 9.30797C9.69232 10.5825 10.7255 11.6157 12 11.6157Z" stroke="currentColor" stroke-width="2" stroke-linejoin="round"/>
  <path d="M5.54858 18.692C5.70721 16.2867 7.7084 14.3849 10.1538 14.3849H13.8461C16.2883 14.3849 18.2875 16.2817 18.4508 18.6824" stroke="currentColor" stroke-width="2" stroke-linecap="round" stroke-linejoin="round"/>
  </svg>
  