<svg width="24" height="25" viewBox="0 0 24 25" fill="none" xmlns="http://www.w3.org/2000/svg">
<path fill-rule="evenodd" clip-rule="evenodd" d="M12.0003 21.308C17.0983 21.308 21.2311 17.1752 21.2311 12.0772C21.2311 6.97919 17.0983 2.84644 12.0003 2.84644C6.90229 2.84644 2.76953 6.97919 2.76953 12.0772C2.76953 17.1752 6.90229 21.308 12.0003 21.308Z" stroke="#333333" stroke-width="2" stroke-linecap="round" stroke-linejoin="round"/>
<path d="M12.0001 11.6156C13.2746 11.6156 14.3078 10.5824 14.3078 9.30794C14.3078 8.03344 13.2746 7.00024 12.0001 7.00024C10.7256 7.00024 9.69238 8.03344 9.69238 9.30794C9.69238 10.5824 10.7256 11.6156 12.0001 11.6156Z" stroke="#333333" stroke-width="2" stroke-linejoin="round"/>
<path d="M5.54883 18.6918C5.70746 16.2866 7.70864 14.3848 10.1541 14.3848H13.8464C16.2886 14.3848 18.2877 16.2815 18.451 18.6823" stroke="#333333" stroke-width="2" stroke-linecap="round" stroke-linejoin="round"/>
</svg>
