<svg viewBox="0 0 660 489" fill="none" xmlns="http://www.w3.org/2000/svg">
<g id="Wallet is Empty">
<path id="Fill 1" fill-rule="evenodd" clip-rule="evenodd" d="M444.261 465.834C444.261 470.167 388.507 473.68 319.729 473.68C250.951 473.68 195.193 470.167 195.193 465.834C195.193 461.504 250.951 457.991 319.729 457.991C388.507 457.991 444.261 461.504 444.261 465.834" fill="#DCDCE2"/>
<path id="Fill 15" fill-rule="evenodd" clip-rule="evenodd" d="M202.556 387.388H446.776C452.967 387.388 457.989 382.354 457.989 376.148V212.344C457.989 206.121 452.956 201.078 446.75 201.078H196.63C193.669 201.078 191.271 203.482 191.271 206.45V376.075C191.271 382.323 196.322 387.388 202.556 387.388" fill="#F1F2F7"/>
<path id="Fill 17" fill-rule="evenodd" clip-rule="evenodd" d="M202.406 385.428H232.042C232.269 385.428 232.455 385.242 232.455 385.014V177.958C232.455 177.73 232.269 177.544 232.042 177.544H202.406C196.254 177.544 191.271 182.513 191.271 188.647V374.325C191.271 380.457 196.254 385.428 202.406 385.428" fill="#BEC0D6"/>
<g id="Fill 19">
<path fill-rule="evenodd" clip-rule="evenodd" d="M396.583 316.787H473.267C473.494 316.787 473.679 316.6 473.679 316.368V270.139C473.679 269.907 473.494 269.719 473.267 269.719H396.583C390.423 269.719 385.427 274.776 385.427 281.011V305.496C385.427 311.733 390.423 316.787 396.583 316.787" fill="url(#paint0_linear_2756_13521)"/>
<path fill-rule="evenodd" clip-rule="evenodd" d="M396.583 316.787H473.267C473.494 316.787 473.679 316.6 473.679 316.368V270.139C473.679 269.907 473.494 269.719 473.267 269.719H396.583C390.423 269.719 385.427 274.776 385.427 281.011V305.496C385.427 311.733 390.423 316.787 396.583 316.787" fill="url(#paint1_linear_2756_13521)"/>
</g>
<path id="Fill 21" fill-rule="evenodd" clip-rule="evenodd" d="M413.459 177.544H202.674V177.572C196.355 177.724 191.271 182.908 191.271 189.312C191.271 195.716 196.355 200.9 202.674 201.052V201.078H426.194C426.424 201.078 426.61 200.892 426.61 200.661V190.794C426.61 183.476 420.721 177.544 413.459 177.544" fill="#D8DBEA"/>
<path id="Fill 23" fill-rule="evenodd" clip-rule="evenodd" d="M422.69 293.253C422.69 298.669 418.3 303.059 412.884 303.059C407.468 303.059 403.078 298.669 403.078 293.253C403.078 287.837 407.468 283.447 412.884 283.447C418.3 283.447 422.69 287.837 422.69 293.253" fill="#FEFEFF"/>
<path id="Stroke 25" d="M20.6506 244.224V250.107" stroke="#D2D8DF" stroke-width="1.97338" stroke-linecap="round"/>
<path id="Stroke 27" d="M8.88208 250.107L12.8044 254.029" stroke="#D2D8DF" stroke-width="1.97338" stroke-linecap="round"/>
<path id="Stroke 29" d="M3 261.875H8.8835" stroke="#D2D8DF" stroke-width="1.97338" stroke-linecap="round"/>
<path id="Stroke 31" d="M8.88208 273.642L12.8044 269.719" stroke="#D2D8DF" stroke-width="1.97338" stroke-linecap="round"/>
<path id="Stroke 33" d="M20.6506 279.524V273.641" stroke="#D2D8DF" stroke-width="1.97338" stroke-linecap="round"/>
<path id="Stroke 35" d="M32.4194 273.642L28.4971 269.719" stroke="#D2D8DF" stroke-width="1.97338" stroke-linecap="round"/>
<path id="Stroke 37" d="M38.299 261.875H32.4155" stroke="#D2D8DF" stroke-width="1.97338" stroke-linecap="round"/>
<path id="Stroke 39" d="M32.4194 250.107L28.4971 254.029" stroke="#D2D8DF" stroke-width="1.97338" stroke-linecap="round"/>
<path id="Stroke 41" d="M322.669 3V6.92233" stroke="#D2D8DF" stroke-width="1.97338" stroke-linecap="round"/>
<path id="Stroke 43" d="M312.864 12.8064H316.787" stroke="#D2D8DF" stroke-width="1.97338" stroke-linecap="round"/>
<path id="Stroke 45" d="M322.669 24.573V20.6506" stroke="#D2D8DF" stroke-width="1.97338" stroke-linecap="round"/>
<path id="Stroke 47" d="M334.437 14.7678H330.515" stroke="#D2D8DF" stroke-width="1.97338" stroke-linecap="round"/>
<path id="Stroke 49" d="M106.942 157.932V163.816" stroke="#D2D8DF" stroke-width="1.97338" stroke-linecap="round"/>
<path id="Stroke 51" d="M89.2917 175.583H95.1752" stroke="#D2D8DF" stroke-width="1.97338" stroke-linecap="round"/>
<path id="Stroke 53" d="M104.979 191.273V185.389" stroke="#D2D8DF" stroke-width="1.97338" stroke-linecap="round"/>
<path id="Stroke 55" d="M122.632 175.583H116.748" stroke="#D2D8DF" stroke-width="1.97338" stroke-linecap="round"/>
<path id="Stroke 57" d="M507.019 363.855C511.351 363.855 514.864 367.367 514.864 371.7C514.864 376.032 511.351 379.544 507.019 379.544C502.688 379.544 499.175 376.032 499.175 371.7" stroke="#D2D8DF" stroke-width="1.97338" stroke-linecap="round"/>
<path id="Stroke 59" d="M544.15 470.817C545.15 477.821 540.309 484.312 533.34 485.316C526.375 486.32 519.915 481.456 518.916 474.453C517.917 467.448 522.756 460.956 529.725 459.952" stroke="#D2D8DF" stroke-width="1.97338" stroke-linecap="round"/>
<path id="Fill 61" fill-rule="evenodd" clip-rule="evenodd" d="M544.282 289.329C549.037 287.826 556.324 281.938 558.012 275.602C559.54 281.203 565.952 287.826 571.739 288.329C565.226 290.666 558.999 297.607 558.012 303.059C557.338 297.501 548.727 290.139 544.282 289.329" fill="#EBECEF"/>
<path id="Fill 63" fill-rule="evenodd" clip-rule="evenodd" d="M52.0298 360.912C54.408 360.161 58.051 357.216 58.8948 354.049C59.6591 356.849 62.8637 360.161 65.7579 360.413C62.501 361.581 59.3875 365.05 58.8948 367.777C58.5573 364.999 54.2528 361.317 52.0298 360.912" fill="#EBECEF"/>
<path id="Fill 65" fill-rule="evenodd" clip-rule="evenodd" d="M95.1759 101.058C95.1759 104.309 92.5412 106.942 89.2924 106.942C86.0418 106.942 83.4089 104.309 83.4089 101.058C83.4089 97.8074 86.0418 95.1746 89.2924 95.1746C92.5412 95.1746 95.1759 97.8074 95.1759 101.058" fill="#D1D9E0"/>
<path id="Fill 69" fill-rule="evenodd" clip-rule="evenodd" d="M659.991 89.2905C659.991 93.6247 656.48 97.1361 652.148 97.1361C647.813 97.1361 644.302 93.6247 644.302 89.2905C644.302 84.9582 647.813 81.4468 652.148 81.4468C656.48 81.4468 659.991 84.9582 659.991 89.2905" fill="#EBECEF"/>
<path id="Stroke 73" fill-rule="evenodd" clip-rule="evenodd" d="M208.924 59.874C208.924 63.1246 206.289 65.7575 203.04 65.7575C199.79 65.7575 197.157 63.1246 197.157 59.874C197.157 56.6233 199.79 53.9905 203.04 53.9905C206.289 53.9905 208.924 56.6233 208.924 59.874Z" stroke="#D2D8DF" stroke-width="1.97338" stroke-linecap="round"/>
<path id="Stroke 75" fill-rule="evenodd" clip-rule="evenodd" d="M117.576 431.981C113.527 433.521 108.998 431.488 107.458 427.44C105.916 423.392 107.951 418.862 111.999 417.322C116.047 415.78 120.577 417.815 122.117 421.863C123.657 425.912 121.624 430.441 117.576 431.981Z" stroke="#D2D8DF" stroke-width="1.97338" stroke-linecap="round"/>
</g>
<defs>
<linearGradient id="paint0_linear_2756_13521" x1="429.553" y1="246.186" x2="390.465" y2="319.475" gradientUnits="userSpaceOnUse">
<stop stop-color="#FF8960"/>
<stop offset="1" stop-color="#FF62A5"/>
</linearGradient>
<linearGradient id="paint1_linear_2756_13521" x1="429.553" y1="246.186" x2="390.465" y2="319.475" gradientUnits="userSpaceOnUse">
<stop stop-color="#883FFF"/>
<stop offset="1" stop-color="#AE7CFF"/>
</linearGradient>
</defs>
</svg>
