<!-- Generated by IcoMoon.io -->
<svg version="1.1" xmlns="http://www.w3.org/2000/svg" viewBox="0 0 375 375">
<title>burn</title>
<path fill="none" stroke-linejoin="round" stroke-linecap="round" stroke-miterlimit="4" stroke-width="35.1563" stroke="currentColor" d="M107.147 160.724c29.587 0 53.572-23.985 53.572-53.571s-23.985-53.572-53.572-53.572c-29.587 0-53.571 23.985-53.571 53.572s23.985 53.571 53.571 53.571z"></path>
<path fill="none" stroke-linejoin="round" stroke-linecap="round" stroke-miterlimit="4" stroke-width="35.1563" stroke="currentColor" d="M267.855 321.422c29.588 0 53.571-23.984 53.571-53.571s-23.984-53.572-53.571-53.572c-29.585 0-53.571 23.984-53.571 53.572s23.985 53.571 53.571 53.571z"></path>
<path fill="none" stroke-linejoin="round" stroke-linecap="round" stroke-miterlimit="4" stroke-width="35.1563" stroke="currentColor" d="M187.51 343.751c-86.295 0-156.25-69.956-156.25-156.251l52.083 26.041"></path>
<path fill="none" stroke-linejoin="round" stroke-linecap="round" stroke-miterlimit="4" stroke-width="35.1563" stroke="currentColor" d="M187.505 31.243c86.294 0 156.25 69.955 156.25 156.25l-52.083-26.041"></path>
</svg>
