<!-- Generated by IcoMoon.io -->
<svg version="1.1" xmlns="http://www.w3.org/2000/svg" viewBox="0 0 375 375">
<title>setting</title>
<path fill="none" stroke-linejoin="round" stroke-linecap="butt" stroke-miterlimit="4" stroke-width="35.1563" stroke="currentColor" d="M142.843 337.275c-26.18-7.793-49.484-22.266-67.937-41.44 6.884-8.158 11.032-18.698 11.032-30.209 0-25.889-20.987-46.876-46.875-46.876-1.566 0-3.114 0.077-4.641 0.227-2.080-10.168-3.172-20.694-3.172-31.477 0-16.333 2.506-32.080 7.155-46.88 0.219 0.003 0.438 0.005 0.658 0.005 25.888 0 46.875-20.987 46.875-46.875 0-7.432-1.73-14.459-4.808-20.703 18.070-16.802 40.124-29.376 64.59-36.148 7.752 15.196 23.551 25.601 41.78 25.601s34.028-10.406 41.78-25.601c24.465 6.772 46.519 19.347 64.59 36.148-3.077 6.244-4.807 13.271-4.807 20.703 0 25.888 20.986 46.875 46.875 46.875 0.218 0 0.438-0.001 0.656-0.005 4.65 14.799 7.155 30.547 7.155 46.88 0 10.783-1.092 21.309-3.171 31.477-1.528-0.15-3.075-0.227-4.641-0.227-25.889 0-46.875 20.987-46.875 46.876 0 11.51 4.148 22.050 11.032 30.209-18.452 19.174-41.756 33.647-67.937 41.44-6.042-18.9-23.752-32.588-44.658-32.588s-38.615 13.688-44.658 32.588z"></path>
<path fill="none" stroke-linejoin="round" stroke-linecap="butt" stroke-miterlimit="4" stroke-width="35.1563" stroke="currentColor" d="M187.499 242.187c30.203 0 54.688-24.483 54.688-54.687s-24.484-54.687-54.688-54.687c-30.203 0-54.687 24.484-54.687 54.687s24.484 54.687 54.687 54.687z"></path>
</svg>
