<!-- Generated by IcoMoon.io -->
<svg version="1.1" xmlns="http://www.w3.org/2000/svg" viewBox="0 0 375 375">
<title>signature</title>
<path fill="none" stroke="currentColor" stroke-linejoin="round" stroke-linecap="butt" stroke-miterlimit="4" stroke-width="35.1563" d="M296.873 31.25h-218.75c-8.629 0-15.625 6.995-15.625 15.625v281.25c0 8.63 6.995 15.626 15.625 15.626h218.75c8.63 0 15.626-6.996 15.626-15.626v-281.25c0-8.629-6.996-15.625-15.626-15.625z"></path>
<path fill="none" stroke="currentColor" stroke-linejoin="round" stroke-linecap="round" stroke-miterlimit="4" stroke-width="35.1563" d="M164.063 109.375h93.75"></path>
<path fill="none" stroke="currentColor" stroke-linejoin="round" stroke-linecap="round" stroke-miterlimit="4" stroke-width="35.1563" d="M164.063 187.5h93.75"></path>
<path fill="none" stroke="currentColor" stroke-linejoin="round" stroke-linecap="round" stroke-miterlimit="4" stroke-width="35.1563" d="M164.063 265.624h93.75"></path>
<path d="M117.189 125c8.63 0 15.625-6.995 15.625-15.625s-6.995-15.625-15.625-15.625c-8.63 0-15.625 6.995-15.625 15.625s6.995 15.625 15.625 15.625z"></path>
<path d="M117.189 203.125c8.63 0 15.625-6.995 15.625-15.625s-6.995-15.625-15.625-15.625c-8.63 0-15.625 6.995-15.625 15.625s6.995 15.625 15.625 15.625z"></path>
<path d="M117.189 281.25c8.63 0 15.625-6.996 15.625-15.626s-6.995-15.623-15.625-15.623c-8.63 0-15.625 6.994-15.625 15.623s6.995 15.626 15.625 15.626z"></path>
</svg>
