<svg width="239" height="238" viewBox="0 0 239 238" fill="none" xmlns="http://www.w3.org/2000/svg">
<g opacity="0.1">
<path d="M63.8781 259.324C63.8739 270.613 51.5534 277.661 41.707 272.007L-124.128 176.79C-146.948 163.688 -161 139.509 -161 113.346V-126.15C-161 -152.288 -146.973 -176.449 -124.187 -189.56L41.6858 -285C51.5343 -290.667 63.8685 -283.615 63.8685 -272.318V-185.874C63.8685 -175.423 58.262 -165.761 49.1527 -160.516L-30.9158 -114.406C-42.3015 -107.849 -49.3095 -95.7739 -49.3106 -82.7106L-49.3232 69.308C-49.3243 82.3711 -42.3186 94.4472 -30.9342 101.006L49.1995 147.173C58.3096 152.421 63.9146 162.086 63.9107 172.539L63.8781 259.324Z" fill="white"/>
<path d="M175.122 259.324C175.126 270.613 187.447 277.661 197.293 272.007L363.128 176.79C385.948 163.688 400 139.509 400 113.346V-126.15C400 -152.288 385.973 -176.449 363.187 -189.56L197.314 -285C187.466 -290.667 175.131 -283.615 175.131 -272.318V-185.874C175.131 -175.423 180.738 -165.761 189.847 -160.516L269.916 -114.406C281.301 -107.849 288.31 -95.7739 288.311 -82.7106L288.323 69.308C288.324 82.3711 281.319 94.4472 269.934 101.006L189.801 147.173C180.69 152.421 175.085 162.086 175.089 172.539L175.122 259.324Z" fill="white"/>
<path d="M110.483 -100.574C116.221 -103.883 123.307 -103.881 129.044 -100.57L167.063 -78.6258C172.745 -75.3464 176.242 -69.3171 176.245 -62.7944L176.3 50.1739C176.303 56.7087 172.799 62.7508 167.103 66.0312L128.833 88.0735C123.105 91.3727 116.035 91.375 110.305 88.0796L73.0774 66.6707C67.3787 63.3935 63.8705 57.3522 63.8705 50.8161V-63.1535C63.8705 -69.6823 67.371 -75.7181 73.0598 -78.9979L110.483 -100.574Z" fill="white"/>
</g>
</svg>
