<svg xmlns="http://www.w3.org/2000/svg" xmlns:xlink="http://www.w3.org/1999/xlink" fill="none" version="1.1" width="132.26171875" height="104.7958984375" viewBox="0 0 132.26171875 104.7958984375"><defs><linearGradient x1="-0.051463592797517776" y1="0.3122304379940033" x2="1.0493282079696655" y2="0.740122377872467" id="master_svg0_25_01001"><stop offset="0%" stop-color="#D7DBE1" stop-opacity="1"/><stop offset="100%" stop-color="#A4AFBE" stop-opacity="1"/></linearGradient><linearGradient x1="-0.027799250558018684" y1="0.914499044418335" x2="1.0566492080688477" y2="-0.048714086413383484" id="master_svg1_25_01038"><stop offset="0%" stop-color="#B4BECB" stop-opacity="1"/><stop offset="100%" stop-color="#A4B0BF" stop-opacity="1"/></linearGradient><linearGradient x1="0.9999958872795105" y1="0.5000196099281311" x2="-0.000004120483026781585" y2="0.5000196099281311" id="master_svg2_25_00996"><stop offset="0%" stop-color="#E0E4E9" stop-opacity="1"/><stop offset="100%" stop-color="#FFFFFF" stop-opacity="1"/></linearGradient><linearGradient x1="1" y1="0.5000097155570984" x2="1.84297022087776e-14" y2="0.5000097155570984" id="master_svg3_25_01033"><stop offset="0%" stop-color="#F0F0F0" stop-opacity="1"/><stop offset="100%" stop-color="#FFFFFF" stop-opacity="1"/></linearGradient><linearGradient x1="1.2962183952331543" y1="0.7612640261650085" x2="-0.2534542679786682" y2="0.30282071232795715" id="master_svg4_25_00986"><stop offset="0%" stop-color="#C7CDD8" stop-opacity="1"/><stop offset="100%" stop-color="#A4AFBE" stop-opacity="1"/></linearGradient><linearGradient x1="0.9142865538597107" y1="0.38068002462387085" x2="0.32788294553756714" y2="0.9342972040176392" id="master_svg5_25_00979"><stop offset="0%" stop-color="#BAC1CB" stop-opacity="1"/><stop offset="100%" stop-color="#CED2D9" stop-opacity="1"/></linearGradient><linearGradient x1="0.000006536588443850633" y1="0.5263195633888245" x2="1.1703581809997559" y2="-0.0066851363517344" id="master_svg6_25_01016"><stop offset="0%" stop-color="#E0E4E9" stop-opacity="1"/><stop offset="100%" stop-color="#D0D5DD" stop-opacity="1"/></linearGradient><filter id="master_svg7_25_00988" filterUnits="objectBoundingBox" color-interpolation-filters="sRGB" x="-3.90625" y="-3.90625" width="60.87110137939453" height="53.63671875"><feFlood flood-opacity="0" result="BackgroundImageFix"/><feBlend mode="normal" in="SourceGraphic" in2="BackgroundImageFix" result="shape"/><feGaussianBlur stdDeviation="0.9765625" result="effect1_foregroundBlur"/></filter><linearGradient x1="0.10241397470235825" y1="0.5042275786399841" x2="1.2635204792022705" y2="-0.16710108518600464" id="master_svg8_25_01011"><stop offset="0%" stop-color="#8C96A4" stop-opacity="1"/><stop offset="100%" stop-color="#B2BBC7" stop-opacity="1"/></linearGradient><linearGradient x1="0.9564509987831116" y1="0.8818306922912598" x2="0.11132768541574478" y2="-0.05941217020153999" id="master_svg9_25_00957"><stop offset="0%" stop-color="#CCD3DD" stop-opacity="1"/><stop offset="100%" stop-color="#A4AFBE" stop-opacity="1"/></linearGradient><linearGradient x1="0.6539967656135559" y1="0.4148848056793213" x2="0.28496217727661133" y2="0.6188386678695679" id="master_svga_25_01053"><stop offset="0%" stop-color="#BAC3D1" stop-opacity="1"/><stop offset="65.92730283737183%" stop-color="#8C96A4" stop-opacity="1"/><stop offset="100%" stop-color="#A8AFB8" stop-opacity="1"/></linearGradient><linearGradient x1="0.6830407381057739" y1="0.3963632881641388" x2="0.24439260363578796" y2="0.6447042226791382" id="master_svgb_25_00962"><stop offset="0%" stop-color="#BAC3D1" stop-opacity="1"/><stop offset="65.92730283737183%" stop-color="#8C96A4" stop-opacity="1"/><stop offset="100%" stop-color="#A8AFB8" stop-opacity="1"/></linearGradient><linearGradient x1="0.7434887290000916" y1="0.006351994350552559" x2="0.23201331496238708" y2="1.0507762432098389" id="master_svgc_25_01048"><stop offset="0%" stop-color="#EFF3F7" stop-opacity="1"/><stop offset="100%" stop-color="#DBDFE4" stop-opacity="1"/></linearGradient></defs><g><g><g><path d="M12.76171875,66.4150390625L64.07231875,89.8662390625L64.07231875,104.7256390625L12.76171875,78.1787390625L12.76171875,66.4150390625Z" fill-rule="evenodd" fill="url(#master_svg0_25_01001)" fill-opacity="1"/></g></g><g><g><path d="M132.238278125,56.4853515625L132.238278125,67.7607515625L64.017578125,104.4814515625L64.017578125,89.87205156249999L132.238278125,56.4853515625ZM132.236278125,58.7177715625L128.189478125,60.7900315625L128.189478125,64.8916015625L132.236278125,65.5751915625L132.236278125,58.7177715625Z" fill-rule="evenodd" fill="url(#master_svg1_25_01038)" fill-opacity="1"/></g></g><g><g><path d="M16.671875,70.1064453125L64.07227499999999,92.9970453125L64.07227499999999,100.0283453125L16.671875,76.2665953125L16.671875,70.1064453125Z" fill="url(#master_svg2_25_00996)" fill-opacity="1"/></g></g><g><g><path d="M130.453178125,59.5947265625L130.453178125,65.0341865625L64.017578125,99.7822265625L64.017578125,93.0029265625L130.453178125,59.5947265625Z" fill="url(#master_svg3_25_01033)" fill-opacity="1"/></g></g><g><g><path d="M14.462890625,69.0869140625L16.681640625,70.1357440625L16.681640625,76.3974640625L14.462890625,77.0634740625L14.462890625,69.0869140625Z" fill-rule="evenodd" fill="#8D97A4" fill-opacity="1"/></g></g><g><g><path d="M14.41796875,77.0986289375L16.63866875,76.1630859375L63.94916875,99.5868859375L63.94916875,102.0595859375L14.41796875,77.0986289375Z" fill-rule="evenodd" fill="url(#master_svg4_25_00986)" fill-opacity="1"/></g></g><g><g><path d="M132.22658437500002,65.6064538125L130.431684375,65.0361328125L64.021484375,99.4424328125L64.021484375,101.9150328125L132.22658437500002,65.6064538125Z" fill-rule="evenodd" fill="url(#master_svg5_25_00979)" fill-opacity="1"/></g></g><g><g><path d="M81.8183875,35.8291015625L81.8046875,35.8701155625L132.26218749999998,56.4678015625L64.09378749999999,90.0439015625L64.0722875,90.1123015625L64.0136875,90.0850015625L63.9589875,90.1123015625L63.9745875,90.0654015625L12.7421875,66.4365015625L81.6855875,35.8857438625L81.7050875,35.8291015625L81.7636875,35.8525380625L81.8183875,35.8291015625Z" fill="url(#master_svg6_25_01016)" fill-opacity="1"/></g></g><g><g filter="url(#master_svg7_25_00988)"><path d="M65.43555,71.52244218749999C80.08785,71.52244218749999,91.96485,61.6201421875,91.96485,48.610342187499995C91.96485,35.6005921875,80.08785,25.6982421875,65.43555,25.6982421875C50.78325,25.6982421875,38.90625,35.6005921875,38.90625,48.610342187499995C38.90625,61.6201421875,50.78325,71.52244218749999,65.43555,71.52244218749999Z" fill="#8C96A4" fill-opacity="0.4000000059604645"/></g></g><g><g><path d="M90.80275625,30.4853515625C90.86135625,31.1181625625,90.89065625,31.7587915625,90.89065625,32.4033115625C90.89065625,45.2705515625,79.22655625,55.0634515625,64.83785625,55.0634515625C50.44925625,55.0634515625,38.78515625,45.2705515625,38.78515625,32.4033115625C38.78515625,31.7587915625,38.81445195,31.1181625625,38.87304925,30.4853515625C39.96288625,42.3994515625,51.17185625,51.233351562500005,64.83785625,51.233351562500005C78.36325625,51.233351562500005,89.48045625,42.5810515625,90.76565625,30.8544885625L90.80275625,30.4853515625Z" fill-rule="evenodd" fill="url(#master_svg8_25_01011)" fill-opacity="1"/></g></g><g><g><path d="M64.83785625,51.2333859375C79.22655625,51.2333859375,90.89065625,41.4403859375,90.89065625,28.5732859375C90.89065625,15.7060559375,79.22655625,5.9130859375,64.83785625,5.9130859375C50.44925625,5.9130859375,38.78515625,15.7060559375,38.78515625,28.5732859375C38.78515625,41.4403859375,50.44925625,51.2333859375,64.83785625,51.2333859375Z" fill="url(#master_svg9_25_00957)" fill-opacity="1"/></g></g><g><g><path d="M81.4995765625,49.31543599609375C80.6948965625,48.16504479609375,79.1108965625,47.88574899609375,77.9605165625,48.69043599609375C76.8101253625,49.49513599609375,76.5308295625,51.08106599609375,77.3355165625,52.22950599609375L85.7710665625,64.27639599609375C86.5757465625,65.42479599609375,88.1597765625,65.70409599609374,89.3100765625,64.89939599609374C90.4604765625,64.09469599609375,90.7397765625,62.50879599609375,89.9351765625,61.36039599609375L81.4995765625,49.31543599609375Z" fill="url(#master_svga_25_01053)" fill-opacity="1"/></g></g><g><g><path d="M84.2789359375,57.9853712734375C86.2906459375,56.5771632734375,89.0640859375,57.0654452734375,90.4742459375,59.0791202734375L101.4801359375,74.7978302734375C102.8902359375,76.8096302734375,102.40003593750001,79.5830302734375,100.3883359375,80.9932302734375C98.3766359375,82.4014302734375,95.6031359375,81.9131302734375,94.1930359375,79.8994302734375L83.1871419375,64.1806802734375C81.7769799375,62.1689602734375,82.2672159375,59.3955202734375,84.2789359375,57.9853712734375Z" fill="url(#master_svgb_25_00962)" fill-opacity="1"/></g></g><g><g><path d="M83.900390625,28.8935796875Q83.900390625,29.3166796875,83.877390625,29.7391796875Q83.854490625,30.1617796875,83.808590625,30.5827796875Q83.762690625,31.0038796875,83.694090625,31.4223796875Q83.625390625,31.8408796875,83.534090625,32.255779687499995Q83.442790625,32.6707796875,83.32909062499999,33.0811796875Q83.215390625,33.4915796875,83.07959062500001,33.896479687500005Q82.943690625,34.3012796875,82.786090625,34.6996796875Q82.62839062500001,35.0979796875,82.449290625,35.4888796875Q82.270290625,35.879779687500005,82.07019062500001,36.2621796875Q81.870090625,36.6446796875,81.649490625,37.017779687499996Q81.42889062500001,37.390879687500004,81.18829062500001,37.7537796875Q80.94779062500001,38.116679687499996,80.68779062499999,38.4684796875Q80.427790625,38.820279687500005,80.14899062500001,39.1600796875Q79.870290625,39.4998796875,79.573390625,39.826879687499996Q79.27649062500001,40.1539796875,78.96229062500001,40.4674796875Q78.647990625,40.7809796875,78.31709062499999,41.0800796875Q77.986190625,41.3792796875,77.63949062500001,41.6633796875Q77.292790625,41.9474796875,76.93099062499999,42.2158796875Q76.56929062500001,42.4842796875,76.193390625,42.736379687500005Q75.817490625,42.9883796875,75.428490625,43.2233796875Q75.039390625,43.4584796875,74.637990625,43.6759796875Q74.236590625,43.8934796875,73.823890625,44.0928796875Q73.411190625,44.2923796875,72.988190625,44.4732796875Q72.565090625,44.6541796875,72.132790625,44.8160796875Q71.700490625,44.9779796875,71.259890625,45.1204796875Q70.81929062500001,45.2629796875,70.371390625,45.3857796875Q69.923590625,45.5086796875,69.469690625,45.6114796875Q69.015790625,45.7142796875,68.556790625,45.7967796875Q68.097790625,45.8792796875,67.634890625,45.9413796875Q67.172090625,46.0034796875,66.706390625,46.0449796875Q66.240590625,46.0863796875,65.773290625,46.1071796875Q65.305890625,46.1279796875,64.837890625,46.1279796875Q64.369890625,46.1279796875,63.902490625,46.1071796875Q63.435190625000004,46.0863796875,62.969390625,46.0449796875Q62.503690625000004,46.0034796875,62.040790625,45.9413796875Q61.577990625,45.8792796875,61.118990625,45.7967796875Q60.659990625,45.7142796875,60.206090625,45.6114796875Q59.752190625,45.5086796875,59.304290625,45.3857796875Q58.856490625,45.2629796875,58.415890625,45.1204796875Q57.975290625,44.9779796875,57.542990625,44.8160796875Q57.110690625000004,44.6541796875,56.687590625,44.4732796875Q56.264590625,44.2923796875,55.851890624999996,44.0928796875Q55.439190625,43.8934796875,55.037800625,43.6759796875Q54.636420625,43.4584796875,54.247330625000004,43.2233796875Q53.858240625,42.9883796875,53.482370625,42.736379687500005Q53.106500625,42.4842796875,52.744770625,42.2158796875Q52.383030625,41.9474796875,52.036300625,41.6633796875Q51.689560625,41.3792796875,51.358670625,41.0800796875Q51.027770625,40.7809796875,50.713510625,40.4674796875Q50.399250625,40.1539796875,50.102380625,39.826879687499996Q49.805510625,39.4998796875,49.526750625,39.1600796875Q49.247980625,38.820279687500005,48.988000625,38.4684796875Q48.728020625,38.116679687499996,48.487440625,37.7537796875Q48.246860625,37.390879687500004,48.026270625,37.017779687499996Q47.805670625,36.6446796875,47.605590625,36.2621796875Q47.405520625,35.879779687500005,47.226440625,35.4888796875Q47.047360625,35.0979796875,46.889710625,34.6996796875Q46.732056625,34.3012796875,46.596215625,33.896479687500005Q46.460374625,33.4915796875,46.346669625,33.0811796875Q46.232965625,32.6707796875,46.141670625,32.255779687499995Q46.050376625,31.8408796875,45.981713625,31.4223796875Q45.913049625,31.0038796875,45.867181725,30.5827796875Q45.821313825,30.1617796875,45.798352225,29.7391796875Q45.775390625,29.3166796875,45.775390625,28.8935796875Q45.775390625,28.4704796875,45.798352225,28.0478796875Q45.821313825,27.6253796875,45.867181725,27.204279687499998Q45.913049625,26.7832796875,45.981713625,26.3647796875Q46.050376625,25.946279687500002,46.141670625,25.5312796875Q46.232965625,25.1163796875,46.346669625,24.705979687499998Q46.460374625,24.295579687500002,46.596215625,23.8906796875Q46.732056625,23.4857796875,46.889710625,23.0874796875Q47.047360625,22.689079687499998,47.226440625,22.2982796875Q47.405520625,21.9073796875,47.605590625,21.5249096875Q47.805670625,21.142449687499997,48.026270625,20.7693296875Q48.246860625,20.3961996875,48.487440625,20.0333196875Q48.728020625,19.6704296875,48.988000625,19.3186496875Q49.247980625,18.9668696875,49.526750625,18.627049687499998Q49.805510625,18.2872296875,50.102380625,17.960179687500002Q50.399250625,17.633139687499998,50.713510625,17.3196596875Q51.027770625,17.006169687499998,51.358670625,16.7070096875Q51.689560625,16.4078496875,52.036300625,16.1237296875Q52.383030625,15.8395996875,52.744770625,15.5711996875Q53.106500625,15.3027996875,53.482370625,15.0507796875Q53.858240625,14.798749687499999,54.247330625000004,14.5636996875Q54.636420625,14.3286496875,55.037800625,14.1111396875Q55.439190625,13.893629687499999,55.851890624999996,13.6941896875Q56.264590625,13.4947496875,56.687590625,13.313859687499999Q57.110690625000004,13.1329696875,57.542990625,12.9710696875Q57.975290625,12.8091596875,58.415890625,12.6666296875Q58.856490625,12.5240996875,59.304290625,12.4012856875Q59.752190625,12.2784726875,60.206090625,12.1756726875Q60.659990625,12.0728726875,61.118990625,11.9903336875Q61.577990625,11.9077946875,62.040790625,11.8457156875Q62.503690625000004,11.7836366875,62.969390625,11.7421678875Q63.435190625000004,11.7006987875,63.902490625,11.6799392875Q64.369890625,11.6591796875,64.837890625,11.6591796875Q65.305890625,11.6591796875,65.773190625,11.6799392875Q66.240590625,11.7006987875,66.706390625,11.7421678875Q67.172090625,11.7836366875,67.634890625,11.8457156875Q68.097790625,11.9077946875,68.556790625,11.9903336875Q69.015790625,12.0728726875,69.469690625,12.1756726875Q69.923590625,12.2784726875,70.371390625,12.4012856875Q70.81929062500001,12.5240996875,71.259890625,12.6666296875Q71.700490625,12.8091596875,72.132790625,12.9710696875Q72.565090625,13.1329696875,72.988190625,13.313859687499999Q73.411190625,13.4947496875,73.823890625,13.6941896875Q74.236590625,13.893629687499999,74.637990625,14.1111396875Q75.039390625,14.3286496875,75.428490625,14.5636996875Q75.817490625,14.798749687499999,76.193390625,15.0507796875Q76.56929062500001,15.3027996875,76.93099062499999,15.5711996875Q77.292790625,15.8395996875,77.63949062500001,16.1237296875Q77.986190625,16.4078496875,78.31709062499999,16.7070096875Q78.647990625,17.006169687499998,78.96229062500001,17.3196596875Q79.27649062500001,17.633139687499998,79.573390625,17.960179687500002Q79.870290625,18.2872296875,80.14899062500001,18.627049687499998Q80.427790625,18.9668696875,80.68779062499999,19.3186496875Q80.94779062500001,19.6704296875,81.18829062500001,20.0333196875Q81.42889062500001,20.3961996875,81.649490625,20.7693296875Q81.870090625,21.142449687499997,82.07019062500001,21.5249096875Q82.270290625,21.9073796875,82.449290625,22.2982796875Q82.62839062500001,22.689079687499998,82.786090625,23.0874796875Q82.943690625,23.4857796875,83.07959062500001,23.8906796875Q83.215390625,24.295579687500002,83.32909062499999,24.705979687499998Q83.442790625,25.1163796875,83.534090625,25.5312796875Q83.625390625,25.946279687500002,83.694090625,26.3647796875Q83.762690625,26.7832796875,83.808590625,27.204279687499998Q83.854490625,27.6253796875,83.877390625,28.0478796875Q83.900390625,28.4704796875,83.900390625,28.8935796875Z" fill="#3FC7B2" fill-opacity="1"/></g></g><g><g><path d="M83.900390625,28.8935796875Q83.900390625,29.3166796875,83.877390625,29.7391796875Q83.854490625,30.1617796875,83.808590625,30.5827796875Q83.762690625,31.0038796875,83.694090625,31.4223796875Q83.625390625,31.8408796875,83.534090625,32.255779687499995Q83.442790625,32.6707796875,83.32909062499999,33.0811796875Q83.215390625,33.4915796875,83.07959062500001,33.896479687500005Q82.943690625,34.3012796875,82.786090625,34.6996796875Q82.62839062500001,35.0979796875,82.449290625,35.4888796875Q82.270290625,35.879779687500005,82.07019062500001,36.2621796875Q81.870090625,36.6446796875,81.649490625,37.017779687499996Q81.42889062500001,37.390879687500004,81.18829062500001,37.7537796875Q80.94779062500001,38.116679687499996,80.68779062499999,38.4684796875Q80.427790625,38.820279687500005,80.14899062500001,39.1600796875Q79.870290625,39.4998796875,79.573390625,39.826879687499996Q79.27649062500001,40.1539796875,78.96229062500001,40.4674796875Q78.647990625,40.7809796875,78.31709062499999,41.0800796875Q77.986190625,41.3792796875,77.63949062500001,41.6633796875Q77.292790625,41.9474796875,76.93099062499999,42.2158796875Q76.56929062500001,42.4842796875,76.193390625,42.736379687500005Q75.817490625,42.9883796875,75.428490625,43.2233796875Q75.039390625,43.4584796875,74.637990625,43.6759796875Q74.236590625,43.8934796875,73.823890625,44.0928796875Q73.411190625,44.2923796875,72.988190625,44.4732796875Q72.565090625,44.6541796875,72.132790625,44.8160796875Q71.700490625,44.9779796875,71.259890625,45.1204796875Q70.81929062500001,45.2629796875,70.371390625,45.3857796875Q69.923590625,45.5086796875,69.469690625,45.6114796875Q69.015790625,45.7142796875,68.556790625,45.7967796875Q68.097790625,45.8792796875,67.634890625,45.9413796875Q67.172090625,46.0034796875,66.706390625,46.0449796875Q66.240590625,46.0863796875,65.773290625,46.1071796875Q65.305890625,46.1279796875,64.837890625,46.1279796875Q64.369890625,46.1279796875,63.902490625,46.1071796875Q63.435190625000004,46.0863796875,62.969390625,46.0449796875Q62.503690625000004,46.0034796875,62.040790625,45.9413796875Q61.577990625,45.8792796875,61.118990625,45.7967796875Q60.659990625,45.7142796875,60.206090625,45.6114796875Q59.752190625,45.5086796875,59.304290625,45.3857796875Q58.856490625,45.2629796875,58.415890625,45.1204796875Q57.975290625,44.9779796875,57.542990625,44.8160796875Q57.110690625000004,44.6541796875,56.687590625,44.4732796875Q56.264590625,44.2923796875,55.851890624999996,44.0928796875Q55.439190625,43.8934796875,55.037800625,43.6759796875Q54.636420625,43.4584796875,54.247330625000004,43.2233796875Q53.858240625,42.9883796875,53.482370625,42.736379687500005Q53.106500625,42.4842796875,52.744770625,42.2158796875Q52.383030625,41.9474796875,52.036300625,41.6633796875Q51.689560625,41.3792796875,51.358670625,41.0800796875Q51.027770625,40.7809796875,50.713510625,40.4674796875Q50.399250625,40.1539796875,50.102380625,39.826879687499996Q49.805510625,39.4998796875,49.526750625,39.1600796875Q49.247980625,38.820279687500005,48.988000625,38.4684796875Q48.728020625,38.116679687499996,48.487440625,37.7537796875Q48.246860625,37.390879687500004,48.026270625,37.017779687499996Q47.805670625,36.6446796875,47.605590625,36.2621796875Q47.405520625,35.879779687500005,47.226440625,35.4888796875Q47.047360625,35.0979796875,46.889710625,34.6996796875Q46.732056625,34.3012796875,46.596215625,33.896479687500005Q46.460374625,33.4915796875,46.346669625,33.0811796875Q46.232965625,32.6707796875,46.141670625,32.255779687499995Q46.050376625,31.8408796875,45.981713625,31.4223796875Q45.913049625,31.0038796875,45.867181725,30.5827796875Q45.821313825,30.1617796875,45.798352225,29.7391796875Q45.775390625,29.3166796875,45.775390625,28.8935796875Q45.775390625,28.4704796875,45.798352225,28.0478796875Q45.821313825,27.6253796875,45.867181725,27.204279687499998Q45.913049625,26.7832796875,45.981713625,26.3647796875Q46.050376625,25.946279687500002,46.141670625,25.5312796875Q46.232965625,25.1163796875,46.346669625,24.705979687499998Q46.460374625,24.295579687500002,46.596215625,23.8906796875Q46.732056625,23.4857796875,46.889710625,23.0874796875Q47.047360625,22.689079687499998,47.226440625,22.2982796875Q47.405520625,21.9073796875,47.605590625,21.5249096875Q47.805670625,21.142449687499997,48.026270625,20.7693296875Q48.246860625,20.3961996875,48.487440625,20.0333196875Q48.728020625,19.6704296875,48.988000625,19.3186496875Q49.247980625,18.9668696875,49.526750625,18.627049687499998Q49.805510625,18.2872296875,50.102380625,17.960179687500002Q50.399250625,17.633139687499998,50.713510625,17.3196596875Q51.027770625,17.006169687499998,51.358670625,16.7070096875Q51.689560625,16.4078496875,52.036300625,16.1237296875Q52.383030625,15.8395996875,52.744770625,15.5711996875Q53.106500625,15.3027996875,53.482370625,15.0507796875Q53.858240625,14.798749687499999,54.247330625000004,14.5636996875Q54.636420625,14.3286496875,55.037800625,14.1111396875Q55.439190625,13.893629687499999,55.851890624999996,13.6941896875Q56.264590625,13.4947496875,56.687590625,13.313859687499999Q57.110690625000004,13.1329696875,57.542990625,12.9710696875Q57.975290625,12.8091596875,58.415890625,12.6666296875Q58.856490625,12.5240996875,59.304290625,12.4012856875Q59.752190625,12.2784726875,60.206090625,12.1756726875Q60.659990625,12.0728726875,61.118990625,11.9903336875Q61.577990625,11.9077946875,62.040790625,11.8457156875Q62.503690625000004,11.7836366875,62.969390625,11.7421678875Q63.435190625000004,11.7006987875,63.902490625,11.6799392875Q64.369890625,11.6591796875,64.837890625,11.6591796875Q65.305890625,11.6591796875,65.773190625,11.6799392875Q66.240590625,11.7006987875,66.706390625,11.7421678875Q67.172090625,11.7836366875,67.634890625,11.8457156875Q68.097790625,11.9077946875,68.556790625,11.9903336875Q69.015790625,12.0728726875,69.469690625,12.1756726875Q69.923590625,12.2784726875,70.371390625,12.4012856875Q70.81929062500001,12.5240996875,71.259890625,12.6666296875Q71.700490625,12.8091596875,72.132790625,12.9710696875Q72.565090625,13.1329696875,72.988190625,13.313859687499999Q73.411190625,13.4947496875,73.823890625,13.6941896875Q74.236590625,13.893629687499999,74.637990625,14.1111396875Q75.039390625,14.3286496875,75.428490625,14.5636996875Q75.817490625,14.798749687499999,76.193390625,15.0507796875Q76.56929062500001,15.3027996875,76.93099062499999,15.5711996875Q77.292790625,15.8395996875,77.63949062500001,16.1237296875Q77.986190625,16.4078496875,78.31709062499999,16.7070096875Q78.647990625,17.006169687499998,78.96229062500001,17.3196596875Q79.27649062500001,17.633139687499998,79.573390625,17.960179687500002Q79.870290625,18.2872296875,80.14899062500001,18.627049687499998Q80.427790625,18.9668696875,80.68779062499999,19.3186496875Q80.94779062500001,19.6704296875,81.18829062500001,20.0333196875Q81.42889062500001,20.3961996875,81.649490625,20.7693296875Q81.870090625,21.142449687499997,82.07019062500001,21.5249096875Q82.270290625,21.9073796875,82.449290625,22.2982796875Q82.62839062500001,22.689079687499998,82.786090625,23.0874796875Q82.943690625,23.4857796875,83.07959062500001,23.8906796875Q83.215390625,24.295579687500002,83.32909062499999,24.705979687499998Q83.442790625,25.1163796875,83.534090625,25.5312796875Q83.625390625,25.946279687500002,83.694090625,26.3647796875Q83.762690625,26.7832796875,83.808590625,27.204279687499998Q83.854490625,27.6253796875,83.877390625,28.0478796875Q83.900390625,28.4704796875,83.900390625,28.8935796875Z" fill="url(#master_svgc_25_01048)" fill-opacity="1"/></g></g><g><g><path d="M56.7479026875,29.227573515625L66.7322296875,24.762721515625C67.3123296875,24.502958515625,67.99202968750001,24.764676515625,68.2498296875,25.348659515625C68.5096296875,25.930693515625,68.2479296875,26.614283515625,67.6678296875,26.874053515625L57.6834496875,31.338893515625C57.1033696875,31.598663515625,56.4236836875,31.336943515625002,56.1658696875,30.752963515624998C55.9061066875,30.170923515625,56.1678246875,29.487333515625,56.7479026875,29.227573515625Z" fill-rule="evenodd" fill="#FFFFFF" fill-opacity="0.5501589775085449"/></g></g><g><g><path d="M59.2225120625,34.338890390625L72.8846390625,28.229518390625C73.4647390625,27.969755390625,74.1443390625,28.231473390625,74.40413906250001,28.815456390625C74.6619390625,29.397490390625,74.4002390625,30.081080390625,73.8201390625,30.340850390625L60.1580590625,36.450220390625C59.5779790625,36.709990390625,58.8982930625,36.448270390625,58.6404790625,35.864280390625C58.3807100625,35.282260390625,58.6424340625,34.598660390625,59.2225120625,34.338890390625Z" fill-rule="evenodd" fill="#FFFFFF" fill-opacity="0.5501589775085449"/></g></g><g><g><path d="M64.837890625,11.6591796875C75.365190625,11.6591796875,83.900390625,19.3740196875,83.900390625,28.8935796875C83.900390625,29.5400796875,83.86129062500001,30.1786796875,83.783190625,30.8075796875C82.730490625,22.1904796875,74.650390625,15.4873096875,64.837890625,15.4873096875C55.025390625,15.4873096875,46.945310625,22.1904796875,45.890624625,30.8075796875C45.814449525,30.1786796875,45.775390625,29.5400796875,45.775390625,28.8935796875C45.775390625,19.3740196875,54.310540625,11.6591796875,64.837890625,11.6591796875Z" fill-rule="evenodd" fill="#8C96A4" fill-opacity="1"/></g></g><g><g><path d="M6.386745775,53.2602359375Q7.060459875,53.1008359375,7.702266875,52.8860359375L7.923026875,53.5454359375Q7.251273875,53.7703359375,6.546847975,53.936935937499996L6.386745775,53.2602359375ZM10.180226874999999,51.779835937499996Q11.374896875000001,51.0956359375,12.370996875,50.1958359375L12.837126875,50.7118359375Q11.785446875,51.6618359375,10.525816875,52.383235937500004L10.180226874999999,51.779835937499996ZM14.152106875000001,48.1724359375Q14.954156875,47.0087359375,15.370586875,45.784965937500004L16.028896875,46.0089359375Q15.581416875,47.3240359375,14.724676875,48.5671359375L14.152106875000001,48.1724359375ZM15.718936875,43.1975359375Q15.559686875,41.8633459375,14.655006875,41.4455359375Q14.548606875,41.3963059375,14.430366875,41.3552859375L14.658276875,40.6983159375Q14.809226875,40.7506759375,14.946556875,40.8142259375Q16.204096874999998,41.3949959375,16.409416874999998,43.1151159375L15.718936875,43.1975359375ZM11.844146875,41.2796759375Q10.390566875000001,41.5478959375,9.381926875,42.2194559375L8.996536875,41.6406359375Q10.124006875,40.8899659375,11.717966875,40.5958359375L11.844146875,41.2796759375ZM8.521276875,44.079825937500004Q8.933246875,44.8768159375,10.517306875,45.6269159375L10.219696875,46.255435937499996Q8.423366875,45.4047759375,7.903536875,44.3991359375L8.521276875,44.079825937500004ZM13.072266875,46.5143359375Q14.440226875,46.7980359375,15.709396875,46.592335937499996L15.820686875,47.2787359375Q14.424766875,47.5050359375,12.931066874999999,47.1952359375L13.072266875,46.5143359375ZM18.181596875,45.6755259375Q19.254996875,45.0361459375,20.256296875,43.9882459375L20.758996875,44.4686259375Q19.692396875,45.5850559375,18.537496875000002,46.2729359375L18.181596875,45.6755259375ZM21.943196874999998,41.8561659375Q22.655696875,40.7901359375,23.325196875,39.4897759375L23.943496875,39.8080759375Q23.255896875,41.1436259375,22.521296875,42.2426159375L21.943196874999998,41.8561659375ZM24.483896875,36.9863459375Q24.745396875,36.3608969375,24.999396875,35.6953799375L25.649096875,35.9432919375Q25.391196875,36.619082937499996,25.125496875,37.2545659375L24.483896875,36.9863459375Z" fill="#A4AFBE" fill-opacity="0.5"/></g></g><g><g><path d="M102.375034825,21.9751234375Q103.068030125,21.8112234375,103.734338125,21.6003234375L103.944138125,22.2633234375Q103.253236125,22.4819234375,102.535121425,22.6518234375L102.375034825,21.9751234375ZM106.308068125,20.5601234375Q107.572558125,19.9271234375,108.685488125,19.1067234375L109.098108125,19.6664234375Q107.937168125,20.5223234375,106.619328125,21.1819234375L106.308068125,20.5601234375ZM110.762698125,17.2661234375Q111.730958125,16.2351234375,112.454528125,15.0758234375L113.044478125,15.4439234375Q112.284678125,16.6612234375,111.269608125,17.7422234375L110.762698125,17.2661234375ZM113.648678125,12.5874234375Q114.134178125,11.1593234375,114.123078125,9.9111134375L114.818378125,9.9049334375Q114.830578125,11.2713234375,114.306978125,12.8112234375L113.648678125,12.5874234375ZM113.335478125,7.5178434375Q113.063978125,7.2322434375,112.709678125,7.0685734375Q112.004718125,6.7426134375,110.960898125,6.7081134375L110.983868125,6.0131034375Q112.168598125,6.0522634375,113.001278125,6.4372834375Q113.476378125,6.6567434375,113.839478125,7.0387734375L113.335478125,7.5178434375ZM108.254158125,7.0638634375Q106.766878125,7.4848734375,105.803678125,8.2105734375L105.385238125,7.6551834375Q106.452318125,6.8512134375,108.064758125,6.3947734375L108.254158125,7.0638634375ZM104.840738125,10.2389234375Q105.144508125,11.1438234375,106.657218125,12.0181234375L106.309238125,12.6202234375Q104.568948125,11.6143234375,104.181508125,10.4602234375L104.840738125,10.2389234375ZM109.198768125,13.1440234375Q110.579558125,13.6245234375,111.884388125,13.7325234375L111.827028125,14.4255234375Q110.434308125,14.3102234375,108.970218125,13.8007234375L109.198768125,13.1440234375ZM114.595778125,13.5364234375Q115.895278125,13.2280234375,117.117578125,12.5002234375L117.473378125,13.0976234375Q116.159578125,13.8800234375,114.756278125,14.2130234375L114.595778125,13.5364234375ZM119.297678125,10.8101234375Q120.237178125,9.9027534375,121.12607812499999,8.7168734375L121.68257812499999,9.1339534375Q120.760278125,10.3643234375,119.780778125,11.3103234375L119.297678125,10.8101234375ZM122.667078125,6.3873934375Q123.348478125,5.2296434375,123.996178125,3.8911134375L124.622078125,4.1940034375Q123.962078125,5.5579634375,123.266278125,6.7401134375L122.667078125,6.3873934375ZM125.13767812500001,1.3280534375Q125.403678125,0.6809054375,125.663478125,0.00008043750000000238L126.31317812500001,0.2479664375Q126.050278125,0.9370084375,125.780878125,1.5924134375L125.13767812500001,1.3280534375Z" fill="#A4AFBE" fill-opacity="0.5"/></g></g><g><g><path d="M0,70.30372376953125C1.39844,70.28614376953125,2.77148,69.86818376953126,4.11914,69.04786476953124C6.14258,67.81934076953125,7.61524,71.75684376953124,4.11914,71.75684376953124C1.78906,71.75684376953124,0.416017,71.27247376953125,0,70.30372376953125Z" fill-rule="evenodd" fill="#D7DBE1" fill-opacity="0.699999988079071"/></g></g><g><g><path d="M102.670338125,100.2466698125Q101.447288125,101.2109428125,99.161135225,101.7590128125Q99.127834225,101.7670028125,99.093615525,101.7683328125Q99.059396925,101.7696628125,99.025575625,101.7643028125Q98.991754425,101.7589328125,98.959630125,101.7470628125Q98.927506125,101.7352028125,98.898313125,101.7173028125Q98.869121125,101.6994028125,98.843982125,101.6761428125Q98.818843125,101.6528928125,98.798723125,101.6251828125Q98.778604125,101.5974728125,98.764277125,101.5663628125Q98.749950125,101.5352628125,98.741967125,101.5019628125Q98.733984125,101.4686628125,98.732650125,101.4344428125Q98.731317125,101.4002228125,98.736685125,101.3664028125Q98.742053125,101.3325828125,98.753916125,101.3004528125Q98.765779125,101.2683328125,98.783681125,101.2391428125Q98.801584125,101.2099428125,98.824837125,101.1848128125Q98.848091125,101.1596728125,98.875802125,101.1395528125Q98.903513125,101.1194328125,98.934616125,101.1051028125Q98.965720125,101.0907728125,98.999021025,101.0827928125Q101.136678125,100.5703228125,102.239808125,99.7005958125Q102.266698125,99.6793938125,102.297208125,99.6638458125Q102.327718125,99.6482978125,102.360678125,99.6389998125Q102.393638125,99.6297028125,102.427778125,99.6270148125Q102.461908125,99.6243258125,102.495918125,99.6283498125Q102.529928125,99.6323728125,102.562498125,99.6429528125Q102.595068125,99.6535338125,102.624948125,99.6702648125Q102.654828125,99.6869958125,102.680868125,99.7092348125Q102.706908125,99.7314728125,102.728108125,99.7583648125Q102.749308125,99.7852568125,102.764858125,99.8157678125Q102.780408125,99.8462798125,102.789708125,99.8792380125Q102.798998125,99.9121965125,102.801688125,99.9463354125Q102.804378125,99.9804742925,102.800358125,100.0144817125Q102.796328125,100.0484892125,102.785748125,100.0810588125Q102.775168125,100.1136278125,102.758438125,100.1435068125Q102.741708125,100.1733858125,102.719468125,100.1994268125Q102.697228125,100.2254678125,102.670338125,100.2466698125ZM102.805068125,99.9736328125Q102.805068125,100.0081048125,102.798348125,100.0419144125Q102.791618125,100.0757238125,102.778428125,100.1075718125Q102.765238125,100.1394198125,102.746088125,100.1680828125Q102.726938125,100.1967448125,102.702558125,100.2211198125Q102.678188125,100.2454958125,102.649518125,100.2646468125Q102.620858125,100.2837988125,102.589008125,100.2969908125Q102.557158125,100.3101828125,102.523358125,100.3169078125Q102.489548125,100.3236328125,102.455068125,100.3236328125Q102.420598125,100.3236328125,102.386788125,100.3169078125Q102.35297812499999,100.3101828125,102.321128125,100.2969908125Q102.289288125,100.2837988125,102.260618125,100.2646468125Q102.231958125,100.2454958125,102.207588125,100.2211198125Q102.183208125,100.1967448125,102.164058125,100.1680828125Q102.144908125,100.1394198125,102.131718125,100.1075718125Q102.118518125,100.0757238125,102.111798125,100.0419144125Q102.105068125,100.0081048125,102.105068125,99.9736328125Q102.105068125,99.9391608125,102.111798125,99.9053512125Q102.118518125,99.8715418125,102.131718125,99.8396938125Q102.144908125,99.8078458125,102.164058125,99.7791828125Q102.183208125,99.7505208125,102.207588125,99.7261458125Q102.231958125,99.7017698125,102.260618125,99.6826188125Q102.289288125,99.6634668125,102.321128125,99.6502748125Q102.35297812499999,99.6370828125,102.386788125,99.6303578125Q102.420598125,99.6236328125,102.455068125,99.6236328125Q102.489548125,99.6236328125,102.523358125,99.6303578125Q102.557158125,99.6370828125,102.589008125,99.6502748125Q102.620858125,99.6634668125,102.649518125,99.6826188125Q102.678188125,99.7017698125,102.702558125,99.7261458125Q102.726938125,99.7505208125,102.746088125,99.7791828125Q102.765238125,99.8078458125,102.778428125,99.8396938125Q102.791618125,99.8715418125,102.798348125,99.9053512125Q102.805068125,99.9391608125,102.805068125,99.9736328125ZM99.430078125,101.4209028125Q99.430078125,101.4553728125,99.423353125,101.4891828125Q99.416628125,101.52299281250001,99.403436125,101.5548428125Q99.390244125,101.5866928125,99.371092125,101.6153528125Q99.351941125,101.6440128125,99.327565125,101.6683928125Q99.303190125,101.6927628125,99.274528125,101.7119228125Q99.245865125,101.7310728125,99.214017125,101.7442628125Q99.182169125,101.7574528125,99.148359725,101.7641828125Q99.114550125,101.7709028125,99.080078125,101.7709028125Q99.045606125,101.7709028125,99.011796525,101.7641828125Q98.977987125,101.7574528125,98.946139125,101.7442628125Q98.914291125,101.7310728125,98.885628125,101.7119228125Q98.856966125,101.6927628125,98.832591125,101.6683928125Q98.808215125,101.6440128125,98.789064125,101.6153528125Q98.769912125,101.5866928125,98.756720125,101.5548428125Q98.743528125,101.52299281250001,98.736803125,101.4891828125Q98.730078125,101.4553728125,98.730078125,101.4209028125Q98.730078125,101.3864328125,98.736803125,101.3526228125Q98.743528125,101.3188128125,98.756720125,101.2869628125Q98.769912125,101.2551128125,98.789064125,101.2264528125Q98.808215125,101.1977928125,98.832591125,101.1734128125Q98.856966125,101.1490428125,98.885628125,101.1298928125Q98.914291125,101.1107428125,98.946139125,101.0975428125Q98.977987125,101.0843528125,99.011796525,101.0776328125Q99.045606125,101.0709028125,99.080078125,101.0709028125Q99.114550125,101.0709028125,99.148359725,101.0776328125Q99.182169125,101.0843528125,99.214017125,101.0975428125Q99.245865125,101.1107428125,99.274528125,101.1298928125Q99.303190125,101.1490428125,99.327565125,101.1734128125Q99.351941125,101.1977928125,99.371092125,101.2264528125Q99.390244125,101.2551128125,99.403436125,101.2869628125Q99.416628125,101.3188128125,99.423353125,101.3526228125Q99.430078125,101.3864328125,99.430078125,101.4209028125Z" fill="#D7DBE1" fill-opacity="1"/></g></g><g><g><path d="M87.984375,101.9404387109375C90.585925,101.9072387109375,93.138665,101.0849687109375,95.646485,99.4755987109375C99.408175,97.0595787109375,102.148475,104.7959087109375,95.646485,104.7959087109375C91.312495,104.7959087109375,88.757805,103.8447387109375,87.984375,101.9404387109375Z" fill-rule="evenodd" fill="#D7DBE1" fill-opacity="1"/></g></g></g></svg>