<svg width="190" height="189" viewBox="0 0 190 189" fill="none" xmlns="http://www.w3.org/2000/svg">
<g clip-path="url(#clip0_344_1224)">
<path d="M113.048 180.785C113.049 184.446 117.014 186.732 120.183 184.898L173.549 154.021C180.892 149.772 185.414 141.931 185.414 133.447V55.7827C185.414 47.3065 180.9 39.4716 173.567 35.2199L120.19 4.27005C117.02 2.43245 113.051 4.71916 113.051 8.38262V36.415C113.051 39.8043 114.855 42.9372 117.787 44.6384L143.553 59.591C147.217 61.7173 149.472 65.6331 149.472 69.8693L149.476 119.166C149.477 123.402 147.222 127.319 143.559 129.445L117.772 144.417C114.84 146.119 113.036 149.253 113.038 152.643L113.048 180.785Z" fill="#883FFF"/>
<path d="M77.2508 180.785C77.2494 184.446 73.2847 186.732 70.1161 184.898L16.7502 154.021C9.40679 149.772 4.88477 141.931 4.88477 133.447V55.7827C4.88477 47.3065 9.39855 39.4716 16.7313 35.2199L70.1093 4.27005C73.2785 2.43245 77.2477 4.71916 77.2477 8.38262V36.415C77.2477 39.8043 75.4436 42.9372 72.5122 44.6384L46.746 59.591C43.0821 61.7173 40.8269 65.6331 40.8266 69.8693L40.8225 119.166C40.8221 123.402 43.0766 127.319 46.7401 129.445L72.5272 144.417C75.4589 146.119 77.2626 149.253 77.2613 152.643L77.2508 180.785Z" fill="#883FFF"/>
<path d="M98.2208 54.8227C96.3748 53.749 94.0945 53.7484 92.248 54.8213L80.2052 61.8181C78.3745 62.8817 77.248 64.839 77.248 66.9562V121.968C77.248 124.087 78.377 126.046 80.2109 127.109L92.1906 134.052C94.0347 135.12 96.3098 135.12 98.1531 134.05L110.469 126.902C112.302 125.838 113.429 123.879 113.428 121.76L113.41 67.0732C113.409 64.9577 112.284 63.0021 110.455 61.9385L98.2208 54.8227Z" fill="#883FFF"/>
</g>
<defs>
<clipPath id="clip0_344_1224">
<rect width="190" height="189" fill="white"/>
</clipPath>
</defs>
</svg>
