<svg xmlns="http://www.w3.org/2000/svg" xmlns:xlink="http://www.w3.org/1999/xlink" fill="none" version="1.1" width="80" height="80" viewBox="0 0 80 80"><defs><linearGradient x1="0.9895104765892029" y1="0.9078947901725769" x2="0.03496502339839935" y2="-0.03947371244430542" id="master_svg0_25_0416"><stop offset="0%" stop-color="#08BBE4" stop-opacity="1"/><stop offset="100%" stop-color="#00DF9B" stop-opacity="1"/></linearGradient><clipPath id="master_svg1_25_64622"><rect x="0" y="0" width="80" height="80" rx="10"/></clipPath><linearGradient x1="0.9895104765892029" y1="0.9078947901725769" x2="0.03496502339839935" y2="-0.03947371244430542" id="master_svg2_25_0735"><stop offset="0%" stop-color="#08BBE4" stop-opacity="1"/><stop offset="100%" stop-color="#00DF9B" stop-opacity="1"/></linearGradient><linearGradient x1="0.9895104765892029" y1="0.9078947901725769" x2="0.03496502339839935" y2="-0.03947371244430542" id="master_svg3_25_0735"><stop offset="0%" stop-color="#08BBE4" stop-opacity="1"/><stop offset="100%" stop-color="#00DF9B" stop-opacity="1"/></linearGradient><linearGradient x1="0.9895104765892029" y1="0.9078947901725769" x2="0.03496502339839935" y2="-0.03947371244430542" id="master_svg4_25_0735"><stop offset="0%" stop-color="#08BBE4" stop-opacity="1"/><stop offset="100%" stop-color="#00DF9B" stop-opacity="1"/></linearGradient></defs><g clip-path="url(#master_svg1_25_64622)"><rect x="0" y="0" width="80" height="80" rx="10" fill="url(#master_svg0_25_0416)" fill-opacity="0.10000000149011612"/><g><ellipse cx="39.99967384338379" cy="48.00016212463379" rx="18.66666603088379" ry="18.66666603088379" fill-opacity="0" stroke-opacity="1" stroke="#FFFFFF" fill="none" stroke-width="4"/><ellipse cx="39.99967384338379" cy="48.00016212463379" rx="18.66666603088379" ry="18.66666603088379" stroke="url(#master_svg2_25_0735)" fill-opacity="0" fill="none" stroke-width="4"/></g><g><path d="M28.6669921875,32.00019609375L28.6669921875,22.66682609375Q28.6669921875,20.36239609375,29.5584421875,18.25477609375Q30.4188391875,16.22056609375,31.9864421875,14.65295609375Q33.5540521875,13.08534809375,35.5882621875,12.22494609375Q37.6958921875,11.33349609375,40.000322187500004,11.33349609375Q42.3047921875,11.33349609375,44.412392187500004,12.22494609375Q46.4465921875,13.08534609375,48.0141921875,14.65295609375Q49.5817921875,16.22056609375,50.4421921875,18.25477609375Q51.3336921875,20.36239609375,51.3336921875,22.66682609375L51.3336921875,32.00019609375L47.3336921875,32.00019609375L47.3336921875,22.66682609375Q47.3336921875,19.62926609375,45.1857921875,17.48137609375Q43.0378921875,15.33349609375,40.000322187500004,15.33349609375Q36.9627521875,15.33349609375,34.8148721875,17.48137609375Q32.6669921875,19.62926609375,32.6669921875,22.66682609375L32.6669921875,32.00019609375L28.6669921875,32.00019609375Z" fill="#FFFFFF" fill-opacity="1"/><path d="M28.6669921875,32.00019609375L28.6669921875,22.66682609375Q28.6669921875,20.36239609375,29.5584421875,18.25477609375Q30.4188391875,16.22056609375,31.9864421875,14.65295609375Q33.5540521875,13.08534809375,35.5882621875,12.22494609375Q37.6958921875,11.33349609375,40.000322187500004,11.33349609375Q42.3047921875,11.33349609375,44.412392187500004,12.22494609375Q46.4465921875,13.08534609375,48.0141921875,14.65295609375Q49.5817921875,16.22056609375,50.4421921875,18.25477609375Q51.3336921875,20.36239609375,51.3336921875,22.66682609375L51.3336921875,32.00019609375L47.3336921875,32.00019609375L47.3336921875,22.66682609375Q47.3336921875,19.62926609375,45.1857921875,17.48137609375Q43.0378921875,15.33349609375,40.000322187500004,15.33349609375Q36.9627521875,15.33349609375,34.8148721875,17.48137609375Q32.6669921875,19.62926609375,32.6669921875,22.66682609375L32.6669921875,32.00019609375L28.6669921875,32.00019609375Z" fill="url(#master_svg3_25_0735)" fill-opacity="1"/></g><g><path d="M38,53.33320390625L38,42.66650390625Q38,42.56825020625,38.00963,42.47046990625Q38.01926,42.37268890625,38.03843,42.27632290625Q38.0576,42.17995790625,38.08612,42.08593490625Q38.11464,41.99191190625,38.15224,41.90113690625Q38.18984,41.81036290625,38.23616,41.72371090625Q38.28247,41.63705390625,38.33706,41.55536390625Q38.39165,41.47366390625,38.45398,41.39771390625Q38.51631,41.32176390625,38.58579,41.25229390625Q38.65526,41.18281390625,38.73121,41.12048390625Q38.80716,41.05815390625,38.88886,41.00356390625Q38.97055,40.94897390625,39.057207,40.90266390625Q39.143859,40.85634390625,39.234633,40.81874390625Q39.325408,40.78114390625,39.419431,40.75262390625Q39.513454,40.72410390625,39.609819,40.70493390625Q39.706185,40.68576390625,39.803966,40.67613390625Q39.9017463,40.66650390625,40,40.66650390625Q40.0982537,40.66650390625,40.196034,40.67613390625Q40.293815,40.68576390625,40.390181,40.70493390625Q40.486546,40.72410390625,40.580569,40.75262390625Q40.674592,40.78114390625,40.765367,40.81874390625Q40.856141,40.85634390625,40.942793,40.90266390625Q41.02945,40.94897390625,41.11114,41.00356390625Q41.19284,41.05815390625,41.26879,41.12048390625Q41.34474,41.18281390625,41.41421,41.25229390625Q41.48369,41.32176390625,41.54602,41.39771390625Q41.60835,41.47366390625,41.66294,41.55536390625Q41.71753,41.63705390625,41.76384,41.72371090625Q41.81016,41.81036290625,41.84776,41.90113690625Q41.88536,41.99191190625,41.91388,42.08593490625Q41.9424,42.17995790625,41.96157,42.27632290625Q41.98074,42.37268890625,41.99037,42.47046990625Q42,42.56825020625,42,42.66650390625L42,53.33320390625Q42,53.43140390625,41.99037,53.529203906250004Q41.98074,53.627003906249996,41.96157,53.72330390625Q41.9424,53.81970390625,41.91388,53.91370390625Q41.88536,54.007803906250004,41.84776,54.09850390625Q41.81016,54.189303906250004,41.76384,54.27600390625Q41.71753,54.36260390625,41.66294,54.44430390625Q41.60835,54.52600390625,41.54602,54.60200390625Q41.48369,54.67790390625,41.41421,54.74740390625Q41.34474,54.81690390625,41.26879,54.87920390625Q41.19284,54.94150390625,41.11114,54.99610390625Q41.02945,55.05070390625,40.942793,55.09700390625Q40.856141,55.14330390625,40.765367,55.18090390625Q40.674592,55.21850390625,40.580569,55.24700390625Q40.486546,55.27560390625,40.390181,55.29470390625Q40.293815,55.31390390625,40.196034,55.32350390625Q40.0982537,55.33320390625,40,55.33320390625Q39.9017463,55.33320390625,39.803966,55.32350390625Q39.706185,55.31390390625,39.609819,55.29470390625Q39.513454,55.27560390625,39.419431,55.24700390625Q39.325408,55.21850390625,39.234633,55.18090390625Q39.143859,55.14330390625,39.057207,55.09700390625Q38.97055,55.05070390625,38.88886,54.99610390625Q38.80716,54.94150390625,38.73121,54.87920390625Q38.65526,54.81690390625,38.58579,54.74740390625Q38.51631,54.67790390625,38.45398,54.60200390625Q38.39165,54.52600390625,38.33706,54.44430390625Q38.28247,54.36260390625,38.23616,54.27600390625Q38.18984,54.189303906250004,38.15224,54.09850390625Q38.11464,54.007803906250004,38.08612,53.91370390625Q38.0576,53.81970390625,38.03843,53.72330390625Q38.01926,53.627003906249996,38.00963,53.529203906250004Q38,53.43140390625,38,53.33320390625ZM42,53.33320390625Q42,53.43140390625,41.99037,53.529203906250004Q41.98074,53.627003906249996,41.96157,53.72330390625Q41.9424,53.81970390625,41.91388,53.91370390625Q41.88536,54.007803906250004,41.84776,54.09850390625Q41.81016,54.189303906250004,41.76384,54.27600390625Q41.71753,54.36260390625,41.66294,54.44430390625Q41.60835,54.52600390625,41.54602,54.60200390625Q41.48369,54.67790390625,41.41421,54.74740390625Q41.34474,54.81690390625,41.26879,54.87920390625Q41.19284,54.94150390625,41.11114,54.99610390625Q41.02945,55.05070390625,40.942793,55.09700390625Q40.856141,55.14330390625,40.765367,55.18090390625Q40.674592,55.21850390625,40.580569,55.24700390625Q40.486546,55.27560390625,40.390181,55.29470390625Q40.293815,55.31390390625,40.196034,55.32350390625Q40.0982537,55.33320390625,40,55.33320390625Q39.9017463,55.33320390625,39.803966,55.32350390625Q39.706185,55.31390390625,39.609819,55.29470390625Q39.513454,55.27560390625,39.419431,55.24700390625Q39.325408,55.21850390625,39.234633,55.18090390625Q39.143859,55.14330390625,39.057207,55.09700390625Q38.97055,55.05070390625,38.88886,54.99610390625Q38.80716,54.94150390625,38.73121,54.87920390625Q38.65526,54.81690390625,38.58579,54.74740390625Q38.51631,54.67790390625,38.45398,54.60200390625Q38.39165,54.52600390625,38.33706,54.44430390625Q38.28247,54.36260390625,38.23616,54.27600390625Q38.18984,54.189303906250004,38.15224,54.09850390625Q38.11464,54.007803906250004,38.08612,53.91370390625Q38.0576,53.81970390625,38.03843,53.72330390625Q38.01926,53.627003906249996,38.00963,53.529203906250004Q38,53.43140390625,38,53.33320390625Q38,53.23490390625,38.00963,53.13710390625Q38.01926,53.03940390625,38.03843,52.94300390625Q38.0576,52.846603906249996,38.08612,52.75260390625Q38.11464,52.65857390625,38.15224,52.56780390625Q38.18984,52.47702390625,38.23616,52.39037390625Q38.28247,52.30372390625,38.33706,52.22203390625Q38.39165,52.14033390625,38.45398,52.06438390625Q38.51631,51.98843390625,38.58579,51.918953906249996Q38.65526,51.84948390625,38.73121,51.78715390625Q38.80716,51.72481390625,38.88886,51.67023390625Q38.97055,51.61564390625,39.057207,51.56932390625Q39.143859,51.52301390625,39.234633,51.48541390625Q39.325408,51.44781390625,39.419431,51.41929390625Q39.513454,51.39076390625,39.609819,51.37160390625Q39.706185,51.35243390625,39.803966,51.34280390625Q39.9017463,51.333173906249996,40,51.333173906249996Q40.0982537,51.333173906249996,40.196034,51.34280390625Q40.293815,51.35243390625,40.390181,51.37160390625Q40.486546,51.390773906250004,40.580569,51.41929390625Q40.674592,51.44781390625,40.765367,51.48541390625Q40.856141,51.52301390625,40.942793,51.56932390625Q41.02945,51.61564390625,41.11114,51.67023390625Q41.19284,51.72481390625,41.26879,51.78715390625Q41.34474,51.84948390625,41.41421,51.918953906249996Q41.48369,51.98843390625,41.54602,52.06438390625Q41.60835,52.14033390625,41.66294,52.22203390625Q41.71753,52.30372390625,41.76384,52.39037390625Q41.81016,52.47702390625,41.84776,52.56780390625Q41.88536,52.65857390625,41.91388,52.75260390625Q41.9424,52.846603906249996,41.96157,52.94300390625Q41.98074,53.03940390625,41.99037,53.13710390625Q42,53.23490390625,42,53.33320390625ZM42,42.66650390625Q42,42.76475760625,41.99037,42.86253790625Q41.98074,42.96031890625,41.96157,43.05668490625Q41.9424,43.15304990625,41.91388,43.24707290625Q41.88536,43.34109590625,41.84776,43.43187090625Q41.81016,43.52264490625,41.76384,43.60929690625Q41.71753,43.69595390625,41.66294,43.77764390625Q41.60835,43.85934390625,41.54602,43.93529390625Q41.48369,44.01124390625,41.41421,44.08071390625Q41.34474,44.15019390625,41.26879,44.21252390625Q41.19284,44.27485390625,41.11114,44.32944390625Q41.02945,44.38403390625,40.942793,44.43034390625Q40.856141,44.47666390625,40.765367,44.51426390625Q40.674592,44.55186390625,40.580569,44.58038390625Q40.486546,44.60890390625,40.390181,44.62807390625Q40.293815,44.64724390625,40.196034,44.65687390625Q40.0982537,44.66650390625,40,44.66650390625Q39.9017463,44.66650390625,39.803966,44.65687390625Q39.706185,44.64724390625,39.609819,44.62807390625Q39.513454,44.60890390625,39.419431,44.58038390625Q39.325408,44.55186390625,39.234633,44.51426390625Q39.143859,44.47666390625,39.057207,44.43034390625Q38.97055,44.38403390625,38.88886,44.32944390625Q38.80716,44.27485390625,38.73121,44.21252390625Q38.65526,44.15019390625,38.58579,44.08071390625Q38.51631,44.01124390625,38.45398,43.93529390625Q38.39165,43.85934390625,38.33706,43.77764390625Q38.28247,43.69595390625,38.23616,43.60929690625Q38.18984,43.52264490625,38.15224,43.43187090625Q38.11464,43.34109590625,38.08612,43.24707290625Q38.0576,43.15304990625,38.03843,43.05668490625Q38.01926,42.96031890625,38.00963,42.86253790625Q38,42.76475760625,38,42.66650390625Q38,42.56825020625,38.00963,42.47046990625Q38.01926,42.37268890625,38.03843,42.27632290625Q38.0576,42.17995790625,38.08612,42.08593490625Q38.11464,41.99191190625,38.15224,41.90113690625Q38.18984,41.81036290625,38.23616,41.72371090625Q38.28247,41.63705390625,38.33706,41.55536390625Q38.39165,41.47366390625,38.45398,41.39771390625Q38.51631,41.32176390625,38.58579,41.25229390625Q38.65526,41.18281390625,38.73121,41.12048390625Q38.80716,41.05815390625,38.88886,41.00356390625Q38.97055,40.94897390625,39.057207,40.90266390625Q39.143859,40.85634390625,39.234633,40.81874390625Q39.325408,40.78114390625,39.419431,40.75262390625Q39.513454,40.72410390625,39.609819,40.70493390625Q39.706185,40.68576390625,39.803966,40.67613390625Q39.9017463,40.66650390625,40,40.66650390625Q40.0982537,40.66650390625,40.196034,40.67613390625Q40.293815,40.68576390625,40.390181,40.70493390625Q40.486546,40.72410390625,40.580569,40.75262390625Q40.674592,40.78114390625,40.765367,40.81874390625Q40.856141,40.85634390625,40.942793,40.90266390625Q41.02945,40.94897390625,41.11114,41.00356390625Q41.19284,41.05815390625,41.26879,41.12048390625Q41.34474,41.18281390625,41.41421,41.25229390625Q41.48369,41.32176390625,41.54602,41.39771390625Q41.60835,41.47366390625,41.66294,41.55536390625Q41.71753,41.63705390625,41.76384,41.72371090625Q41.81016,41.81036290625,41.84776,41.90113690625Q41.88536,41.99191190625,41.91388,42.08593490625Q41.9424,42.17995790625,41.96157,42.27632290625Q41.98074,42.37268890625,41.99037,42.47046990625Q42,42.56825020625,42,42.66650390625Z" fill="#FFFFFF" fill-opacity="1"/><path d="M38,53.33320390625L38,42.66650390625Q38,42.56825020625,38.00963,42.47046990625Q38.01926,42.37268890625,38.03843,42.27632290625Q38.0576,42.17995790625,38.08612,42.08593490625Q38.11464,41.99191190625,38.15224,41.90113690625Q38.18984,41.81036290625,38.23616,41.72371090625Q38.28247,41.63705390625,38.33706,41.55536390625Q38.39165,41.47366390625,38.45398,41.39771390625Q38.51631,41.32176390625,38.58579,41.25229390625Q38.65526,41.18281390625,38.73121,41.12048390625Q38.80716,41.05815390625,38.88886,41.00356390625Q38.97055,40.94897390625,39.057207,40.90266390625Q39.143859,40.85634390625,39.234633,40.81874390625Q39.325408,40.78114390625,39.419431,40.75262390625Q39.513454,40.72410390625,39.609819,40.70493390625Q39.706185,40.68576390625,39.803966,40.67613390625Q39.9017463,40.66650390625,40,40.66650390625Q40.0982537,40.66650390625,40.196034,40.67613390625Q40.293815,40.68576390625,40.390181,40.70493390625Q40.486546,40.72410390625,40.580569,40.75262390625Q40.674592,40.78114390625,40.765367,40.81874390625Q40.856141,40.85634390625,40.942793,40.90266390625Q41.02945,40.94897390625,41.11114,41.00356390625Q41.19284,41.05815390625,41.26879,41.12048390625Q41.34474,41.18281390625,41.41421,41.25229390625Q41.48369,41.32176390625,41.54602,41.39771390625Q41.60835,41.47366390625,41.66294,41.55536390625Q41.71753,41.63705390625,41.76384,41.72371090625Q41.81016,41.81036290625,41.84776,41.90113690625Q41.88536,41.99191190625,41.91388,42.08593490625Q41.9424,42.17995790625,41.96157,42.27632290625Q41.98074,42.37268890625,41.99037,42.47046990625Q42,42.56825020625,42,42.66650390625L42,53.33320390625Q42,53.43140390625,41.99037,53.529203906250004Q41.98074,53.627003906249996,41.96157,53.72330390625Q41.9424,53.81970390625,41.91388,53.91370390625Q41.88536,54.007803906250004,41.84776,54.09850390625Q41.81016,54.189303906250004,41.76384,54.27600390625Q41.71753,54.36260390625,41.66294,54.44430390625Q41.60835,54.52600390625,41.54602,54.60200390625Q41.48369,54.67790390625,41.41421,54.74740390625Q41.34474,54.81690390625,41.26879,54.87920390625Q41.19284,54.94150390625,41.11114,54.99610390625Q41.02945,55.05070390625,40.942793,55.09700390625Q40.856141,55.14330390625,40.765367,55.18090390625Q40.674592,55.21850390625,40.580569,55.24700390625Q40.486546,55.27560390625,40.390181,55.29470390625Q40.293815,55.31390390625,40.196034,55.32350390625Q40.0982537,55.33320390625,40,55.33320390625Q39.9017463,55.33320390625,39.803966,55.32350390625Q39.706185,55.31390390625,39.609819,55.29470390625Q39.513454,55.27560390625,39.419431,55.24700390625Q39.325408,55.21850390625,39.234633,55.18090390625Q39.143859,55.14330390625,39.057207,55.09700390625Q38.97055,55.05070390625,38.88886,54.99610390625Q38.80716,54.94150390625,38.73121,54.87920390625Q38.65526,54.81690390625,38.58579,54.74740390625Q38.51631,54.67790390625,38.45398,54.60200390625Q38.39165,54.52600390625,38.33706,54.44430390625Q38.28247,54.36260390625,38.23616,54.27600390625Q38.18984,54.189303906250004,38.15224,54.09850390625Q38.11464,54.007803906250004,38.08612,53.91370390625Q38.0576,53.81970390625,38.03843,53.72330390625Q38.01926,53.627003906249996,38.00963,53.529203906250004Q38,53.43140390625,38,53.33320390625ZM42,53.33320390625Q42,53.43140390625,41.99037,53.529203906250004Q41.98074,53.627003906249996,41.96157,53.72330390625Q41.9424,53.81970390625,41.91388,53.91370390625Q41.88536,54.007803906250004,41.84776,54.09850390625Q41.81016,54.189303906250004,41.76384,54.27600390625Q41.71753,54.36260390625,41.66294,54.44430390625Q41.60835,54.52600390625,41.54602,54.60200390625Q41.48369,54.67790390625,41.41421,54.74740390625Q41.34474,54.81690390625,41.26879,54.87920390625Q41.19284,54.94150390625,41.11114,54.99610390625Q41.02945,55.05070390625,40.942793,55.09700390625Q40.856141,55.14330390625,40.765367,55.18090390625Q40.674592,55.21850390625,40.580569,55.24700390625Q40.486546,55.27560390625,40.390181,55.29470390625Q40.293815,55.31390390625,40.196034,55.32350390625Q40.0982537,55.33320390625,40,55.33320390625Q39.9017463,55.33320390625,39.803966,55.32350390625Q39.706185,55.31390390625,39.609819,55.29470390625Q39.513454,55.27560390625,39.419431,55.24700390625Q39.325408,55.21850390625,39.234633,55.18090390625Q39.143859,55.14330390625,39.057207,55.09700390625Q38.97055,55.05070390625,38.88886,54.99610390625Q38.80716,54.94150390625,38.73121,54.87920390625Q38.65526,54.81690390625,38.58579,54.74740390625Q38.51631,54.67790390625,38.45398,54.60200390625Q38.39165,54.52600390625,38.33706,54.44430390625Q38.28247,54.36260390625,38.23616,54.27600390625Q38.18984,54.189303906250004,38.15224,54.09850390625Q38.11464,54.007803906250004,38.08612,53.91370390625Q38.0576,53.81970390625,38.03843,53.72330390625Q38.01926,53.627003906249996,38.00963,53.529203906250004Q38,53.43140390625,38,53.33320390625Q38,53.23490390625,38.00963,53.13710390625Q38.01926,53.03940390625,38.03843,52.94300390625Q38.0576,52.846603906249996,38.08612,52.75260390625Q38.11464,52.65857390625,38.15224,52.56780390625Q38.18984,52.47702390625,38.23616,52.39037390625Q38.28247,52.30372390625,38.33706,52.22203390625Q38.39165,52.14033390625,38.45398,52.06438390625Q38.51631,51.98843390625,38.58579,51.918953906249996Q38.65526,51.84948390625,38.73121,51.78715390625Q38.80716,51.72481390625,38.88886,51.67023390625Q38.97055,51.61564390625,39.057207,51.56932390625Q39.143859,51.52301390625,39.234633,51.48541390625Q39.325408,51.44781390625,39.419431,51.41929390625Q39.513454,51.39076390625,39.609819,51.37160390625Q39.706185,51.35243390625,39.803966,51.34280390625Q39.9017463,51.333173906249996,40,51.333173906249996Q40.0982537,51.333173906249996,40.196034,51.34280390625Q40.293815,51.35243390625,40.390181,51.37160390625Q40.486546,51.390773906250004,40.580569,51.41929390625Q40.674592,51.44781390625,40.765367,51.48541390625Q40.856141,51.52301390625,40.942793,51.56932390625Q41.02945,51.61564390625,41.11114,51.67023390625Q41.19284,51.72481390625,41.26879,51.78715390625Q41.34474,51.84948390625,41.41421,51.918953906249996Q41.48369,51.98843390625,41.54602,52.06438390625Q41.60835,52.14033390625,41.66294,52.22203390625Q41.71753,52.30372390625,41.76384,52.39037390625Q41.81016,52.47702390625,41.84776,52.56780390625Q41.88536,52.65857390625,41.91388,52.75260390625Q41.9424,52.846603906249996,41.96157,52.94300390625Q41.98074,53.03940390625,41.99037,53.13710390625Q42,53.23490390625,42,53.33320390625ZM42,42.66650390625Q42,42.76475760625,41.99037,42.86253790625Q41.98074,42.96031890625,41.96157,43.05668490625Q41.9424,43.15304990625,41.91388,43.24707290625Q41.88536,43.34109590625,41.84776,43.43187090625Q41.81016,43.52264490625,41.76384,43.60929690625Q41.71753,43.69595390625,41.66294,43.77764390625Q41.60835,43.85934390625,41.54602,43.93529390625Q41.48369,44.01124390625,41.41421,44.08071390625Q41.34474,44.15019390625,41.26879,44.21252390625Q41.19284,44.27485390625,41.11114,44.32944390625Q41.02945,44.38403390625,40.942793,44.43034390625Q40.856141,44.47666390625,40.765367,44.51426390625Q40.674592,44.55186390625,40.580569,44.58038390625Q40.486546,44.60890390625,40.390181,44.62807390625Q40.293815,44.64724390625,40.196034,44.65687390625Q40.0982537,44.66650390625,40,44.66650390625Q39.9017463,44.66650390625,39.803966,44.65687390625Q39.706185,44.64724390625,39.609819,44.62807390625Q39.513454,44.60890390625,39.419431,44.58038390625Q39.325408,44.55186390625,39.234633,44.51426390625Q39.143859,44.47666390625,39.057207,44.43034390625Q38.97055,44.38403390625,38.88886,44.32944390625Q38.80716,44.27485390625,38.73121,44.21252390625Q38.65526,44.15019390625,38.58579,44.08071390625Q38.51631,44.01124390625,38.45398,43.93529390625Q38.39165,43.85934390625,38.33706,43.77764390625Q38.28247,43.69595390625,38.23616,43.60929690625Q38.18984,43.52264490625,38.15224,43.43187090625Q38.11464,43.34109590625,38.08612,43.24707290625Q38.0576,43.15304990625,38.03843,43.05668490625Q38.01926,42.96031890625,38.00963,42.86253790625Q38,42.76475760625,38,42.66650390625Q38,42.56825020625,38.00963,42.47046990625Q38.01926,42.37268890625,38.03843,42.27632290625Q38.0576,42.17995790625,38.08612,42.08593490625Q38.11464,41.99191190625,38.15224,41.90113690625Q38.18984,41.81036290625,38.23616,41.72371090625Q38.28247,41.63705390625,38.33706,41.55536390625Q38.39165,41.47366390625,38.45398,41.39771390625Q38.51631,41.32176390625,38.58579,41.25229390625Q38.65526,41.18281390625,38.73121,41.12048390625Q38.80716,41.05815390625,38.88886,41.00356390625Q38.97055,40.94897390625,39.057207,40.90266390625Q39.143859,40.85634390625,39.234633,40.81874390625Q39.325408,40.78114390625,39.419431,40.75262390625Q39.513454,40.72410390625,39.609819,40.70493390625Q39.706185,40.68576390625,39.803966,40.67613390625Q39.9017463,40.66650390625,40,40.66650390625Q40.0982537,40.66650390625,40.196034,40.67613390625Q40.293815,40.68576390625,40.390181,40.70493390625Q40.486546,40.72410390625,40.580569,40.75262390625Q40.674592,40.78114390625,40.765367,40.81874390625Q40.856141,40.85634390625,40.942793,40.90266390625Q41.02945,40.94897390625,41.11114,41.00356390625Q41.19284,41.05815390625,41.26879,41.12048390625Q41.34474,41.18281390625,41.41421,41.25229390625Q41.48369,41.32176390625,41.54602,41.39771390625Q41.60835,41.47366390625,41.66294,41.55536390625Q41.71753,41.63705390625,41.76384,41.72371090625Q41.81016,41.81036290625,41.84776,41.90113690625Q41.88536,41.99191190625,41.91388,42.08593490625Q41.9424,42.17995790625,41.96157,42.27632290625Q41.98074,42.37268890625,41.99037,42.47046990625Q42,42.56825020625,42,42.66650390625Z" fill="url(#master_svg4_25_0735)" fill-opacity="1"/></g></g></svg>