<svg xmlns="http://www.w3.org/2000/svg" xmlns:xlink="http://www.w3.org/1999/xlink" fill="none" version="1.1" width="286" height="284.856201171875" viewBox="0 0 286 284.856201171875"><defs><linearGradient x1="0.5" y1="0" x2="0.5" y2="1" id="master_svg0_25_83425"><stop offset="0%" stop-color="#004155" stop-opacity="1"/><stop offset="100%" stop-color="#001C55" stop-opacity="1"/></linearGradient><linearGradient x1="0.5" y1="0" x2="0.5" y2="1" id="master_svg1_25_88282"><stop offset="0%" stop-color="#560DF8" stop-opacity="1"/><stop offset="99.28571581840515%" stop-color="#F000B8" stop-opacity="1"/></linearGradient></defs><g style="mix-blend-mode:passthrough"><g><path d="M79.49576,171.034C78.667788,172.459,79.14368,174.284,80.56171,175.123L141.9111,211.426C142.85899999999998,211.987,144.03789999999998,211.983,144.9823,211.417L205.478,175.12099999999998C206.879,174.28,207.35,172.473,206.537,171.05599999999998L146.0342,65.50904C144.8856,63.505250000000004,141.9984,63.4966,140.83780000000002,65.49348L79.49576,171.034ZM91.1848,201.143C88.3457,199.478,85.2851,202.939,87.28434,205.553L141.0501,275.86199999999997C142.2558,277.43899999999996,144.6329,277.43100000000004,145.82819999999998,275.847L199.096,205.227C201.066,202.617,198.031,199.187,195.2,200.824L144.0626,230.386C143.128,230.927,141.9751,230.923,141.0437,230.377L91.1848,201.143Z" fill="url(#master_svg0_25_83425)" fill-opacity="1"/></g><g style="mix-blend-mode:passthrough"><path d="M124.95,284.856Q121.748,284.449,118.568,283.897Q115.388,283.346,112.236,282.652Q109.084,281.957,105.967,281.121Q102.849,280.286,99.7729,279.31Q96.6964,278.334,93.667,277.221Q90.6376,276.107,87.6616,274.858Q84.6855,273.609,81.7689,272.227Q78.8522,270.845,76.0009,269.333Q73.1495,267.821,70.3693,266.182Q67.5891,264.543,64.8857,262.78Q62.1822,261.017,59.5611,259.133Q56.94,257.25,54.4065,255.251Q51.873,253.251,49.4323,251.139Q46.9916,249.027,44.6487,246.808Q42.3057,244.588,40.0653,242.265Q37.8249,239.941,35.6916,237.519Q33.5583,235.097,31.5365,232.582Q29.5146,230.066,27.6083,227.462Q25.702,224.857,23.9152,222.169Q22.1283,219.482,20.4645,216.716Q18.8008,213.95,17.2635,211.113Q15.7262,208.275,14.3185,205.37Q12.9108,202.466,11.6355,199.501Q10.3603,196.536,9.22015,193.517Q8.07999,190.497,7.07721,187.43Q6.07443,184.362,5.21109,181.252Q4.34774,178.142,3.62558,174.996Q2.90342,171.851,2.32392,168.676Q1.74442,165.501,1.30876,162.303Q0.8731,159.105,0.582165,155.89Q0.291231,152.676,0.145615,149.452Q0,146.228,0,143Q0,139.49,0.17225,135.983Q0.344499,132.477,0.688584,128.984Q1.03267,125.49,1.54776,122.018Q2.06285,118.545,2.7477,115.102Q3.43256,111.659,4.28553,108.254Q5.1385,104.849,6.15753,101.489Q7.17656,98.13,8.3592,94.8247Q9.54183,91.5195,10.8852,88.2763Q12.2286,85.033,13.7295,81.8596Q15.2304,78.6862,16.8853,75.5903Q18.5401,72.4943,20.3448,69.4833Q22.1495,66.4723,24.0998,63.5535Q26.0501,60.6346,28.1413,57.815Q30.2325,54.9954,32.4595,52.2818Q34.6865,49.5681,37.044,46.9671Q39.4015,44.366,41.8837,41.8837Q44.366,39.4015,46.9671,37.044Q49.5681,34.6865,52.2818,32.4595Q54.9954,30.2325,57.815,28.1413Q60.6346,26.0501,63.5534,24.0998Q66.4723,22.1495,69.4833,20.3448Q72.4943,18.5401,75.5903,16.8853Q78.6862,15.2304,81.8596,13.7295Q85.033,12.2286,88.2763,10.8852Q91.5195,9.54183,94.8247,8.3592Q98.13,7.17656,101.489,6.15753Q104.849,5.1385,108.254,4.28553Q111.659,3.43256,115.102,2.7477Q118.545,2.06285,122.018,1.54776Q125.49,1.03267,128.984,0.688584Q132.477,0.344499,135.983,0.17225Q139.49,0,143,0Q146.51,0,150.017,0.17225Q153.523,0.344499,157.016,0.688584Q160.51,1.03267,163.982,1.54776Q167.455,2.06285,170.898,2.7477Q174.341,3.43256,177.746,4.28553Q181.151,5.1385,184.511,6.15753Q187.87,7.17656,191.175,8.3592Q194.48,9.54183,197.724,10.8852Q200.967,12.2286,204.14,13.7295Q207.314,15.2304,210.41,16.8853Q213.506,18.5401,216.517,20.3448Q219.528,22.1495,222.447,24.0998Q225.365,26.0501,228.185,28.1413Q231.005,30.2325,233.718,32.4595Q236.432,34.6865,239.033,37.044Q241.634,39.4015,244.116,41.8837Q246.599,44.366,248.956,46.9671Q251.313,49.5681,253.54,52.2818Q255.768,54.9954,257.859,57.815Q259.95,60.6346,261.9,63.5534Q263.85,66.4723,265.655,69.4833Q267.46,72.4943,269.115,75.5903Q270.77,78.6862,272.27,81.8596Q273.771,85.033,275.115,88.2763Q276.458,91.5195,277.641,94.8247Q278.823,98.13,279.842,101.489Q280.862,104.849,281.714,108.254Q282.567,111.659,283.252,115.102Q283.937,118.545,284.452,122.018Q284.967,125.49,285.311,128.984Q285.655,132.477,285.828,135.983Q286,139.49,286,143Q286,146.21,285.856,149.417Q285.712,152.623,285.424,155.821Q285.136,159.018,284.705,162.198Q284.274,165.379,283.701,168.538Q283.128,171.696,282.414,174.826Q281.699,177.955,280.845,181.049Q279.991,184.144,278.999,187.196Q278.007,190.249,276.879,193.254Q275.751,196.26,274.489,199.211Q273.227,202.163,271.834,205.055Q270.441,207.947,268.92,210.773Q267.398,213.6,265.752,216.355Q264.105,219.111,262.337,221.79Q260.568,224.468,258.681,227.065Q256.794,229.662,254.792,232.171Q252.79,234.681,250.678,237.098Q248.566,239.515,246.347,241.835Q244.129,244.155,241.808,246.373Q239.488,248.591,237.07,250.702Q234.653,252.814,232.143,254.815Q229.633,256.816,227.036,258.702Q224.438,260.589,221.759,262.357Q219.08,264.125,216.324,265.771Q213.568,267.416,210.741,268.937Q207.914,270.458,205.022,271.85Q202.13,273.242,199.178,274.503Q196.226,275.764,193.22,276.892Q190.215,278.019,187.162,279.01Q184.109,280.001,181.014,280.855Q177.92,281.708,174.79,282.422Q171.66,283.135,168.502,283.708Q165.343,284.28,162.162,284.71L217.561,212.607Q230.709,198.553,237.838,180.546Q245,162.456,245,143Q245,123.544,237.838,105.454Q230.062,85.8127,215.125,70.8751Q200.187,55.9376,180.546,48.1616Q162.456,41,143,41Q123.544,41,105.454,48.1616Q85.8127,55.9376,70.8751,70.8751Q55.9376,85.8127,48.1616,105.454Q41,123.544,41,143Q41,162.456,48.1616,180.546Q55.9376,200.187,70.8751,215.125Q71.8565,216.106,72.8581,217.057L124.95,284.856Z" fill-rule="evenodd" fill="url(#master_svg1_25_88282)" fill-opacity="1"/></g></g></svg>