<svg xmlns="http://www.w3.org/2000/svg" width="286" height="286" fill="none"><defs><linearGradient id="a" x1=".5" x2=".5" y1="0" y2="1"><stop offset="0%" stop-color="#24DD7B"/><stop offset="99.29%" stop-color="#0CADCB"/></linearGradient></defs><g style="mix-blend-mode:passthrough"><circle cx="143" cy="143" r="143" fill="#000" style="mix-blend-mode:passthrough"/><g style="mix-blend-mode:passthrough"><path fill="#FFF" d="M79.5 171.03a3 3 0 0 0 1.06 4.1l61.35 36.3a3 3 0 0 0 3.07-.01l60.5-36.3a3 3 0 0 0 1.06-4.06L146.04 65.5a3 3 0 0 0-5.2-.02L79.5 171.03zm11.68 30.11c-2.84-1.66-5.9 1.8-3.9 4.41l53.77 70.31a3 3 0 0 0 4.78-.01l53.27-70.62c1.97-2.61-1.07-6.04-3.9-4.4l-51.14 29.56a3 3 0 0 1-3.02-.01L91.2 201.14z"/><path fill="url(#a)" fill-rule="evenodd" d="M124.95 284.86q-3.2-.41-6.38-.96-3.18-.55-6.33-1.25-3.16-.7-6.27-1.53-3.12-.83-6.2-1.81-3.07-.98-6.1-2.09-3.03-1.11-6-2.36-2.98-1.25-5.9-2.63-2.92-1.38-5.77-2.9-2.85-1.5-5.63-3.15-2.78-1.64-5.48-3.4-2.7-1.76-5.33-3.65-2.62-1.88-5.15-3.88-2.54-2-4.98-4.11-2.44-2.11-4.78-4.33-2.34-2.22-4.59-4.54-2.24-2.33-4.37-4.75t-4.15-4.94q-2.02-2.51-3.93-5.12-1.9-2.6-3.7-5.3-1.78-2.68-3.45-5.44-1.66-2.77-3.2-5.6-1.53-2.85-2.94-5.75-1.4-2.9-2.69-5.87-1.27-2.96-2.41-5.98-1.14-3.02-2.14-6.09-1-3.07-1.87-6.18-.86-3.1-1.58-6.25-.73-3.15-1.3-6.32-.59-3.18-1.02-6.38-.44-3.2-.73-6.41t-.43-6.44Q0 146.23 0 143q0-3.51.17-7.02.17-3.5.52-7 .34-3.49.86-6.96.51-3.47 1.2-6.92.68-3.44 1.54-6.85t1.87-6.76q1.02-3.36 2.2-6.66 1.18-3.31 2.53-6.55 1.34-3.25 2.84-6.42 1.5-3.17 3.15-6.27 1.66-3.1 3.47-6.1 1.8-3.02 3.75-5.94 1.95-2.91 4.04-5.73 2.1-2.82 4.32-5.54 2.23-2.71 4.58-5.31 2.36-2.6 4.84-5.09 2.49-2.48 5.09-4.84 2.6-2.35 5.31-4.58 2.71-2.23 5.53-4.32 2.82-2.09 5.74-4.04 2.92-1.95 5.93-3.75 3.01-1.81 6.11-3.46t6.27-3.16q3.17-1.5 6.42-2.84 3.24-1.35 6.54-2.53 3.31-1.18 6.67-2.2 3.36-1.02 6.76-1.87 3.4-.86 6.85-1.54t6.92-1.2q3.47-.52 6.96-.86 3.5-.35 7-.52Q139.5 0 143 0t7.02.17q3.5.17 7 .52 3.49.34 6.96.86 3.48.51 6.92 1.2 3.44.68 6.85 1.54t6.76 1.87q3.36 1.02 6.67 2.2 3.3 1.18 6.54 2.53 3.25 1.34 6.42 2.84 3.17 1.5 6.27 3.15 3.1 1.66 6.1 3.47t5.94 3.75q2.92 1.95 5.74 4.04 2.82 2.1 5.53 4.32 2.71 2.23 5.31 4.58 2.6 2.36 5.09 4.84 2.48 2.49 4.84 5.09 2.35 2.6 4.58 5.31 2.23 2.71 4.32 5.53 2.09 2.82 4.04 5.74 1.95 2.92 3.75 5.93 1.81 3.01 3.46 6.11t3.16 6.27q1.5 3.17 2.84 6.42 1.35 3.24 2.53 6.54 1.18 3.31 2.2 6.67 1.02 3.36 1.87 6.76.86 3.4 1.54 6.85t1.2 6.92q.52 3.47.86 6.96.34 3.5.52 7 .17 3.51.17 7.02 0 3.21-.14 6.42-.15 3.2-.44 6.4-.28 3.2-.72 6.38-.43 3.18-1 6.34-.57 3.16-1.29 6.29-.71 3.13-1.57 6.22-.85 3.1-1.84 6.15-1 3.05-2.12 6.05-1.13 3.01-2.4 5.96-1.25 2.95-2.65 5.85-1.39 2.89-2.91 5.71-1.52 2.83-3.17 5.58-1.64 2.76-3.41 5.44-1.77 2.68-3.66 5.28-1.89 2.6-3.89 5.1-2 2.51-4.11 4.93t-4.33 4.73q-2.22 2.32-4.54 4.54t-4.74 4.33q-2.42 2.11-4.93 4.12-2.5 2-5.1 3.88-2.6 1.89-5.28 3.66-2.68 1.76-5.44 3.41-2.75 1.65-5.58 3.17t-5.72 2.91q-2.89 1.4-5.84 2.65-2.95 1.26-5.96 2.4-3 1.12-6.06 2.11-3.05 1-6.15 1.84-3.09.86-6.22 1.57-3.13.72-6.29 1.29-3.16.57-6.34 1l55.4-72.1q13.15-14.06 20.28-32.06Q245 162.45 245 143t-7.16-37.55q-7.78-19.64-22.72-34.57-14.93-14.94-34.57-22.72Q162.45 41 143 41t-37.55 7.16q-19.64 7.78-34.57 22.72-14.94 14.93-22.72 34.57Q41 123.55 41 143t7.16 37.55q7.78 19.64 22.72 34.57.98.99 1.98 1.94l52.09 67.8z" style="mix-blend-mode:passthrough"/></g></g></svg>