<svg xmlns="http://www.w3.org/2000/svg" xmlns:xlink="http://www.w3.org/1999/xlink" fill="none" version="1.1" width="250" height="200" viewBox="0 0 250 200"><defs><clipPath id="master_svg0_657_4084"><rect x="0" y="0" width="250" height="200" rx="0"/></clipPath></defs><g clip-path="url(#master_svg0_657_4084)"><g><path d="M70.5078,29.008594512939453C31.5676,29.008594512939453,0,60.79409451293945,0,99.99999451293945C0,139.20559451293946,31.5699,170.99159451293946,70.5078,170.99159451293946C109.446,170.99159451293946,141.016,139.20859451293944,141.016,99.99999451293945C141.016,60.791794512939454,109.45,29.008594512939453,70.5078,29.008594512939453ZM183.105,33.16718451293946C163.635,33.16718451293946,147.854,63.09649451293945,147.854,100.00119451293945C147.854,136.90559451293944,163.637,166.83759451293946,183.108,166.83759451293946C202.579,166.83759451293946,218.362,136.90759451293945,218.362,100.00119451293945L218.359,100.00119451293945C218.359,63.085894512939454,202.578,33.16719451293945,183.105,33.16718451293946L183.105,33.16718451293946ZM237.6,40.128494512939454C230.754,40.128494512939454,225.204,66.93629451293945,225.204,100.00119451293945C225.204,133.06559451293947,230.75,159.87359451293946,237.6,159.87359451293946C244.45,159.87359451293946,250,133.05859451293946,250,99.99999451293945C250,66.93399451293945,244.447,40.128494512939454,237.6,40.128494512939454L237.6,40.128494512939454Z" fill="#FFFFFF" fill-opacity="1"/></g></g></svg>