<svg xmlns="http://www.w3.org/2000/svg" xmlns:xlink="http://www.w3.org/1999/xlink" fill="none" version="1.1" width="80" height="80" viewBox="0 0 80 80"><defs><linearGradient x1="0.9895104765892029" y1="0.9078947901725769" x2="0.03496502339839935" y2="-0.03947371244430542" id="master_svg0_25_0416"><stop offset="0%" stop-color="#08BBE4" stop-opacity="1"/><stop offset="100%" stop-color="#00DF9B" stop-opacity="1"/></linearGradient><clipPath id="master_svg1_657_34864"><rect x="0" y="0" width="80" height="80" rx="10"/></clipPath><clipPath id="master_svg2_657_34865"><rect x="3.199951171875" y="3.199951171875" width="73.5999984741211" height="72" rx="0"/></clipPath><linearGradient x1="0.9895104765892029" y1="0.9078947901725769" x2="0.03496502339839935" y2="-0.03947371244430542" id="master_svg3_25_93208"><stop offset="0%" stop-color="#08BBE4" stop-opacity="1"/><stop offset="100%" stop-color="#00DF9B" stop-opacity="1"/></linearGradient><linearGradient x1="0.9895104765892029" y1="0.9078947901725769" x2="0.03496502339839935" y2="-0.03947371244430542" id="master_svg4_25_93208"><stop offset="0%" stop-color="#08BBE4" stop-opacity="1"/><stop offset="100%" stop-color="#00DF9B" stop-opacity="1"/></linearGradient></defs><g clip-path="url(#master_svg1_657_34864)"><rect x="0" y="0" width="80" height="80" rx="10" fill="url(#master_svg0_25_0416)" fill-opacity="0.10000000149011612"/><g clip-path="url(#master_svg2_657_34865)"><g><path d="M40.0789349609375,68.5484931640625C38.7636349609375,68.5484931640625,37.4483349609375,68.2390931640625,36.240834960937505,67.6202931640625C28.7658349609375,63.7671931640625,16.2308349609375,55.8218931640625,16.2308349609375,45.8796931640625L16.2308349609375,24.4273931640625C16.2308349609375,23.0421931640625,17.3520849609375,21.910183164062502,18.7608349609375,21.8679931640625C24.1298949609375,21.6922131640625,29.1683349609375,19.2523731640625,32.568034960937496,15.1601831640625C34.1420349609375,13.2758031640625,36.5283349609375,12.1929931640625,39.1230349609375,12.1929931640625L39.856134960937496,12.1929931640625C42.2855349609375,12.1929931640625,44.6070349609375,13.296903164062499,46.2170349609375,15.2164331640625C49.7892349609375,19.4773731640625,55.0864349609375,21.875023164062497,60.7358349609375,21.875023164062497C60.8724349609375,21.875023164062497,61.0089349609375,21.875023164062497,61.1455349609375,21.8679931640625C61.8714349609375,21.8187731640625,62.5758349609375,22.071903164062498,63.1005349609375,22.5570931640625C63.6252349609375,23.0421931640625,63.9270349609375,23.7171931640625,63.9270349609375,24.4202931640625L63.9270349609375,45.8796931640625C63.9270349609375,55.8218931640625,51.3920349609375,63.7671931640625,43.9170349609375,67.6202931640625C42.7167349609375,68.2390931640625,41.394234960937496,68.5484931640625,40.0789349609375,68.5484931640625ZM21.4705249609375,26.7757931640625L21.4705249609375,45.8796931640625C21.4705249609375,53.6140931640625,34.6452349609375,61.0038931640625,38.6846349609375,63.0851931640625C39.5542349609375,63.5351931640625,40.6036349609375,63.5351931640625,41.480534960937504,63.0851931640625C45.5127349609375,61.0038931640625,58.6874349609375,53.6140931640625,58.6874349609375,45.8796931640625L58.6874349609375,26.9304931640625C52.2402349609375,26.431293164062502,46.303334960937505,23.4077931640625,42.163334960937505,18.4719031640625C41.552434960937504,17.7406531640625,40.711434960937495,17.3258031640625,39.856134960937496,17.3258031640625L39.1230349609375,17.3258031640625C38.123934960937504,17.3258031640625,37.1895349609375,17.7265831640625,36.6289349609375,18.4015831640625C32.8124349609375,22.9859931640625,27.3858349609375,25.960193164062503,21.4705249609375,26.7757931640625Z" fill="#040000" fill-opacity="1"/><path d="M40.0789349609375,68.5484931640625C38.7636349609375,68.5484931640625,37.4483349609375,68.2390931640625,36.240834960937505,67.6202931640625C28.7658349609375,63.7671931640625,16.2308349609375,55.8218931640625,16.2308349609375,45.8796931640625L16.2308349609375,24.4273931640625C16.2308349609375,23.0421931640625,17.3520849609375,21.910183164062502,18.7608349609375,21.8679931640625C24.1298949609375,21.6922131640625,29.1683349609375,19.2523731640625,32.568034960937496,15.1601831640625C34.1420349609375,13.2758031640625,36.5283349609375,12.1929931640625,39.1230349609375,12.1929931640625L39.856134960937496,12.1929931640625C42.2855349609375,12.1929931640625,44.6070349609375,13.296903164062499,46.2170349609375,15.2164331640625C49.7892349609375,19.4773731640625,55.0864349609375,21.875023164062497,60.7358349609375,21.875023164062497C60.8724349609375,21.875023164062497,61.0089349609375,21.875023164062497,61.1455349609375,21.8679931640625C61.8714349609375,21.8187731640625,62.5758349609375,22.071903164062498,63.1005349609375,22.5570931640625C63.6252349609375,23.0421931640625,63.9270349609375,23.7171931640625,63.9270349609375,24.4202931640625L63.9270349609375,45.8796931640625C63.9270349609375,55.8218931640625,51.3920349609375,63.7671931640625,43.9170349609375,67.6202931640625C42.7167349609375,68.2390931640625,41.394234960937496,68.5484931640625,40.0789349609375,68.5484931640625ZM21.4705249609375,26.7757931640625L21.4705249609375,45.8796931640625C21.4705249609375,53.6140931640625,34.6452349609375,61.0038931640625,38.6846349609375,63.0851931640625C39.5542349609375,63.5351931640625,40.6036349609375,63.5351931640625,41.480534960937504,63.0851931640625C45.5127349609375,61.0038931640625,58.6874349609375,53.6140931640625,58.6874349609375,45.8796931640625L58.6874349609375,26.9304931640625C52.2402349609375,26.431293164062502,46.303334960937505,23.4077931640625,42.163334960937505,18.4719031640625C41.552434960937504,17.7406531640625,40.711434960937495,17.3258031640625,39.856134960937496,17.3258031640625L39.1230349609375,17.3258031640625C38.123934960937504,17.3258031640625,37.1895349609375,17.7265831640625,36.6289349609375,18.4015831640625C32.8124349609375,22.9859931640625,27.3858349609375,25.960193164062503,21.4705249609375,26.7757931640625Z" fill="url(#master_svg3_25_93208)" fill-opacity="1"/></g><g><path d="M38.7707373046875,49.8523455078125C38.1094873046875,49.8523455078125,37.4482373046875,49.6062455078125,36.9379273046875,49.1210455078125L31.6982353046875,44.1007455078125C30.6632353046875,43.1093455078125,30.6488603046875,41.4851255078125,31.6622973046875,40.4796555078125C32.6757373046875,39.4671555078125,34.3288573046875,39.4530955078125,35.3638573046875,40.4444955078125L38.7563573046875,43.6999655078125L46.6625873046875,36.0499655078125C47.690387304687505,35.0585585078125,49.3506873046875,35.0655905078125,50.364187304687505,36.0710595078125C51.377587304687495,37.0765255078125,51.3703873046875,38.7007455078125,50.3425873046875,39.6921555078125L40.610737304687504,49.1140455078125C40.1004173046875,49.6062455078125,39.4391673046875,49.8523455078125,38.7707373046875,49.8523455078125Z" fill="#040000" fill-opacity="1"/><path d="M38.7707373046875,49.8523455078125C38.1094873046875,49.8523455078125,37.4482373046875,49.6062455078125,36.9379273046875,49.1210455078125L31.6982353046875,44.1007455078125C30.6632353046875,43.1093455078125,30.6488603046875,41.4851255078125,31.6622973046875,40.4796555078125C32.6757373046875,39.4671555078125,34.3288573046875,39.4530955078125,35.3638573046875,40.4444955078125L38.7563573046875,43.6999655078125L46.6625873046875,36.0499655078125C47.690387304687505,35.0585585078125,49.3506873046875,35.0655905078125,50.364187304687505,36.0710595078125C51.377587304687495,37.0765255078125,51.3703873046875,38.7007455078125,50.3425873046875,39.6921555078125L40.610737304687504,49.1140455078125C40.1004173046875,49.6062455078125,39.4391673046875,49.8523455078125,38.7707373046875,49.8523455078125Z" fill="url(#master_svg4_25_93208)" fill-opacity="1"/></g></g></g></svg>