<svg xmlns="http://www.w3.org/2000/svg" xmlns:xlink="http://www.w3.org/1999/xlink" fill="none" version="1.1" width="80" height="80" viewBox="0 0 80 80"><defs><linearGradient x1="0.9895104765892029" y1="0.9078947901725769" x2="0.03496502339839935" y2="-0.03947371244430542" id="master_svg0_25_0416"><stop offset="0%" stop-color="#08BBE4" stop-opacity="1"/><stop offset="100%" stop-color="#00DF9B" stop-opacity="1"/></linearGradient><clipPath id="master_svg1_657_34818"><rect x="0" y="0" width="80" height="80" rx="10"/></clipPath><linearGradient x1="0.9895104765892029" y1="0.9078947901725769" x2="0.03496502339839935" y2="-0.03947371244430542" id="master_svg2_25_0735"><stop offset="0%" stop-color="#08BBE4" stop-opacity="1"/><stop offset="100%" stop-color="#00DF9B" stop-opacity="1"/></linearGradient><linearGradient x1="0.9895104765892029" y1="0.9078947901725769" x2="0.03496502339839935" y2="-0.03947371244430542" id="master_svg3_25_0735"><stop offset="0%" stop-color="#08BBE4" stop-opacity="1"/><stop offset="100%" stop-color="#00DF9B" stop-opacity="1"/></linearGradient><linearGradient x1="0.9895104765892029" y1="0.9078947901725769" x2="0.03496502339839935" y2="-0.03947371244430542" id="master_svg4_25_0735"><stop offset="0%" stop-color="#08BBE4" stop-opacity="1"/><stop offset="100%" stop-color="#00DF9B" stop-opacity="1"/></linearGradient></defs><g clip-path="url(#master_svg1_657_34818)"><rect x="0" y="0" width="80" height="80" rx="10" fill="url(#master_svg0_25_0416)" fill-opacity="0.10000000149011612"/><g><ellipse cx="39.99967384338379" cy="48.00028419494629" rx="18.66666603088379" ry="18.66666603088379" fill-opacity="0" stroke-opacity="1" stroke="#FFFFFF" fill="none" stroke-width="4.800000190734863"/><ellipse cx="39.99967384338379" cy="48.00028419494629" rx="18.66666603088379" ry="18.66666603088379" stroke="url(#master_svg2_25_0735)" fill-opacity="0" fill="none" stroke-width="4.800000190734863"/></g><g><path d="M28.2669921875,32.00019609375L28.2669921875,22.66682609375Q28.2669921875,20.28128609375,29.1900421875,18.09895609375Q30.0808291875,15.99288609375,31.7036021875,14.37011609375Q33.3263721875,12.74733809375,35.4324421875,11.85654609375Q37.6147721875,10.93349609375,40.000322187500004,10.93349609375Q42.3858921875,10.93349609375,44.5681921875,11.85654609375Q46.6742921875,12.74733609375,48.2970921875,14.37011609375Q49.9197921875,15.99288609375,50.8105921875,18.09895609375Q51.7336921875,20.28128609375,51.7336921875,22.66682609375L51.7336921875,32.00019609375L46.9336921875,32.00019609375L46.9336921875,22.66682609375Q46.9336921875,19.79494609375,44.9028921875,17.76422609375Q42.8721921875,15.73349609375,40.000322187500004,15.73349609375Q37.1284421875,15.73349609375,35.0977121875,17.76422609375Q33.0669921875,19.79494609375,33.0669921875,22.66682609375L33.0669921875,32.00019609375L28.2669921875,32.00019609375Z" fill="#FFFFFF" fill-opacity="1"/><path d="M28.2669921875,32.00019609375L28.2669921875,22.66682609375Q28.2669921875,20.28128609375,29.1900421875,18.09895609375Q30.0808291875,15.99288609375,31.7036021875,14.37011609375Q33.3263721875,12.74733809375,35.4324421875,11.85654609375Q37.6147721875,10.93349609375,40.000322187500004,10.93349609375Q42.3858921875,10.93349609375,44.5681921875,11.85654609375Q46.6742921875,12.74733609375,48.2970921875,14.37011609375Q49.9197921875,15.99288609375,50.8105921875,18.09895609375Q51.7336921875,20.28128609375,51.7336921875,22.66682609375L51.7336921875,32.00019609375L46.9336921875,32.00019609375L46.9336921875,22.66682609375Q46.9336921875,19.79494609375,44.9028921875,17.76422609375Q42.8721921875,15.73349609375,40.000322187500004,15.73349609375Q37.1284421875,15.73349609375,35.0977121875,17.76422609375Q33.0669921875,19.79494609375,33.0669921875,22.66682609375L33.0669921875,32.00019609375L28.2669921875,32.00019609375Z" fill="url(#master_svg3_25_0735)" fill-opacity="1"/></g><g><path d="M37.5998779296875,53.332959765625L37.5998779296875,42.666259765625Q37.5998779296875,42.548355765625,37.6114379296875,42.431018765625Q37.6229879296875,42.313681765625,37.645997929687496,42.198042765625Q37.6689979296875,42.082403765625,37.7032179296875,41.969576765625Q37.7374479296875,41.856748765625,37.7825679296875,41.747819765625Q37.8276879296875,41.638889765625,37.8832679296875,41.534909765625Q37.9388479296875,41.430929765625,38.0043479296875,41.332889765625Q38.0698579296875,41.234859765625,38.1446479296875,41.143719765625Q38.2194479296875,41.052569765625,38.3028179296875,40.969199765625Q38.3861879296875,40.885829765625,38.4773379296875,40.811029765625Q38.5684779296875,40.736239765625,38.6665079296875,40.670729765625Q38.7645479296875,40.605229765625,38.8685279296875,40.549649765625Q38.9725079296875,40.494069765625,39.0814379296875,40.448949765625Q39.1903669296875,40.403829765625,39.3031949296875,40.369599765625Q39.4160219296875,40.335379765625,39.5316609296875,40.312379765624996Q39.6472999296875,40.289369765625,39.7646369296875,40.277819765625Q39.8819739296875,40.266259765625,39.9998779296875,40.266259765625Q40.1177819296875,40.266259765625,40.2351189296875,40.277819765625Q40.3524559296875,40.289369765625,40.4680949296875,40.312379765624996Q40.5837339296875,40.335379765625,40.6965609296875,40.369599765625Q40.8093889296875,40.403829765625,40.9183179296875,40.448949765625Q41.0272479296875,40.494069765625,41.1312279296875,40.549649765625Q41.2352079296875,40.605229765625,41.3332479296875,40.670729765625Q41.4312779296875,40.736239765625,41.5224179296875,40.811029765625Q41.6135679296875,40.885829765625,41.6969379296875,40.969199765625Q41.7803079296875,41.052569765625,41.8551079296875,41.143719765625Q41.9298979296875,41.234859765625,41.9954079296875,41.332889765625Q42.0609079296875,41.430929765625,42.1164879296875,41.534909765625Q42.1720679296875,41.638889765625,42.2171879296875,41.747819765625Q42.2623079296875,41.856748765625,42.2965379296875,41.969576765625Q42.3307579296875,42.082403765625,42.353757929687504,42.198042765625Q42.3767679296875,42.313681765625,42.3883179296875,42.431018765625Q42.3998779296875,42.548355765625,42.3998779296875,42.666259765625L42.3998779296875,53.332959765625Q42.3998779296875,53.450859765625,42.3883179296875,53.568159765625Q42.3767679296875,53.685459765625,42.353757929687504,53.801159765625Q42.3307579296875,53.916759765625,42.2965379296875,54.029659765625Q42.2623079296875,54.142459765625,42.2171879296875,54.251359765625Q42.1720679296875,54.360259765625,42.1164879296875,54.464259765625Q42.0609079296875,54.568259765625,41.9954079296875,54.666259765625Q41.9298979296875,54.764359765625,41.8551079296875,54.855459765625Q41.7803079296875,54.946659765625,41.6969379296875,55.029959765625Q41.6135679296875,55.113359765625,41.5224179296875,55.188159765625Q41.4312779296875,55.262959765625,41.3332479296875,55.328459765625Q41.2352079296875,55.393959765625,41.1312279296875,55.449559765625Q41.0272479296875,55.505159765625,40.9183179296875,55.550259765625Q40.8093889296875,55.595359765625,40.6965609296875,55.629559765625004Q40.5837339296875,55.663759765625,40.4680949296875,55.686859765625Q40.3524559296875,55.709859765625,40.2351189296875,55.721359765624996Q40.1177819296875,55.732959765625,39.9998779296875,55.732959765625Q39.8819739296875,55.732959765625,39.7646369296875,55.721359765624996Q39.6472999296875,55.709859765625,39.5316609296875,55.686859765625Q39.4160219296875,55.663759765625,39.3031949296875,55.629559765625004Q39.1903669296875,55.595359765625,39.0814379296875,55.550259765625Q38.9725079296875,55.505159765625,38.8685279296875,55.449559765625Q38.7645479296875,55.393959765625,38.6665079296875,55.328459765625Q38.5684779296875,55.262959765625,38.4773379296875,55.188159765625Q38.3861879296875,55.113359765625,38.3028179296875,55.029959765625Q38.2194479296875,54.946659765625,38.1446479296875,54.855459765625Q38.0698579296875,54.764359765625,38.0043479296875,54.666259765625Q37.9388479296875,54.568259765625,37.8832679296875,54.464259765625Q37.8276879296875,54.360259765625,37.7825679296875,54.251359765625Q37.7374479296875,54.142459765625,37.7032179296875,54.029659765625Q37.6689979296875,53.916759765625,37.645997929687496,53.801159765625Q37.6229879296875,53.685459765625,37.6114379296875,53.568159765625Q37.5998779296875,53.450859765625,37.5998779296875,53.332959765625ZM42.3998779296875,53.332959765625Q42.3998779296875,53.450859765625,42.3883179296875,53.568159765625Q42.3767679296875,53.685459765625,42.353757929687504,53.801159765625Q42.3307579296875,53.916759765625,42.2965379296875,54.029659765625Q42.2623079296875,54.142459765625,42.2171879296875,54.251359765625Q42.1720679296875,54.360259765625,42.1164879296875,54.464259765625Q42.0609079296875,54.568259765625,41.9954079296875,54.666259765625Q41.9298979296875,54.764359765625,41.8551079296875,54.855459765625Q41.7803079296875,54.946659765625,41.6969379296875,55.029959765625Q41.6135679296875,55.113359765625,41.5224179296875,55.188159765625Q41.4312779296875,55.262959765625,41.3332479296875,55.328459765625Q41.2352079296875,55.393959765625,41.1312279296875,55.449559765625Q41.0272479296875,55.505159765625,40.9183179296875,55.550259765625Q40.8093889296875,55.595359765625,40.6965609296875,55.629559765625004Q40.5837339296875,55.663759765625,40.4680949296875,55.686859765625Q40.3524559296875,55.709859765625,40.2351189296875,55.721359765624996Q40.1177819296875,55.732959765625,39.9998779296875,55.732959765625Q39.8819739296875,55.732959765625,39.7646369296875,55.721359765624996Q39.6472999296875,55.709859765625,39.5316609296875,55.686859765625Q39.4160219296875,55.663759765625,39.3031949296875,55.629559765625004Q39.1903669296875,55.595359765625,39.0814379296875,55.550259765625Q38.9725079296875,55.505159765625,38.8685279296875,55.449559765625Q38.7645479296875,55.393959765625,38.6665079296875,55.328459765625Q38.5684779296875,55.262959765625,38.4773379296875,55.188159765625Q38.3861879296875,55.113359765625,38.3028179296875,55.029959765625Q38.2194479296875,54.946659765625,38.1446479296875,54.855459765625Q38.0698579296875,54.764359765625,38.0043479296875,54.666259765625Q37.9388479296875,54.568259765625,37.8832679296875,54.464259765625Q37.8276879296875,54.360259765625,37.7825679296875,54.251359765625Q37.7374479296875,54.142459765625,37.7032179296875,54.029659765625Q37.6689979296875,53.916759765625,37.645997929687496,53.801159765625Q37.6229879296875,53.685459765625,37.6114379296875,53.568159765625Q37.5998779296875,53.450859765625,37.5998779296875,53.332959765625Q37.5998779296875,53.215059765625,37.6114379296875,53.097659765625Q37.6229879296875,52.980359765624996,37.645997929687496,52.864659765625Q37.6689979296875,52.749059765625,37.7032179296875,52.636239765625Q37.7374479296875,52.523419765625,37.7825679296875,52.414489765625Q37.8276879296875,52.305559765625,37.8832679296875,52.201569765625Q37.9388479296875,52.097589765625,38.0043479296875,51.999559765625Q38.0698579296875,51.901519765625,38.1446479296875,51.810379765625Q38.2194479296875,51.719239765625,38.3028179296875,51.635869765625Q38.3861879296875,51.552499765625,38.4773379296875,51.477699765625Q38.5684779296875,51.402899765625,38.6665079296875,51.337399765625Q38.7645479296875,51.271889765625,38.8685279296875,51.216319765625Q38.9725079296875,51.160739765624996,39.0814379296875,51.115619765625Q39.1903669296875,51.070499765625,39.3031949296875,51.036269765625Q39.4160219296875,51.002039765625,39.5316609296875,50.979039765625004Q39.6472999296875,50.956039765625,39.7646369296875,50.944479765625Q39.8819739296875,50.932929765625,39.9998779296875,50.932929765625Q40.1177819296875,50.932929765625,40.2351189296875,50.944479765625Q40.3524559296875,50.956039765625,40.4680949296875,50.979039765625004Q40.5837339296875,51.002039765625,40.6965609296875,51.036269765625Q40.8093889296875,51.070489765625,40.9183179296875,51.115609765625Q41.0272479296875,51.160729765625,41.1312279296875,51.216309765625Q41.2352079296875,51.271889765625,41.3332479296875,51.337399765625Q41.4312779296875,51.402899765625,41.5224179296875,51.477699765625Q41.6135679296875,51.552499765625,41.6969379296875,51.635869765625Q41.7803079296875,51.719239765625,41.8551079296875,51.810379765625Q41.9298979296875,51.901519765625,41.9954079296875,51.999559765625Q42.0609079296875,52.097589765625,42.1164879296875,52.201569765625Q42.1720679296875,52.305559765625,42.2171879296875,52.414489765625Q42.2623079296875,52.523419765625,42.2965379296875,52.636239765625Q42.3307579296875,52.749059765625,42.353757929687504,52.864659765625Q42.3767679296875,52.980359765624996,42.3883179296875,53.097659765625Q42.3998779296875,53.215059765625,42.3998779296875,53.332959765625ZM42.3998779296875,42.666259765625Q42.3998779296875,42.784163765625,42.3883179296875,42.901500765625Q42.3767679296875,43.018837765625,42.353757929687504,43.134476765625Q42.3307579296875,43.250115765625,42.2965379296875,43.362942765625Q42.2623079296875,43.475770765625,42.2171879296875,43.584699765625Q42.1720679296875,43.693629765625,42.1164879296875,43.797609765625Q42.0609079296875,43.901589765625,41.9954079296875,43.999629765625Q41.9298979296875,44.097659765625,41.8551079296875,44.188799765625Q41.7803079296875,44.279949765625,41.6969379296875,44.363319765625Q41.6135679296875,44.446689765625,41.5224179296875,44.521489765625Q41.4312779296875,44.596279765625,41.3332479296875,44.661789765625Q41.2352079296875,44.727289765625,41.1312279296875,44.782869765625Q41.0272479296875,44.838449765625,40.9183179296875,44.883569765625Q40.8093889296875,44.928689765625,40.6965609296875,44.962919765625Q40.5837339296875,44.997139765625,40.4680949296875,45.020139765625004Q40.3524559296875,45.043149765625,40.2351189296875,45.054699765625Q40.1177819296875,45.066259765625,39.9998779296875,45.066259765625Q39.8819739296875,45.066259765625,39.7646369296875,45.054699765625Q39.6472999296875,45.043149765625,39.5316609296875,45.020139765625004Q39.4160219296875,44.997139765625,39.3031949296875,44.962919765625Q39.1903669296875,44.928689765625,39.0814379296875,44.883569765625Q38.9725079296875,44.838449765625,38.8685279296875,44.782869765625Q38.7645479296875,44.727289765625,38.6665079296875,44.661789765625Q38.5684779296875,44.596279765625,38.4773379296875,44.521489765625Q38.3861879296875,44.446689765625,38.3028179296875,44.363319765625Q38.2194479296875,44.279949765625,38.1446479296875,44.188799765625Q38.0698579296875,44.097659765625,38.0043479296875,43.999629765625Q37.9388479296875,43.901589765625,37.8832679296875,43.797609765625Q37.8276879296875,43.693629765625,37.7825679296875,43.584699765625Q37.7374479296875,43.475770765625,37.7032179296875,43.362942765625Q37.6689979296875,43.250115765625,37.645997929687496,43.134476765625Q37.6229879296875,43.018837765625,37.6114379296875,42.901500765625Q37.5998779296875,42.784163765625,37.5998779296875,42.666259765625Q37.5998779296875,42.548355765625,37.6114379296875,42.431018765625Q37.6229879296875,42.313681765625,37.645997929687496,42.198042765625Q37.6689979296875,42.082403765625,37.7032179296875,41.969576765625Q37.7374479296875,41.856748765625,37.7825679296875,41.747819765625Q37.8276879296875,41.638889765625,37.8832679296875,41.534909765625Q37.9388479296875,41.430929765625,38.0043479296875,41.332889765625Q38.0698579296875,41.234859765625,38.1446479296875,41.143719765625Q38.2194479296875,41.052569765625,38.3028179296875,40.969199765625Q38.3861879296875,40.885829765625,38.4773379296875,40.811029765625Q38.5684779296875,40.736239765625,38.6665079296875,40.670729765625Q38.7645479296875,40.605229765625,38.8685279296875,40.549649765625Q38.9725079296875,40.494069765625,39.0814379296875,40.448949765625Q39.1903669296875,40.403829765625,39.3031949296875,40.369599765625Q39.4160219296875,40.335379765625,39.5316609296875,40.312379765624996Q39.6472999296875,40.289369765625,39.7646369296875,40.277819765625Q39.8819739296875,40.266259765625,39.9998779296875,40.266259765625Q40.1177819296875,40.266259765625,40.2351189296875,40.277819765625Q40.3524559296875,40.289369765625,40.4680949296875,40.312379765624996Q40.5837339296875,40.335379765625,40.6965609296875,40.369599765625Q40.8093889296875,40.403829765625,40.9183179296875,40.448949765625Q41.0272479296875,40.494069765625,41.1312279296875,40.549649765625Q41.2352079296875,40.605229765625,41.3332479296875,40.670729765625Q41.4312779296875,40.736239765625,41.5224179296875,40.811029765625Q41.6135679296875,40.885829765625,41.6969379296875,40.969199765625Q41.7803079296875,41.052569765625,41.8551079296875,41.143719765625Q41.9298979296875,41.234859765625,41.9954079296875,41.332889765625Q42.0609079296875,41.430929765625,42.1164879296875,41.534909765625Q42.1720679296875,41.638889765625,42.2171879296875,41.747819765625Q42.2623079296875,41.856748765625,42.2965379296875,41.969576765625Q42.3307579296875,42.082403765625,42.353757929687504,42.198042765625Q42.3767679296875,42.313681765625,42.3883179296875,42.431018765625Q42.3998779296875,42.548355765625,42.3998779296875,42.666259765625Z" fill="#FFFFFF" fill-opacity="1"/><path d="M37.5998779296875,53.332959765625L37.5998779296875,42.666259765625Q37.5998779296875,42.548355765625,37.6114379296875,42.431018765625Q37.6229879296875,42.313681765625,37.645997929687496,42.198042765625Q37.6689979296875,42.082403765625,37.7032179296875,41.969576765625Q37.7374479296875,41.856748765625,37.7825679296875,41.747819765625Q37.8276879296875,41.638889765625,37.8832679296875,41.534909765625Q37.9388479296875,41.430929765625,38.0043479296875,41.332889765625Q38.0698579296875,41.234859765625,38.1446479296875,41.143719765625Q38.2194479296875,41.052569765625,38.3028179296875,40.969199765625Q38.3861879296875,40.885829765625,38.4773379296875,40.811029765625Q38.5684779296875,40.736239765625,38.6665079296875,40.670729765625Q38.7645479296875,40.605229765625,38.8685279296875,40.549649765625Q38.9725079296875,40.494069765625,39.0814379296875,40.448949765625Q39.1903669296875,40.403829765625,39.3031949296875,40.369599765625Q39.4160219296875,40.335379765625,39.5316609296875,40.312379765624996Q39.6472999296875,40.289369765625,39.7646369296875,40.277819765625Q39.8819739296875,40.266259765625,39.9998779296875,40.266259765625Q40.1177819296875,40.266259765625,40.2351189296875,40.277819765625Q40.3524559296875,40.289369765625,40.4680949296875,40.312379765624996Q40.5837339296875,40.335379765625,40.6965609296875,40.369599765625Q40.8093889296875,40.403829765625,40.9183179296875,40.448949765625Q41.0272479296875,40.494069765625,41.1312279296875,40.549649765625Q41.2352079296875,40.605229765625,41.3332479296875,40.670729765625Q41.4312779296875,40.736239765625,41.5224179296875,40.811029765625Q41.6135679296875,40.885829765625,41.6969379296875,40.969199765625Q41.7803079296875,41.052569765625,41.8551079296875,41.143719765625Q41.9298979296875,41.234859765625,41.9954079296875,41.332889765625Q42.0609079296875,41.430929765625,42.1164879296875,41.534909765625Q42.1720679296875,41.638889765625,42.2171879296875,41.747819765625Q42.2623079296875,41.856748765625,42.2965379296875,41.969576765625Q42.3307579296875,42.082403765625,42.353757929687504,42.198042765625Q42.3767679296875,42.313681765625,42.3883179296875,42.431018765625Q42.3998779296875,42.548355765625,42.3998779296875,42.666259765625L42.3998779296875,53.332959765625Q42.3998779296875,53.450859765625,42.3883179296875,53.568159765625Q42.3767679296875,53.685459765625,42.353757929687504,53.801159765625Q42.3307579296875,53.916759765625,42.2965379296875,54.029659765625Q42.2623079296875,54.142459765625,42.2171879296875,54.251359765625Q42.1720679296875,54.360259765625,42.1164879296875,54.464259765625Q42.0609079296875,54.568259765625,41.9954079296875,54.666259765625Q41.9298979296875,54.764359765625,41.8551079296875,54.855459765625Q41.7803079296875,54.946659765625,41.6969379296875,55.029959765625Q41.6135679296875,55.113359765625,41.5224179296875,55.188159765625Q41.4312779296875,55.262959765625,41.3332479296875,55.328459765625Q41.2352079296875,55.393959765625,41.1312279296875,55.449559765625Q41.0272479296875,55.505159765625,40.9183179296875,55.550259765625Q40.8093889296875,55.595359765625,40.6965609296875,55.629559765625004Q40.5837339296875,55.663759765625,40.4680949296875,55.686859765625Q40.3524559296875,55.709859765625,40.2351189296875,55.721359765624996Q40.1177819296875,55.732959765625,39.9998779296875,55.732959765625Q39.8819739296875,55.732959765625,39.7646369296875,55.721359765624996Q39.6472999296875,55.709859765625,39.5316609296875,55.686859765625Q39.4160219296875,55.663759765625,39.3031949296875,55.629559765625004Q39.1903669296875,55.595359765625,39.0814379296875,55.550259765625Q38.9725079296875,55.505159765625,38.8685279296875,55.449559765625Q38.7645479296875,55.393959765625,38.6665079296875,55.328459765625Q38.5684779296875,55.262959765625,38.4773379296875,55.188159765625Q38.3861879296875,55.113359765625,38.3028179296875,55.029959765625Q38.2194479296875,54.946659765625,38.1446479296875,54.855459765625Q38.0698579296875,54.764359765625,38.0043479296875,54.666259765625Q37.9388479296875,54.568259765625,37.8832679296875,54.464259765625Q37.8276879296875,54.360259765625,37.7825679296875,54.251359765625Q37.7374479296875,54.142459765625,37.7032179296875,54.029659765625Q37.6689979296875,53.916759765625,37.645997929687496,53.801159765625Q37.6229879296875,53.685459765625,37.6114379296875,53.568159765625Q37.5998779296875,53.450859765625,37.5998779296875,53.332959765625ZM42.3998779296875,53.332959765625Q42.3998779296875,53.450859765625,42.3883179296875,53.568159765625Q42.3767679296875,53.685459765625,42.353757929687504,53.801159765625Q42.3307579296875,53.916759765625,42.2965379296875,54.029659765625Q42.2623079296875,54.142459765625,42.2171879296875,54.251359765625Q42.1720679296875,54.360259765625,42.1164879296875,54.464259765625Q42.0609079296875,54.568259765625,41.9954079296875,54.666259765625Q41.9298979296875,54.764359765625,41.8551079296875,54.855459765625Q41.7803079296875,54.946659765625,41.6969379296875,55.029959765625Q41.6135679296875,55.113359765625,41.5224179296875,55.188159765625Q41.4312779296875,55.262959765625,41.3332479296875,55.328459765625Q41.2352079296875,55.393959765625,41.1312279296875,55.449559765625Q41.0272479296875,55.505159765625,40.9183179296875,55.550259765625Q40.8093889296875,55.595359765625,40.6965609296875,55.629559765625004Q40.5837339296875,55.663759765625,40.4680949296875,55.686859765625Q40.3524559296875,55.709859765625,40.2351189296875,55.721359765624996Q40.1177819296875,55.732959765625,39.9998779296875,55.732959765625Q39.8819739296875,55.732959765625,39.7646369296875,55.721359765624996Q39.6472999296875,55.709859765625,39.5316609296875,55.686859765625Q39.4160219296875,55.663759765625,39.3031949296875,55.629559765625004Q39.1903669296875,55.595359765625,39.0814379296875,55.550259765625Q38.9725079296875,55.505159765625,38.8685279296875,55.449559765625Q38.7645479296875,55.393959765625,38.6665079296875,55.328459765625Q38.5684779296875,55.262959765625,38.4773379296875,55.188159765625Q38.3861879296875,55.113359765625,38.3028179296875,55.029959765625Q38.2194479296875,54.946659765625,38.1446479296875,54.855459765625Q38.0698579296875,54.764359765625,38.0043479296875,54.666259765625Q37.9388479296875,54.568259765625,37.8832679296875,54.464259765625Q37.8276879296875,54.360259765625,37.7825679296875,54.251359765625Q37.7374479296875,54.142459765625,37.7032179296875,54.029659765625Q37.6689979296875,53.916759765625,37.645997929687496,53.801159765625Q37.6229879296875,53.685459765625,37.6114379296875,53.568159765625Q37.5998779296875,53.450859765625,37.5998779296875,53.332959765625Q37.5998779296875,53.215059765625,37.6114379296875,53.097659765625Q37.6229879296875,52.980359765624996,37.645997929687496,52.864659765625Q37.6689979296875,52.749059765625,37.7032179296875,52.636239765625Q37.7374479296875,52.523419765625,37.7825679296875,52.414489765625Q37.8276879296875,52.305559765625,37.8832679296875,52.201569765625Q37.9388479296875,52.097589765625,38.0043479296875,51.999559765625Q38.0698579296875,51.901519765625,38.1446479296875,51.810379765625Q38.2194479296875,51.719239765625,38.3028179296875,51.635869765625Q38.3861879296875,51.552499765625,38.4773379296875,51.477699765625Q38.5684779296875,51.402899765625,38.6665079296875,51.337399765625Q38.7645479296875,51.271889765625,38.8685279296875,51.216319765625Q38.9725079296875,51.160739765624996,39.0814379296875,51.115619765625Q39.1903669296875,51.070499765625,39.3031949296875,51.036269765625Q39.4160219296875,51.002039765625,39.5316609296875,50.979039765625004Q39.6472999296875,50.956039765625,39.7646369296875,50.944479765625Q39.8819739296875,50.932929765625,39.9998779296875,50.932929765625Q40.1177819296875,50.932929765625,40.2351189296875,50.944479765625Q40.3524559296875,50.956039765625,40.4680949296875,50.979039765625004Q40.5837339296875,51.002039765625,40.6965609296875,51.036269765625Q40.8093889296875,51.070489765625,40.9183179296875,51.115609765625Q41.0272479296875,51.160729765625,41.1312279296875,51.216309765625Q41.2352079296875,51.271889765625,41.3332479296875,51.337399765625Q41.4312779296875,51.402899765625,41.5224179296875,51.477699765625Q41.6135679296875,51.552499765625,41.6969379296875,51.635869765625Q41.7803079296875,51.719239765625,41.8551079296875,51.810379765625Q41.9298979296875,51.901519765625,41.9954079296875,51.999559765625Q42.0609079296875,52.097589765625,42.1164879296875,52.201569765625Q42.1720679296875,52.305559765625,42.2171879296875,52.414489765625Q42.2623079296875,52.523419765625,42.2965379296875,52.636239765625Q42.3307579296875,52.749059765625,42.353757929687504,52.864659765625Q42.3767679296875,52.980359765624996,42.3883179296875,53.097659765625Q42.3998779296875,53.215059765625,42.3998779296875,53.332959765625ZM42.3998779296875,42.666259765625Q42.3998779296875,42.784163765625,42.3883179296875,42.901500765625Q42.3767679296875,43.018837765625,42.353757929687504,43.134476765625Q42.3307579296875,43.250115765625,42.2965379296875,43.362942765625Q42.2623079296875,43.475770765625,42.2171879296875,43.584699765625Q42.1720679296875,43.693629765625,42.1164879296875,43.797609765625Q42.0609079296875,43.901589765625,41.9954079296875,43.999629765625Q41.9298979296875,44.097659765625,41.8551079296875,44.188799765625Q41.7803079296875,44.279949765625,41.6969379296875,44.363319765625Q41.6135679296875,44.446689765625,41.5224179296875,44.521489765625Q41.4312779296875,44.596279765625,41.3332479296875,44.661789765625Q41.2352079296875,44.727289765625,41.1312279296875,44.782869765625Q41.0272479296875,44.838449765625,40.9183179296875,44.883569765625Q40.8093889296875,44.928689765625,40.6965609296875,44.962919765625Q40.5837339296875,44.997139765625,40.4680949296875,45.020139765625004Q40.3524559296875,45.043149765625,40.2351189296875,45.054699765625Q40.1177819296875,45.066259765625,39.9998779296875,45.066259765625Q39.8819739296875,45.066259765625,39.7646369296875,45.054699765625Q39.6472999296875,45.043149765625,39.5316609296875,45.020139765625004Q39.4160219296875,44.997139765625,39.3031949296875,44.962919765625Q39.1903669296875,44.928689765625,39.0814379296875,44.883569765625Q38.9725079296875,44.838449765625,38.8685279296875,44.782869765625Q38.7645479296875,44.727289765625,38.6665079296875,44.661789765625Q38.5684779296875,44.596279765625,38.4773379296875,44.521489765625Q38.3861879296875,44.446689765625,38.3028179296875,44.363319765625Q38.2194479296875,44.279949765625,38.1446479296875,44.188799765625Q38.0698579296875,44.097659765625,38.0043479296875,43.999629765625Q37.9388479296875,43.901589765625,37.8832679296875,43.797609765625Q37.8276879296875,43.693629765625,37.7825679296875,43.584699765625Q37.7374479296875,43.475770765625,37.7032179296875,43.362942765625Q37.6689979296875,43.250115765625,37.645997929687496,43.134476765625Q37.6229879296875,43.018837765625,37.6114379296875,42.901500765625Q37.5998779296875,42.784163765625,37.5998779296875,42.666259765625Q37.5998779296875,42.548355765625,37.6114379296875,42.431018765625Q37.6229879296875,42.313681765625,37.645997929687496,42.198042765625Q37.6689979296875,42.082403765625,37.7032179296875,41.969576765625Q37.7374479296875,41.856748765625,37.7825679296875,41.747819765625Q37.8276879296875,41.638889765625,37.8832679296875,41.534909765625Q37.9388479296875,41.430929765625,38.0043479296875,41.332889765625Q38.0698579296875,41.234859765625,38.1446479296875,41.143719765625Q38.2194479296875,41.052569765625,38.3028179296875,40.969199765625Q38.3861879296875,40.885829765625,38.4773379296875,40.811029765625Q38.5684779296875,40.736239765625,38.6665079296875,40.670729765625Q38.7645479296875,40.605229765625,38.8685279296875,40.549649765625Q38.9725079296875,40.494069765625,39.0814379296875,40.448949765625Q39.1903669296875,40.403829765625,39.3031949296875,40.369599765625Q39.4160219296875,40.335379765625,39.5316609296875,40.312379765624996Q39.6472999296875,40.289369765625,39.7646369296875,40.277819765625Q39.8819739296875,40.266259765625,39.9998779296875,40.266259765625Q40.1177819296875,40.266259765625,40.2351189296875,40.277819765625Q40.3524559296875,40.289369765625,40.4680949296875,40.312379765624996Q40.5837339296875,40.335379765625,40.6965609296875,40.369599765625Q40.8093889296875,40.403829765625,40.9183179296875,40.448949765625Q41.0272479296875,40.494069765625,41.1312279296875,40.549649765625Q41.2352079296875,40.605229765625,41.3332479296875,40.670729765625Q41.4312779296875,40.736239765625,41.5224179296875,40.811029765625Q41.6135679296875,40.885829765625,41.6969379296875,40.969199765625Q41.7803079296875,41.052569765625,41.8551079296875,41.143719765625Q41.9298979296875,41.234859765625,41.9954079296875,41.332889765625Q42.0609079296875,41.430929765625,42.1164879296875,41.534909765625Q42.1720679296875,41.638889765625,42.2171879296875,41.747819765625Q42.2623079296875,41.856748765625,42.2965379296875,41.969576765625Q42.3307579296875,42.082403765625,42.353757929687504,42.198042765625Q42.3767679296875,42.313681765625,42.3883179296875,42.431018765625Q42.3998779296875,42.548355765625,42.3998779296875,42.666259765625Z" fill="url(#master_svg4_25_0735)" fill-opacity="1"/></g></g></svg>