<svg xmlns="http://www.w3.org/2000/svg" xmlns:xlink="http://www.w3.org/1999/xlink" fill="none" version="1.1" width="80" height="80" viewBox="0 0 80 80"><defs><linearGradient x1="0.9895104765892029" y1="0.9078947901725769" x2="0.03496502339839935" y2="-0.03947371244430542" id="master_svg0_25_0416"><stop offset="0%" stop-color="#08BBE4" stop-opacity="1"/><stop offset="100%" stop-color="#00DF9B" stop-opacity="1"/></linearGradient><clipPath id="master_svg1_657_34834"><rect x="0" y="0" width="80" height="80" rx="10"/></clipPath><clipPath id="master_svg2_657_34835"><rect x="8" y="8" width="62.39999771118164" height="63.999996185302734" rx="0"/></clipPath><linearGradient x1="0.9895104765892029" y1="0.9078947901725769" x2="0.03496502339839935" y2="-0.03947371244430542" id="master_svg3_1_2796"><stop offset="0%" stop-color="#08BBE4" stop-opacity="1"/><stop offset="100%" stop-color="#00DF9B" stop-opacity="1"/></linearGradient></defs><g clip-path="url(#master_svg1_657_34834)"><rect x="0" y="0" width="80" height="80" rx="10" fill="url(#master_svg0_25_0416)" fill-opacity="0.10000000149011612"/><g clip-path="url(#master_svg2_657_34835)"><g><path d="M54.6439962890625,17.226758750000002C58.3774962890625,17.226758750000002,61.4039962890625,20.330918750000002,61.4039962890625,24.16006875L61.4039962890625,30.56676875L65.8213962890625,35.098768750000005C68.45969628906249,37.80606875,68.45969628906249,42.19406875,65.8213962890625,44.90146875L61.4026962890625,49.43346875L61.4026962890625,55.84146875C61.4012962890625,59.66856875,58.3766962890625,62.77056875,54.6452962890625,62.77206875L48.3974962890625,62.77206875L43.9787962890625,67.30406875C41.3391962890625,70.01006875,37.0608962890625,70.01006875,34.4211962890625,67.30406875L30.0024962890625,62.77206875L23.7559962890625,62.77206875C20.0245962890625,62.77056875,17.0000462890625,59.66856875,16.9986162890625,55.84146875L16.9986162890625,49.43346875L12.5799162890625,44.90146875C9.9416242890625,42.19406875,9.9416242890625,37.80606875,12.5799162890625,35.098768750000005L16.9986162890625,30.56676875L16.9986162890625,24.16006875C17.0000462890625,20.33299875,20.0245962890625,17.23089875,23.7559962890625,17.22942875L30.0037962890625,17.22942875L34.4224962890625,12.69741875C37.0621962890625,9.99148475,41.3404962890625,9.99148475,43.9800962890625,12.69741875L48.3987962890625,17.22942875L54.6465962890625,17.22942875L54.6439962890625,17.226758750000002ZM45.4815962890625,21.780068749999998L40.3023962890625,16.46675875C39.6933962890625,15.842858750000001,38.7066962890625,15.842858750000001,38.0975962890625,16.46675875L32.9183962890625,21.778768749999998C32.4305962890625,22.27906875,31.7693962890625,22.56006875,31.0801962890625,22.56006875L23.7546962890625,22.56006875C22.8951962890625,22.56156875,22.1986962890625,23.27586875,22.1972962890625,24.15746875L22.1972962890625,31.67076875C22.1971962890625,32.37796875,21.9230962890625,33.05606875,21.4354962890625,33.55606875L16.2550162890625,38.869468749999996C15.6467062890625,39.49406875,15.6467062890625,40.50606875,16.2550162890625,41.13076875L21.4341962890625,46.44276875C21.9219962890625,46.94306875,22.1959962890625,47.62126875,22.1959962890625,48.32806875L22.1959962890625,55.84146875C22.1973962890625,56.72296875,22.8938962890625,57.43726875,23.7533962890625,57.43876875L31.0788962890625,57.43876875C31.7683962890625,57.43886875,32.4295962890625,57.71996875,32.9170962890625,58.22006875L38.0962962890625,63.53206875C38.7053962890625,64.15596875,39.692096289062505,64.15596875,40.3010962890625,63.53206875L45.4802962890625,58.22006875C45.9681962890625,57.71976875,46.6293962890625,57.43876875,47.3184962890625,57.43876875L54.6439962890625,57.43876875C55.5035962890625,57.43726875,56.1999962890625,56.72296875,56.2013962890625,55.84146875L56.2013962890625,48.32806875C56.2015962890625,47.62086875,56.4755962890625,46.94276875,56.9631962890625,46.44276875L62.1423962890625,41.13076875C62.7506962890625,40.50606875,62.7506962890625,39.49406875,62.1423962890625,38.869468749999996L56.9631962890625,33.55746875C56.4753962890625,33.05706875,56.2013962890625,32.378868749999995,56.2013962890625,31.67206875L56.2013962890625,24.15876875C56.1999962890625,23.27716875,55.5035962890625,22.56286875,54.6439962890625,22.56146875L47.3184962890625,22.56146875C46.6289962890625,22.56126875,45.9677962890625,22.280268749999998,45.4802962890625,21.780068749999998L45.4815962890625,21.780068749999998ZM46.4617962890625,28.78006875C47.4779962890625,27.74006875,49.1234962890625,27.74126875,50.1382962890625,28.78276875C51.1529962890625,29.82416875,51.1529962890625,31.51196875,50.1381962890625,32.55346875L31.9381962890625,51.22006875C30.9220962890625,52.26006875,29.2764962890625,52.25896875,28.2617962890625,51.21746875C27.2470962890625,50.17596875,27.2470962890625,48.48816875,28.2617962890625,47.44676875L46.4617962890625,28.78006875ZM31.3999962890625,36.00006875C29.2460962890625,36.00006875,27.4999962890625,34.20926875,27.4999962890625,32.00006875C27.4999962890625,29.79096875,29.2460962890625,28.00006875,31.3999962890625,28.00006875C33.5538962890625,28.00006875,35.2999962890625,29.79096875,35.2999962890625,32.00006875C35.2999962890625,34.20926875,33.5538962890625,36.00006875,31.3999962890625,36.00006875ZM46.9999962890625,52.00006875C44.8460962890625,52.00006875,43.0999962890625,50.20926875,43.0999962890625,48.00006875C43.0999962890625,45.79096875,44.8460962890625,44.00006875,46.9999962890625,44.00006875C49.1538962890625,44.00006875,50.8999962890625,45.79096875,50.8999962890625,48.00006875C50.8999962890625,50.20926875,49.1538962890625,52.00006875,46.9999962890625,52.00006875Z" fill="#000000" fill-opacity="1"/><path d="M54.6439962890625,17.226758750000002C58.3774962890625,17.226758750000002,61.4039962890625,20.330918750000002,61.4039962890625,24.16006875L61.4039962890625,30.56676875L65.8213962890625,35.098768750000005C68.45969628906249,37.80606875,68.45969628906249,42.19406875,65.8213962890625,44.90146875L61.4026962890625,49.43346875L61.4026962890625,55.84146875C61.4012962890625,59.66856875,58.3766962890625,62.77056875,54.6452962890625,62.77206875L48.3974962890625,62.77206875L43.9787962890625,67.30406875C41.3391962890625,70.01006875,37.0608962890625,70.01006875,34.4211962890625,67.30406875L30.0024962890625,62.77206875L23.7559962890625,62.77206875C20.0245962890625,62.77056875,17.0000462890625,59.66856875,16.9986162890625,55.84146875L16.9986162890625,49.43346875L12.5799162890625,44.90146875C9.9416242890625,42.19406875,9.9416242890625,37.80606875,12.5799162890625,35.098768750000005L16.9986162890625,30.56676875L16.9986162890625,24.16006875C17.0000462890625,20.33299875,20.0245962890625,17.23089875,23.7559962890625,17.22942875L30.0037962890625,17.22942875L34.4224962890625,12.69741875C37.0621962890625,9.99148475,41.3404962890625,9.99148475,43.9800962890625,12.69741875L48.3987962890625,17.22942875L54.6465962890625,17.22942875L54.6439962890625,17.226758750000002ZM45.4815962890625,21.780068749999998L40.3023962890625,16.46675875C39.6933962890625,15.842858750000001,38.7066962890625,15.842858750000001,38.0975962890625,16.46675875L32.9183962890625,21.778768749999998C32.4305962890625,22.27906875,31.7693962890625,22.56006875,31.0801962890625,22.56006875L23.7546962890625,22.56006875C22.8951962890625,22.56156875,22.1986962890625,23.27586875,22.1972962890625,24.15746875L22.1972962890625,31.67076875C22.1971962890625,32.37796875,21.9230962890625,33.05606875,21.4354962890625,33.55606875L16.2550162890625,38.869468749999996C15.6467062890625,39.49406875,15.6467062890625,40.50606875,16.2550162890625,41.13076875L21.4341962890625,46.44276875C21.9219962890625,46.94306875,22.1959962890625,47.62126875,22.1959962890625,48.32806875L22.1959962890625,55.84146875C22.1973962890625,56.72296875,22.8938962890625,57.43726875,23.7533962890625,57.43876875L31.0788962890625,57.43876875C31.7683962890625,57.43886875,32.4295962890625,57.71996875,32.9170962890625,58.22006875L38.0962962890625,63.53206875C38.7053962890625,64.15596875,39.692096289062505,64.15596875,40.3010962890625,63.53206875L45.4802962890625,58.22006875C45.9681962890625,57.71976875,46.6293962890625,57.43876875,47.3184962890625,57.43876875L54.6439962890625,57.43876875C55.5035962890625,57.43726875,56.1999962890625,56.72296875,56.2013962890625,55.84146875L56.2013962890625,48.32806875C56.2015962890625,47.62086875,56.4755962890625,46.94276875,56.9631962890625,46.44276875L62.1423962890625,41.13076875C62.7506962890625,40.50606875,62.7506962890625,39.49406875,62.1423962890625,38.869468749999996L56.9631962890625,33.55746875C56.4753962890625,33.05706875,56.2013962890625,32.378868749999995,56.2013962890625,31.67206875L56.2013962890625,24.15876875C56.1999962890625,23.27716875,55.5035962890625,22.56286875,54.6439962890625,22.56146875L47.3184962890625,22.56146875C46.6289962890625,22.56126875,45.9677962890625,22.280268749999998,45.4802962890625,21.780068749999998L45.4815962890625,21.780068749999998ZM46.4617962890625,28.78006875C47.4779962890625,27.74006875,49.1234962890625,27.74126875,50.1382962890625,28.78276875C51.1529962890625,29.82416875,51.1529962890625,31.51196875,50.1381962890625,32.55346875L31.9381962890625,51.22006875C30.9220962890625,52.26006875,29.2764962890625,52.25896875,28.2617962890625,51.21746875C27.2470962890625,50.17596875,27.2470962890625,48.48816875,28.2617962890625,47.44676875L46.4617962890625,28.78006875ZM31.3999962890625,36.00006875C29.2460962890625,36.00006875,27.4999962890625,34.20926875,27.4999962890625,32.00006875C27.4999962890625,29.79096875,29.2460962890625,28.00006875,31.3999962890625,28.00006875C33.5538962890625,28.00006875,35.2999962890625,29.79096875,35.2999962890625,32.00006875C35.2999962890625,34.20926875,33.5538962890625,36.00006875,31.3999962890625,36.00006875ZM46.9999962890625,52.00006875C44.8460962890625,52.00006875,43.0999962890625,50.20926875,43.0999962890625,48.00006875C43.0999962890625,45.79096875,44.8460962890625,44.00006875,46.9999962890625,44.00006875C49.1538962890625,44.00006875,50.8999962890625,45.79096875,50.8999962890625,48.00006875C50.8999962890625,50.20926875,49.1538962890625,52.00006875,46.9999962890625,52.00006875Z" fill="url(#master_svg3_1_2796)" fill-opacity="1"/></g></g></g></svg>