<svg xmlns="http://www.w3.org/2000/svg" xmlns:xlink="http://www.w3.org/1999/xlink" fill="none" version="1.1" width="80" height="80" viewBox="0 0 80 80"><defs><linearGradient x1="0.9895104765892029" y1="0.9078947901725769" x2="0.03496502339839935" y2="-0.03947371244430542" id="master_svg0_25_0416"><stop offset="0%" stop-color="#08BBE4" stop-opacity="1"/><stop offset="100%" stop-color="#00DF9B" stop-opacity="1"/></linearGradient><clipPath id="master_svg1_657_34849"><rect x="0" y="0" width="80" height="80" rx="10"/></clipPath><clipPath id="master_svg2_657_34850"><rect x="10" y="11" width="60.79999923706055" height="59.19999694824219" rx="0"/></clipPath><linearGradient x1="0.9895104765892029" y1="0.9078947901725769" x2="0.03496502339839935" y2="-0.03947371244430542" id="master_svg3_1_2796"><stop offset="0%" stop-color="#08BBE4" stop-opacity="1"/><stop offset="100%" stop-color="#00DF9B" stop-opacity="1"/></linearGradient><linearGradient x1="0.9895104765892029" y1="0.9078947901725769" x2="0.03496502339839935" y2="-0.03947371244430542" id="master_svg4_1_1788"><stop offset="0%" stop-color="#08BBE4" stop-opacity="1"/><stop offset="100%" stop-color="#00DF9B" stop-opacity="1"/></linearGradient></defs><g clip-path="url(#master_svg1_657_34849)"><rect x="0" y="0" width="80" height="80" rx="10" fill="url(#master_svg0_25_0416)" fill-opacity="0.10000000149011612"/><g clip-path="url(#master_svg2_657_34850)"><g><path d="M28.7977916015625,66.47095761718751C27.5830916015625,66.47095761718751,26.483191601562503,66.19955761718751,25.5285916015625,65.6637576171875C21.9550916015625,63.6592576171875,20.8214916015625,58.2169576171875,22.4049916015625,50.7101576171875C14.947291601562501,48.2918576171875,10.6763916015625,44.6128576171875,10.6763916015625,40.594957617187504C10.6763916015625,36.5740576171875,14.9463716015625,32.8965576171875,22.4052916015625,30.483257617187498C20.832991601562497,22.9829176171875,21.969991601562498,17.5409576171875,25.5379916015625,15.529933617187499C26.489891601562498,14.9935816171875,27.5884916015625,14.7215576171875,28.8032916015625,14.7215576171875C32.076791601562505,14.7215576171875,36.187791601562495,16.7228176171875,40.4002916015625,20.363017617187502C44.6139916015625,16.7245876171875,48.7225916015625,14.7242215671875,51.9914916015625,14.7242215671875C53.2059916015625,14.7242215671875,54.3061916015625,14.9956536171875,55.2612916015625,15.5317096171875C58.8308916015625,17.5341476171875,59.9678916015625,22.9731476171875,58.3946916015625,30.4758576171875C65.8532916015625,32.8983576171875,70.12359160156251,36.5802576171875,70.12359160156251,40.5996576171875C70.12359160156251,44.6222576171875,65.85299160156251,48.2992576171875,58.3949916015625,50.7095576171875C59.9769916015625,58.2154576171875,58.8396916015625,63.6574576171875,55.2612916015625,65.6628576171875C54.3076916015625,66.1974576171875,53.2089916015625,66.4685576171875,51.9957916015625,66.4685576171875C48.7213916015625,66.4685576171875,44.6109916015625,64.46615761718749,40.399991601562505,60.8244576171875C36.1852916015625,64.4676576171875,32.0727916015625,66.4706576171875,28.7977916015625,66.47095761718751ZM43.0286916015625,58.3374576171875C46.5419916015625,61.2465576171875,49.9294916015625,62.9757576171875,52.1319916015625,62.9757576171875C52.6684916015625,62.9757576171875,53.1241916015625,62.8721576171875,53.4865916015625,62.6685576171875L53.5932916015625,62.6087576171875C55.4157916015625,61.4404576171875,55.9079916015625,57.2017576171875,54.8609916015625,51.6884576171875C52.5018916015625,52.2448576171875,50.1083916015625,52.6526576171875,47.6953916015625,52.9094576171875C46.2632916015625,54.8160576171875,44.7043916015625,56.6292576171875,43.0286916015625,58.3374576171875ZM27.3130916015625,62.6679576171875C27.6739916015625,62.8706576171875,28.1271916015625,62.9734576171875,28.6603916015625,62.9734576171875C30.8570916015625,62.9734576171875,34.237291601562504,61.2412576171875,37.7429916015625,58.3273576171875C36.079491601562495,56.6164576171875,34.5300916015625,54.8035576171875,33.1042916015625,52.8999576171875C30.6890916015625,52.6467576171875,28.2927916015625,52.2444576171875,25.929891601562503,51.6955576171875C24.871091601562497,57.3118576171875,25.4063916015625,61.6020576171875,27.3124916015625,62.6682576171875L27.3130916015625,62.6679576171875ZM37.8727916015625,53.2406576171875C38.6774916015625,54.1661576171875,39.517291601562505,55.0620576171875,40.390591601562505,55.9265576171875C41.268291601562495,55.0678576171875,42.111891601562505,54.1767576171875,42.9195916015625,53.2551576171875C42.0445916015625,53.2871576171875,41.2146916015625,53.3030576171875,40.399991601562505,53.3030576171875C39.643991601562504,53.3030576171875,38.8449916015625,53.2835576171875,37.8727916015625,53.2406576171875ZM34.988191601562505,49.6581576171875C36.7817916015625,49.8392576171875,38.6023916015625,49.9357576171875,40.4014916015625,49.9443576171875C42.1971916015625,49.9443576171875,44.0108916015625,49.8576576171875,45.7932916015625,49.6868576171875C46.8370916015625,48.2616576171875,47.8095916015625,46.7882576171875,48.7073916015625,45.271757617187504C49.6092916015625,43.741957617187495,50.4303916015625,42.168357617187496,51.1673916015625,40.557057617187496C50.4257916015625,38.976157617187496,49.6081916015625,37.4302576171875,48.7170916015625,35.924357617187496L48.6763916015625,35.8553576171875C47.7925916015625,34.3713576171875,46.8369916015625,32.9289576171875,45.8126916015625,31.5331576171875C44.0136916015625,31.3521576171875,42.2066916015625,31.2568576171875,40.3981916015625,31.2478576171875C38.6020916015625,31.2478576171875,36.789091601562504,31.3342576171875,35.0063916015625,31.5041576171875C33.959491601562505,32.9308576171875,32.9835916015625,34.405757617187504,32.0822916015625,35.923757617187505C31.1877916015625,37.4507576171875,30.3700916015625,39.0192576171875,29.6322916015625,40.623657617187504C30.4147916015625,42.2838576171875,31.2200916015625,43.8053576171875,32.0919916015625,45.2714576171875C32.987491601562496,46.7762576171875,33.9539916015625,48.2400576171875,34.988191601562505,49.6581576171875ZM51.1284916015625,47.8892576171875C50.8873916015625,48.2789576171875,50.6421916015625,48.6663576171875,50.3930916015625,49.0513576171875C51.6184916015625,48.8299576171875,52.8349916015625,48.5644576171875,54.0401916015625,48.2553576171875C53.7096916015625,47.0835576171875,53.3341916015625,45.924157617187504,52.9144916015625,44.7797576171875C52.5255916015625,45.514057617187504,52.1191916015625,46.2393576171875,51.6953916015625,46.9550576171875L51.1284916015625,47.9090576171875L51.1284916015625,47.8892576171875ZM26.7594916015625,48.2642576171875C27.8110916015625,48.5327576171875,29.0069916015625,48.7846576171875,30.3901916015625,49.0291576171875C29.9466916015625,48.3447576171875,29.5176916015625,47.6514576171875,29.1036916015625,46.9497576171875C28.6889916015625,46.2451576171875,28.2844916015625,45.535057617187505,27.8903916015625,44.819457617187496C27.4063916015625,46.149357617187505,27.0406916015625,47.2629576171875,26.7594916015625,48.2642576171875ZM23.3014916015625,33.9710576171875C17.7775316015625,35.8769576171875,14.2265016015625,38.4643576171875,14.2265016015625,40.5999576171875C14.2265016015625,42.7397576171875,17.7735716015625,45.3323576171875,23.2917916015625,47.2436576171875C23.9795916015625,44.9781576171875,24.8169916015625,42.758257617187496,25.798891601562502,40.5978576171875C24.8206916015625,38.4435576171875,23.9864916015625,36.2300576171875,23.3014916015625,33.9710576171875ZM55.0007916015625,40.5854576171875C55.9782916015625,42.7453576171875,56.8154916015625,44.9629576171875,57.5075916015625,47.2250576171875C63.0260916015625,45.3143576171875,66.5731916015625,42.7284576171875,66.5731916015625,40.5990576171875C66.5731916015625,38.4882576171875,62.9397916015625,35.8337576171875,57.4984916015625,33.9506576171875C56.8102916015625,36.2112576171875,55.9760916015625,38.4272576171875,55.0007916015625,40.5854576171875ZM26.7600916015625,32.9338576171875C27.0910916015625,34.1021576171875,27.4663916015625,35.2579576171875,27.8854916015625,36.3991576171875C28.2469916015625,35.7206576171875,28.6521916015625,34.980657617187504,29.0951916015625,34.2412576171875C29.5183916015625,33.5338576171875,29.9532916015625,32.8329576171875,30.3995916015625,32.139057617187504C29.1764916015625,32.3589576171875,27.9624916015625,32.6240576171875,26.7600916015625,32.9338576171875ZM50.4182916015625,32.1674576171875C50.8882916015625,32.8971576171875,51.3022916015625,33.5584576171875,51.7057916015625,34.246957617187505C52.1171916015625,34.946457617187505,52.5182916015625,35.651657617187496,52.9089916015625,36.3624576171875C53.3935916015625,35.0345576171875,53.7586916015625,33.9248576171875,54.0395916015625,32.928857617187504C52.9955916015625,32.6624576171875,51.8251916015625,32.4161576171875,50.4182916015625,32.1674576171875ZM27.3133916015625,18.5310776171875C25.4130916015625,19.6005276171875,24.8813916015625,23.8922376171875,25.939591601562498,29.5082576171875C28.2954916015625,28.9530576171875,30.6854916015625,28.545757617187498,33.0948916015625,28.2887576171875C34.5297916015625,26.3840576171875,36.088791601562505,24.5709476171875,37.7621916015625,22.860667617187502C34.2591916015625,19.9501076171875,30.8762916015625,18.2196876171875,28.6731916015625,18.2196876171875C28.1700916015625,18.2196876171875,27.7368916015625,18.3105576171875,27.3844916015625,18.4893476171875L27.3133916015625,18.5310776171875ZM47.7056916015625,28.2904576171875C50.1142916015625,28.5441576171875,52.5039916015625,28.946157617187502,54.8603916015625,29.4940576171875C55.9036916015625,23.962977617187498,55.4014916015625,19.7174476171875,53.5664916015625,18.5754776171875L53.4865916015625,18.5310776171875C53.1253916015625,18.3280276171875,52.6712916015625,18.2253176171875,52.1373916015625,18.2253176171875C49.9412916015625,18.2253176171875,46.5620916015625,19.954247617187498,43.0578916015625,22.8627476171875C44.7265916015625,24.5717976171875,46.2790916015625,26.3848576171875,47.7056916015625,28.2904576171875ZM40.4364916015625,27.8843576171875C41.287391601562504,27.8843576171875,42.147391601562504,27.912757617187502,42.9328916015625,27.9471576171875C42.123591601562495,27.0239576171875,41.2811916015625,26.1286576171875,40.4072916015625,25.2630576171875C39.530291601562496,26.1213576171875,38.6872916015625,27.012157617187498,37.8800916015625,27.9332576171875C38.736191601562496,27.9015576171875,39.5806916015625,27.8852576171875,40.3993916015625,27.8843576171875L40.4364916015625,27.8843576171875ZM40.399991601562505,42.8054576171875C39.1508916015625,42.8054576171875,38.134591601562505,41.8159576171875,38.134591601562505,40.5999576171875C38.134591601562505,39.383657617187495,39.1508916015625,38.3941576171875,40.399991601562505,38.3941576171875C41.6487916015625,38.3941576171875,42.6650916015625,39.383657617187495,42.6650916015625,40.5999576171875C42.6650916015625,41.8159576171875,41.6487916015625,42.8054576171875,40.399991601562505,42.8054576171875Z" fill="#000000" fill-opacity="1"/><path d="M28.7977916015625,66.47095761718751C27.5830916015625,66.47095761718751,26.483191601562503,66.19955761718751,25.5285916015625,65.6637576171875C21.9550916015625,63.6592576171875,20.8214916015625,58.2169576171875,22.4049916015625,50.7101576171875C14.947291601562501,48.2918576171875,10.6763916015625,44.6128576171875,10.6763916015625,40.594957617187504C10.6763916015625,36.5740576171875,14.9463716015625,32.8965576171875,22.4052916015625,30.483257617187498C20.832991601562497,22.9829176171875,21.969991601562498,17.5409576171875,25.5379916015625,15.529933617187499C26.489891601562498,14.9935816171875,27.5884916015625,14.7215576171875,28.8032916015625,14.7215576171875C32.076791601562505,14.7215576171875,36.187791601562495,16.7228176171875,40.4002916015625,20.363017617187502C44.6139916015625,16.7245876171875,48.7225916015625,14.7242215671875,51.9914916015625,14.7242215671875C53.2059916015625,14.7242215671875,54.3061916015625,14.9956536171875,55.2612916015625,15.5317096171875C58.8308916015625,17.5341476171875,59.9678916015625,22.9731476171875,58.3946916015625,30.4758576171875C65.8532916015625,32.8983576171875,70.12359160156251,36.5802576171875,70.12359160156251,40.5996576171875C70.12359160156251,44.6222576171875,65.85299160156251,48.2992576171875,58.3949916015625,50.7095576171875C59.9769916015625,58.2154576171875,58.8396916015625,63.6574576171875,55.2612916015625,65.6628576171875C54.3076916015625,66.1974576171875,53.2089916015625,66.4685576171875,51.9957916015625,66.4685576171875C48.7213916015625,66.4685576171875,44.6109916015625,64.46615761718749,40.399991601562505,60.8244576171875C36.1852916015625,64.4676576171875,32.0727916015625,66.4706576171875,28.7977916015625,66.47095761718751ZM43.0286916015625,58.3374576171875C46.5419916015625,61.2465576171875,49.9294916015625,62.9757576171875,52.1319916015625,62.9757576171875C52.6684916015625,62.9757576171875,53.1241916015625,62.8721576171875,53.4865916015625,62.6685576171875L53.5932916015625,62.6087576171875C55.4157916015625,61.4404576171875,55.9079916015625,57.2017576171875,54.8609916015625,51.6884576171875C52.5018916015625,52.2448576171875,50.1083916015625,52.6526576171875,47.6953916015625,52.9094576171875C46.2632916015625,54.8160576171875,44.7043916015625,56.6292576171875,43.0286916015625,58.3374576171875ZM27.3130916015625,62.6679576171875C27.6739916015625,62.8706576171875,28.1271916015625,62.9734576171875,28.6603916015625,62.9734576171875C30.8570916015625,62.9734576171875,34.237291601562504,61.2412576171875,37.7429916015625,58.3273576171875C36.079491601562495,56.6164576171875,34.5300916015625,54.8035576171875,33.1042916015625,52.8999576171875C30.6890916015625,52.6467576171875,28.2927916015625,52.2444576171875,25.929891601562503,51.6955576171875C24.871091601562497,57.3118576171875,25.4063916015625,61.6020576171875,27.3124916015625,62.6682576171875L27.3130916015625,62.6679576171875ZM37.8727916015625,53.2406576171875C38.6774916015625,54.1661576171875,39.517291601562505,55.0620576171875,40.390591601562505,55.9265576171875C41.268291601562495,55.0678576171875,42.111891601562505,54.1767576171875,42.9195916015625,53.2551576171875C42.0445916015625,53.2871576171875,41.2146916015625,53.3030576171875,40.399991601562505,53.3030576171875C39.643991601562504,53.3030576171875,38.8449916015625,53.2835576171875,37.8727916015625,53.2406576171875ZM34.988191601562505,49.6581576171875C36.7817916015625,49.8392576171875,38.6023916015625,49.9357576171875,40.4014916015625,49.9443576171875C42.1971916015625,49.9443576171875,44.0108916015625,49.8576576171875,45.7932916015625,49.6868576171875C46.8370916015625,48.2616576171875,47.8095916015625,46.7882576171875,48.7073916015625,45.271757617187504C49.6092916015625,43.741957617187495,50.4303916015625,42.168357617187496,51.1673916015625,40.557057617187496C50.4257916015625,38.976157617187496,49.6081916015625,37.4302576171875,48.7170916015625,35.924357617187496L48.6763916015625,35.8553576171875C47.7925916015625,34.3713576171875,46.8369916015625,32.9289576171875,45.8126916015625,31.5331576171875C44.0136916015625,31.3521576171875,42.2066916015625,31.2568576171875,40.3981916015625,31.2478576171875C38.6020916015625,31.2478576171875,36.789091601562504,31.3342576171875,35.0063916015625,31.5041576171875C33.959491601562505,32.9308576171875,32.9835916015625,34.405757617187504,32.0822916015625,35.923757617187505C31.1877916015625,37.4507576171875,30.3700916015625,39.0192576171875,29.6322916015625,40.623657617187504C30.4147916015625,42.2838576171875,31.2200916015625,43.8053576171875,32.0919916015625,45.2714576171875C32.987491601562496,46.7762576171875,33.9539916015625,48.2400576171875,34.988191601562505,49.6581576171875ZM51.1284916015625,47.8892576171875C50.8873916015625,48.2789576171875,50.6421916015625,48.6663576171875,50.3930916015625,49.0513576171875C51.6184916015625,48.8299576171875,52.8349916015625,48.5644576171875,54.0401916015625,48.2553576171875C53.7096916015625,47.0835576171875,53.3341916015625,45.924157617187504,52.9144916015625,44.7797576171875C52.5255916015625,45.514057617187504,52.1191916015625,46.2393576171875,51.6953916015625,46.9550576171875L51.1284916015625,47.9090576171875L51.1284916015625,47.8892576171875ZM26.7594916015625,48.2642576171875C27.8110916015625,48.5327576171875,29.0069916015625,48.7846576171875,30.3901916015625,49.0291576171875C29.9466916015625,48.3447576171875,29.5176916015625,47.6514576171875,29.1036916015625,46.9497576171875C28.6889916015625,46.2451576171875,28.2844916015625,45.535057617187505,27.8903916015625,44.819457617187496C27.4063916015625,46.149357617187505,27.0406916015625,47.2629576171875,26.7594916015625,48.2642576171875ZM23.3014916015625,33.9710576171875C17.7775316015625,35.8769576171875,14.2265016015625,38.4643576171875,14.2265016015625,40.5999576171875C14.2265016015625,42.7397576171875,17.7735716015625,45.3323576171875,23.2917916015625,47.2436576171875C23.9795916015625,44.9781576171875,24.8169916015625,42.758257617187496,25.798891601562502,40.5978576171875C24.8206916015625,38.4435576171875,23.9864916015625,36.2300576171875,23.3014916015625,33.9710576171875ZM55.0007916015625,40.5854576171875C55.9782916015625,42.7453576171875,56.8154916015625,44.9629576171875,57.5075916015625,47.2250576171875C63.0260916015625,45.3143576171875,66.5731916015625,42.7284576171875,66.5731916015625,40.5990576171875C66.5731916015625,38.4882576171875,62.9397916015625,35.8337576171875,57.4984916015625,33.9506576171875C56.8102916015625,36.2112576171875,55.9760916015625,38.4272576171875,55.0007916015625,40.5854576171875ZM26.7600916015625,32.9338576171875C27.0910916015625,34.1021576171875,27.4663916015625,35.2579576171875,27.8854916015625,36.3991576171875C28.2469916015625,35.7206576171875,28.6521916015625,34.980657617187504,29.0951916015625,34.2412576171875C29.5183916015625,33.5338576171875,29.9532916015625,32.8329576171875,30.3995916015625,32.139057617187504C29.1764916015625,32.3589576171875,27.9624916015625,32.6240576171875,26.7600916015625,32.9338576171875ZM50.4182916015625,32.1674576171875C50.8882916015625,32.8971576171875,51.3022916015625,33.5584576171875,51.7057916015625,34.246957617187505C52.1171916015625,34.946457617187505,52.5182916015625,35.651657617187496,52.9089916015625,36.3624576171875C53.3935916015625,35.0345576171875,53.7586916015625,33.9248576171875,54.0395916015625,32.928857617187504C52.9955916015625,32.6624576171875,51.8251916015625,32.4161576171875,50.4182916015625,32.1674576171875ZM27.3133916015625,18.5310776171875C25.4130916015625,19.6005276171875,24.8813916015625,23.8922376171875,25.939591601562498,29.5082576171875C28.2954916015625,28.9530576171875,30.6854916015625,28.545757617187498,33.0948916015625,28.2887576171875C34.5297916015625,26.3840576171875,36.088791601562505,24.5709476171875,37.7621916015625,22.860667617187502C34.2591916015625,19.9501076171875,30.8762916015625,18.2196876171875,28.6731916015625,18.2196876171875C28.1700916015625,18.2196876171875,27.7368916015625,18.3105576171875,27.3844916015625,18.4893476171875L27.3133916015625,18.5310776171875ZM47.7056916015625,28.2904576171875C50.1142916015625,28.5441576171875,52.5039916015625,28.946157617187502,54.8603916015625,29.4940576171875C55.9036916015625,23.962977617187498,55.4014916015625,19.7174476171875,53.5664916015625,18.5754776171875L53.4865916015625,18.5310776171875C53.1253916015625,18.3280276171875,52.6712916015625,18.2253176171875,52.1373916015625,18.2253176171875C49.9412916015625,18.2253176171875,46.5620916015625,19.954247617187498,43.0578916015625,22.8627476171875C44.7265916015625,24.5717976171875,46.2790916015625,26.3848576171875,47.7056916015625,28.2904576171875ZM40.4364916015625,27.8843576171875C41.287391601562504,27.8843576171875,42.147391601562504,27.912757617187502,42.9328916015625,27.9471576171875C42.123591601562495,27.0239576171875,41.2811916015625,26.1286576171875,40.4072916015625,25.2630576171875C39.530291601562496,26.1213576171875,38.6872916015625,27.012157617187498,37.8800916015625,27.9332576171875C38.736191601562496,27.9015576171875,39.5806916015625,27.8852576171875,40.3993916015625,27.8843576171875L40.4364916015625,27.8843576171875ZM40.399991601562505,42.8054576171875C39.1508916015625,42.8054576171875,38.134591601562505,41.8159576171875,38.134591601562505,40.5999576171875C38.134591601562505,39.383657617187495,39.1508916015625,38.3941576171875,40.399991601562505,38.3941576171875C41.6487916015625,38.3941576171875,42.6650916015625,39.383657617187495,42.6650916015625,40.5999576171875C42.6650916015625,41.8159576171875,41.6487916015625,42.8054576171875,40.399991601562505,42.8054576171875Z" fill="url(#master_svg3_1_2796)" fill-opacity="1"/><path d="M42.9150916015625,40.5999576171875Q42.9150916015625,41.6174576171875,42.1752916015625,42.3377576171875Q41.4381916015625,43.0554576171875,40.399991601562505,43.0554576171875Q39.361591601562495,43.0554576171875,38.6244916015625,42.337857617187495Q37.884591601562505,41.6174576171875,37.884591601562505,40.5999576171875Q37.884591601562505,39.5822576171875,38.6244916015625,38.861857617187496Q39.3614916015625,38.1441576171875,40.399991601562505,38.1441576171875Q41.4382916015625,38.1441576171875,42.1752916015625,38.861857617187496Q42.9150916015625,39.5822576171875,42.9150916015625,40.5999576171875ZM42.4150916015625,40.5999576171875Q42.4150916015625,39.7932576171875,41.826491601562495,39.2200576171875Q41.2349916015625,38.6441576171875,40.399991601562505,38.6441576171875Q39.5646916015625,38.6441576171875,38.9732916015625,39.2200576171875Q38.384591601562505,39.7932576171875,38.384591601562505,40.5999576171875Q38.384591601562505,41.4064576171875,38.9732916015625,41.979557617187496Q39.564791601562504,42.5554576171875,40.399991601562505,42.5554576171875Q41.2349916015625,42.5554576171875,41.826491601562495,41.979557617187496Q42.4150916015625,41.4064576171875,42.4150916015625,40.5999576171875ZM40.3993916015625,27.6343576171875L40.4364916015625,27.6343576171875Q41.5026916015625,27.6343576171875,42.9437916015625,27.6973576171875L42.9328916015625,27.9471576171875L42.7448916015625,28.1119576171875Q41.5364916015625,26.7334576171875,40.2313916015625,25.440657617187497L40.4072916015625,25.2630576171875L40.5821916015625,25.441657617187502Q39.2728916015625,26.7230576171875,38.0681916015625,28.0979576171875L37.8800916015625,27.9332576171875L37.870891601562505,27.6833576171875Q39.1591916015625,27.6357576171875,40.3990916015625,27.6343576171875L40.3993916015625,27.6343576171875ZM40.399691601562495,28.1343576171875Q39.1687916015625,28.1357576171875,37.8893916015625,28.1830576171875L37.3099916015625,28.2044576171875L37.692091601562495,27.7684576171875Q38.9094916015625,26.379157617187502,40.2323916015625,25.0843576171875L40.4083916015625,24.9121576171875L40.583191601562504,25.085357617187498Q41.9007916015625,26.3905576171875,43.1208916015625,27.7823576171875L43.5067916015625,28.2224576171875L42.9219916015625,28.1968576171875Q41.4916916015625,28.1343576171875,40.4364916015625,28.1343576171875L40.3993916015625,28.1343576171875L40.399691601562495,28.1343576171875ZM43.2366916015625,22.688097617187502Q45.7539916015625,25.2662576171875,47.9058916015625,28.1406576171875L47.7056916015625,28.2904576171875L47.7318916015625,28.0418576171875Q51.3638916015625,28.4244576171875,54.9169916015625,29.2505576171875L54.8603916015625,29.4940576171875L54.6146916015625,29.447657617187502Q55.3900916015625,25.336657617187498,55.0444916015625,22.4182576171875Q54.7084916015625,19.5806076171875,53.4343916015625,18.7877376171875L53.5664916015625,18.5754776171875L53.4451916015625,18.7940376171875L53.3651916015625,18.7496376171875Q52.8772916015625,18.4753176171875,52.1373916015625,18.4753176171875Q50.5515916015625,18.4753176171875,48.2019916015625,19.6759676171875Q45.8260916015625,20.8899976171875,43.2174916015625,23.0551176171875L43.0578916015625,22.8627476171875L43.2366916015625,22.688097617187502ZM42.8789916015625,23.0373976171875L42.6895916015625,22.8434776171875L42.8981916015625,22.6703776171875Q45.5493916015625,20.469917617187498,47.9743916015625,19.2307276171875Q50.4311916015625,17.9753176171875,52.1373916015625,17.9753176171875Q53.0081916015625,17.9753176171875,53.6079916015625,18.3125276171875L53.6933916015625,18.3599476171875L53.6985916015625,18.3632276171875Q55.1766916015625,19.2831076171875,55.5410916015625,22.3594476171875Q55.8957916015625,25.3539576171875,55.1059916015625,29.5403576171875L55.0576916015625,29.7965576171875L54.8037916015625,29.7375576171875Q51.2807916015625,28.9184576171875,47.6794916015625,28.5391576171875L47.5709916015625,28.5276576171875L47.5055916015625,28.4403576171875Q45.3733916015625,25.5920576171875,42.8789916015625,23.0373976171875ZM27.5110916015625,18.7049676171875L27.4398916015625,18.7467076171875Q26.1216916015625,19.4886276171875,25.7650916015625,22.3456576171875Q25.398291601562498,25.2852576171875,26.1852916015625,29.4619576171875L25.939591601562498,29.5082576171875L25.8822916015625,29.264857617187502Q29.4349916015625,28.427757617187503,33.068391601562496,28.0401576171875L33.0948916015625,28.2887576171875L32.8951916015625,28.1382576171875Q35.0594916015625,25.2654576171875,37.5834916015625,22.6858276171875L37.7621916015625,22.860667617187502L37.6023916015625,23.052957617187502Q34.9947916015625,20.8862876171875,32.6164916015625,19.6713476171875Q30.2642916015625,18.4696876171875,28.6731916015625,18.4696876171875Q27.9757916015625,18.4696876171875,27.4976916015625,18.7122876171875L27.3844916015625,18.4893476171875L27.5110916015625,18.7049676171875ZM27.2579916015625,18.2737176171875L27.2645916015625,18.2698576171875L27.2713916015625,18.2664076171875Q27.8561916015625,17.9696876171875,28.6731916015625,17.9696876171875Q30.3845916015625,17.9696876171875,32.8439916015625,19.2260876171875Q35.2715916015625,20.4662876171875,37.921991601562496,22.6683876171875L38.1304916015625,22.8416876171875L37.9408916015625,23.0355076171875Q35.4394916015625,25.5920576171875,33.2945916015625,28.439157617187497L33.2292916015625,28.5257576171875L33.1213916015625,28.5373576171875Q29.5191916015625,28.9215576171875,25.9969916015625,29.7515576171875L25.742391601562503,29.8115576171875L25.6939916015625,29.5545576171875Q24.8924916015625,25.3009576171875,25.268991601562497,22.283737617187498Q25.6567916015625,19.1765376171875,27.1868916015625,18.3154576171875L27.2579916015625,18.2737176171875ZM53.9776916015625,33.1710576171875Q52.4402916015625,32.7787576171875,50.3747916015625,32.413657617187496L50.4182916015625,32.1674576171875L50.6284916015625,32.0321576171875Q51.3955916015625,33.2230576171875,51.9214916015625,34.1205576171875Q52.5404916015625,35.1731576171875,53.1280916015625,36.241957617187495L52.9089916015625,36.3624576171875L52.6740916015625,36.2767576171875Q53.3849916015625,34.3287576171875,53.7989916015625,32.860957617187495L54.0395916015625,32.928857617187504L53.9776916015625,33.1710576171875ZM54.1013916015625,32.6865576171875L54.3497916015625,32.749957617187505L54.2801916015625,32.996657617187495Q53.8611916015625,34.482557617187496,53.1437916015625,36.448157617187505L52.9550916015625,36.965257617187504L52.6898916015625,36.4828576171875Q52.1058916015625,35.4203576171875,51.4900916015625,34.373257617187505Q50.9694916015625,33.484957617187504,50.2080916015625,32.3028576171875L49.8981916015625,31.8217576171875L50.4617916015625,31.9213576171875Q52.5457916015625,32.2896576171875,54.1013916015625,32.6865576171875ZM30.4438916015625,32.3851576171875Q28.6177916015625,32.7134576171875,26.8224916015625,33.1759576171875L26.7600916015625,32.9338576171875L27.0006916015625,32.8657576171875Q27.4945916015625,34.6094576171875,28.1201916015625,36.3129576171875L27.8854916015625,36.3991576171875L27.6648916015625,36.2815576171875Q28.3352916015625,35.0231576171875,28.8806916015625,34.1128576171875Q29.5175916015625,33.0482576171875,30.1893916015625,32.0038576171875L30.3995916015625,32.139057617187504L30.4438916015625,32.3851576171875ZM30.3553916015625,31.8930576171875L30.9204916015625,31.7914576171875L30.6098916015625,32.274357617187505Q29.9425916015625,33.3118576171875,29.3095916015625,34.3697576171875Q28.7706916015625,35.269357617187495,28.1061916015625,36.516657617187505L27.8434916015625,37.0097576171875L27.6508916015625,36.4853576171875Q27.0186916015625,34.764057617187504,26.5195916015625,33.0019576171875L26.449791601562502,32.755657617187495L26.6977916015625,32.6917576171875Q28.5109916015625,32.2246576171875,30.3553916015625,31.8930576171875ZM57.7375916015625,34.0234576171875Q56.6994916015625,37.4334576171875,55.2285916015625,40.6883576171875L55.0007916015625,40.5854576171875L55.2285916015625,40.4823576171875Q56.7026916015625,43.7397576171875,57.7466916015625,47.1518576171875L57.5075916015625,47.2250576171875L57.4257916015625,46.9887576171875Q61.5324916015625,45.5668576171875,63.9623916015625,43.7921576171875Q66.3231916015625,42.0678576171875,66.3231916015625,40.5990576171875Q66.3231916015625,39.1441576171875,63.9285916015625,37.3911576171875Q61.4654916015625,35.5880576171875,57.4166916015625,34.1868576171875L57.4984916015625,33.9506576171875L57.7375916015625,34.0234576171875ZM57.2592916015625,33.8777576171875L57.3348916015625,33.6294576171875L57.5802916015625,33.7143576171875Q61.7001916015625,35.1401576171875,64.2239916015625,36.9877576171875Q66.8231916015625,38.8904576171875,66.8231916015625,40.5990576171875Q66.8231916015625,42.321857617187504,64.2572916015625,44.1959576171875Q61.7668916015625,46.0148576171875,57.5893916015625,47.4612576171875L57.3443916015625,47.5460576171875L57.2684916015625,47.2981576171875Q56.2338916015625,43.9166576171875,54.7730916015625,40.6885576171875L54.7263916015625,40.585557617187504L54.7729916015625,40.4824576171875Q56.2304916015625,37.256957617187496,57.2592916015625,33.8777576171875ZM25.5711916015625,40.7012576171875Q24.0955916015625,37.4514576171875,23.0622916015625,34.0435576171875L23.3014916015625,33.9710576171875L23.383091601562498,34.2073576171875Q19.272521601562502,35.6256576171875,16.8399116015625,37.4012576171875Q14.4765016015625,39.1263576171875,14.4765016015625,40.5999576171875Q14.4765016015625,42.076757617187496,16.8375216015625,43.805757617187496Q19.2672416015625,45.585157617187505,23.373591601562502,47.0074576171875L23.2917916015625,47.2436576171875L23.0525916015625,47.1710576171875Q24.0900916015625,43.7534576171875,25.5712916015625,40.4944576171875L25.798891601562502,40.5978576171875L25.5711916015625,40.7012576171875ZM26.026491601562498,40.494557617187496L26.073491601562502,40.597957617187504L26.026491601562498,40.7013576171875Q24.5589916015625,43.9302576171875,23.530991601562498,47.3162576171875L23.4554916015625,47.5649576171875L23.2099916015625,47.4798576171875Q19.0325116015625,46.033057617187495,16.5421116015625,44.2091576171875Q13.9765016015625,42.3303576171875,13.9765016015625,40.5999576171875Q13.9765016015625,38.872357617187504,16.5451216015625,36.9974576171875Q19.038401601562498,35.1774576171875,23.219991601562498,33.7346576171875L23.4653916015625,33.6500576171875L23.5407916015625,33.8984576171875Q24.5644916015625,37.274757617187504,26.026491601562498,40.494557617187496ZM28.1252916015625,44.9049576171875Q27.4123916015625,46.8640576171875,27.0001916015625,48.3318576171875L26.7594916015625,48.2642576171875L26.8213916015625,48.0220576171875Q28.3794916015625,48.4198576171875,30.4336916015625,48.7829576171875L30.3901916015625,49.0291576171875L30.1803916015625,49.1650576171875Q29.5122916015625,48.1341576171875,28.8883916015625,47.0767576171875Q28.2644916015625,46.0167576171875,27.6713916015625,44.9400576171875L27.8903916015625,44.819457617187496L28.1252916015625,44.9049576171875ZM27.6554916015625,44.7339576171875L27.8437916015625,44.216557617187505L28.1093916015625,44.6988576171875Q28.6989916015625,45.769357617187495,29.3189916015625,46.8226576171875Q29.9375916015625,47.8710576171875,30.5999916015625,48.8931576171875L30.9123916015625,49.3753576171875L30.3466916015625,49.2753576171875Q28.2740916015625,48.9089576171875,26.6976916015625,48.5065576171875L26.4495916015625,48.4431576171875L26.518791601562498,48.1966576171875Q26.9360916015625,46.7106576171875,27.6554916015625,44.7339576171875ZM50.8784916015625,47.9088576171875L50.8784916015625,47.8890576171875L51.1284916015625,47.8892576171875L51.3410916015625,48.0207576171875Q50.9779916015625,48.6076576171875,50.6029916015625,49.1871576171875L50.3930916015625,49.0513576171875L50.3485916015625,48.8053576171875Q52.1783916015625,48.4747576171875,53.9780916015625,48.0132576171875L54.0401916015625,48.2553576171875L53.7995916015625,48.3232576171875Q53.3063916015625,46.5743576171875,52.6796916015625,44.8658576171875L52.9144916015625,44.7797576171875L53.1353916015625,44.896757617187504Q52.5492916015625,46.0035576171875,51.9104916015625,47.0824576171875L50.8777916015625,48.8202576171875L50.8784916015625,47.9088576171875ZM51.3784916015625,47.9092576171875L51.1284916015625,47.9090576171875L50.9134916015625,47.7813576171875L51.4802916015625,46.8277576171875Q52.1129916015625,45.758957617187505,52.6934916015625,44.662757617187495L52.9559916015625,44.167057617187496L53.1491916015625,44.6936576171875Q53.7823916015625,46.4201576171875,54.2807916015625,48.1875576171875L54.3502916015625,48.4339576171875L54.1022916015625,48.4975576171875Q52.2849916015625,48.9635576171875,50.4374916015625,49.2973576171875L49.8696916015625,49.3999576171875L50.1831916015625,48.9155576171875Q50.5553916015625,48.3404576171875,50.9158916015625,47.7577576171875L51.3790916015625,47.0088576171875L51.3784916015625,47.9092576171875ZM32.3067916015625,45.1435576171875Q33.6448916015625,47.3920576171875,35.1901916015625,49.5108576171875L34.988191601562505,49.6581576171875L35.0132916015625,49.4094576171875Q37.7075916015625,49.6815576171875,40.402691601562495,49.6943576171875Q43.0937916015625,49.6943576171875,45.7693916015625,49.4379576171875L45.7932916015625,49.6868576171875L45.5915916015625,49.5391576171875Q47.1509916015625,47.4099576171875,48.4922916015625,45.144357617187495Q49.8390916015625,42.8598576171875,50.9399916015625,40.4530576171875L51.1673916015625,40.557057617187496L50.9409916015625,40.6631576171875Q49.8331916015625,38.301457617187495,48.5019916015625,36.0516576171875L48.4610916015625,35.982557617187496Q47.1414916015625,33.7665576171875,45.6111916015625,31.6810576171875L45.8126916015625,31.5331576171875L45.7876916015625,31.7819576171875Q43.0994916015625,31.5113576171875,40.3968916015625,31.4978576171875Q37.707791601562505,31.4978576171875,35.0301916015625,31.7530576171875L35.0063916015625,31.5041576171875L35.2079916015625,31.6520576171875Q33.6438916015625,33.783357617187505,32.2971916015625,36.0513576171875Q30.9616916015625,38.331257617187504,29.8594916015625,40.7280576171875L29.6322916015625,40.623657617187504L29.8584916015625,40.517057617187504Q31.0158916015625,42.9728576171875,32.3068916015625,45.1436576171875L32.3067916015625,45.1435576171875ZM31.8770916015625,45.3992576171875Q30.5738916015625,43.2078576171875,29.4061916015625,40.730257617187505L29.3565916015625,40.624957617187505L29.4051916015625,40.5191576171875Q30.5177916015625,38.099857617187496,31.8672916015625,35.796157617187504Q33.2263916015625,33.5071576171875,34.8048916015625,31.3562576171875L34.8711916015625,31.2659576171875L34.9826916015625,31.2552576171875Q37.6839916015625,30.9978576171875,40.3993916015625,30.9978576171875Q43.1257916015625,31.0114576171875,45.8377916015625,31.2844576171875L45.9484916015625,31.2955576171875L46.0142916015625,31.3852576171875Q47.5587916015625,33.4900576171875,48.8916916015625,35.728257617187495L48.9322916015625,35.797057617187505Q50.2756916015625,38.0674576171875,51.3936916015625,40.450857617187495L51.4428916015625,40.555757617187496L51.3946916015625,40.661057617187495Q50.2829916015625,43.0914576171875,48.9224916015625,45.399057617187495Q47.5687916015625,47.6855576171875,45.9949916015625,49.8345576171875L45.9286916015625,49.9250576171875L45.8170916015625,49.9357576171875Q43.1176916015625,50.1943576171875,40.4002916015625,50.1943576171875Q37.6812916015625,50.1813576171875,34.963091601562496,49.9068576171875L34.8519916015625,49.8956576171875L34.7861916015625,49.8054576171875Q33.2270916015625,47.6678576171875,31.8770916015625,45.3992576171875L31.8770916015625,45.3992576171875ZM40.399991601562505,53.5530576171875Q39.2818916015625,53.5530576171875,37.8617916015625,53.4903576171875L37.8727916015625,53.2406576171875L38.0614916015625,53.0765576171875Q39.262591601562505,54.4581576171875,40.566491601562504,55.7488576171875L40.390591601562505,55.9265576171875L40.2156916015625,55.7478576171875Q41.525991601562495,54.4659576171875,42.7314916015625,53.0903576171875L42.9195916015625,53.2551576171875L42.9286916015625,53.5049576171875Q41.6117916015625,53.5530576171875,40.399991601562505,53.5530576171875ZM40.399991601562505,53.0530576171875Q41.6026916015625,53.0530576171875,42.9103916015625,53.0053576171875L43.4894916015625,52.9841576171875L43.1075916015625,53.4199576171875Q41.8893916015625,54.8099576171875,40.565391601562496,56.1052576171875L40.3894916015625,56.2772576171875L40.2146916015625,56.1042576171875Q38.897591601562496,54.8003576171875,37.6841916015625,53.4046576171875L37.302091601562495,52.9651576171875L37.883891601562496,52.9908576171875Q39.2928916015625,53.0530576171875,40.399991601562505,53.0530576171875ZM27.2034916015625,62.4432576171875L27.3216916015625,62.3860576171875L27.4355916015625,62.4499576171875Q27.9221916015625,62.7234576171875,28.6603916015625,62.7234576171875Q30.2465916015625,62.7234576171875,32.5969916015625,61.5205576171875Q34.9733916015625,60.3043576171875,37.583191601562504,58.1351576171875L37.7429916015625,58.3273576171875L37.5637916015625,58.5016576171875Q35.0547916015625,55.9210576171875,32.9041916015625,53.0497576171875L33.1042916015625,52.8999576171875L33.0781916015625,53.1485576171875Q29.4363916015625,52.7668576171875,25.8732916015625,51.9390576171875L25.929891601562503,51.6955576171875L26.175591601562502,51.7418576171875Q25.3880916015625,55.9184576171875,25.7573916015625,58.8569576171875Q26.116191601562498,61.7126576171875,27.4344916015625,62.4500576171875L27.3124916015625,62.6682576171875L27.2034916015625,62.4432576171875ZM27.4214916015625,62.8932576171875L27.3041916015625,62.9500576171875L27.1904916015625,62.8864576171875Q25.6516916015625,62.0256576171875,25.261291601562498,58.9193576171875Q24.8822916015625,55.9029576171875,25.6841916015625,51.6491576171875L25.7324916015625,51.3929576171875L25.9864916015625,51.4519576171875Q29.5193916015625,52.2727576171875,33.1303916015625,52.6512576171875L33.2389916015625,52.6626576171875L33.3043916015625,52.7500576171875Q35.4355916015625,55.5955576171875,37.9222916015625,58.1531576171875L38.1106916015625,58.3468576171875L37.9027916015625,58.5196576171875Q35.2503916015625,60.7242576171875,32.8246916015625,61.9656576171875Q30.3670916015625,63.2233576171875,28.6603916015625,63.2234576171875Q27.7912916015625,63.2233576171875,27.1905916015625,62.8858576171875L27.3130916015625,62.6679576171875L27.4220916015625,62.8929576171875L27.4214916015625,62.8932576171875ZM47.8952916015625,53.0595576171875Q45.7349916015625,55.9356576171875,43.2071916015625,58.5125576171875L43.0286916015625,58.3374576171875L43.1880916015625,58.1448576171875Q45.8035916015625,60.3106576171875,48.1853916015625,61.5247576171875Q50.5412916015625,62.7257576171875,52.1319916015625,62.7257576171875Q52.8743916015625,62.7257576171875,53.3640916015625,62.4505576171875L53.4710916015625,62.3906576171875L53.5932916015625,62.6087576171875L53.4583916015625,62.3982576171875Q54.7254916015625,61.5859576171875,55.0547916015625,58.7491576171875Q55.3934916015625,55.8322576171875,54.6153916015625,51.7350576171875L54.8609916015625,51.6884576171875L54.9183916015625,51.9317576171875Q51.3605916015625,52.7708576171875,47.7217916015625,53.1579576171875L47.6953916015625,52.9094576171875L47.8952916015625,53.0595576171875ZM47.4954916015625,52.7592576171875L47.5607916015625,52.6723576171875L47.6688916015625,52.6608576171875Q51.2763916015625,52.2770576171875,54.8035916015625,51.4450576171875L55.0578916015625,51.3851576171875L55.1065916015625,51.6417576171875Q55.8988916015625,55.8140576171875,55.5514916015625,58.8067576171875Q55.1948916015625,61.8789576171875,53.7281916015625,62.8191576171875L53.7219916015625,62.8232576171875L53.6090916015625,62.8864576171875Q53.0052916015625,63.2257576171875,52.1319916015625,63.2257576171875Q50.4211916015625,63.2257576171875,47.9583916015625,61.9702576171875Q45.5271916015625,60.7308576171875,42.8691916015625,58.5300576171875L42.6597916015625,58.3565576171875L42.8501916015625,58.1623576171875Q45.3549916015625,55.6089576171875,47.4954916015625,52.7592576171875ZM40.563491601562504,61.0135576171875Q37.3769916015625,63.7679576171875,34.3559916015625,65.2385576171875Q31.3111916015625,66.7206576171875,28.7978916015625,66.72095761718751Q26.9014916015625,66.72095761718751,25.4062916015625,65.8817576171875Q22.6276916015625,64.32315761718749,21.788191601562502,60.3013576171875Q20.9615916015625,56.3414576171875,22.1603916015625,50.6585576171875L22.4049916015625,50.7101576171875L22.3278916015625,50.9479576171875Q16.6851816015625,49.1181576171875,13.5808116015625,46.4417576171875Q10.4263916015625,43.7220576171875,10.4263906015625,40.594957617187504Q10.4263916015625,37.4653576171875,13.5805416015625,34.7468576171875Q16.6849016015625,32.0713576171875,22.3283916015625,30.2453576171875L22.4052916015625,30.483257617187498L22.1605916015625,30.534557617187502Q20.9703916015625,24.8566576171875,21.799391601562498,20.8968776171875Q22.6411916015625,16.8756776171875,25.4152916015625,15.3121436171875Q26.9069916015625,14.4715576171875,28.8032916015625,14.4715576171875Q31.3154916015625,14.4715576171875,34.3589916015625,15.9524076171875Q37.3788916015625,17.4217276171875,40.5637916015625,20.1738576171875L40.4002916015625,20.363017617187502L40.236891601562505,20.1737976171875Q43.4226916015625,17.4229576171875,46.4407916015625,15.9544076171875Q49.4828916015625,14.4742216171875,51.9914916015625,14.4742226171875Q53.8878916015625,14.4742216171875,55.3836916015625,15.3136956171875Q58.1591916015625,16.8706776171875,59.0011916015625,20.8899176171875Q59.8302916015625,24.847257617187502,58.6393916015625,30.5271576171875L58.3946916015625,30.4758576171875L58.4718916015625,30.2380576171875Q64.1151916015625,32.0709576171875,67.21949160156251,34.749657617187495Q70.37359160156251,37.4713576171875,70.37359160156251,40.5996576171875Q70.37359160156251,43.7304576171875,67.2192916015625,46.448557617187504Q64.1148916015625,49.1236576171875,58.4718916015625,50.9474576171875L58.3949916015625,50.7095576171875L58.6395916015625,50.6579576171875Q59.8371916015625,56.3402576171875,59.0079916015625,60.3001576171875Q58.1658916015625,64.3216576171875,55.3835916015625,65.8809576171875Q53.8892916015625,66.7185576171875,51.9957916015625,66.7185576171875Q49.4829916015625,66.7185576171875,46.4396916015625,65.2369576171875Q43.4202916015625,63.7669576171875,40.2364916015625,61.0135576171875L40.399991601562505,60.8244576171875L40.563491601562504,61.0135576171875ZM40.2364916015625,60.6353576171875L40.399991601562505,60.4939576171875L40.563491601562504,60.6353576171875Q43.6978916015625,63.3459576171875,46.6585916015625,64.7873576171875Q49.5982916015625,66.2185576171875,51.9957916015625,66.2185576171875Q53.7586916015625,66.2185576171875,55.1390916015625,65.44475761718749Q57.7230916015625,63.9965576171875,58.5185916015625,60.1976576171875Q59.3262916015625,56.3404576171875,58.1502916015625,50.7610576171875L58.1038916015625,50.5408576171875L58.3180916015625,50.4716576171875Q63.8650916015625,48.6789576171875,66.8928916015625,46.069857617187495Q69.87359160156251,43.5012576171875,69.87359160156251,40.5996576171875Q69.87359160156251,37.7003576171875,66.8927916015625,35.1281576171875Q63.8647916015625,32.515357617187505,58.3174916015625,30.7136576171875L58.1038916015625,30.6442576171875L58.1499916015625,30.4245576171875Q59.3194916015625,24.847257617187502,58.5118916015625,20.9924476171875Q57.7163916015625,17.1955976171875,55.1389916015625,15.7497276171875Q53.7571916015625,14.9742216171875,51.9914916015625,14.9742226171875Q49.5980916015625,14.9742226171875,46.6595916015625,16.4040076171875Q43.7000916015625,17.8440176171875,40.563691601562496,20.5522476171875L40.4001916015625,20.6933776171875L40.2367916015625,20.5521776171875Q37.1013916015625,17.8427476171875,34.140291601562495,16.4020176171875Q31.2002916015625,14.9715576171875,28.8032916015625,14.9715576171875Q27.0381916015625,14.9715576171875,25.6607916015625,15.7477176171875Q23.0840916015625,17.1999776171875,22.2887916015625,20.9993276171875Q21.4811916015625,24.856557617187498,22.649991601562498,30.4319576171875L22.6960916015625,30.6519576171875L22.4822916015625,30.7211576171875Q16.9348616015625,32.515957617187496,13.9069616015625,35.1256576171875Q10.9263916015625,37.694457617187496,10.9263906015625,40.594957617187504Q10.9263916015625,43.4930576171875,13.9073016015625,46.063057617187496Q16.9353316015625,48.6736576171875,22.4820916015625,50.4723576171875L22.6960916015625,50.5416576171875L22.6495916015625,50.7617576171875Q21.4724916015625,56.3419576171875,22.277691601562502,60.1992576171875Q23.0706916015625,63.9983576171875,25.650991601562502,65.4457576171875Q27.0321916015625,66.22095761718751,28.7977916015625,66.22095761718751Q31.1958916015625,66.2206576171875,34.1370916015625,64.78895761718749Q37.0993916015625,63.3469576171875,40.2364916015625,60.6353576171875Z" fill="url(#master_svg4_1_1788)" fill-opacity="1"/></g></g></g></svg>