<svg xmlns="http://www.w3.org/2000/svg" xmlns:xlink="http://www.w3.org/1999/xlink" fill="none" version="1.1" width="16" height="16" viewBox="0 0 16 16"><defs><clipPath id="master_svg0_25_13728"><rect x="0" y="0" width="16" height="16" rx="0"/></clipPath><linearGradient x1="0.9895104765892029" y1="0.9078947901725769" x2="0.03496502339839935" y2="-0.03947371244430542" id="master_svg1_1_1788"><stop offset="0%" stop-color="#08BBE4" stop-opacity="1"/><stop offset="100%" stop-color="#00DF9B" stop-opacity="1"/></linearGradient><linearGradient x1="0.9895104765892029" y1="0.9078947901725769" x2="0.03496502339839935" y2="-0.03947371244430542" id="master_svg2_1_1788"><stop offset="0%" stop-color="#08BBE4" stop-opacity="1"/><stop offset="100%" stop-color="#00DF9B" stop-opacity="1"/></linearGradient></defs><g clip-path="url(#master_svg0_25_13728)"><g><path d="M3.639910234375,12.3604740234375Q5.446120234375,14.1666740234375,8.000410234375,14.1666740234375Q10.554690234375,14.1666740234375,12.360840234375,12.3604740234375Q14.167040234375,10.5543340234375,14.167040234375,8.0000440234375Q14.167040234375,5.4457540234375,12.360840234375,3.6395440234375Q10.554700234375,1.8333740234375,8.000410234375,1.8333740234375Q5.446120234375,1.8333740234375,3.639910234375,3.6395540234375Q1.833740234375,5.4457540234375,1.833740234375,8.0000440234375Q1.833740234375,10.5543340234375,3.639910234375,12.3604740234375L3.639910234375,12.3604740234375ZM2.9328002343749997,13.0676740234375Q0.833740234375,10.9685440234375,0.833740234375,8.0000440234375Q0.833740234375,5.0315440234375,2.932810234375,2.9324340234374997Q5.031910234375,0.8333740234375,8.000410234375,0.8333740234375Q10.968910234375,0.8333740234375,13.068040234375,2.9324440234375Q15.167040234375,5.0315440234375,15.167040234375,8.0000440234375Q15.167040234375,10.9685440234375,13.068040234375,13.0676740234375Q10.968910234375,15.1666740234375,8.000410234375,15.1666740234375Q5.031910234375,15.1666740234375,2.932810234375,13.0676740234375L2.9328002343749997,13.0676740234375Z" fill="url(#master_svg1_1_1788)" fill-opacity="1"/></g><g><path d="M11.687290234375,6.353553L7.687290234375,10.35355Q7.652470234375,10.38837,7.611520234375,10.41573Q7.570580234375,10.44309,7.525080234375,10.46194Q7.479580234375,10.48078,7.431280234375,10.49039Q7.382990234375,10.5,7.333740234375,10.5Q7.284490234375,10.5,7.236190234375,10.49039Q7.187900234375,10.48078,7.142400234375,10.46194Q7.096900234375,10.44309,7.0559502343750005,10.41573Q7.015010234375,10.38837,6.980190234375,10.35355L4.980187234375,8.35355Q4.945365234375,8.31873,4.918005234375,8.27778Q4.890646234375,8.23684,4.871800234375,8.19134Q4.852955234375,8.14584,4.843347234375,8.09754Q4.833740234375,8.04925,4.833740234375,8Q4.833740234375,7.95075,4.843347234375,7.90245Q4.852955234375,7.85416,4.871800234375,7.80866Q4.890646234375,7.76316,4.918005234375,7.7222100000000005Q4.945365234375,7.68127,4.980187234375,7.64645Q5.015009234375,7.61162,5.055955234375,7.5842600000000004Q5.096901234375,7.55691,5.142398234375,7.53806Q5.187895234375,7.51921,5.236195134375,7.50961Q5.284494534375,7.5,5.333740234375,7.5Q5.382985934375,7.5,5.431285334375,7.50961Q5.479585234375,7.51921,5.525082234375,7.53806Q5.570579234375,7.55691,5.611525234375,7.5842600000000004Q5.652471234375,7.61162,5.687293234375,7.64645L7.687290234375,9.64645L7.333740234375,10L6.980190234375,9.64645L10.980190234375,5.646447Q11.015010234375,5.611625,11.055950234375,5.584265Q11.096900234375,5.556906,11.142400234375,5.53806Q11.187890234375,5.519215,11.236190234375,5.509607Q11.284490234375,5.5,11.333740234375,5.5Q11.382990234375,5.5,11.431280234375,5.509607Q11.479580234375,5.519215,11.525080234375,5.53806Q11.570580234375,5.556906,11.611520234375,5.584265Q11.652470234375,5.611625,11.687290234375,5.646447Q11.722110234375,5.681269,11.749470234375,5.722215Q11.776830234375,5.763161,11.795680234375,5.808658Q11.814520234375,5.854155,11.824130234375,5.9024549Q11.833740234375,5.9507543,11.833740234375,6Q11.833740234375,6.0492457,11.824130234375,6.0975451Q11.814520234375,6.145845,11.795680234375,6.191342Q11.776830234375,6.236839,11.749470234375,6.277785Q11.722110234375,6.318731,11.687290234375,6.353553ZM11.833740234375,6Q11.833740234375,6.0492457,11.824130234375,6.0975451Q11.814520234375,6.145845,11.795680234375,6.191342Q11.776830234375,6.236839,11.749470234375,6.277785Q11.722110234375,6.318731,11.687290234375,6.353553Q11.652470234375,6.388375,11.611520234375,6.415735Q11.570580234375,6.443094,11.525080234375,6.46194Q11.479580234375,6.480785,11.431290234375,6.490393Q11.382990234375,6.5,11.333740234375,6.5Q11.284490234375,6.5,11.236190234375,6.490393Q11.187890234375,6.480785,11.142400234375,6.46194Q11.096900234375,6.443094,11.055950234375,6.415735Q11.015010234375,6.388375,10.980190234375,6.353553Q10.945360234375,6.318731,10.918000234375,6.277785Q10.890650234375,6.236839,10.871800234375,6.191342Q10.852950234375001,6.145845,10.843350234375,6.0975451Q10.833740234375,6.0492457,10.833740234375,6Q10.833740234375,5.9507543,10.843350234375,5.9024549Q10.852950234375001,5.854155,10.871800234375,5.808658Q10.890650234375,5.763161,10.918000234375,5.722215Q10.945360234375,5.681269,10.980190234375,5.646447Q11.015010234375,5.611625,11.055950234375,5.584265Q11.096900234375,5.556906,11.142400234375,5.53806Q11.187890234375,5.519215,11.236190234375,5.509607Q11.284490234375,5.5,11.333740234375,5.5Q11.382990234375,5.5,11.431290234375,5.509607Q11.479580234375,5.519215,11.525080234375,5.53806Q11.570580234375,5.556906,11.611520234375,5.584265Q11.652470234375,5.611625,11.687290234375,5.646447Q11.722110234375,5.681269,11.749470234375,5.722215Q11.776830234375,5.763161,11.795680234375,5.808658Q11.814520234375,5.854155,11.824130234375,5.9024549Q11.833740234375,5.9507543,11.833740234375,6ZM5.833740234375,8Q5.833740234375,8.04925,5.824133234375,8.09754Q5.814525234375,8.14584,5.795680234375,8.19134Q5.776834234375,8.23684,5.749475234375,8.27778Q5.722115234375,8.31873,5.687293234375,8.35355Q5.652471234375,8.38838,5.611525234375,8.41573Q5.570579234375,8.44309,5.525082234375,8.46194Q5.479585234375,8.48078,5.431285334375,8.49039Q5.382985934375,8.5,5.333740234375,8.5Q5.284494534375,8.5,5.236195134375,8.49039Q5.187895234375,8.48078,5.142398234375,8.46194Q5.096901234375,8.44309,5.055955234375,8.41573Q5.015009234375,8.38838,4.980187234375,8.35355Q4.945365234375,8.31873,4.918005234375,8.27779Q4.890646234375,8.23684,4.871800234375,8.19134Q4.852955234375,8.14584,4.843347234375,8.09754Q4.833740234375,8.04925,4.833740234375,8Q4.833740234375,7.95075,4.843347234375,7.90245Q4.852955234375,7.85416,4.871800234375,7.80866Q4.890646234375,7.76316,4.918005234375,7.7222100000000005Q4.945365234375,7.68127,4.980187234375,7.64645Q5.015009234375,7.61162,5.055955234375,7.5842600000000004Q5.096901234375,7.55691,5.142398234375,7.53806Q5.187895234375,7.51921,5.236195134375,7.50961Q5.284494534375,7.5,5.333740234375,7.5Q5.382985934375,7.5,5.431285334375,7.50961Q5.479585234375,7.51921,5.525082234375,7.53806Q5.570579234375,7.55691,5.611525234375,7.5842600000000004Q5.652471234375,7.61162,5.687293234375,7.64645Q5.722115234375,7.68127,5.749475234375,7.7222100000000005Q5.776834234375,7.76316,5.795680234375,7.80866Q5.814525234375,7.85416,5.824133234375,7.90245Q5.833740234375,7.95075,5.833740234375,8Z" fill="url(#master_svg2_1_1788)" fill-opacity="1"/></g></g></svg>