<svg xmlns="http://www.w3.org/2000/svg" xmlns:xlink="http://www.w3.org/1999/xlink" fill="none" version="1.1" width="20" height="20" viewBox="0 0 20 20"><defs><clipPath id="master_svg0_1_284"><rect x="0" y="0" width="20" height="20" rx="0"/></clipPath></defs><g style="mix-blend-mode:passthrough" clip-path="url(#master_svg0_1_284)"><g style="mix-blend-mode:passthrough"></g><g style="mix-blend-mode:passthrough"><path d="M12.74368046875,0.8002481777343751C13.22198046875,0.524107177734375,13.83358046875,0.687982077734375,14.10978046875,1.166274177734375C14.10978046875,1.166274177734375,15.74578046875,3.999997177734375,15.74578046875,3.999997177734375C15.74578046875,3.999997177734375,17.50078046875,3.999997177734375,17.50078046875,3.999997177734375C18.51338046875,3.999997177734375,19.33418046875,4.820797177734375,19.33418046875,5.833337177734375C19.33418046875,5.833337177734375,19.33418046875,17.500007177734375,19.33418046875,17.500007177734375C19.33418046875,18.512507177734374,18.51338046875,19.333307177734376,17.50078046875,19.333307177734376C17.50078046875,19.333307177734376,2.50081046875,19.333307177734376,2.50081046875,19.333307177734376C1.48830146875,19.333307177734376,0.66748046875,18.512507177734374,0.66748046875,17.500007177734375C0.66748046875,17.500007177734375,0.66748046875,5.833337177734375,0.66748046875,5.833337177734375C0.66748046875,4.820787177734375,1.48830146875,3.999997177734375,2.50081046875,3.999997177734375C2.50081046875,3.999997177734375,7.20157046875,3.999997177734375,7.20157046875,3.999997177734375C7.20157046875,3.999997177734375,12.74368046875,0.8002481777343751,12.74368046875,0.8002481777343751ZM11.21768046875,3.990697177734375C11.21768046875,3.990697177734375,13.43238046875,3.993097177734375,13.43238046875,3.993097177734375C13.43238046875,3.993097177734375,12.87768046875,3.032297177734375,12.87768046875,3.032297177734375C12.87768046875,3.032297177734375,11.21768046875,3.990697177734375,11.21768046875,3.990697177734375ZM2.66748046875,5.999997177734375C2.66748046875,5.999997177734375,2.66748046875,17.333307177734376,2.66748046875,17.333307177734376C2.66748046875,17.333307177734376,17.33418046875,17.333307177734376,17.33418046875,17.333307177734376C17.33418046875,17.333307177734376,17.33418046875,14.750407177734376,17.33418046875,14.750407177734376C17.33418046875,14.750407177734376,14.68748046875,14.750407177734376,14.68748046875,14.750407177734376C12.97358046875,14.750407177734376,11.49998046875,13.415307177734375,11.49998046875,11.667107177734374C11.49998046875,9.918797177734374,12.97358046875,8.583737177734374,14.68748046875,8.583737177734374C14.68748046875,8.583737177734374,17.33418046875,8.583737177734374,17.33418046875,8.583737177734374C17.33418046875,8.583737177734374,17.33418046875,5.999997177734375,17.33418046875,5.999997177734375C17.33418046875,5.999997177734375,2.66748046875,5.999997177734375,2.66748046875,5.999997177734375ZM13.49998046875,11.667107177734374C13.49998046875,11.114207177734375,13.98508046875,10.583737177734376,14.68748046875,10.583737177734376C14.68748046875,10.583737177734376,17.33338046875,10.583737177734376,17.33338046875,10.583737177734376C17.33338046875,10.583737177734376,17.33338046875,12.750407177734376,17.33338046875,12.750407177734376C17.33338046875,12.750407177734376,14.68748046875,12.750407177734376,14.68748046875,12.750407177734376C13.98508046875,12.750407177734376,13.49998046875,12.220007177734376,13.49998046875,11.667107177734374Z" fill-rule="evenodd" fill="#000000" fill-opacity="1"/></g></g></svg>