<!-- Generated by IcoMoon.io -->
<svg version="1.1" xmlns="http://www.w3.org/2000/svg" stroke="currentColor" viewBox="0 0 375 375">
<title>account</title>
<path fill="none" stroke-linejoin="miter" stroke-linecap="butt" stroke-miterlimit="4" stroke-width="18.75" d="M109.375 328.125c-34.518 0-62.5-27.982-62.5-62.5v0-187.5c0-17.259 13.991-31.25 31.25-31.25v0h62.5c17.259 0 31.25 13.991 31.25 31.25v0 187.5c0 34.518-27.982 62.5-62.5 62.5v0zM109.375 328.125h187.5c17.259 0 31.25-13.991 31.25-31.25v0-62.5c0-17.259-13.991-31.25-31.25-31.25v0h-36.609M171.875 114.734l25.891-25.891c5.655-5.653 13.466-9.149 22.094-9.149s16.439 3.497 22.094 9.15l44.203 44.203c5.653 5.655 9.149 13.466 9.149 22.094s-3.497 16.439-9.15 22.094l-132.594 132.578M109.375 265.625h0.156"></path>
</svg>
