<!-- Generated by IcoMoon.io -->
<svg version="1.1" xmlns="http://www.w3.org/2000/svg" fill="currentColor" viewBox="0 0 348 375">
<title>chain-broken</title>
<path d="M91.867 265.974l-53.572 53.572c-1.465 1.256-3.139 1.883-4.813 1.883s-3.348-0.628-4.813-1.883c-2.511-2.721-2.511-6.906 0-9.626l53.572-53.572c2.721-2.511 6.906-2.511 9.626 0 2.511 2.721 2.511 6.906 0 9.626zM127.232 274.553v66.964c0 3.767-2.93 6.697-6.697 6.697s-6.697-2.93-6.697-6.697v-66.964c0-3.767 2.93-6.697 6.697-6.697s6.697 2.93 6.697 6.697zM80.357 227.678c0 3.767-2.93 6.697-6.697 6.697h-66.964c-3.767 0-6.697-2.93-6.697-6.697s2.93-6.697 6.697-6.697h66.964c3.767 0 6.697 2.93 6.697 6.697zM344.866 254.464c0 16.113-6.278 31.18-17.787 42.48l-30.762 30.553c-11.3 11.3-26.367 17.369-42.48 17.369s-31.389-6.278-42.69-17.787l-69.894-70.103c-3.557-3.557-6.278-7.533-8.789-11.719l50.014-3.767 57.129 57.338c7.533 7.533 20.926 7.743 28.46 0.209l30.762-30.553c3.767-3.767 5.859-8.789 5.859-14.021 0-5.441-2.093-10.463-5.859-14.23l-57.338-57.547 3.767-50.014c4.185 2.511 8.161 5.232 11.719 8.789l70.313 70.313c11.3 11.51 17.578 26.576 17.578 42.69zM215.751 102.958l-50.014 3.767-57.129-57.338c-3.767-3.767-8.789-5.859-14.23-5.859s-10.463 2.093-14.23 5.65l-30.762 30.553c-3.767 3.767-5.859 8.789-5.859 14.021 0 5.441 2.093 10.463 5.859 14.23l57.338 57.338-3.767 50.223c-4.185-2.511-8.161-5.232-11.719-8.789l-70.313-70.313c-11.3-11.51-17.578-26.576-17.578-42.69s6.278-31.18 17.787-42.48l30.762-30.553c11.3-11.3 26.367-17.369 42.48-17.369s31.389 6.278 42.69 17.787l69.894 70.103c3.557 3.557 6.278 7.533 8.789 11.719zM348.214 120.536c0 3.767-2.93 6.697-6.697 6.697h-66.964c-3.767 0-6.697-2.93-6.697-6.697s2.93-6.697 6.697-6.697h66.964c3.767 0 6.697 2.93 6.697 6.697zM234.375 6.697v66.964c0 3.767-2.93 6.697-6.697 6.697s-6.697-2.93-6.697-6.697v-66.964c0-3.767 2.93-6.697 6.697-6.697s6.697 2.93 6.697 6.697zM319.545 38.295l-53.572 53.572c-1.465 1.256-3.139 1.883-4.813 1.883s-3.348-0.628-4.813-1.883c-2.511-2.721-2.511-6.906 0-9.626l53.572-53.572c2.721-2.511 6.906-2.511 9.626 0 2.511 2.721 2.511 6.906 0 9.626z"></path>
</svg>
