<!-- Generated by IcoMoon.io -->
<svg version="1.1" xmlns="http://www.w3.org/2000/svg" width="377" height="375" viewBox="0 0 377 375">
<title>fav-light</title>
<style>
  :root {
    --color-c: #121314;
    --color-i: #883fff;
    --color-d: #883fff;
  }
  @media (prefers-color-scheme: dark) {
    :root {
      --color-c: #ffffff;
      --color-i: #883fff;
      --color-d: #883fff;
    }
  }
</style>
<path fill="var(--color-c)" d="M153.275 358.7c-0.003 7.264-7.869 11.8-14.156 8.161l-105.885-61.264c-14.57-8.431-23.543-23.988-23.543-40.822v-154.096c0-16.818 8.956-32.363 23.505-40.799l105.909-61.408c6.288-3.646 14.164 0.891 14.164 8.16v55.62c0 6.725-3.58 12.941-9.396 16.316l-51.123 29.668c-7.27 4.219-11.744 11.988-11.745 20.394l-0.008 97.811c-0.001 8.405 4.473 16.177 11.741 20.395l51.165 29.706c5.817 3.377 9.396 9.595 9.393 16.321l-0.021 55.837z"></path>
<path fill="var(--color-i)" d="M194.882 108.775c-3.663-2.13-8.187-2.132-11.851-0.003l-23.895 13.883c-3.632 2.11-5.867 5.994-5.867 10.195v109.15c0 4.204 2.24 8.091 5.879 10.2l23.769 13.776c3.659 2.119 8.173 2.119 11.83-0.004l24.436-14.183c3.637-2.111 5.873-5.998 5.871-10.202l-0.036-108.506c-0.002-4.198-2.234-8.078-5.863-10.188l-24.274-14.119z"></path>
<path fill="var(--color-d)" d="M224.302 358.7c0.002 7.264 7.869 11.8 14.157 8.161l105.885-61.264c14.569-8.431 23.542-23.988 23.542-40.822v-154.096c0-16.818-8.956-32.363-23.506-40.799l-105.907-61.408c-6.29-3.646-14.165 0.891-14.165 8.16v55.62c0 6.725 3.579 12.941 9.397 16.316l51.123 29.668c7.27 4.219 11.744 11.988 11.744 20.394l0.008 97.811c0.002 8.405-4.472 16.177-11.74 20.395l-51.165 29.706c-5.818 3.377-9.397 9.595-9.393 16.321l0.020 55.837z"></path>
</svg>
