<svg width="191" height="36" fill="none" xmlns="http://www.w3.org/2000/svg">
<g clip-path="url(#clip0_295_8982)">
<path d="M20.5549 32.7541C20.5551 33.3809 21.234 33.7722 21.7765 33.4583L30.9137 28.1715C32.1711 27.444 32.9453 26.1015 32.9453 24.6489V11.3513C32.9453 9.89999 32.1725 8.55852 30.917 7.83054L21.7777 2.53135C21.235 2.21672 20.5554 2.60825 20.5554 3.2355V8.03518C20.5554 8.61548 20.8643 9.1519 21.3662 9.44317L25.7779 12.0033C26.4052 12.3674 26.7913 13.0378 26.7914 13.7632L26.7921 22.2037C26.7922 22.9291 26.4062 23.5996 25.7789 23.9637L21.3637 26.527C20.8617 26.8185 20.5529 27.3551 20.5531 27.9355L20.5549 32.7541Z" fill="#6100FF"/>
<path d="M14.4256 32.7541C14.4253 33.3809 13.7465 33.7722 13.204 33.4583L4.06675 28.1715C2.80941 27.444 2.03516 26.1015 2.03516 24.6489V11.3513C2.03516 9.89999 2.808 8.55852 4.06351 7.83054L13.2028 2.53135C13.7454 2.21672 14.425 2.60825 14.425 3.2355V8.03518C14.425 8.61548 14.1161 9.1519 13.6142 9.44317L9.20259 12.0033C8.57525 12.3674 8.18912 13.0378 8.18906 13.7632L8.18837 22.2037C8.18831 22.9291 8.57431 23.5996 9.20157 23.9637L13.6168 26.527C14.1188 26.8185 14.4276 27.3551 14.4274 27.9355L14.4256 32.7541Z" fill="#24153D"/>
<path d="M18.0167 11.105C17.7006 10.9211 17.3102 10.921 16.9941 11.1047L14.9321 12.3027C14.6187 12.4848 14.4258 12.82 14.4258 13.1825V22.8438C14.4258 23.2067 14.6191 23.5421 14.9331 23.7241L16.9842 24.9128C17.3 25.0957 17.6895 25.0956 18.0051 24.9124L20.1138 23.6885C20.4276 23.5064 20.6207 23.171 20.6205 22.8082L20.6174 13.2025C20.6172 12.8403 20.4246 12.5054 20.1115 12.3233L18.0167 11.105Z" fill="#6100FF"/>
<path d="M54.28 14.352H50.08V11.88C50.08 11.528 49.88 11.352 49.48 11.352H48.64C48.24 11.352 48.04 11.528 48.04 11.88V20.712C48.04 21.064 48.24 21.24 48.64 21.24H49.48C49.88 21.24 50.08 21.064 50.08 20.712V18.336H54.28V21.024C54.28 23.008 53.104 24 50.752 24H47.368C45.016 24 43.84 23.008 43.84 21.024V11.568C43.84 9.584 45.016 8.592 47.368 8.592H50.752C53.104 8.592 54.28 9.584 54.28 11.568V14.352ZM59.1308 12.024H62.1788C63.3948 12.024 64.2668 12.28 64.7948 12.792C65.3228 13.304 65.5868 14.04 65.5868 15V21.024C65.5868 21.984 65.3228 22.72 64.7948 23.232C64.2668 23.744 63.3948 24 62.1788 24H59.1308C57.9148 24 57.0428 23.744 56.5148 23.232C55.9868 22.72 55.7228 21.984 55.7228 21.024V15C55.7228 14.04 55.9868 13.304 56.5148 12.792C57.0428 12.28 57.9148 12.024 59.1308 12.024ZM61.5788 20.64V15.384C61.5788 15.032 61.3788 14.856 60.9788 14.856H60.3308C59.9308 14.856 59.7308 15.032 59.7308 15.384V20.64C59.7308 20.992 59.9308 21.168 60.3308 21.168H60.9788C61.3788 21.168 61.5788 20.992 61.5788 20.64ZM79.3255 12.024H79.7575C81.8855 12.024 82.9495 13.016 82.9495 15V24H78.8695V15.552C78.8695 15.2 78.6695 15.024 78.2695 15.024H77.8615C77.4295 15.024 77.2135 15.264 77.2135 15.744V24H73.1335V15.552C73.1335 15.2 72.9335 15.024 72.5335 15.024H72.1255C71.6935 15.024 71.4775 15.264 71.4775 15.744V24H67.3975V12.024H71.4055V13.56C71.6295 12.536 72.3575 12.024 73.5895 12.024H74.0215C75.5095 12.024 76.4855 12.528 76.9495 13.536C77.0775 13.072 77.3575 12.704 77.7895 12.432C78.2215 12.16 78.7335 12.024 79.3255 12.024ZM96.6693 12.024H97.1013C99.2293 12.024 100.293 13.016 100.293 15V24H96.2133V15.552C96.2133 15.2 96.0133 15.024 95.6133 15.024H95.2053C94.7733 15.024 94.5573 15.264 94.5573 15.744V24H90.4773V15.552C90.4773 15.2 90.2773 15.024 89.8773 15.024H89.4693C89.0373 15.024 88.8213 15.264 88.8213 15.744V24H84.7413V12.024H88.7493V13.56C88.9733 12.536 89.7013 12.024 90.9333 12.024H91.3653C92.8533 12.024 93.8293 12.528 94.2933 13.536C94.4213 13.072 94.7013 12.704 95.1333 12.432C95.5653 12.16 96.0773 12.024 96.6693 12.024ZM107.701 12.024H111.781V24H107.773V22.464C107.549 23.488 106.821 24 105.589 24H105.157C103.029 24 101.965 23.008 101.965 21.024V12.024H106.045V20.472C106.045 20.824 106.245 21 106.645 21H107.053C107.485 21 107.701 20.76 107.701 20.28V12.024ZM119.902 12.024H120.334C122.462 12.024 123.526 13.016 123.526 15V24H119.446V15.552C119.446 15.2 119.246 15.024 118.846 15.024H118.438C118.006 15.024 117.79 15.264 117.79 15.744V24H113.71V12.024H117.718V13.56C117.942 12.536 118.67 12.024 119.902 12.024ZM125.263 10.824V7.944H129.487V10.824H125.263ZM129.415 24H125.335V12.024H129.415V24ZM137.407 15.024H135.895V20.472C135.895 20.824 136.095 21 136.495 21H137.383V24H135.343C132.991 24 131.815 23.008 131.815 21.024V15.024H130.495V12.024H131.815V9.672H135.895V12.024H137.407V15.024ZM138.529 10.824V7.944H142.753V10.824H138.529ZM142.681 24H138.601V12.024H142.681V24ZM147.889 12.024H150.817C153.169 12.024 154.345 13.016 154.345 15V19.08H148.225V20.664C148.225 21.016 148.425 21.192 148.825 21.192H149.881C150.281 21.192 150.481 21 150.481 20.616V19.944H154.345V21.024C154.345 23.008 153.169 24 150.817 24H147.889C145.537 24 144.361 23.008 144.361 21.024V15C144.361 13.016 145.537 12.024 147.889 12.024ZM148.225 16.872H150.481V15.36C150.481 15.008 150.281 14.832 149.881 14.832H148.825C148.425 14.832 148.225 15.008 148.225 15.36V16.872ZM161.058 20.832V19.872C161.058 19.52 160.858 19.344 160.458 19.344H158.994C156.69 19.344 155.538 18.36 155.538 16.392V15C155.538 13.016 156.714 12.024 159.066 12.024H161.298C163.65 12.024 164.826 13.016 164.826 15V16.008H160.938V15.192C160.938 14.84 160.738 14.664 160.338 14.664H160.098C159.698 14.664 159.498 14.84 159.498 15.192V16.248C159.498 16.6 159.698 16.776 160.098 16.776H161.562C162.794 16.776 163.674 17.032 164.202 17.544C164.746 18.04 165.018 18.76 165.018 19.704V21.024C165.018 23.008 163.842 24 161.49 24H159.138C156.786 24 155.61 23.008 155.61 21.024V20.04H159.57V20.832C159.57 21.184 159.77 21.36 160.17 21.36H160.458C160.858 21.36 161.058 21.184 161.058 20.832ZM166.585 24V20.064H170.713V24H166.585ZM172.632 8.592H176.832V24H172.632V8.592ZM178.989 8.592H186.069C188.421 8.592 189.597 9.584 189.597 11.568V21.024C189.597 23.008 188.421 24 186.069 24H178.989V8.592ZM185.397 20.712V11.88C185.397 11.528 185.197 11.352 184.797 11.352H183.189V21.24H184.797C185.197 21.24 185.397 21.064 185.397 20.712Z" fill="#1D1D1D"/>
</g>
</svg>
