<!-- Generated by IcoMoon.io -->
<svg version="1.1" xmlns="http://www.w3.org/2000/svg" fill="currentColor" viewBox="0 0 469 375">
<title>discord-white</title>
<path d="M397.428 39.183c-0.132-0.252-0.344-0.447-0.601-0.555l-0.008-0.003c-27.554-12.999-59.569-23.276-93.077-29.236l-2.336-0.344c-0.080-0.015-0.171-0.024-0.265-0.024-0.544 0-1.017 0.299-1.265 0.743l-0.004 0.007c-3.652 6.415-7.629 14.429-11.205 22.657l-0.673 1.738c-16.104-2.573-34.671-4.044-53.582-4.044s-37.478 1.47-55.593 4.303l2.011-0.259c-4.218-9.837-8.256-17.849-12.702-25.597l0.636 1.203c-0.267-0.448-0.749-0.744-1.299-0.744-0.083 0-0.164 0.007-0.243 0.019l0.009-0.001c-35.841 6.291-67.858 16.568-97.78 30.576l2.365-0.995c-0.264 0.114-0.479 0.3-0.625 0.533l-0.003 0.005c-60.77 90.751-77.417 179.272-69.25 266.696 0.049 0.447 0.276 0.834 0.606 1.094l0.004 0.003c33.45 25.009 72.336 45.164 114.295 58.395l2.754 0.749c0.13 0.041 0.28 0.064 0.435 0.064 0.493 0 0.93-0.235 1.207-0.599l0.003-0.004c8.368-11.255 16.32-24.002 23.217-37.381l0.729-1.555c0.101-0.195 0.16-0.426 0.16-0.671 0-0.636-0.4-1.178-0.963-1.389l-0.010-0.003c-14.262-5.498-26.302-11.353-37.773-18.075l1.207 0.654c-0.446-0.266-0.741-0.746-0.741-1.295 0-0.487 0.231-0.919 0.59-1.194l0.004-0.003c2.917-2.18 5.28-4.045 7.6-5.961l-0.338 0.271c0.248-0.206 0.571-0.331 0.922-0.331 0.215 0 0.419 0.047 0.602 0.13l-0.009-0.004c76.714 35.010 159.767 35.010 235.573 0 0.181-0.088 0.395-0.14 0.62-0.14 0.348 0 0.667 0.123 0.916 0.328l-0.003-0.002c2.013 1.677 4.383 3.548 6.798 5.362l0.482 0.346c0.368 0.277 0.602 0.712 0.602 1.203 0 0.545-0.29 1.022-0.725 1.285l-0.007 0.004c-10.327 6.165-22.379 12.018-34.939 16.847l-1.645 0.556c-0.568 0.22-0.963 0.762-0.963 1.397 0 0.25 0.062 0.486 0.17 0.693l-0.004-0.008c7.824 15.003 15.762 27.734 24.548 39.81l-0.621-0.895c0.272 0.379 0.713 0.623 1.21 0.623 0.155 0 0.305-0.024 0.445-0.068l-0.010 0.003c44.785-13.931 83.741-34.091 118.256-59.869l-1.018 0.727c0.34-0.25 0.569-0.634 0.609-1.072l0-0.006c9.777-101.071-16.368-188.866-69.304-266.696zM156.642 252.628c-23.097 0-42.127-21.195-42.127-47.225s18.662-47.227 42.127-47.227c23.649 0 42.495 21.381 42.126 47.225 0 26.032-18.662 47.227-42.126 47.227zM312.399 252.628c-23.096 0-42.126-21.195-42.126-47.225s18.662-47.227 42.126-47.227c23.651 0 42.496 21.381 42.127 47.225 0 26.032-18.477 47.227-42.127 47.227z"></path>
</svg>
