<!-- Generated by IcoMoon.io -->
<svg version="1.1" xmlns="http://www.w3.org/2000/svg" fill="currentColor" viewBox="0 0 469 375">
<title>medium-white</title>
<path d="M132.202 54.391c-73.013 0-132.203 59.598-132.203 133.109s59.193 133.11 132.203 133.11c73.009 0 132.203-59.592 132.203-133.11 0-73.516-59.187-133.109-132.203-133.109zM343.322 62.187c-36.506 0-66.097 56.117-66.097 125.314s29.592 125.318 66.101 125.318 66.101-56.119 66.101-125.318h-0.006c0-69.216-29.59-125.314-66.101-125.314v0zM445.5 75.241c-12.837 0-23.243 50.265-23.243 112.262s10.399 112.261 23.243 112.261 23.251-50.278 23.251-112.264c0-62-10.411-112.259-23.251-112.259v0z"></path>
</svg>
