<!-- Generated by IcoMoon.io -->
<svg version="1.1" xmlns="http://www.w3.org/2000/svg" viewBox="0 0 375 375">
<title>opensea</title>
<path fill="currentColor" d="M374.997 187.5c0 103.546-83.951 187.497-187.497 187.497s-187.497-83.951-187.497-187.497 83.951-187.497 187.497-187.497c103.568 0 187.497 83.951 187.497 187.497z"></path>
<path fill="#fff" d="M92.506 193.8l0.809-1.271 48.776-76.303c0.713-1.117 2.389-1.002 2.928 0.212 8.149 18.262 15.18 40.974 11.886 55.113-1.406 5.818-5.259 13.696-9.594 20.978-0.558 1.060-1.175 2.1-1.83 3.101-0.308 0.463-0.828 0.732-1.387 0.732h-50.162c-1.348 0-2.138-1.464-1.425-2.562z"></path>
<path fill="#fff" d="M309.915 207.979v12.078c0 0.693-0.424 1.31-1.040 1.579-3.775 1.618-16.701 7.551-22.076 15.026-13.716 19.090-24.195 46.387-47.62 46.387h-97.724c-34.635 0-62.703-28.163-62.703-62.915v-1.117c0-0.925 0.751-1.676 1.676-1.676h54.478c1.078 0 1.868 1.002 1.772 2.061-0.386 3.545 0.27 7.166 1.945 10.46 3.236 6.569 9.94 10.672 17.183 10.672h26.969v-21.055h-26.661c-1.367 0-2.176-1.58-1.387-2.697 0.289-0.443 0.616-0.905 0.963-1.425 2.524-3.583 6.126-9.15 9.709-15.488 2.446-4.277 4.816-8.842 6.723-13.427 0.386-0.828 0.693-1.676 1.002-2.505 0.52-1.464 1.060-2.832 1.445-4.199 0.386-1.156 0.693-2.37 1.002-3.506 0.906-3.891 1.291-8.014 1.291-12.29 0-1.676-0.077-3.429-0.231-5.105-0.077-1.83-0.308-3.66-0.54-5.49-0.154-1.618-0.443-3.217-0.751-4.893-0.385-2.446-0.925-4.874-1.541-7.32l-0.212-0.924c-0.463-1.676-0.847-3.275-1.387-4.951-1.522-5.259-3.275-10.383-5.124-15.18-0.674-1.907-1.445-3.737-2.216-5.567-1.136-2.755-2.292-5.259-3.352-7.629-0.539-1.079-1.002-2.061-1.464-3.063-0.52-1.137-1.059-2.273-1.599-3.352-0.385-0.828-0.828-1.599-1.137-2.37l-3.294-6.087c-0.463-0.828 0.308-1.811 1.214-1.56l20.67 5.586c0.038 0 0.058 0.019 0.077 0.019l2.716 0.751 4.084 1.156v-12.252c0-5.914 4.739-10.711 10.595-10.711 2.928 0 5.586 1.194 7.493 3.14s3.101 4.604 3.101 7.571v18.185l2.196 0.616c0.173 0.058 0.346 0.135 0.501 0.25 0.54 0.405 1.31 1.002 2.292 1.734 0.771 0.616 1.599 1.367 2.6 2.138 1.984 1.599 4.354 3.66 6.954 6.030 0.693 0.597 1.367 1.214 1.984 1.83 3.352 3.121 7.109 6.781 10.692 10.826 1.002 1.137 1.984 2.292 2.986 3.506 1.002 1.233 2.061 2.446 2.986 3.66 1.214 1.618 2.524 3.294 3.66 5.047 0.539 0.828 1.156 1.676 1.676 2.504 1.464 2.215 2.755 4.508 3.988 6.8 0.52 1.059 1.059 2.215 1.522 3.352 1.367 3.063 2.446 6.184 3.14 9.304 0.212 0.674 0.366 1.406 0.443 2.061v0.154c0.231 0.924 0.308 1.907 0.385 2.908 0.308 3.198 0.154 6.396-0.539 9.613-0.289 1.368-0.674 2.658-1.137 4.026-0.463 1.31-0.925 2.677-1.522 3.968-1.156 2.677-2.524 5.355-4.142 7.86-0.52 0.925-1.137 1.907-1.753 2.832-0.674 0.982-1.367 1.907-1.984 2.813-0.847 1.156-1.753 2.369-2.677 3.448-0.828 1.137-1.676 2.273-2.6 3.275-1.291 1.522-2.524 2.967-3.814 4.354-0.77 0.905-1.599 1.83-2.446 2.658-0.828 0.924-1.676 1.753-2.446 2.523-1.291 1.291-2.369 2.292-3.275 3.121l-2.119 1.946c-0.308 0.27-0.713 0.424-1.137 0.424h-16.413v21.055h20.651c4.623 0 9.016-1.638 12.56-4.643 1.214-1.059 6.511-5.644 12.772-12.56 0.212-0.231 0.482-0.405 0.79-0.482l57.039-16.49c1.060-0.308 2.138 0.501 2.138 1.618z"></path>
</svg>
