<!-- Generated by IcoMoon.io -->
<svg version="1.1" xmlns="http://www.w3.org/2000/svg" fill="currentColor" viewBox="0 0 375 375">
<title>twitter-white</title>
<path d="M374.999 71.364c-13.79 5.948-28.797 10.23-44.255 11.898 15.954-9.508 28.077-24.517 33.8-42.363-14.737 8.789-31.412 15.233-48.762 18.567-14.060-15.007-34.025-24.292-56.153-24.292-42.589 0-76.839 34.521-76.839 76.884 0 5.948 0.721 11.898 1.892 17.62-63.769-3.335-120.643-33.8-158.454-80.444-6.669 11.447-10.455 24.517-10.455 38.803 0 26.679 13.564 50.205 34.251 64.039-12.619-0.495-24.517-4.056-34.747-9.78v0.947c0 37.36 26.409 68.321 61.607 75.441-6.443 1.668-13.341 2.613-20.235 2.613-5.003 0-9.734-0.495-14.511-1.173 9.734 30.465 38.081 52.593 71.837 53.314-26.409 20.685-59.487 32.853-95.407 32.853-6.443 0-12.394-0.226-18.567-0.947 34.070 21.857 74.494 34.477 118.030 34.477 141.329 0 218.663-117.083 218.663-218.707 0-3.335 0-6.669-0.226-10.004 14.963-10.951 28.077-24.517 38.533-39.75z"></path>
</svg>
