<!-- Generated by IcoMoon.io -->
<svg version="1.1" xmlns="http://www.w3.org/2000/svg" stroke="currentColor" viewBox="0 0 375 375">
<title>website</title>
<path fill="none" stroke-linejoin="round" stroke-linecap="round" stroke-miterlimit="4" stroke-width="28.8462" d="M187.5 255.469c93.846 0 169.922-30.43 169.922-67.969s-76.076-67.969-169.922-67.969c-93.845 0-169.922 30.43-169.922 67.969s76.077 67.969 169.922 67.969z"></path>
<path fill="none" stroke-linejoin="round" stroke-linecap="round" stroke-miterlimit="4" stroke-width="28.8462" d="M255.469 187.5c0 93.846-30.43 169.922-67.969 169.922s-67.969-76.076-67.969-169.922c0-93.845 30.43-169.922 67.969-169.922s67.969 76.077 67.969 169.922z"></path>
<path fill="none" stroke-linejoin="round" stroke-linecap="butt" stroke-miterlimit="4" stroke-width="28.8462" d="M187.5 357.422c93.844 0 169.922-76.078 169.922-169.922 0-93.845-76.078-169.922-169.922-169.922-93.845 0-169.922 76.077-169.922 169.922 0 93.844 76.077 169.922 169.922 169.922z"></path>
</svg>
