<!-- Generated by IcoMoon.io -->
<svg version="1.1" xmlns="http://www.w3.org/2000/svg" stroke="currentColor" viewBox="0 0 375 375">
<title>myacount</title>
<path fill="none" stroke-linejoin="round" stroke-linecap="round" stroke-miterlimit="4" stroke-width="31.25" d="M187.501 331.731c79.656 0 144.23-64.574 144.23-144.23 0-79.657-64.574-144.231-144.23-144.231-79.657 0-144.231 64.574-144.231 144.231s64.574 144.23 144.231 144.23z"></path>
<path fill="none" stroke-linejoin="round" stroke-linecap="butt" stroke-miterlimit="4" stroke-width="31.25" d="M187.501 180.289c19.914 0 36.058-16.144 36.058-36.058s-16.144-36.057-36.058-36.057c-19.914 0-36.058 16.144-36.058 36.057s16.144 36.058 36.058 36.058z"></path>
<path fill="none" stroke-linejoin="round" stroke-linecap="round" stroke-miterlimit="4" stroke-width="31.25" d="M86.696 290.855c2.479-37.583 33.747-67.299 71.956-67.299h57.692c38.16 0 69.397 29.637 71.948 67.148"></path>
</svg>
