<!-- Generated by IcoMoon.io -->
<svg version="1.1" xmlns="http://www.w3.org/2000/svg" fill="currentColor" viewBox="0 0 375 375">
<title>lightmode</title>
<path d="M67.188 187.5c0-4.558-1.811-8.93-5.034-12.153s-7.595-5.034-12.153-5.034h-17.187c-4.559 0-8.93 1.811-12.153 5.034s-5.034 7.595-5.034 12.153c0 4.558 1.811 8.93 5.034 12.153s7.595 5.034 12.153 5.034h17.187c4.559 0 8.93-1.811 12.153-5.034s5.034-7.595 5.034-12.153zM78.188 273.438l-12.203 12.203c-3.201 3.22-4.998 7.577-4.998 12.117s1.797 8.897 4.998 12.117c3.22 3.201 7.577 4.998 12.117 4.998s8.897-1.797 12.117-4.998l12.203-12.203c2.816-3.287 4.287-7.517 4.12-11.844-0.167-4.325-1.96-8.428-5.021-11.489s-7.165-4.855-11.49-5.022c-4.326-0.167-8.555 1.305-11.843 4.12v0zM187.5 67.188c4.558 0 8.93-1.811 12.153-5.034s5.034-7.595 5.034-12.153v-17.187c0-4.559-1.811-8.93-5.034-12.153s-7.595-5.034-12.153-5.034c-4.558 0-8.93 1.811-12.153 5.034s-5.034 7.595-5.034 12.153v17.187c0 4.559 1.811 8.93 5.034 12.153s7.595 5.034 12.153 5.034zM284.781 107.406c4.51-0.019 8.83-1.809 12.031-4.984l12.203-12.203c1.8-1.541 3.261-3.437 4.292-5.569s1.611-4.455 1.703-6.822c0.090-2.367-0.308-4.727-1.172-6.933s-2.175-4.209-3.85-5.884c-1.675-1.675-3.678-2.986-5.883-3.85-2.206-0.864-4.567-1.263-6.934-1.172-2.366 0.092-4.689 0.671-6.822 1.703-2.131 1.032-4.028 2.493-5.569 4.292l-11.344 12.203c-3.201 3.22-4.998 7.577-4.998 12.117s1.797 8.897 4.998 12.117c3.030 3.014 7.075 4.791 11.344 4.984v0zM78.531 102.422c3.201 3.175 7.522 4.965 12.031 4.984 2.262 0.013 4.504-0.42 6.598-1.276s3.999-2.116 5.605-3.709c3.201-3.22 4.998-7.577 4.998-12.117s-1.797-8.897-4.998-12.117l-12.203-12.203c-1.591-1.614-3.485-2.899-5.573-3.78s-4.329-1.344-6.595-1.36c-2.266-0.016-4.514 0.415-6.614 1.267s-4.011 2.11-5.625 3.702c-1.614 1.591-2.899 3.485-3.78 5.573s-1.344 4.329-1.36 6.595c-0.032 4.577 1.755 8.979 4.969 12.239l12.547 12.203zM342.188 170.313h-17.187c-4.558 0-8.93 1.811-12.153 5.034s-5.034 7.595-5.034 12.153c0 4.558 1.811 8.93 5.034 12.153s7.595 5.034 12.153 5.034h17.187c4.558 0 8.93-1.811 12.153-5.034s5.034-7.595 5.034-12.153c0-4.558-1.811-8.93-5.034-12.153s-7.595-5.034-12.153-5.034zM296.813 273.438c-3.266-1.816-7.035-2.519-10.734-2.002s-7.131 2.227-9.773 4.869c-2.642 2.642-4.352 6.074-4.869 9.773s0.186 7.469 2.002 10.734l12.203 12.203c3.22 3.201 7.577 4.998 12.117 4.998s8.897-1.797 12.117-4.998c3.201-3.22 4.998-7.577 4.998-12.117s-1.797-8.897-4.998-12.117l-13.062-11.344zM187.5 92.969c-18.697 0-36.973 5.544-52.519 15.931s-27.662 25.151-34.817 42.424c-7.155 17.274-9.027 36.28-5.379 54.618s12.651 35.181 25.871 48.402c13.221 13.22 30.064 22.224 48.402 25.872 18.338 3.647 37.344 1.775 54.617-5.38s32.038-19.272 42.425-34.817c10.388-15.545 15.931-33.822 15.931-52.519-0.045-25.058-10.019-49.075-27.738-66.794s-41.736-27.693-66.794-27.738zM187.5 247.656c-11.899 0-23.528-3.528-33.421-10.137-9.892-6.611-17.603-16.006-22.156-26.999s-5.744-23.087-3.423-34.756c2.321-11.669 8.050-22.388 16.463-30.801s19.132-14.142 30.801-16.463c11.669-2.321 23.764-1.13 34.756 3.423s20.387 12.264 26.999 22.156c6.609 9.893 10.137 21.523 10.137 33.421 0 15.955-6.338 31.255-17.619 42.538-11.283 11.281-26.583 17.619-42.538 17.619v0zM187.5 307.812c-4.558 0-8.93 1.811-12.153 5.034s-5.034 7.595-5.034 12.153v17.187c0 4.558 1.811 8.93 5.034 12.153s7.595 5.034 12.153 5.034c4.558 0 8.93-1.811 12.153-5.034s5.034-7.595 5.034-12.153v-17.187c0-4.558-1.811-8.93-5.034-12.153s-7.595-5.034-12.153-5.034z"></path>
</svg>
