<!-- Generated by IcoMoon.io -->
<svg version="1.1" xmlns="http://www.w3.org/2000/svg" viewBox="0 0 375 375">
<title>nightmode</title>
<path opacity="0.01" fill="#000" d="M-0.004 0h375.001v375h-375.001v-375z"></path>
<path fill="none" stroke="currentColor" stroke-linejoin="miter" stroke-linecap="butt" stroke-miterlimit="4" stroke-width="31.25" d="M215.958 91.362c0-6.495 0.661-12.82 1.914-18.915 2.535-12.323-5.295-27.47-21.178-28.472-3.037-0.192-6.1-0.289-9.181-0.289-79.436 0-143.83 64.395-143.83 143.83 0 79.436 64.395 143.831 143.83 143.831 72.43 0 132.333-53.525 142.356-123.181 1.938-13.456-9.056-23.455-20.561-23.455-15.925 0-30.875-3.973-43.958-10.972-29.428-15.742-49.392-46.74-49.392-82.377z"></path>
</svg>
