<?xml version="1.0" encoding="UTF-8"?><svg id="a" xmlns="http://www.w3.org/2000/svg" viewBox="0 0 483.11 190.2"><defs><style>.b{fill:#fff;}</style></defs><path class="b" d="M110.97,55.07c-4.53-1.01-7.67-5.03-7.79-9.57-.38-13.85-.75-22.41-1.26-22.41-.63,0-1.13,13.72-1.51,34.24-.13,6.42-.13,54.13-.13,57.4-10.31-.88-18.23-9.44-18.23-19.89,0-4.91,1.76-9.31,4.65-12.71,2.77-3.27,3.02-7.8,.88-11.46l-5.78-9.82c-.38-.63-1.13-.76-1.76-.38-11.44,7.05-18.98,19.89-18.98,34.36,0,19.51,13.7,35.75,31.93,39.9,4.4,1.01,7.54,4.91,7.79,9.44,.25,9.32,.75,22.91,1.13,22.91,.5,0,1.38-26.18,1.38-31.34,0-6.55,.25-59.54,.25-60.67,10.18,.88,18.1,9.44,18.1,19.76,0,4.91-1.76,9.32-4.65,12.84-2.77,3.27-3.02,7.8-.88,11.45l5.78,9.82c.38,.63,1.13,.76,1.76,.38,11.44-7.3,18.98-20.01,18.98-34.49,0-19.38-13.58-35.75-31.68-39.78Z"/><path class="b" d="M304.2,84.53h-30.05c-2.51,0-4.65-2.01-4.65-4.66s2.01-4.66,4.65-4.66h54.31c1.01,0,1.64-1.01,1.13-1.89l-8.55-14.48c-1.76-3.02-5.15-4.91-8.68-4.91h-36.96c-7.79,0-14.33,3.15-19.24,8.68-4.78,5.41-7.17,11.46-7.17,17.62,0,7.3,2.51,13.47,7.54,18,4.9,4.78,11.19,7.17,18.73,7.17h30.05c2.51,0,4.65,2.01,4.65,4.66s-2.01,4.66-4.65,4.66h-54.19c-1.01,0-1.63,1.01-1.13,1.89l8.3,14.22c1.76,3.02,5.15,4.91,8.67,4.91h37.09c7.8,0,14.33-2.77,19.24-8.31,4.78-5.41,7.17-11.33,7.17-17.75,0-7.3-2.51-13.47-7.67-18.13-4.78-4.66-11.06-7.05-18.61-7.05Z"/><path class="b" d="M395.86,59.23l-19.11,33.11-18.98-33.11c-1.76-3.15-5.15-5.04-8.67-5.04h-16.22c-1.01,0-1.63,1.01-1.13,1.89l32.94,57.15-16.22,28.07c-1.76,3.15-1.76,7.05,0,10.2l8.17,13.85c.5,.88,1.63,.88,2.14,0l63.11-109.26c.5-.88-.13-1.89-1.13-1.89h-16.22c-3.52,0-6.91,1.89-8.67,5.04Z"/><path class="b" d="M183.38,55.95c-17.1,5.54-29.29,22.03-28.29,41.29,1.13,20.39,17.48,37.01,37.84,38.39,23.89,1.64,43.75-17.25,43.75-40.78V61.49c0-1.76-.5-3.52-1.38-5.16l-17.35-29.2c-.63-1.13-2.39-.63-2.39,.63V94.85c0,11.33-9.43,20.39-20.74,19.89-10.06-.5-18.48-8.81-18.86-18.88-.38-7.68,3.65-14.48,9.68-18,4.78-2.9,6.41-9.06,3.52-13.85l-4.4-7.43c-.25-.63-.88-.76-1.38-.63Z"/></svg>