<svg width="40" height="44" viewBox="0 0 40 44" fill="none" xmlns="http://www.w3.org/2000/svg">
<path d="M30.2319 25.8644C30.4205 25.8653 30.6074 25.8297 30.7824 25.7595C31.1313 25.622 31.4162 25.359 31.5817 25.0221C31.7471 24.6852 31.781 24.2987 31.6768 23.9381C31.5726 23.5775 31.3378 23.2688 31.0183 23.0724C30.6988 22.876 30.3176 22.806 29.9494 22.8762C29.5811 22.9463 29.2522 23.1516 29.027 23.4517C28.8019 23.7519 28.6967 24.1254 28.732 24.4991C28.7674 24.8728 28.9407 25.2199 29.2181 25.4724C29.4955 25.7249 29.857 25.8647 30.2319 25.8644Z" fill="url(#paint0_linear_0_1)"/>
<path d="M38.3435 10.501L20.6321 0.256548C20.3358 0.0852835 19.9998 -0.00488281 19.6577 -0.00488281C19.3157 -0.00488281 18.9796 0.0852835 18.6834 0.256548L0.974361 10.501C0.678053 10.6723 0.43201 10.9187 0.26097 11.2154C0.0899306 11.5122 -7.67906e-05 11.8488 4.91577e-08 12.1914V32.6681C-7.67906e-05 33.0107 0.0899306 33.3473 0.26097 33.644C0.43201 33.9407 0.678053 34.1871 0.974361 34.3584L1.85128 34.8658C2.07389 34.9945 2.32646 35.0621 2.58351 35.0619C2.84056 35.0616 3.09299 34.9935 3.31535 34.8643C3.5377 34.7352 3.72211 34.5496 3.84997 34.3263C3.97783 34.103 4.04461 33.8499 4.04359 33.5925V32.9925C4.03592 31.472 4.34539 29.9666 4.95218 28.5728C5.41256 27.5264 6.03129 26.5848 6.76937 26.5848C7.50744 26.5848 8.12372 27.18 8.59385 27.841C8.9732 28.3969 9.28631 28.9953 9.52681 29.624C10.7165 29.624 11.8576 30.0961 12.7004 30.9368C13.5432 31.7775 14.019 32.9184 14.0235 34.1096L14.6178 34.6877C14.6967 34.7627 14.7461 34.8633 14.7573 34.9716C14.7684 35.0798 14.7406 35.1885 14.6787 35.278L14.1745 36.0097C13.7084 36.6894 13.1123 37.2698 12.4207 37.7172C12.0122 37.9776 11.5727 38.1857 11.1126 38.3367C10.9713 38.3904 10.8274 38.4368 10.6814 38.4757H10.6668C10.525 38.5216 10.3996 38.6079 10.3059 38.724C10.2123 38.8402 10.1544 38.9811 10.1395 39.1296C10.1245 39.2781 10.153 39.4277 10.2216 39.5602C10.2901 39.6928 10.3957 39.8024 10.5255 39.8758L12.0602 40.7637L17.6627 43.9077C17.7784 43.9712 17.9109 43.997 18.0419 43.9817C18.1729 43.9664 18.2959 43.9106 18.3938 43.8222C18.4918 43.7338 18.5598 43.617 18.5886 43.4881C18.6173 43.3592 18.6053 43.2246 18.5543 43.1028L17.2364 39.9831C17.1583 39.7936 17.1218 39.5894 17.1297 39.3845C17.1376 39.1796 17.1896 38.9788 17.2821 38.7958C17.3746 38.6129 17.5055 38.4521 17.6657 38.3244C17.826 38.1968 18.012 38.1053 18.2108 38.0562C18.4284 37.9977 18.6403 37.9294 18.8466 37.8513C20.6826 37.2344 22.2651 36.0303 23.3506 34.4243L24.0813 33.3437C24.1723 33.2118 24.2134 33.0517 24.1973 32.8922C24.1812 32.7327 24.1091 32.5841 23.9936 32.473L23.1167 31.6241C23.1103 29.8714 22.4104 28.1926 21.1704 26.9555C19.9303 25.7184 18.2512 25.0238 16.5008 25.0238C16.5008 25.0238 15.0392 20.9601 12.7787 20.5796C13.0331 18.2777 13.6343 16.0277 14.5618 13.9061C15.5508 11.6645 16.8759 9.64975 18.4593 9.64975C21.9986 9.64975 24.3566 16.155 24.3566 16.155C26.901 16.1543 29.342 17.1637 31.1446 18.9618C32.9472 20.76 33.9645 23.2004 33.9735 25.7482L35.2499 26.9824C35.4188 27.1434 35.5244 27.3596 35.5477 27.5919C35.5709 27.8241 35.5102 28.057 35.3766 28.2483L34.2975 29.8192C32.7197 32.1543 30.4191 33.9053 27.7498 34.8024C27.4475 34.9176 27.1393 35.017 26.8266 35.0999C26.5378 35.1715 26.2678 35.3045 26.035 35.4901C25.8022 35.6756 25.6122 35.9093 25.4778 36.1751C25.3435 36.4409 25.268 36.7326 25.2565 37.0303C25.245 37.328 25.2978 37.6247 25.4113 37.9001L26.1421 39.6075C26.2176 39.7869 26.3303 39.9482 26.4729 40.0806C26.6155 40.213 26.7846 40.3135 26.9689 40.3753C27.1533 40.4372 27.3487 40.459 27.5422 40.4393C27.7356 40.4196 27.9226 40.3589 28.0908 40.2612L38.3216 34.3438C38.6179 34.1725 38.864 33.9261 39.035 33.6294C39.206 33.3327 39.296 32.9961 39.296 32.6535V12.1914C39.2983 11.8509 39.2116 11.5157 39.0445 11.2192C38.8774 10.9227 38.6358 10.6751 38.3435 10.501ZM19.5481 30.4631C19.5481 30.4314 19.5627 30.3997 19.5725 30.3704C19.5911 30.3085 19.6164 30.2488 19.648 30.1923C19.6602 30.1613 19.6775 30.1324 19.6991 30.107C19.736 30.0516 19.7785 30.0001 19.8258 29.9533C19.8472 29.9282 19.8717 29.9061 19.8989 29.8875C19.9229 29.8637 19.9499 29.8432 19.9793 29.8265C20.0062 29.8071 20.0348 29.79 20.0645 29.7753C20.1016 29.7535 20.1408 29.7355 20.1814 29.7216C20.2142 29.707 20.2485 29.6964 20.2837 29.6899H20.3032H20.3325C20.5012 29.6517 20.6768 29.6569 20.8429 29.7051C21.0091 29.7533 21.1603 29.8429 21.2825 29.9655C21.3298 30.0123 21.3723 30.0638 21.4091 30.1192C21.4949 30.2474 21.551 30.3933 21.5733 30.546C21.5957 30.6988 21.5836 30.8546 21.5381 31.0021C21.4926 31.1496 21.4147 31.2851 21.3102 31.3986C21.2057 31.5121 21.0773 31.6008 20.9341 31.6583C20.6904 31.7527 20.4203 31.7527 20.1766 31.6583C20.0336 31.6028 19.9052 31.5152 19.8014 31.4022C19.7672 31.3653 19.7354 31.3262 19.7064 31.2851C19.6628 31.2217 19.6261 31.1538 19.5968 31.0826C19.579 31.0401 19.5652 30.996 19.5554 30.9509C19.5154 30.7911 19.5129 30.6241 19.5481 30.4631Z" fill="url(#paint1_linear_0_1)"/>
<path d="M12.2722 34.1579C12.3598 34.1582 12.4467 34.1417 12.528 34.1091C12.5653 34.0947 12.6012 34.0767 12.6352 34.0554C12.7366 33.9935 12.8207 33.9068 12.8795 33.8034C12.9383 33.7 12.9699 33.5833 12.9714 33.4643C12.9728 33.3454 12.9441 33.228 12.8878 33.1232C12.8316 33.0184 12.7497 32.9296 12.6498 32.8651C12.5376 32.7916 12.4063 32.7526 12.2722 32.7529C12.1087 32.7526 11.9503 32.8095 11.8242 32.9137C11.6981 33.018 11.6124 33.163 11.5817 33.3239C11.5511 33.4847 11.5776 33.6511 11.6565 33.7945C11.7354 33.9379 11.8619 34.0492 12.014 34.1091C12.0962 34.1419 12.1838 34.1584 12.2722 34.1579Z" fill="url(#paint2_linear_0_1)"/>
<defs>
<linearGradient id="paint0_linear_0_1" x1="6.3577" y1="45.8338" x2="45.8055" y2="10.4551" gradientUnits="userSpaceOnUse">
<stop stop-color="#FF2C82"/>
<stop offset="1" stop-color="#FFA050"/>
</linearGradient>
<linearGradient id="paint1_linear_0_1" x1="0.677181" y1="39.5002" x2="40.1249" y2="4.12136" gradientUnits="userSpaceOnUse">
<stop stop-color="#FF2C82"/>
<stop offset="1" stop-color="#FFA050"/>
</linearGradient>
<linearGradient id="paint2_linear_0_1" x1="2.85259" y1="41.9266" x2="42.3004" y2="6.54542" gradientUnits="userSpaceOnUse">
<stop stop-color="#FF2C82"/>
<stop offset="1" stop-color="#FFA050"/>
</linearGradient>
</defs>
</svg>
