<svg width="156" height="50" viewBox="0 0 156 50" fill="none" xmlns="http://www.w3.org/2000/svg">
<path fill-rule="evenodd" clip-rule="evenodd" d="M57.1233 24.8314H47.6749C47.7859 25.0359 47.8916 25.2342 47.9947 25.4278C48.197 25.8075 48.3897 26.1693 48.5949 26.5248C48.7712 26.8308 48.9473 27.1369 49.1234 27.443C50.0842 29.1125 51.0453 30.7826 52.0266 32.4374C52.1951 32.6766 52.2855 32.962 52.2855 33.2546C52.2855 33.5471 52.1951 33.8324 52.0266 34.0716C51.3382 35.2028 50.6796 36.3606 50.0213 37.5177L50.0213 37.5178L50.0211 37.518C49.7161 38.0542 49.4112 38.5903 49.1034 39.1235C48.751 39.7336 48.7132 39.7313 48.3939 39.1542L36.7436 18.933C36.4314 18.3937 36.4503 18.3512 37.0582 18.3512C42.3133 18.3638 47.5677 18.374 52.8213 18.3819C53.0549 18.3648 53.2883 18.4187 53.4908 18.5364C53.6934 18.6541 53.8557 18.8302 53.9565 19.0417C54.6382 20.2654 55.3432 21.4793 56.0477 22.6921C56.3209 23.1624 56.5939 23.6325 56.8655 24.1029C57.0148 24.3184 57.1038 24.5699 57.1233 24.8314ZM39.5286 5.78969C40.6531 3.91041 41.7823 2.02333 42.7937 0.0219018C42.1825 0.0219018 41.5783 0.0236662 40.9795 0.0254148C39.3841 0.0300741 37.8267 0.0346222 36.2756 0.00538803C35.9843 -0.0199312 35.6922 0.0443883 35.4386 0.189812C35.1849 0.335235 34.9818 0.554791 34.8565 0.818953C32.3906 5.11389 29.923 9.40883 27.4539 13.7038C27.3369 13.9118 27.2234 14.1199 27.1056 14.3358C27.0092 14.5126 26.91 14.6947 26.8035 14.8863C26.9247 14.898 27.0376 14.9116 27.1449 14.9244L27.145 14.9244L27.1451 14.9244L27.1451 14.9244C27.3623 14.9505 27.5564 14.9737 27.7495 14.9737C35.365 14.9911 42.9805 15.0046 50.596 15.014C51.4332 15.014 51.5042 14.891 51.0856 14.1389C50.6741 13.4023 50.26 12.6678 49.8458 11.9331C49.3051 10.9742 48.7642 10.0148 48.2286 9.0493C48.1338 8.83598 47.9743 8.65796 47.7727 8.54037C47.571 8.42279 47.3375 8.37159 47.1052 8.39418C45.3123 8.40364 43.5258 8.40048 41.7406 8.39733H41.7405H41.7403H41.7402H41.74C40.8478 8.39575 39.956 8.39418 39.064 8.39418C38.7249 8.42891 38.3824 8.38443 38.0636 8.26414C38.5441 7.43485 39.0359 6.61302 39.5286 5.78969ZM14.1453 13.1449C14.5497 13.8542 14.9541 14.5636 15.3612 15.2715C16.2331 16.7835 17.1082 18.2925 17.9864 19.7982C18.2102 20.1925 18.4495 20.5796 18.7057 20.9939C18.7798 21.1139 18.8554 21.2361 18.9325 21.3615L19.8383 19.9756C19.8969 19.7382 20.0358 19.544 20.1753 19.3491C20.2497 19.245 20.3244 19.1407 20.387 19.0296C21.2097 17.5853 22.0379 16.1447 22.8659 14.7043L22.8662 14.7039L22.8664 14.7035L22.8666 14.7031L22.8672 14.702C23.3812 13.808 23.8951 12.9141 24.4075 12.0195C26.5661 8.25277 28.719 4.48206 30.8665 0.707435C31.2307 0.06887 31.1929 0.0239016 30.4834 0.0239016C29.8962 0.0231741 29.3091 0.0251311 28.7219 0.0270881C27.4005 0.0314927 26.079 0.0358972 24.7576 0.00969744C24.446 -0.0191195 24.1332 0.0493858 23.8621 0.205669C23.5911 0.361952 23.3751 0.598435 23.2439 0.882505C22.2794 2.60552 21.2941 4.31812 20.3081 6.03211C20.0489 6.48257 19.7897 6.93312 19.5308 7.38398C19.3497 7.75797 19.1199 8.10627 18.8473 8.41985L14.1172 0.191811C14.0472 0.300668 13.9774 0.40532 13.9091 0.50791L13.909 0.507958C13.7858 0.69288 13.667 0.871099 13.559 1.05515C13.2875 1.52156 13.0221 1.99142 12.7568 2.46121C12.1718 3.49698 11.587 4.53242 10.9362 5.52982C10.4112 6.3434 10.5223 6.93939 10.9953 7.72223C12.0736 9.51145 13.1091 11.3276 14.1449 13.1442L14.1449 13.1443L14.145 13.1444L14.145 13.1445L14.1453 13.1449ZM40.2931 32.2182L40.293 32.2181L40.293 32.218C39.5927 30.9808 38.8891 29.7377 38.1009 28.5164L25.7671 49.8918H26.5003C27.1759 49.8918 27.8515 49.8889 28.5271 49.886H28.5278C29.8788 49.8802 31.2298 49.8744 32.5808 49.8918C32.8033 49.9135 33.027 49.8653 33.2208 49.7538C33.4145 49.6423 33.5687 49.4731 33.6616 49.2698C34.9225 47.0432 36.2092 44.8267 37.4944 42.6127L37.4947 42.6123L37.8407 42.0162C37.866 41.973 37.888 41.927 37.9101 41.8807C37.979 41.7366 38.0496 41.5887 38.2286 41.51L42.9303 49.6907C43.0933 49.624 43.1736 49.4892 43.2519 49.3577C43.2736 49.3213 43.2951 49.2852 43.3182 49.2508C43.9928 48.2288 44.5848 47.1593 45.1768 46.0901L45.1768 46.09C45.556 45.405 45.9352 44.72 46.336 44.0477C46.4742 43.8461 46.5481 43.6074 46.5481 43.363C46.5481 43.1186 46.4742 42.8799 46.336 42.6783C45.1293 40.6172 43.9373 38.5505 42.7451 36.4836C42.2082 35.5526 41.6712 34.6216 41.1329 33.6911C40.85 33.2022 40.5718 32.7107 40.2931 32.2182ZM18.3031 27.2081C18.465 27.7133 18.7378 28.1552 19.0113 28.5985C19.1374 28.8028 19.2636 29.0073 19.3792 29.2184C19.7056 29.8215 20.0556 30.4128 20.4175 30.9946C20.6752 31.4085 20.5735 31.5197 20.1076 31.515C18.7045 31.5055 17.3025 31.5087 15.9001 31.5118H15.8998C15.1985 31.5134 14.497 31.515 13.7953 31.515C12.9913 31.515 12.1884 31.514 11.3862 31.513C9.12083 31.5103 6.86116 31.5075 4.59761 31.5268C4.27654 31.5559 3.95426 31.4855 3.67458 31.3251C3.3949 31.1648 3.17135 30.9222 3.03429 30.6304C2.33706 29.3633 1.6137 28.1105 0.890293 26.8576L0.889915 26.8569C0.592659 26.3421 0.295395 25.8273 -6.10352e-05 25.3114C0.10873 25.1138 0.277287 25.1358 0.43848 25.1568L0.438515 25.1568C0.487568 25.1632 0.535938 25.1695 0.581734 25.1695H5.89365H9.46251C8.38168 23.2302 7.36235 21.4209 6.26497 19.6566C5.86291 18.947 5.46795 18.2565 5.05406 17.5659C4.88593 17.321 4.79069 17.0334 4.77939 16.7366C4.76809 16.4398 4.84118 16.1459 4.9902 15.889C5.92793 14.2534 6.88375 12.6279 7.83912 11.0032L7.83962 11.0024L8.08133 10.5913C8.16428 10.4764 8.256 10.368 8.35567 10.2672L11.3427 15.2693L14.0697 20.0799C14.0912 20.1239 14.1224 20.1624 14.1609 20.1927C14.1993 20.223 14.2442 20.2442 14.292 20.2549C14.3541 20.6648 14.5773 20.9922 14.8008 21.3199C14.8752 21.429 14.9496 21.538 15.018 21.6502L15.3818 22.2862L15.3821 22.2868C16.1899 23.6993 16.9972 25.1111 17.8135 26.5175C17.8529 26.5819 17.8867 26.652 17.9208 26.723C18.0097 26.9079 18.1015 27.0988 18.3031 27.2081ZM18.003 41.5051H19.1146L14.6352 49.3003C14.3253 49.8443 14.3324 49.8656 14.9639 49.8656C15.8063 49.8706 16.6508 49.8688 17.4961 49.8671C18.6586 49.8647 19.8228 49.8623 20.9853 49.8774C21.2085 49.8924 21.431 49.8389 21.6229 49.7239C21.8148 49.6089 21.967 49.438 22.0591 49.2341C24.4793 45.0464 26.898 40.8594 29.315 36.6733C29.5097 36.3378 29.6895 35.995 29.8743 35.6426C29.9657 35.4683 30.0584 35.2917 30.1546 35.1124C30.0958 35.1066 30.0515 35.1012 30.0157 35.0968C29.9637 35.0905 29.9295 35.0863 29.8945 35.0863C21.9842 35.0989 14.0738 35.0989 6.16352 35.0863C5.58941 35.0863 5.73637 35.3189 5.88337 35.5515C5.90411 35.5843 5.92485 35.6171 5.94357 35.6493C6.26943 36.209 6.59863 36.7669 6.92787 37.3249C7.59747 38.4598 8.26723 39.5949 8.90935 40.7459C9.03374 41.0105 9.23682 41.2302 9.49082 41.375C9.74482 41.5197 10.0373 41.5825 10.3284 41.5548C12.3188 41.5272 14.3077 41.5196 16.2974 41.5121C16.8659 41.5099 17.4344 41.5077 18.003 41.5051Z" fill="url(#paint0_linear_159_6869)"/>
<path d="M142.624 14.9913C143.806 14.8922 144.987 14.8021 146.175 14.8487C147.775 14.9102 149.364 15.0462 150.891 15.5793C152.69 16.207 154.164 17.2372 154.832 19.097C155.535 21.053 155.653 23.0285 154.601 24.9304C153.997 26.0222 153.017 26.6672 151.898 27.135C151.87 27.1468 151.836 27.1538 151.802 27.1609C151.702 27.1814 151.598 27.203 151.598 27.3512C151.598 27.512 151.71 27.523 151.814 27.5331C151.847 27.5363 151.879 27.5394 151.906 27.5472C153.006 27.8641 153.983 28.5088 154.708 29.3954C155.432 30.282 155.869 31.3683 155.96 32.5096C156.072 33.8574 155.96 35.1811 155.442 36.4448C154.797 38.0216 153.593 39.0443 152.084 39.7486L151.68 39.9371L151.39 40.0542L150.939 40.1946C147.754 41.1189 144.499 41.0513 141.239 40.8531C140.734 40.8226 140.232 40.7452 139.73 40.6679C139.466 40.6273 139.203 40.5866 138.939 40.5528C138.768 40.531 138.713 40.4544 138.713 40.2832C138.719 38.4954 138.722 36.7076 138.713 34.9198C138.713 34.6649 138.841 34.6911 138.972 34.7183C138.982 34.7202 138.991 34.7222 139.001 34.724C139.009 34.7256 139.016 34.727 139.024 34.7284C139.274 34.7717 139.524 34.8206 139.773 34.8696C140.259 34.9648 140.744 35.06 141.234 35.1136C143.073 35.3148 144.921 35.4665 146.745 35.0122C148.147 34.6638 148.827 33.5503 148.547 32.1454C148.406 31.4261 147.935 30.9959 147.293 30.7188C146.452 30.3584 145.557 30.257 144.659 30.218C143.71 30.1776 142.759 30.1785 141.809 30.1795L141.586 30.1797C141.344 30.1797 141.271 30.1159 141.273 29.8658C141.284 28.3281 141.284 26.7903 141.273 25.2526C141.273 25.0093 141.335 24.9364 141.585 24.9372C141.882 24.9372 142.179 24.9401 142.476 24.943C143.379 24.9518 144.28 24.9606 145.182 24.8876C145.209 24.8854 145.236 24.8833 145.264 24.8811L145.317 24.8769C146.092 24.8159 146.872 24.7546 147.528 24.2494C148.257 23.6885 148.34 22.9069 148.237 22.0847C148.149 21.3834 147.697 20.9584 147.052 20.7196C146.125 20.3735 145.15 20.3607 144.176 20.3735C142.714 20.3986 141.262 20.6111 139.854 21.0057C139.558 21.086 139.478 21.0493 139.478 20.7241C139.494 19.1223 139.494 17.5222 139.478 15.9239C139.478 15.6731 139.562 15.5875 139.784 15.5192C140.092 15.424 140.408 15.3696 140.724 15.3152C141.009 15.2661 141.293 15.2172 141.571 15.1385L141.602 15.1386C141.749 15.1389 141.897 15.1393 142.032 15.0634L142.243 15.0462L142.393 15.0386C142.433 15.0477 142.474 15.0482 142.514 15.04C142.553 15.0318 142.591 15.0152 142.624 14.9913Z" fill="white"/>
<path d="M102.41 30.5852L102.415 33.7343L102.41 34.6376C102.406 35.1336 102.404 35.632 102.404 36.1325L102.409 37.5644L102.403 40.2585C102.389 40.5213 102.491 40.6076 102.773 40.6076C104.537 40.5933 106.302 40.5903 108.067 40.5874C108.61 40.5865 109.153 40.5856 109.697 40.5844L109.706 40.5686C109.706 40.1894 109.702 39.8101 109.698 39.4306C109.688 38.4091 109.678 37.3864 109.73 36.3638C109.73 36.3455 109.732 36.3273 109.733 36.3091C109.735 36.2774 109.737 36.2455 109.737 36.2136C109.733 36.0442 109.727 35.8742 109.722 35.7039C109.71 35.3127 109.697 34.92 109.697 34.5287V15.6559C109.697 15.5527 109.693 15.4496 109.69 15.3464L109.689 15.3462L109.689 15.3449C109.688 15.2984 109.686 15.2519 109.685 15.2054C109.143 15.205 108.602 15.2051 108.061 15.2052C106.329 15.2054 104.597 15.2056 102.865 15.1919C102.522 15.1889 102.415 15.2512 102.415 15.6266C102.426 19.398 102.425 23.1695 102.424 26.9409C102.424 28.0185 102.424 29.0961 102.424 30.1737C102.424 30.2655 102.42 30.3574 102.416 30.449C102.414 30.4944 102.412 30.5399 102.41 30.5852Z" fill="white"/>
<path fill-rule="evenodd" clip-rule="evenodd" d="M128.217 15.4321L126.784 15.282C126.635 15.2745 126.485 15.265 126.336 15.2555C126.062 15.2379 125.786 15.2203 125.509 15.2159C121.864 15.2094 118.218 15.2039 114.573 15.1994C114.571 15.2444 114.569 15.2895 114.567 15.3345C114.562 15.4396 114.557 15.5448 114.557 15.6499V26.6687C114.564 31.1653 114.561 35.6622 114.548 40.1594C114.547 40.5108 114.65 40.5859 114.984 40.5859C116.676 40.5746 118.368 40.5755 120.06 40.5764C120.515 40.5766 120.971 40.5768 121.426 40.5768C121.52 40.5768 121.614 40.5691 121.707 40.5613C121.75 40.5577 121.793 40.5541 121.836 40.5513V39.3147C121.841 37.4786 121.847 35.643 121.853 33.8079C121.837 33.7568 121.848 33.72 121.912 33.7253C122.388 33.6832 122.864 33.6892 123.34 33.6953C123.611 33.6987 123.882 33.7022 124.153 33.6967C126.112 33.6577 128.059 33.5901 129.962 33.012C132.301 32.3009 133.827 30.7984 134.417 28.4497C135.169 25.4553 135.166 22.4504 134.213 19.4807C133.999 19.0122 133.782 18.5422 133.463 18.1292C132.85 17.2867 132.046 16.6928 131.103 16.2648C130.179 15.8466 129.201 15.6311 128.217 15.4321ZM121.854 27.3648V26.08C121.85 24.4041 121.844 22.729 121.836 21.0545L121.836 21.039C121.836 20.9143 121.836 20.8092 122.021 20.8135C122.305 20.8197 122.59 20.8171 122.876 20.8146C123.591 20.8081 124.306 20.8016 125.012 20.9337C126.544 21.219 127.137 21.8257 127.414 23.386C127.551 24.1763 127.535 24.9854 127.369 25.7699C127.143 26.8677 126.426 27.4894 125.347 27.7222C124.401 27.9266 123.443 27.9092 122.486 27.8918C122.333 27.889 122.179 27.8862 122.025 27.8843C121.767 27.8814 121.802 27.7316 121.838 27.5797C121.856 27.5022 121.874 27.4241 121.854 27.3648Z" fill="white"/>
<path fill-rule="evenodd" clip-rule="evenodd" d="M92.9555 14.8485C92.9694 14.8479 92.9834 14.8472 92.9974 14.8466C93.0362 14.8447 93.0751 14.8428 93.1143 14.8428C93.6326 14.8428 94.1509 14.844 94.6692 14.8451C95.9532 14.848 97.2371 14.8508 98.5209 14.8361C99.0846 14.8298 99.4474 15.3048 99.2517 15.8675C99.035 16.4917 98.8252 17.1173 98.6154 17.7429L98.6152 17.7435L98.6137 17.748L98.6131 17.7497L98.6127 17.751L98.6126 17.7513C98.5243 18.0147 98.4359 18.2781 98.3471 18.5414C98.2722 18.7632 98.1975 18.9851 98.1229 19.2071L98.1228 19.2073C97.8932 19.8902 97.6634 20.5733 97.4256 21.2518C97.3863 21.3641 97.3509 21.4777 97.3155 21.5913C97.2481 21.8076 97.1807 22.024 97.0865 22.2308C97.0804 22.2029 97.0804 22.1741 97.0805 22.1454C97.0806 22.1002 97.0807 22.0551 97.0567 22.0132C96.8086 21.5793 96.5577 21.1472 96.3039 20.7167C96.243 20.6127 96.1851 20.507 96.1272 20.4015C96.0084 20.1847 95.8898 19.9683 95.746 19.7664C95.7273 19.7402 95.7094 19.7137 95.692 19.6868C95.7093 19.7136 95.7272 19.7402 95.7456 19.7664C95.8881 19.9663 96.0058 20.1811 96.1235 20.3958C96.1825 20.5035 96.2415 20.6111 96.3036 20.7167C96.5565 21.1472 96.8075 21.5793 97.0564 22.0132C97.0804 22.0551 97.0803 22.1002 97.0802 22.1453C97.0801 22.1741 97.0801 22.2029 97.0862 22.2308C96.9877 22.5318 96.8895 22.8328 96.7917 23.1336C96.7876 23.146 96.7802 23.1571 96.7703 23.1656C96.7606 23.174 96.7488 23.1797 96.7361 23.182C96.7406 23.2499 96.7314 23.3179 96.7091 23.382C96.6243 23.6197 96.5419 23.8574 96.4597 24.0945C96.4234 24.1993 96.3871 24.3042 96.3506 24.4087L96.3421 24.4405C96.3344 24.4611 96.3265 24.4818 96.3185 24.5024C96.2054 24.8812 96.0847 25.2555 95.9395 25.6216C95.9322 25.5079 95.8763 25.4143 95.821 25.3216C95.8091 25.3015 95.7971 25.2814 95.7857 25.2612C95.706 25.1207 95.6268 24.98 95.5476 24.8392L95.5464 24.837L95.546 24.8363C95.2979 24.3954 95.0498 23.9543 94.787 23.5225C94.5874 23.1939 94.3927 22.8619 94.2061 22.527C94.0317 22.2143 93.8517 21.9049 93.6716 21.5956C93.5605 21.4045 93.4492 21.2134 93.3393 21.0215C93.1041 20.6102 92.8652 20.201 92.6263 19.7919L92.6255 19.7905C92.4694 19.5231 92.3133 19.2557 92.1582 18.9879C92.0305 18.767 91.9049 18.5449 91.7795 18.3228C91.7108 18.2013 91.6422 18.0799 91.5732 17.9587L91.5626 17.9398L91.5726 17.958C91.6415 18.079 91.7099 18.2002 91.7784 18.3215L91.7788 18.3222C91.9043 18.5443 92.0298 18.7664 92.1576 18.9872C92.3194 19.2671 92.4824 19.5463 92.6454 19.8255C92.8777 20.2234 93.1099 20.6212 93.3387 21.0208C93.4486 21.2127 93.5598 21.4038 93.6709 21.5948C93.851 21.9042 94.0311 22.2136 94.2055 22.5263C94.392 22.8612 94.5868 23.1936 94.7863 23.5219C95.0508 23.9574 95.3004 24.4008 95.5501 24.8443L95.5511 24.846C95.6289 24.9842 95.7068 25.1226 95.785 25.2606C95.7968 25.2816 95.8092 25.3025 95.8216 25.3234C95.8762 25.4154 95.9316 25.5086 95.9388 25.6209C95.9401 25.6256 95.9401 25.6306 95.9389 25.6353C95.9377 25.6401 95.9352 25.6444 95.9318 25.6479C95.9218 25.6558 95.9141 25.6664 95.9097 25.6784C95.9054 25.6904 95.9044 25.7034 95.907 25.7159C95.9082 25.7207 95.9082 25.7258 95.9069 25.7305C95.9056 25.7353 95.9032 25.7397 95.8997 25.7433L95.8724 25.8001C95.6623 26.4384 95.4519 27.0768 95.2414 27.7152C95.2292 27.7541 95.2131 27.7914 95.197 27.8288C95.1903 27.8442 95.1836 27.8597 95.1772 27.8754C95.0618 28.239 94.9364 28.5992 94.8111 28.9594C94.7721 29.0714 94.7332 29.1833 94.6945 29.2954C94.5798 29.6275 94.4689 29.9627 94.3688 30.302C94.3488 30.3884 94.3108 30.4696 94.2574 30.5404L94.2586 30.541C94.2648 30.5565 94.2672 30.5733 94.2655 30.5899C94.2638 30.6065 94.258 30.6224 94.2487 30.6363C94.2449 30.6454 94.2409 30.6544 94.2369 30.6635L94.23 30.6792C94.1162 31.0634 93.9913 31.4428 93.8448 31.8145L93.8286 31.8781C93.8268 31.8817 93.8251 31.8853 93.8234 31.8888L93.8185 31.8989L93.8161 31.9038L93.8131 31.9099C93.8144 31.915 93.8145 31.9204 93.8132 31.9256C93.8119 31.9306 93.8095 31.9352 93.806 31.9391C93.8084 31.9508 93.8073 31.9629 93.8031 31.9741C93.7987 31.9857 93.791 31.9957 93.781 32.003L93.7805 32.0003L93.7804 31.9993C93.7802 31.9982 93.7801 31.9971 93.78 31.996C93.7799 31.9944 93.7798 31.9928 93.7798 31.9912C93.7797 31.9956 93.7801 32.0001 93.781 32.0045L93.7735 32.0356C93.7757 32.0471 93.7747 32.059 93.7705 32.07C93.7662 32.0813 93.7588 32.0911 93.7492 32.0983C93.7485 32.0945 93.7482 32.0907 93.7481 32.087C93.7481 32.0913 93.7484 32.0956 93.7492 32.0999C93.7481 32.1042 93.747 32.1085 93.7459 32.1128C93.7444 32.1187 93.7429 32.1247 93.7414 32.1309C93.7437 32.1424 93.7427 32.1543 93.7385 32.1653C93.7343 32.1765 93.727 32.1864 93.7174 32.1936C93.7168 32.1898 93.7164 32.186 93.7164 32.1822C93.7163 32.1865 93.7167 32.1909 93.7174 32.1952C93.7009 32.2471 93.6845 32.2991 93.6681 32.351L93.668 32.3512C93.5249 32.8039 93.3819 33.2563 93.1801 33.6886C93.012 34.0486 92.4782 34.0836 92.2234 33.8774C92.1007 33.776 92.0104 33.6409 91.9638 33.4888C91.4503 31.9883 90.9356 30.4881 90.4198 28.9881C90.3067 28.6586 90.194 28.3288 90.0812 27.9991L90.0811 27.9989C89.7993 27.1751 89.5175 26.3512 89.2311 25.5291C89.1526 25.3041 89.1358 25.09 89.2136 24.8644C89.2679 24.707 89.3151 24.5489 89.3623 24.3908C89.3828 24.3222 89.4032 24.2535 89.4243 24.185C89.5274 24.2049 89.564 24.2856 89.5994 24.3635C89.6069 24.3799 89.6143 24.3963 89.6223 24.4119C89.7737 24.7088 89.9425 24.9957 90.1114 25.2825L90.1118 25.2831C90.2235 25.4728 90.3351 25.6625 90.4417 25.8551C90.5477 26.0466 90.6594 26.2349 90.7712 26.4232L90.7714 26.4236C90.8821 26.6101 90.9928 26.7967 91.0979 26.9863C91.1887 27.1511 91.2843 27.3131 91.38 27.4752C91.4852 27.6533 91.5904 27.8316 91.6892 28.0136C91.8574 28.3234 92.0378 28.6267 92.2181 28.9299L92.219 28.9314C92.3128 29.0893 92.4067 29.2472 92.4989 29.406C92.7577 29.8521 93.0152 30.2991 93.2713 30.7469L93.3185 30.8286C93.4842 31.1154 93.6505 31.4031 93.7933 31.7033C93.6554 31.4133 93.4959 31.1349 93.3366 30.857C93.3154 30.8199 93.2941 30.7827 93.2729 30.7456C93.0157 30.2982 92.7582 29.8513 92.5004 29.4047C92.4097 29.2485 92.3173 29.0931 92.225 28.9377L92.2244 28.9366C92.0424 28.6305 91.8605 28.3244 91.6908 28.0123C91.5915 27.8293 91.4858 27.6502 91.3801 27.4711L91.38 27.4709C91.2849 27.3099 91.1899 27.1488 91.0995 26.985C90.9934 26.7934 90.8816 26.6049 90.7698 26.4165C90.6591 26.23 90.5484 26.0435 90.4433 25.8538C90.3366 25.6611 90.2248 25.4711 90.113 25.2812L90.1128 25.2808C89.944 24.9941 89.7752 24.7073 89.6238 24.4106C89.6159 24.395 89.6085 24.3787 89.601 24.3622C89.5656 24.2843 89.529 24.2037 89.4259 24.1837C89.5285 23.7672 89.6534 23.3576 89.7849 22.9483C89.7925 22.9471 89.7995 22.9467 89.8061 22.9469C89.7991 22.9466 89.7915 22.9471 89.7833 22.9483C89.8 22.8043 89.8446 22.6675 89.8891 22.5308L89.8893 22.5303C89.9076 22.4743 89.9259 22.418 89.9422 22.3614C90.1072 21.784 90.2771 21.208 90.447 20.6321C90.5025 20.4439 90.558 20.2558 90.6133 20.0676C90.622 20.0427 90.6321 20.0183 90.6435 19.9945C90.8181 19.3927 90.9925 18.7907 91.1668 18.1887C91.1999 18.0754 91.2351 17.9625 91.2703 17.8497L91.2704 17.8493C91.2853 17.8016 91.3002 17.7538 91.3149 17.7061L91.3159 17.7053C91.434 17.2698 91.5524 16.834 91.6969 16.4055C91.7402 16.4164 91.7756 16.4344 91.8056 16.4575C91.7751 16.4335 91.7388 16.4148 91.6943 16.4036C91.7231 16.3027 91.7518 16.2017 91.7804 16.1007L91.7806 16.1C91.8553 15.8368 91.93 15.5737 92.0073 15.3112C92.018 15.2743 92.0394 15.2403 92.0606 15.2066C92.0703 15.1912 92.08 15.1758 92.0886 15.1602C92.2037 14.9571 92.3906 14.8688 92.6113 14.8466C92.6912 14.8385 92.7723 14.8419 92.8534 14.8452C92.8873 14.8466 92.9211 14.848 92.9548 14.8485C93.0091 15.0396 93.1119 15.2079 93.2136 15.3744C93.2345 15.4086 93.2554 15.4428 93.2758 15.477C93.3651 15.6276 93.4504 15.7802 93.5357 15.9327C93.6303 16.1018 93.7249 16.271 93.8248 16.4373C93.8857 16.5387 93.9474 16.6397 94.0092 16.7407L94.0093 16.741C94.189 17.0351 94.3688 17.3293 94.5287 17.6339C94.7575 18.0701 95.0111 18.492 95.2638 18.9125L95.2751 18.9313C95.3313 19.0247 95.3824 19.1211 95.4326 19.2178C95.3825 19.1211 95.3316 19.0247 95.2754 18.9313L95.2641 18.9126C95.0114 18.492 94.7578 18.0701 94.529 17.6339C94.3691 17.3293 94.1894 17.0351 94.0096 16.741L94.0095 16.7407C93.9478 16.6398 93.886 16.5386 93.8251 16.4373C93.7247 16.2706 93.6299 16.101 93.5352 15.9314C93.4502 15.7792 93.3652 15.627 93.2761 15.477C93.2555 15.4423 93.2343 15.4076 93.2132 15.3729C93.112 15.2069 93.0096 15.039 92.9555 14.8485ZM91.4554 17.7557L91.4461 17.7407C91.4427 17.7353 91.439 17.7302 91.4353 17.7254C91.4388 17.73 91.4422 17.7349 91.4455 17.7401C91.4488 17.7453 91.4521 17.7505 91.4554 17.7557ZM91.7921 21.8095C91.5568 21.4073 91.3214 21.0049 91.0874 20.602C91.2997 20.9671 91.5132 21.332 91.7268 21.6969L91.7285 21.6999L91.7287 21.7003L91.7292 21.701C91.9888 22.1446 92.2484 22.5884 92.5062 23.0328C92.2696 22.6255 92.0314 22.2183 91.7931 21.8111L91.7926 21.8103L91.7921 21.8095Z" fill="white"/>
<path fill-rule="evenodd" clip-rule="evenodd" d="M91.0204 38.1966L91.0137 38.1648C90.936 37.9158 90.8586 37.6668 90.7812 37.4176L90.7811 37.4171C90.6174 36.8903 90.4535 36.3628 90.2863 35.8338C89.9881 34.8934 89.6896 33.953 89.3909 33.0125C89.3847 32.9965 89.3787 32.9804 89.3727 32.9643L89.3677 32.9511L89.361 32.9214L89.362 32.9222C89.3645 32.9105 89.3636 32.8983 89.3594 32.887C89.3553 32.8758 89.348 32.866 89.3385 32.8587C89.3361 32.8701 89.3369 32.882 89.3408 32.893C89.3402 32.8917 89.3397 32.8904 89.3392 32.8891C89.335 32.8778 89.3341 32.8656 89.3366 32.8539C89.3312 32.8336 89.3258 32.812 89.3207 32.7903L89.3058 32.7586C89.3034 32.7482 89.3009 32.7379 89.2985 32.7276C89.296 32.7173 89.2935 32.7069 89.2912 32.6966L89.2749 32.6613L89.2729 32.6522C89.2691 32.6354 89.2653 32.6186 89.2613 32.6019L89.2441 32.5635C89.2419 32.5542 89.2398 32.5448 89.2377 32.5354L89.2376 32.5352L89.2376 32.5349C89.2354 32.5256 89.2333 32.5162 89.2311 32.5069L89.213 32.4656C89.2089 32.4475 89.2047 32.4294 89.2003 32.4116L89.1774 32.3503L89.17 32.3171L89.1717 32.3185C89.1741 32.3068 89.1733 32.2946 89.1691 32.2833C89.1649 32.2721 89.1577 32.2622 89.1482 32.2549C89.1457 32.2667 89.1466 32.2789 89.1507 32.2901C89.1532 32.2967 89.1567 32.3029 89.1611 32.3083C89.1558 32.3023 89.1516 32.2954 89.1488 32.2879C89.1447 32.2766 89.1438 32.2644 89.1463 32.2527L89.1402 32.2251L89.1415 32.2254C89.144 32.2137 89.1431 32.2015 89.1389 32.1902C89.1347 32.179 89.1275 32.1691 89.118 32.1618C89.0918 32.1838 89.0878 32.1979 89.0963 32.2076C89.0855 32.198 89.0881 32.1831 89.1161 32.159L89.1008 32.0954L89.0846 32.0598C89.0873 32.0556 89.0881 32.0505 89.0871 32.0456C89.0861 32.0412 89.0835 32.0372 89.0799 32.0345L89.0808 32.0347L89.0776 32.0211C89.0755 32.012 89.0735 32.003 89.0715 31.9939L89.0714 31.9936C89.0641 31.9606 89.0568 31.9277 89.0465 31.8949C88.4923 30.1346 87.9372 28.3753 87.3811 26.6171C87.2376 26.1634 87.0921 25.7102 86.9466 25.2571L86.9465 25.2568L86.9442 25.2496C86.8774 25.0418 86.8107 24.834 86.7442 24.6261L86.7444 24.6264C86.7463 24.6232 86.7498 24.6168 86.7498 24.6168C86.7457 24.6112 86.7411 24.6059 86.7361 24.6009C86.7357 24.6061 86.7365 24.6113 86.7383 24.616C86.736 24.6108 86.735 24.6051 86.7355 24.5994C86.7342 24.5942 86.733 24.5889 86.7318 24.5834L86.7312 24.5808C86.7302 24.5765 86.7292 24.572 86.7282 24.5676C86.6856 24.5596 86.6567 24.546 86.7047 24.504L86.691 24.4421L86.6861 24.4317C86.6827 24.4245 86.6793 24.4174 86.6761 24.4103L86.6746 24.4095C86.6353 24.3894 86.6025 24.3644 86.5744 24.336C86.6025 24.3641 86.6353 24.3888 86.6745 24.4087C86.6696 24.3879 86.6651 24.3671 86.6607 24.3463C86.6531 24.3105 86.6456 24.2749 86.6357 24.2403C85.9011 21.912 85.1664 19.5836 84.4318 17.2552C84.2322 16.6197 84.0322 15.9842 83.8316 15.3487C83.74 15.0589 83.5491 14.8568 83.2437 14.8498C82.74 14.8385 82.236 14.8423 81.732 14.8461C81.5281 14.8477 81.3243 14.8492 81.1205 14.8498C81.2298 15.0481 81.3425 15.2447 81.4551 15.4411C81.5535 15.6126 81.6518 15.784 81.7477 15.9565C81.8751 16.1856 82.0064 16.4122 82.1376 16.6388C82.2148 16.7721 82.292 16.9054 82.3684 17.0391C82.2931 16.9076 82.2169 16.7766 82.1408 16.6455C82.0082 16.4171 81.8754 16.1886 81.7471 15.9581C81.6512 15.7856 81.5529 15.6142 81.4545 15.4428C81.3419 15.2463 81.2291 15.0497 81.1199 14.8514L80.8943 14.8396H79.6658L79.1851 14.852C79.2427 14.9547 79.3 15.0576 79.3574 15.1604L79.3575 15.1607C79.481 15.3822 79.6046 15.6038 79.7306 15.824C79.8091 15.961 79.89 16.0966 79.971 16.2322C80.0385 16.3453 80.106 16.4584 80.172 16.5723C80.3033 16.7992 80.434 17.0269 80.5648 17.2547L80.5649 17.2549C80.6984 17.4875 80.832 17.7202 80.9664 17.9523C81.0187 18.0433 81.0705 18.1347 81.1224 18.2262C81.2564 18.4627 81.3906 18.6997 81.5355 18.9307C81.6417 19.1001 81.737 19.2764 81.8322 19.4527C81.892 19.5633 81.9518 19.6739 82.0143 19.7829C82.1538 20.0259 82.295 20.268 82.4363 20.5101L82.4364 20.5103L82.4366 20.5107C82.5578 20.7184 82.6791 20.9262 82.7992 21.1346C82.9218 21.3474 83.0432 21.5608 83.1645 21.7743C83.2563 21.9358 83.348 22.0973 83.4404 22.2585C83.5335 22.4211 83.6278 22.583 83.7221 22.7451L83.7224 22.7456L83.7225 22.7458L83.7229 22.7465L83.723 22.7467C83.7812 22.8467 83.8394 22.9467 83.8973 23.0468C84.2176 23.5976 84.5366 24.1484 84.8544 24.6991C85.0206 24.9861 85.1855 25.273 85.3463 25.5637C85.3753 25.6158 85.4038 25.6684 85.4324 25.721L85.4327 25.7216C85.5121 25.868 85.5917 26.0148 85.6828 26.1506C85.7767 26.2916 85.8576 26.4386 85.9385 26.5854L85.9389 26.586C85.9974 26.6923 86.056 26.7987 86.1194 26.9024C86.3286 27.2444 86.5273 27.5929 86.726 27.9414C86.8264 28.1174 86.9267 28.2934 87.0284 28.4686C87.0924 28.5786 87.1585 28.6874 87.2247 28.7962C87.342 28.9891 87.4593 29.182 87.5642 29.3815C87.6921 29.6251 87.8302 29.8623 87.9684 30.0996C88.0599 30.2568 88.1514 30.414 88.24 30.5731C88.3088 30.6966 88.3803 30.8184 88.4519 30.9402L88.4533 30.9427C88.6021 31.1962 88.7511 31.4499 88.8755 31.7189C88.8884 31.7467 88.898 31.7782 88.9077 31.8104C88.9323 31.8915 88.9582 31.9769 89.0424 32.0196C88.9567 31.9772 88.9306 31.8911 88.9058 31.8095C88.8961 31.7773 88.8865 31.7458 88.8736 31.7179C88.7496 31.4505 88.6011 31.1973 88.4527 30.9443C88.3802 30.8206 88.3077 30.697 88.2381 30.5718C88.1474 30.4081 88.0532 30.2465 87.959 30.0848C87.8234 29.852 87.6877 29.6191 87.5623 29.3802C87.4574 29.1807 87.3401 28.9878 87.2228 28.7949L87.2222 28.7939C87.1562 28.6855 87.0903 28.577 87.0265 28.4673C86.9248 28.2922 86.8245 28.1162 86.7241 27.9402C86.5254 27.5917 86.3267 27.2432 86.1174 26.9011C86.0548 26.7983 85.9967 26.6928 85.9386 26.5873C85.8571 26.4392 85.7755 26.2909 85.6809 26.1493C85.5898 26.0135 85.5103 25.8669 85.4309 25.7205L85.4308 25.7203L85.4306 25.7199C85.402 25.6672 85.3734 25.6145 85.3444 25.5625C85.1836 25.273 85.018 24.9851 84.8525 24.6991C84.5335 24.1473 84.2144 23.596 83.8954 23.0452C83.8374 22.945 83.7793 22.845 83.7211 22.745C83.6265 22.5825 83.5319 22.42 83.4385 22.2569C83.3462 22.0959 83.2546 21.9346 83.163 21.7734L83.1626 21.7728C83.0413 21.5593 82.9199 21.3457 82.7973 21.133C82.677 20.9244 82.5557 20.7164 82.4344 20.5085C82.2931 20.2664 82.1519 20.0243 82.0124 19.7813C81.9524 19.6761 81.8947 19.5694 81.837 19.4626C81.7396 19.2825 81.6421 19.1022 81.5336 18.9291C81.3943 18.707 81.2653 18.4793 81.1363 18.2518C81.0793 18.1513 81.0223 18.0507 80.9645 17.9507C80.8456 17.745 80.7271 17.5386 80.6085 17.332L80.6073 17.3299C80.462 17.0767 80.3165 16.8232 80.1701 16.5707C80.1041 16.4569 80.0366 16.3438 79.9691 16.2307L79.9689 16.2305C79.8881 16.0949 79.8072 15.9594 79.7287 15.8224C79.6027 15.6022 79.4791 15.3806 79.3556 15.1591C79.2982 15.0562 79.2408 14.9532 79.1832 14.8504L77.7565 14.8374L77.5977 14.8507L77.5976 14.8504C77.5679 14.8495 77.5383 14.8483 77.5086 14.8471C77.3597 14.8409 77.2107 14.8347 77.0631 14.8708C76.9192 14.9057 76.8118 14.9979 76.706 15.0932L76.7012 15.0995L76.678 15.1342C76.5423 15.3874 76.55 15.6419 76.6377 15.9127C76.9801 16.9737 77.3195 18.0359 77.6589 19.0981L77.659 19.0983L77.6601 19.1016C77.8657 19.7451 78.0713 20.3885 78.2776 21.0316C78.3997 21.4129 78.5248 21.7932 78.6498 22.1735L78.65 22.1743C78.7106 22.3586 78.7712 22.5429 78.8314 22.7272C78.8558 22.8823 78.9075 23.0297 78.9592 23.1767C78.9783 23.2311 78.9974 23.2854 79.0151 23.3401C79.4398 24.6742 79.8672 26.0082 80.2972 27.3419C80.4791 27.9049 80.6638 28.4668 80.8485 29.0289L80.865 29.0793L80.8647 29.0822C80.8671 29.0927 80.8692 29.1035 80.8713 29.1146C80.875 29.1343 80.8789 29.1546 80.885 29.175C81.2144 30.2102 81.5444 31.2449 81.8748 32.2791L83.6542 37.8397C83.9199 38.6691 84.1847 39.4987 84.4486 40.3287C84.5316 40.5892 84.6698 40.7951 84.9526 40.8666L84.9898 40.8825C85.7732 40.9082 86.5557 40.9008 87.3398 40.8933C87.4764 40.892 87.613 40.8906 87.7497 40.8895L87.7497 40.8905H89.3045C89.3064 40.749 89.2343 40.6379 89.1633 40.5285C89.1402 40.493 89.1173 40.4576 89.097 40.4215C88.9798 40.2123 88.8559 40.007 88.7321 39.8018L88.732 39.8016C88.5785 39.5473 88.4252 39.293 88.2845 39.0316C88.1232 38.7309 87.9527 38.4357 87.7823 38.1405C87.6815 37.9659 87.5807 37.7913 87.4819 37.6157C87.3064 37.3037 87.1255 36.9941 86.9446 36.6845L86.9444 36.6841C86.8384 36.5028 86.7323 36.3213 86.6274 36.1395C86.2919 35.5558 85.9547 34.9727 85.6157 34.3899C85.5098 34.2072 85.4034 34.0248 85.297 33.8423L85.2961 33.8407C85.1297 33.5553 84.9632 33.2699 84.7985 32.9835C84.6574 32.7374 84.517 32.4906 84.3766 32.2439C84.1581 31.8597 83.9394 31.4754 83.7181 31.0929C83.5373 30.7806 83.3545 30.4694 83.1718 30.1583L83.1714 30.1576L83.1707 30.1564C82.9778 29.8279 82.7848 29.4994 82.5942 29.1696C82.4348 28.8939 82.2789 28.6163 82.123 28.3387C82.0185 28.1526 81.914 27.9665 81.8084 27.781C81.6513 27.5051 81.4923 27.2302 81.3333 26.9552C81.282 26.8665 81.2308 26.7779 81.1796 26.6892L80.1609 24.9244L81.1815 26.6902C81.2327 26.7788 81.2839 26.8674 81.3351 26.956C81.4941 27.231 81.6532 27.5061 81.8103 27.782C81.9159 27.9675 82.0204 28.1536 82.1249 28.3396C82.2808 28.6172 82.4367 28.8949 82.5961 29.1705C82.7867 29.5003 82.9796 29.8287 83.1725 30.1571L83.1733 30.1585L83.1734 30.1587L83.1737 30.1592C83.3564 30.4703 83.5392 30.7816 83.72 31.0939C83.9054 31.4157 84.0894 31.7388 84.2734 32.0621C84.4485 32.3697 84.6237 32.6775 84.8004 32.9845C84.9654 33.2714 85.1322 33.5573 85.2989 33.8432C85.4053 34.0257 85.5117 34.2082 85.6176 34.3909C85.9559 34.9734 86.2932 35.5566 86.6293 36.1404C86.7407 36.3341 86.8539 36.5276 86.9671 36.7213C87.141 37.0189 87.3152 37.3168 87.4838 37.6167C87.5826 37.7923 87.6834 37.9668 87.7842 38.1414C87.9546 38.4366 88.1251 38.7319 88.2864 39.0326C88.4276 39.2956 88.582 39.5514 88.7365 39.8073C88.8595 40.0111 88.9826 40.2149 89.0989 40.4224C89.1192 40.4586 89.1421 40.4939 89.1652 40.5294C89.2362 40.6388 89.3083 40.7499 89.3064 40.8914C89.899 40.9019 90.4916 40.9099 91.0839 40.8863L91.0844 40.8857C91.0955 40.8899 91.1077 40.8902 91.119 40.8865C91.1303 40.8829 91.14 40.8756 91.1467 40.8658L91.1475 40.866L91.1792 40.8552L91.2167 40.8365L91.2758 40.8101C91.2762 40.8083 91.2769 40.8066 91.278 40.8052L91.2786 40.8044C91.2789 40.804 91.2792 40.8036 91.2796 40.8033C91.2803 40.8026 91.2811 40.802 91.2819 40.8015C91.2827 40.801 91.2836 40.8006 91.2845 40.8003C91.2853 40.8001 91.2861 40.7999 91.287 40.7998C91.2888 40.7995 91.2906 40.7997 91.2923 40.8002C91.5539 40.6296 91.7032 40.3945 91.6174 40.0805C91.5367 39.786 91.4411 39.4957 91.3454 39.2054C91.3039 39.0794 91.2624 38.9533 91.2221 38.827L91.2107 38.7981L91.1945 38.7345C91.1901 38.726 91.1859 38.7166 91.1818 38.7072L91.1799 38.7027C91.1748 38.6821 91.17 38.6614 91.1652 38.6408L91.1487 38.6052L91.1354 38.5461L91.1182 38.5073C91.1138 38.4886 91.1093 38.4698 91.1052 38.4508L91.0871 38.4098L91.0747 38.3558L91.0559 38.3122L91.0504 38.2923L91.0458 38.2762C91.0411 38.2594 91.0364 38.2426 91.0318 38.2258L91.0204 38.1966ZM78.8314 22.7272C78.9374 22.7672 78.9795 22.8601 79.02 22.9496C79.0342 22.9809 79.0482 23.0118 79.0646 23.0398C79.0474 23.011 79.0329 22.9792 79.0183 22.9471C78.978 22.8583 78.9364 22.7668 78.8314 22.7272ZM85.2094 21.9653C84.9085 21.4424 84.6075 20.9196 84.3064 20.3968C84.6067 20.92 84.9077 21.4429 85.2094 21.9653ZM80.9412 28.9961C80.9663 29.0013 80.9803 29.0263 80.9937 29.0501L80.9964 29.0548L80.9991 29.0596C81.0885 29.2163 81.1767 29.3737 81.265 29.5311C81.4718 29.8999 81.6786 30.2687 81.8993 30.629C82.015 30.8181 82.1229 31.0117 82.2307 31.2052C82.3784 31.4703 82.526 31.7353 82.6937 31.9883C82.7728 32.1077 82.8381 32.2361 82.9034 32.3644C82.967 32.4893 83.0306 32.6142 83.1068 32.7306C83.2041 32.8788 83.2884 33.0346 83.3727 33.1904C83.4812 33.3908 83.5897 33.5913 83.7257 33.7754C83.7776 33.8457 83.8184 33.9243 83.8592 34.0029L83.8594 34.0034C83.8795 34.0422 83.8997 34.081 83.9212 34.1189C84.0107 34.277 84.0999 34.4354 84.1891 34.5938C84.351 34.8813 84.513 35.1689 84.677 35.4553C84.5286 35.1954 84.3818 34.9345 84.2351 34.6736L84.2345 34.6726L84.2344 34.6724L84.2341 34.6719L84.2337 34.6712L84.2333 34.6705C84.13 34.4868 84.0266 34.303 83.9227 34.1198C83.9013 34.082 83.8812 34.0433 83.861 34.0045L83.8608 34.0041C83.82 33.9254 83.7792 33.8467 83.7273 33.7763C83.5918 33.5929 83.4838 33.3933 83.3758 33.1936C83.2911 33.0371 83.2064 32.8804 83.1083 32.7316C83.0316 32.6147 82.9677 32.489 82.9039 32.3634C82.8388 32.2353 82.7737 32.1074 82.6953 31.9893C82.5252 31.7331 82.376 31.4652 82.2268 31.1974C82.1207 31.0068 82.0145 30.8162 81.9009 30.63C81.6802 30.2696 81.4734 29.9008 81.2666 29.532C81.1783 29.3747 81.09 29.2173 81.0007 29.0606C80.9989 29.0576 80.9972 29.0544 80.9955 29.0513L80.9936 29.0478C80.9807 29.0241 80.9673 28.9995 80.9412 28.9961ZM83.1015 24.4408L83.1013 24.4404C82.9826 24.236 82.8639 24.0317 82.7456 23.8271C82.8504 24.0082 82.9556 24.1891 83.0608 24.3701L83.0614 24.3712L83.0615 24.3714L83.0621 24.3724C83.3023 24.7858 83.5427 25.1995 83.7798 25.6146C83.5556 25.2228 83.3289 24.8324 83.1022 24.442L83.1021 24.4418L83.1015 24.4408ZM86.8863 30.9967C87.1727 31.5011 87.4606 32.0048 87.7499 32.5078C87.4616 32.0043 87.1737 31.5006 86.8863 30.9967Z" fill="white"/>
<path d="M86.7288 24.5676C86.6862 24.559 86.6573 24.5453 86.7053 24.504C86.7148 24.5113 86.7221 24.5212 86.7262 24.5324C86.7304 24.5437 86.7313 24.5558 86.7288 24.5676Z" fill="white"/>
<path d="M95.9077 25.7166C95.9051 25.704 95.906 25.691 95.9104 25.679C95.9148 25.667 95.9224 25.6565 95.9325 25.6486C95.9349 25.6611 95.9339 25.674 95.9295 25.686C95.9251 25.698 95.9176 25.7085 95.9077 25.7166Z" fill="white"/>
<path d="M95.873 25.8008L95.9004 25.7439C95.9023 25.768 95.9026 25.7916 95.873 25.8008Z" fill="white"/>
<path d="M96.3185 24.504C96.3265 24.4834 96.3344 24.4627 96.3421 24.4421C96.3445 24.4536 96.3436 24.4655 96.3394 24.4765C96.3353 24.4875 96.328 24.4971 96.3185 24.504Z" fill="white"/>
<path d="M91.1856 38.7147C91.1837 38.7105 91.1818 38.7063 91.1799 38.7024C91.183 38.7084 91.1858 38.7148 91.1887 38.7214L91.191 38.7265C91.1921 38.7291 91.1933 38.7317 91.1945 38.7342C91.1932 38.7314 91.1918 38.7285 91.1906 38.7257L91.1856 38.7147Z" fill="white"/>
<path d="M91.278 40.8061C91.2769 40.8076 91.2762 40.8093 91.2758 40.811L91.2879 40.8126L91.2924 40.8012C91.2906 40.8007 91.2888 40.8005 91.287 40.8007C91.2863 40.8008 91.2856 40.801 91.2849 40.8012C91.2838 40.8015 91.2829 40.8019 91.2819 40.8025C91.2808 40.8031 91.2798 40.8039 91.279 40.8049C91.2786 40.8052 91.2783 40.8057 91.278 40.8061Z" fill="white"/>
<defs>
<linearGradient id="paint0_linear_159_6869" x1="41.37" y1="1.55505" x2="10.1052" y2="43.3435" gradientUnits="userSpaceOnUse">
<stop stop-color="#076CDF"/>
<stop offset="0.401838" stop-color="#3D9FEB"/>
<stop offset="0.672426" stop-color="#59C4F2"/>
<stop offset="1" stop-color="#A5F0FF"/>
</linearGradient>
</defs>
</svg>
