<svg xmlns="http://www.w3.org/2000/svg" xmlns:xlink="http://www.w3.org/1999/xlink" fill="none" version="1.1" width="213" height="30" viewBox="0 0 213 30"><defs><linearGradient x1="0.5" y1="0" x2="0.5" y2="1" id="master_svg0_25_002952"><stop offset="0%" stop-color="#560DF8" stop-opacity="1"/><stop offset="99.28571581840515%" stop-color="#F000B8" stop-opacity="1"/></linearGradient><linearGradient x1="0.5" y1="0" x2="0.5" y2="1" id="master_svg1_25_002954"><stop offset="0%" stop-color="#24DD7B" stop-opacity="1"/><stop offset="99.28571581840515%" stop-color="#0CADCB" stop-opacity="1"/></linearGradient></defs><g style="mix-blend-mode:passthrough"><g style="mix-blend-mode:passthrough"><g style="mix-blend-mode:passthrough"><g style="mix-blend-mode:passthrough"><path d="M30,15Q30,15.3682,29.9819,15.736Q29.9639,16.1038,29.9278,16.4703Q29.8917,16.8367,29.8376,17.201Q29.7836,17.5652,29.7118,17.9264Q29.6399,18.2875,29.5505,18.6447Q29.461,19.0019,29.3541,19.3543Q29.2472,19.7066,29.1232,20.0533Q28.9991,20.4,28.8582,20.7402Q28.7173,21.0804,28.5598,21.4133Q28.4024,21.7462,28.2288,22.0709Q28.0552,22.3957,27.8659,22.7115Q27.6766,23.0274,27.472,23.3335Q27.2675,23.6397,27.0481,23.9355Q26.8288,24.2313,26.5952,24.5159Q26.3616,24.8005,26.1143,25.0734Q25.867,25.3462,25.6066,25.6066Q25.3462,25.867,25.0734,26.1143Q24.8005,26.3616,24.5159,26.5952Q24.2313,26.8288,23.9355,27.0481Q23.6397,27.2675,23.3335,27.472Q23.0274,27.6766,22.7115,27.8659Q22.3957,28.0552,22.0709,28.2288Q21.7462,28.4024,21.4133,28.5598Q21.0804,28.7173,20.7402,28.8582Q20.4,28.9991,20.0533,29.1232Q19.7066,29.2472,19.3543,29.3541Q19.0019,29.461,18.6447,29.5505Q18.2875,29.6399,17.9264,29.7118Q17.5652,29.7836,17.201,29.8376Q16.8367,29.8917,16.4703,29.9278Q16.1038,29.9639,15.736,29.9819Q15.3682,30,15,30Q14.6318,30,14.264,29.9819Q13.8962,29.9639,13.5297,29.9278Q13.1633,29.8917,12.799,29.8376Q12.4348,29.7836,12.0736,29.7118Q11.7125,29.6399,11.3553,29.5505Q10.9981,29.461,10.6457,29.3541Q10.2934,29.2472,9.94665,29.1232Q9.59995,28.9991,9.25975,28.8582Q8.91955,28.7173,8.58667,28.5598Q8.2538,28.4024,7.92905,28.2288Q7.6043,28.0552,7.28846,27.8659Q6.97262,27.6766,6.66645,27.472Q6.36027,27.2675,6.06451,27.0481Q5.76875,26.8288,5.4841,26.5952Q5.19945,26.3616,4.92661,26.1143Q4.65378,25.867,4.3934,25.6066Q4.13302,25.3462,3.88573,25.0734Q3.63845,24.8005,3.40484,24.5159Q3.17124,24.2313,2.95189,23.9355Q2.73253,23.6397,2.52796,23.3335Q2.32338,23.0274,2.13407,22.7115Q1.94476,22.3957,1.77118,22.0709Q1.5976,21.7462,1.44016,21.4133Q1.28272,21.0804,1.14181,20.7402Q1.00089,20.4,0.876839,20.0533Q0.752786,19.7066,0.645895,19.3543Q0.539004,19.0019,0.449531,18.6447Q0.360059,18.2875,0.288221,17.9264Q0.216383,17.5652,0.162352,17.201Q0.108322,16.8367,0.0722291,16.4703Q0.0361363,16.1038,0.0180682,15.736Q0,15.3682,0,15Q0,14.6318,0.0180682,14.264Q0.0361363,13.8962,0.0722291,13.5297Q0.108322,13.1633,0.162352,12.799Q0.216383,12.4348,0.288221,12.0736Q0.360059,11.7125,0.449531,11.3553Q0.539004,10.9981,0.645895,10.6457Q0.752786,10.2934,0.876839,9.94665Q1.00089,9.59995,1.14181,9.25975Q1.28272,8.91955,1.44016,8.58667Q1.5976,8.2538,1.77118,7.92905Q1.94476,7.6043,2.13407,7.28846Q2.32338,6.97262,2.52796,6.66645Q2.73253,6.36027,2.95189,6.06451Q3.17124,5.76875,3.40484,5.4841Q3.63845,5.19945,3.88573,4.92661Q4.13302,4.65378,4.3934,4.3934Q4.65378,4.13302,4.92661,3.88573Q5.19945,3.63845,5.4841,3.40484Q5.76874,3.17124,6.06451,2.95189Q6.36027,2.73253,6.66645,2.52796Q6.97262,2.32338,7.28846,2.13407Q7.6043,1.94476,7.92905,1.77118Q8.2538,1.5976,8.58667,1.44016Q8.91955,1.28272,9.25975,1.14181Q9.59995,1.00089,9.94665,0.876839Q10.2934,0.752786,10.6457,0.645895Q10.9981,0.539004,11.3553,0.449531Q11.7125,0.360059,12.0736,0.288221Q12.4348,0.216383,12.799,0.162352Q13.1633,0.108322,13.5297,0.0722291Q13.8962,0.0361363,14.264,0.0180682Q14.6318,0,15,0Q15.3682,0,15.736,0.0180682Q16.1038,0.0361363,16.4703,0.0722291Q16.8367,0.108322,17.201,0.162352Q17.5652,0.216383,17.9264,0.288221Q18.2875,0.360059,18.6447,0.449531Q19.0019,0.539004,19.3543,0.645895Q19.7066,0.752786,20.0533,0.876839Q20.4,1.00089,20.7402,1.14181Q21.0804,1.28272,21.4133,1.44016Q21.7462,1.5976,22.0709,1.77118Q22.3957,1.94476,22.7115,2.13407Q23.0274,2.32338,23.3335,2.52796Q23.6397,2.73253,23.9355,2.95189Q24.2313,3.17124,24.5159,3.40484Q24.8005,3.63845,25.0734,3.88573Q25.3462,4.13302,25.6066,4.3934Q25.867,4.65378,26.1143,4.92661Q26.3616,5.19945,26.5952,5.4841Q26.8288,5.76874,27.0481,6.06451Q27.2675,6.36027,27.472,6.66645Q27.6766,6.97262,27.8659,7.28846Q28.0552,7.6043,28.2288,7.92905Q28.4024,8.2538,28.5598,8.58667Q28.7173,8.91955,28.8582,9.25975Q28.9991,9.59995,29.1232,9.94665Q29.2472,10.2934,29.3541,10.6457Q29.461,10.9981,29.5505,11.3553Q29.6399,11.7125,29.7118,12.0736Q29.7836,12.4348,29.8376,12.799Q29.8917,13.1633,29.9278,13.5297Q29.9639,13.8962,29.9819,14.264Q30,14.6318,30,15ZM25.6993,15Q25.6993,12.9592,24.9481,11.0616Q24.1324,9.00133,22.5655,7.43445Q20.9987,5.86757,18.9384,5.05192Q17.0408,4.3007,15,4.3007Q12.9592,4.3007,11.0616,5.05192Q9.00133,5.86757,7.43445,7.43445Q5.86758,9.00133,5.05192,11.0616Q4.3007,12.9592,4.3007,15Q4.3007,17.0408,5.05192,18.9384Q5.41267,19.8496,5.92038,20.6643L5.34163,20.6643C4.49021,20.6643,4.18001,21.7859,4.91042,22.2234L14.1921,27.783C14.7192,28.0987,15.3766,28.1012,15.9061,27.7895L25.3537,22.2266C26.0902,21.7929,25.7826,20.6643,24.9279,20.6643L24.0796,20.6643Q24.5873,19.8496,24.9481,18.9384Q25.6993,17.0408,25.6993,15Z" fill-rule="evenodd" fill="url(#master_svg0_25_002952)" fill-opacity="1"/><path d="M30,15Q30,15.3682,29.9819,15.736Q29.9639,16.1038,29.9278,16.4703Q29.8917,16.8367,29.8376,17.201Q29.7836,17.5652,29.7118,17.9264Q29.6399,18.2875,29.5505,18.6447Q29.461,19.0019,29.3541,19.3543Q29.2472,19.7066,29.1232,20.0533Q28.9991,20.4,28.8582,20.7402Q28.7173,21.0804,28.5598,21.4133Q28.4024,21.7462,28.2288,22.0709Q28.0552,22.3957,27.8659,22.7115Q27.6766,23.0274,27.472,23.3335Q27.2675,23.6397,27.0481,23.9355Q26.8288,24.2313,26.5952,24.5159Q26.3616,24.8005,26.1143,25.0734Q25.867,25.3462,25.6066,25.6066Q25.3462,25.867,25.0734,26.1143Q24.8005,26.3616,24.5159,26.5952Q24.2313,26.8288,23.9355,27.0481Q23.6397,27.2675,23.3335,27.472Q23.0274,27.6766,22.7115,27.8659Q22.3957,28.0552,22.0709,28.2288Q21.7462,28.4024,21.4133,28.5598Q21.0804,28.7173,20.7402,28.8582Q20.4,28.9991,20.0533,29.1232Q19.7066,29.2472,19.3543,29.3541Q19.0019,29.461,18.6447,29.5505Q18.2875,29.6399,17.9264,29.7118Q17.5652,29.7836,17.201,29.8376Q16.8367,29.8917,16.4703,29.9278Q16.1038,29.9639,15.736,29.9819Q15.3682,30,15,30Q14.6318,30,14.264,29.9819Q13.8962,29.9639,13.5297,29.9278Q13.1633,29.8917,12.799,29.8376Q12.4348,29.7836,12.0736,29.7118Q11.7125,29.6399,11.3553,29.5505Q10.9981,29.461,10.6457,29.3541Q10.2934,29.2472,9.94665,29.1232Q9.59995,28.9991,9.25975,28.8582Q8.91955,28.7173,8.58667,28.5598Q8.2538,28.4024,7.92905,28.2288Q7.6043,28.0552,7.28846,27.8659Q6.97262,27.6766,6.66645,27.472Q6.36027,27.2675,6.06451,27.0481Q5.76875,26.8288,5.4841,26.5952Q5.19945,26.3616,4.92661,26.1143Q4.65378,25.867,4.3934,25.6066Q4.13302,25.3462,3.88573,25.0734Q3.63845,24.8005,3.40484,24.5159Q3.17124,24.2313,2.95189,23.9355Q2.73253,23.6397,2.52796,23.3335Q2.32338,23.0274,2.13407,22.7115Q1.94476,22.3957,1.77118,22.0709Q1.5976,21.7462,1.44016,21.4133Q1.28272,21.0804,1.14181,20.7402Q1.00089,20.4,0.876839,20.0533Q0.752786,19.7066,0.645895,19.3543Q0.539004,19.0019,0.449531,18.6447Q0.360059,18.2875,0.288221,17.9264Q0.216383,17.5652,0.162352,17.201Q0.108322,16.8367,0.0722291,16.4703Q0.0361363,16.1038,0.0180682,15.736Q0,15.3682,0,15Q0,14.6318,0.0180682,14.264Q0.0361363,13.8962,0.0722291,13.5297Q0.108322,13.1633,0.162352,12.799Q0.216383,12.4348,0.288221,12.0736Q0.360059,11.7125,0.449531,11.3553Q0.539004,10.9981,0.645895,10.6457Q0.752786,10.2934,0.876839,9.94665Q1.00089,9.59995,1.14181,9.25975Q1.28272,8.91955,1.44016,8.58667Q1.5976,8.2538,1.77118,7.92905Q1.94476,7.6043,2.13407,7.28846Q2.32338,6.97262,2.52796,6.66645Q2.73253,6.36027,2.95189,6.06451Q3.17124,5.76875,3.40484,5.4841Q3.63845,5.19945,3.88573,4.92661Q4.13302,4.65378,4.3934,4.3934Q4.65378,4.13302,4.92661,3.88573Q5.19945,3.63845,5.4841,3.40484Q5.76874,3.17124,6.06451,2.95189Q6.36027,2.73253,6.66645,2.52796Q6.97262,2.32338,7.28846,2.13407Q7.6043,1.94476,7.92905,1.77118Q8.2538,1.5976,8.58667,1.44016Q8.91955,1.28272,9.25975,1.14181Q9.59995,1.00089,9.94665,0.876839Q10.2934,0.752786,10.6457,0.645895Q10.9981,0.539004,11.3553,0.449531Q11.7125,0.360059,12.0736,0.288221Q12.4348,0.216383,12.799,0.162352Q13.1633,0.108322,13.5297,0.0722291Q13.8962,0.0361363,14.264,0.0180682Q14.6318,0,15,0Q15.3682,0,15.736,0.0180682Q16.1038,0.0361363,16.4703,0.0722291Q16.8367,0.108322,17.201,0.162352Q17.5652,0.216383,17.9264,0.288221Q18.2875,0.360059,18.6447,0.449531Q19.0019,0.539004,19.3543,0.645895Q19.7066,0.752786,20.0533,0.876839Q20.4,1.00089,20.7402,1.14181Q21.0804,1.28272,21.4133,1.44016Q21.7462,1.5976,22.0709,1.77118Q22.3957,1.94476,22.7115,2.13407Q23.0274,2.32338,23.3335,2.52796Q23.6397,2.73253,23.9355,2.95189Q24.2313,3.17124,24.5159,3.40484Q24.8005,3.63845,25.0734,3.88573Q25.3462,4.13302,25.6066,4.3934Q25.867,4.65378,26.1143,4.92661Q26.3616,5.19945,26.5952,5.4841Q26.8288,5.76874,27.0481,6.06451Q27.2675,6.36027,27.472,6.66645Q27.6766,6.97262,27.8659,7.28846Q28.0552,7.6043,28.2288,7.92905Q28.4024,8.2538,28.5598,8.58667Q28.7173,8.91955,28.8582,9.25975Q28.9991,9.59995,29.1232,9.94665Q29.2472,10.2934,29.3541,10.6457Q29.461,10.9981,29.5505,11.3553Q29.6399,11.7125,29.7118,12.0736Q29.7836,12.4348,29.8376,12.799Q29.8917,13.1633,29.9278,13.5297Q29.9639,13.8962,29.9819,14.264Q30,14.6318,30,15ZM25.6993,15Q25.6993,12.9592,24.9481,11.0616Q24.1324,9.00133,22.5655,7.43445Q20.9987,5.86757,18.9384,5.05192Q17.0408,4.3007,15,4.3007Q12.9592,4.3007,11.0616,5.05192Q9.00133,5.86757,7.43445,7.43445Q5.86758,9.00133,5.05192,11.0616Q4.3007,12.9592,4.3007,15Q4.3007,17.0408,5.05192,18.9384Q5.41267,19.8496,5.92038,20.6643L5.34163,20.6643C4.49021,20.6643,4.18001,21.7859,4.91042,22.2234L14.1921,27.783C14.7192,28.0987,15.3766,28.1012,15.9061,27.7895L25.3537,22.2266C26.0902,21.7929,25.7826,20.6643,24.9279,20.6643L24.0796,20.6643Q24.5873,19.8496,24.9481,18.9384Q25.6993,17.0408,25.6993,15Z" fill-rule="evenodd" fill="url(#master_svg1_25_002954)" fill-opacity="1"/></g></g><g style="mix-blend-mode:passthrough"><path d="M7.460193426513672,22.5462618850708C6.812679426513672,22.1710618850708,6.414043426513672,21.4793618850708,6.414043426513672,20.7309618850708L6.414043426513672,13.1538618850708C6.414043426513672,12.405511885070801,6.8126784265136715,11.7138218850708,7.460193426513672,11.338651885070801L13.987693426513673,7.5565518850708004C14.638213426513673,7.1796363850708005,15.440683426513672,7.1796363850708005,16.091203426513673,7.556550885070801L22.61874342651367,11.338651885070801C23.26624342651367,11.7138218850708,23.664843426513674,12.405511885070801,23.664843426513674,13.1538618850708L23.664843426513674,20.7309618850708C23.664843426513674,21.4793618850708,23.26624342651367,22.1710618850708,22.61874342651367,22.5462618850708L16.091203426513673,26.3283618850708C15.440683426513672,26.7052618850708,14.638213426513673,26.7052618850708,13.987693426513673,26.3283618850708L7.460193426513672,22.5462618850708ZM9.678733426513672,13.0304418850708Q9.664893426513672,13.021581885070802,9.650683426513671,13.013341885070801Q9.524183426513671,12.940041885070801,9.379413426513672,12.9208218850708Q9.234633426513671,12.9016018850708,9.093633426513673,12.939381885070802Q8.952633426513671,12.9771618850708,8.836873426513671,13.0661918850708Q8.721103426513672,13.155221885070802,8.648203426513671,13.2819518850708Q8.612103426513672,13.344701885070801,8.588913426513672,13.4133218850708Q8.565733426513672,13.4819418850708,8.556353426513672,13.5538018850708Q8.546963426513672,13.625661885070802,8.551753426513672,13.698001885070802Q8.556533426513672,13.7703418850708,8.575303426513672,13.840371885070802Q8.59406342651367,13.9104018850708,8.626093426513672,13.9754418850708Q8.658113426513673,14.0404718850708,8.702173426513673,14.0980218850708Q8.746223426513673,14.155561885070801,8.80061342651367,14.2034018850708Q8.855003426513672,14.251231885070801,8.917643426513672,14.287531885070802Q8.931863426513672,14.2957618850708,8.946433426513671,14.3033618850708L14.304533426513672,17.4078618850708L14.304533426513672,23.5088618850708Q14.30380342651367,23.5252618850708,14.30380342651367,23.5417618850708Q14.30380342651367,23.6141618850708,14.317923426513673,23.6851618850708Q14.332043426513671,23.7561618850708,14.359743426513672,23.8229618850708Q14.387453426513673,23.8898618850708,14.427663426513671,23.950061885070802Q14.467883426513671,24.0102618850708,14.519073426513671,24.061461885070802Q14.570263426513671,24.1126618850708,14.630453426513672,24.152861885070802Q14.690643426513672,24.1930618850708,14.757523426513671,24.2207618850708Q14.824403426513673,24.2484618850708,14.895403426513672,24.262561885070802Q14.966403426513672,24.2767618850708,15.038803426513672,24.2767618850708Q15.111193426513672,24.2767618850708,15.182193426513672,24.262561885070802Q15.253193426513672,24.2484618850708,15.320073426513671,24.2207618850708Q15.386953426513672,24.1930618850708,15.447143426513671,24.152861885070802Q15.507333426513672,24.1126618850708,15.558523426513672,24.061461885070802Q15.609713426513672,24.0102618850708,15.649933426513671,23.950061885070802Q15.690143426513671,23.8898618850708,15.717853426513672,23.8229618850708Q15.745553426513672,23.7561618850708,15.759673426513672,23.6851618850708Q15.773793426513672,23.6141618850708,15.773803426513672,23.5417618850708Q15.773803426513672,23.5252618850708,15.773063426513671,23.5088618850708L15.773063426513671,17.4578618850708L21.21744342651367,14.303371885070801Q21.23204342651367,14.2957718850708,21.246243426513672,14.287531885070802Q21.308843426513672,14.251241885070801,21.36324342651367,14.2034018850708Q21.41764342651367,14.1555718850708,21.46174342651367,14.0980318850708Q21.50574342651367,14.0404818850708,21.53774342651367,13.9754518850708Q21.56984342651367,13.9104118850708,21.588543426513674,13.840381885070801Q21.607343426513673,13.7703418850708,21.612143426513672,13.698011885070802Q21.61694342651367,13.625671885070801,21.607543426513672,13.5538118850708Q21.598143426513673,13.481951885070801,21.57494342651367,13.4133318850708Q21.551743426513674,13.3447118850708,21.51564342651367,13.2819618850708Q21.442743426513672,13.155231885070801,21.327043426513672,13.0662018850708Q21.211243426513672,12.9771718850708,21.07024342651367,12.939391885070801Q20.929243426513672,12.9016118850708,20.784443426513672,12.9208318850708Q20.63974342651367,12.940051885070801,20.51324342651367,13.0133518850708Q20.49894342651367,13.021581885070802,20.485143426513673,13.0304518850708L15.158173426513672,16.1169518850708Q15.098883426513671,16.1071918850708,15.038803426513672,16.1071918850708Q15.015133426513671,16.1071918850708,14.991513426513672,16.1087118850708L9.678733426513672,13.0304418850708Z" fill-rule="evenodd" fill="#FFFFFF" fill-opacity="1"/></g></g><g style="mix-blend-mode:passthrough"><path d="M45.375,23.5473Q43.55469,23.5473,42.32812,23.3051Q41.10156,23.0629,40.33594,22.4926Q39.57031,21.9145,39.17188,20.9536Q38.77344,19.9926,38.625,18.5551Q38.48438,17.1098,38.48438,15.0942Q38.48438,13.0786,38.625,11.6411Q38.77344,10.20356,39.17188,9.24262Q39.57031,8.281690000000001,40.33594,7.70356Q41.10156,7.12544,42.32812,6.89106Q43.55469,6.64887,45.375,6.64887Q46.07031,6.64887,46.82812,6.69575Q47.5859,6.74262,48.2812,6.84419Q48.9766,6.93794,49.4531,7.05512L49.4531,9.67231Q48.8047,9.602,48.2031,9.5395Q47.6094,9.477,47.0938,9.45356Q46.57812,9.43012,46.21875,9.43012Q44.99219,9.43012,44.19531,9.53169Q43.40625,9.62544,42.9375,9.93012Q42.46875,10.227,42.25,10.8364Q42.03906,11.4457,41.96875,12.477Q41.89844,13.5082,41.89844,15.0942Q41.89844,16.6567,41.96875,17.7036Q42.03906,18.7426,42.25,19.3598Q42.46875,19.9692,42.9375,20.2739Q43.40625,20.5707,44.19531,20.6645Q44.99219,20.7582,46.21875,20.7582Q47.0078,20.7582,47.9453,20.6879Q48.8828,20.6176,49.5547,20.5239L49.5547,23.1801Q49.0234,23.2817,48.3047,23.3598Q47.5859,23.4457,46.82812,23.4926Q46.07031,23.5473,45.375,23.5473ZM57.3906,23.5473Q55.8047,23.5473,54.75,23.352Q53.6953,23.1567,53.0938,22.727Q52.4922,22.2973,52.2109,21.5786Q51.9375,20.8598,51.8516,19.7817Q51.7734,18.6957,51.7734,17.2114Q51.7734,15.7192,51.8516,14.6567Q51.9375,13.5864,52.2109,12.8676Q52.4922,12.1411,53.0938,11.7114Q53.6953,11.2817,54.75,11.102Q55.8047,10.9223,57.3906,10.9223Q58.9688,10.9223,60.0156,11.102Q61.0625,11.2817,61.6719,11.7114Q62.2812,12.1411,62.5547,12.8676Q62.835899999999995,13.5864,62.9219,14.6567Q63.0078,15.7192,63.0078,17.2114Q63.0078,18.6957,62.9219,19.7817Q62.835899999999995,20.8598,62.5547,21.5786Q62.2812,22.2973,61.6719,22.727Q61.0625,23.1567,60.0156,23.352Q58.9688,23.5473,57.3906,23.5473ZM57.3906,20.977Q58.273399999999995,20.977,58.789100000000005,20.8598Q59.3047,20.7348,59.5078,20.3676Q59.7188,19.9926,59.7656,19.227Q59.8125,18.4536,59.8125,17.2114Q59.8125,15.9614,59.7656,15.2036Q59.7188,14.4457,59.5078,14.0786Q59.3047,13.7036,58.789100000000005,13.5942Q58.273399999999995,13.4848,57.3906,13.4848Q56.476600000000005,13.4848,55.9688,13.5942Q55.4688,13.7036,55.25,14.0786Q55.039100000000005,14.4457,55,15.2036Q54.960899999999995,15.9614,54.960899999999995,17.2114Q54.960899999999995,18.4536,55,19.227Q55.039100000000005,19.9926,55.25,20.3676Q55.4688,20.7348,55.9688,20.8598Q56.476600000000005,20.977,57.3906,20.977ZM66.2031,23.352L66.2031,11.1098L69.1797,11.1098L69.27340000000001,12.6489L69.4453,12.6489Q69.7578,12.0707,70.25,11.6801Q70.7422,11.2817,71.4219,11.102Q72.1094,10.9223,72.9688,10.9223Q74.4375,10.9223,75.1875,11.3442Q75.9453,11.7582,76.2578,12.6489L76.4531,12.6489Q76.7656,12.0707,77.2812,11.6801Q77.7969,11.2817,78.4922,11.102Q79.1875,10.9223,80.0781,10.9223Q81.6328,10.9223,82.39840000000001,11.4614Q83.1719,12.0004,83.4375,13.0707Q83.7031,14.1332,83.7031,15.6957L83.7031,23.352L80.5312,23.352L80.5312,16.8754Q80.5312,15.7661,80.46090000000001,15.1176Q80.3906,14.4692,80.21090000000001,14.1567Q80.0312,13.8442,79.6406,13.7661Q79.2578,13.6801,78.6094,13.6801Q77.91409999999999,13.6801,77.4922,13.8598Q77.0781,14.0395,76.875,14.4223Q76.6719,14.8051,76.6094,15.4457Q76.5469,16.0786,76.5469,17.0161L76.5469,23.352L73.3594,23.352L73.3594,16.8754Q73.3594,15.7661,73.2969,15.1176Q73.2344,14.4692,73.03909999999999,14.1567Q72.85159999999999,13.8442,72.4688,13.7661Q72.08590000000001,13.6801,71.46090000000001,13.6801Q70.7656,13.6801,70.3438,13.8598Q69.9219,14.0395,69.7188,14.4223Q69.5156,14.8051,69.4453,15.4536Q69.375,16.102,69.375,17.0161L69.375,23.352L66.2031,23.352ZM87.2031,23.352L87.2031,11.1098L90.1797,11.1098L90.27340000000001,12.6489L90.4453,12.6489Q90.7578,12.0707,91.25,11.6801Q91.7422,11.2817,92.4219,11.102Q93.1094,10.9223,93.9688,10.9223Q95.4375,10.9223,96.1875,11.3442Q96.9453,11.7582,97.2578,12.6489L97.4531,12.6489Q97.7656,12.0707,98.2812,11.6801Q98.7969,11.2817,99.4922,11.102Q100.1875,10.9223,101.0781,10.9223Q102.6328,10.9223,103.3984,11.4614Q104.1719,12.0004,104.4375,13.0707Q104.7031,14.1332,104.7031,15.6957L104.7031,23.352L101.5312,23.352L101.5312,16.8754Q101.5312,15.7661,101.4609,15.1176Q101.3906,14.4692,101.2109,14.1567Q101.0312,13.8442,100.6406,13.7661Q100.2578,13.6801,99.6094,13.6801Q98.91409999999999,13.6801,98.4922,13.8598Q98.0781,14.0395,97.875,14.4223Q97.6719,14.8051,97.6094,15.4457Q97.5469,16.0786,97.5469,17.0161L97.5469,23.352L94.3594,23.352L94.3594,16.8754Q94.3594,15.7661,94.2969,15.1176Q94.2344,14.4692,94.03909999999999,14.1567Q93.85159999999999,13.8442,93.4688,13.7661Q93.08590000000001,13.6801,92.46090000000001,13.6801Q91.7656,13.6801,91.3438,13.8598Q90.9219,14.0395,90.7188,14.4223Q90.5156,14.8051,90.4453,15.4536Q90.375,16.102,90.375,17.0161L90.375,23.352L87.2031,23.352ZM112.0703,23.5473Q110.8203,23.5473,110.0469,23.2348Q109.2812,22.9223,108.8828,22.3207Q108.4922,21.7192,108.3438,20.8364Q108.2031,19.9457,108.2031,18.7661L108.2031,11.1098L111.375,11.1098L111.375,17.5942Q111.375,18.6957,111.4453,19.3442Q111.5156,19.9926,111.7266,20.3051Q111.9453,20.6176,112.375,20.7036Q112.8125,20.7817,113.5312,20.7817Q114.2969,20.7817,114.7734,20.602Q115.2578,20.4223,115.4844,20.0317Q115.7188,19.6332,115.7891,19.0004Q115.8594,18.3598,115.8594,17.4457L115.8594,11.1098L119.0312,11.1098L119.0312,23.352L116.0781,23.352L115.9766,21.8129L115.7656,21.8129Q115.4766,22.3911,114.9609,22.7895Q114.4453,23.1801,113.7266,23.3598Q113.0078,23.5473,112.0703,23.5473ZM122.2031,23.352L122.2031,11.1098L125.1797,11.1098L125.2734,12.6489L125.4688,12.6489Q125.8047,12.0473,126.2969,11.6645Q126.7891,11.2817,127.5156,11.102Q128.25,10.9223,129.1875,10.9223Q130.4375,10.9223,131.1875,11.2348Q131.9453,11.5473,132.35160000000002,12.1489Q132.7656,12.7426,132.89839999999998,13.6332Q133.0312,14.5239,133.0312,15.6957L133.0312,23.352L129.8594,23.352L129.8594,16.8754Q129.8594,15.7661,129.78910000000002,15.1176Q129.7188,14.4692,129.5,14.1567Q129.2812,13.8442,128.85160000000002,13.7661Q128.4219,13.6801,127.7031,13.6801Q126.9297,13.6801,126.4609,13.8598Q125.9922,14.0395,125.7656,14.4379Q125.5391,14.8286,125.4531,15.4692Q125.375,16.102,125.375,17.0161L125.375,23.352L122.2031,23.352ZM136.1562,8.352L136.1562,5.51606L139.445,5.51606L139.445,8.352L136.1562,8.352ZM136.2031,23.352L136.2031,11.1098L139.398,11.1098L139.398,23.352L136.2031,23.352ZM143.85899999999998,23.352L143.85899999999998,13.6801L141.50799999999998,13.6801L141.50799999999998,11.1098L143.85899999999998,11.1098L143.85899999999998,7.56294L147.047,7.56294L147.047,11.1098L149.828,11.1098L149.828,13.6801L147.047,13.6801L147.047,23.352L143.85899999999998,23.352ZM152.156,8.352L152.156,5.51606L155.445,5.51606L155.445,8.352L152.156,8.352ZM152.203,23.352L152.203,11.1098L155.398,11.1098L155.398,23.352L152.203,23.352ZM164.148,23.5473Q162.523,23.5473,161.438,23.3286Q160.35899999999998,23.1098,159.719,22.6411Q159.086,22.1723,158.75799999999998,21.4457Q158.438,20.7114,158.352,19.6723Q158.273,18.6254,158.273,17.2582Q158.273,15.6254,158.438,14.4301Q158.60899999999998,13.227,159.148,12.4457Q159.688,11.6645,160.828,11.2973Q161.969,10.9223,163.86700000000002,10.9223Q165.398,10.9223,166.359,11.1645Q167.32,11.3989,167.883,11.8832Q168.445,12.3598,168.695,13.1176Q168.953,13.8754,169.023,14.9067Q169.094,15.9379,169.094,17.2582L169.094,18.1957L161.438,18.1957Q161.438,19.102,161.523,19.6723Q161.60899999999998,20.2348,161.93,20.5239Q162.25799999999998,20.8051,162.961,20.9067Q163.672,21.0004,164.898,21.0004Q165.398,21.0004,166.031,20.977Q166.672,20.9536,167.352,20.9067Q168.039,20.8598,168.617,20.8051L168.617,23.1567Q168.086,23.2817,167.328,23.3598Q166.578,23.4457,165.75,23.4926Q164.922,23.5473,164.148,23.5473ZM166.07,16.6098L166.07,16.227Q166.07,15.2895,165.961,14.727Q165.859,14.1567,165.602,13.8754Q165.352,13.5864,164.914,13.5004Q164.48399999999998,13.4145,163.812,13.4145Q163.023,13.4145,162.562,13.5239Q162.10899999999998,13.6332,161.86700000000002,13.9379Q161.63299999999998,14.2348,161.531,14.7973Q161.438,15.3598,161.438,16.227L166.508,16.227L166.07,16.6098ZM176.695,23.5473Q175.945,23.5473,175.094,23.4926Q174.242,23.4457,173.422,23.3754Q172.609,23.3051,171.938,23.2114L171.938,20.8051Q172.297,20.8286,172.789,20.8676Q173.281,20.9067,173.859,20.9301Q174.438,20.9536,174.984,20.977Q175.539,21.0004,176.023,21.0004Q177.125,21.0004,177.617,20.8911Q178.109,20.7817,178.25,20.5082Q178.398,20.2348,178.398,19.7739Q178.398,19.2973,178.297,19.0707Q178.203,18.8364,177.938,18.7661Q177.68,18.6957,177.078,18.6254L174.219,18.2661Q173.094,18.1176,172.523,17.6645Q171.961,17.2114,171.758,16.445700000000002Q171.555,15.6723,171.555,14.6176Q171.555,13.3676,171.922,12.6411Q172.297,11.9067,172.953,11.5317Q173.617,11.1567,174.539,11.0395Q175.469,10.9223,176.547,10.9223Q177.266,10.9223,178.031,10.9692Q178.805,11.0161,179.508,11.102Q180.219,11.1801,180.703,11.3051L180.703,13.6801Q180.148,13.6098,179.477,13.5786Q178.805,13.5395,178.156,13.5004Q177.508,13.4614,177.008,13.4614Q176.094,13.4614,175.555,13.5239Q175.016,13.5864,174.797,13.8286Q174.578,14.0629,174.578,14.6176Q174.578,15.0473,174.648,15.2739Q174.727,15.5004,174.961,15.5864Q175.203,15.6723,175.734,15.7426L178.828,16.1254Q179.672,16.227,180.242,16.5161Q180.82,16.7973,181.094,17.5239Q181.375,18.2426,181.375,19.7036Q181.375,20.977,181.062,21.7348Q180.75,22.4848,180.109,22.8832Q179.477,23.2817,178.625,23.4145Q177.773,23.5473,176.695,23.5473ZM184.039,23.352L184.039,20.2114L187.516,20.2114L187.516,23.352L184.039,23.352ZM190.969,23.352L190.969,6.83637L194.375,6.83637L194.375,23.352L190.969,23.352ZM198.469,23.352L198.469,6.83637L204.086,6.83637Q206.219,6.83637,207.57,7.05512Q208.93,7.27387,209.711,7.81294Q210.492,8.352,210.836,9.30512Q211.188,10.25044,211.281,11.6645Q211.383,13.0786,211.383,15.0942Q211.383,17.1098,211.281,18.5317Q211.188,19.9457,210.836,20.8911Q210.492,21.8364,209.711,22.3832Q208.93,22.9223,207.57,23.1411Q206.219,23.352,204.086,23.352L198.469,23.352ZM201.875,20.5707L203.891,20.5707Q205.07,20.5707,205.82,20.5082Q206.578,20.4457,207.023,20.2114Q207.469,19.9692,207.656,19.3832Q207.852,18.7895,207.906,17.7582Q207.969,16.727,207.969,15.0942Q207.969,13.4848,207.906,12.4457Q207.852,11.3989,207.648,10.8286Q207.445,10.25044,207,10.00044Q206.555,9.74262,205.812,9.68794Q205.07,9.62544,203.891,9.62544L201.875,9.62544L201.875,20.5707Z" fill="#FFFFFF" fill-opacity="1"/></g></g></svg>