<!-- Generated by IcoMoon.io -->
<svg version="1.1" xmlns="http://www.w3.org/2000/svg"  stroke="currentColor" viewBox="0 0 375 375">
<title>mint</title>
<path fill="none" stroke-linejoin="round" stroke-linecap="round" stroke-miterlimit="4" stroke-width="31.2501" d="M187.499 187.5v-93.75M187.499 187.5l-82.031 47.361M187.499 187.5l82.030 47.361"></path>
<path fill="none" stroke-linejoin="round" stroke-linecap="round" stroke-miterlimit="4" stroke-width="31.2501" d="M109.375 125c0 17.258-13.991 31.25-31.25 31.25s-31.25-13.991-31.25-31.25 13.991-31.25 31.25-31.25c17.258 0 31.25 13.991 31.25 31.25z"></path>
<path fill="none" stroke-linejoin="round" stroke-linecap="round" stroke-miterlimit="4" stroke-width="31.2501" d="M109.375 250.001c0 17.26-13.991 31.251-31.25 31.251s-31.25-13.991-31.25-31.251c0-17.257 13.991-31.251 31.25-31.251s31.25 13.993 31.25 31.251z"></path>
<path fill="none" stroke-linejoin="round" stroke-linecap="round" stroke-miterlimit="4" stroke-width="31.2501" d="M218.743 312.501c0 17.257-13.991 31.249-31.249 31.249s-31.25-13.991-31.25-31.249c0-17.26 13.991-31.251 31.25-31.251s31.249 13.991 31.249 31.251z"></path>
<path fill="none" stroke-linejoin="round" stroke-linecap="round" stroke-miterlimit="4" stroke-width="31.2501" d="M328.13 250.001c0 17.26-13.991 31.251-31.249 31.251-17.26 0-31.251-13.991-31.251-31.251 0-17.257 13.991-31.251 31.251-31.251 17.257 0 31.249 13.993 31.249 31.251z"></path>
<path fill="none" stroke-linejoin="round" stroke-linecap="round" stroke-miterlimit="4" stroke-width="31.2501" d="M328.13 125c0 17.258-13.991 31.25-31.249 31.25-17.26 0-31.251-13.991-31.251-31.25s13.991-31.25 31.251-31.25c17.257 0 31.249 13.991 31.249 31.25z"></path>
<path fill="none" stroke-linejoin="round" stroke-linecap="round" stroke-miterlimit="4" stroke-width="31.2501" d="M218.743 62.502c0 17.259-13.991 31.25-31.249 31.25s-31.25-13.991-31.25-31.25 13.991-31.25 31.25-31.25c17.258 0 31.249 13.991 31.249 31.25z"></path>
</svg>
