<!-- Generated by IcoMoon.io -->
<svg version="1.1" xmlns="http://www.w3.org/2000/svg" fill='currentColor' viewBox="0 0 375 375">
<title>picker</title>
<path d="M55.547 205.779c-5.625 5.625-8.672 13.125-8.672 20.859v77.578c0 15.468 7.969 23.436 23.438 23.436l78.281-0.469c7.969 0 15.469-3.281 20.859-8.672l124.453-124.686-113.438-113.437-124.922 125.391zM160.078 300.701c-4.453 4.453-11.484 4.453-15.703 0l-70.781-70.781c-4.453-4.453-4.453-11.484 0-15.703 4.453-4.453 11.484-4.453 15.703 0l70.781 70.781c4.219 4.219 4.219 11.25 0 15.703zM337.734 85.31l-48.516-48.75c-17.813-17.813-46.875-17.813-64.922 0l-26.719 26.719 113.438 113.438 26.484-26.719c18.281-17.813 18.281-46.875 0.234-64.688z"></path>
</svg>
