<svg viewBox="0 0 267 267" fill="white" xmlns="http://www.w3.org/2000/svg">
<path d="M151.048 218.785C151.049 222.446 155.014 224.732 158.183 222.898L211.549 192.021C218.892 187.772 223.414 179.931 223.414 171.447V93.7827C223.414 85.3065 218.9 77.4716 211.567 73.2199L158.19 42.2701C155.02 40.4324 151.051 42.7192 151.051 46.3826V74.415C151.051 77.8043 152.855 80.9372 155.787 82.6384L181.553 97.591C185.217 99.7173 187.472 103.633 187.472 107.869L187.476 157.166C187.477 161.402 185.222 165.319 181.559 167.445L155.772 182.417C152.84 184.119 151.036 187.253 151.038 190.643L151.048 218.785Z" />
<path opacity="0.78" d="M115.251 218.785C115.249 222.446 111.285 224.732 108.116 222.898L54.7502 192.021C47.4068 187.772 42.8848 179.931 42.8848 171.447V93.7827C42.8848 85.3065 47.3986 77.4716 54.7313 73.2199L108.109 42.2701C111.279 40.4324 115.248 42.7192 115.248 46.3826V74.415C115.248 77.8043 113.444 80.9372 110.512 82.6384L84.746 97.591C81.0821 99.7173 78.8269 103.633 78.8266 107.869L78.8225 157.166C78.8221 161.402 81.0766 165.319 84.7401 167.445L110.527 182.417C113.459 184.119 115.263 187.253 115.261 190.643L115.251 218.785Z" />
<path d="M136.221 92.8227C134.375 91.749 132.095 91.7484 130.248 92.8213L118.205 99.8181C116.375 100.882 115.248 102.839 115.248 104.956V159.968C115.248 162.087 116.377 164.046 118.211 165.109L130.191 172.052C132.035 173.12 134.31 173.12 136.153 172.05L148.469 164.902C150.302 163.838 151.429 161.879 151.428 159.76L151.41 105.073C151.409 102.958 150.284 101.002 148.455 99.9385L136.221 92.8227Z" />
</svg>
