<!-- Generated by IcoMoon.io -->
<svg version="1.1" xmlns="http://www.w3.org/2000/svg" fill="currentColor" stroke="currentColor" viewBox="0 0 945 1024">
<title>Tips</title>
<g id="icomoon-ignore">
</g>
<path fill="none" stroke-linejoin="round" stroke-linecap="butt" stroke-miterlimit="4" stroke-width="67.5165" d="M472.615 905.846c108.757 0 207.218-44.087 278.49-115.358 71.269-71.27 115.356-169.732 115.356-278.489s-44.087-207.218-115.356-278.492c-71.272-71.272-169.734-115.354-278.49-115.354s-207.218 44.082-278.492 115.354c-71.272 71.274-115.354 169.735-115.354 278.492s44.082 207.218 115.354 278.489c71.274 71.27 169.735 115.358 278.492 115.358z"></path>
<path stroke="none" d="M472.615 256c27.189 0 49.231 22.041 49.231 49.231s-22.042 49.231-49.231 49.231c-27.19 0-49.231-22.042-49.231-49.231s22.041-49.231 49.231-49.231z"></path>
<path fill="none" stroke-linejoin="round" stroke-linecap="round" stroke-miterlimit="4" stroke-width="67.5165" d="M482.462 708.923v-275.692h-39.385"></path>
<path fill="none" stroke-linejoin="round" stroke-linecap="round" stroke-miterlimit="4" stroke-width="67.5165" d="M413.538 708.923h137.846"></path>
</svg>
