<svg width="160" height="100" viewBox="0 0 160 100" fill="none" xmlns="http://www.w3.org/2000/svg">
<g id="Frame">
<path id="Vector" d="M110.726 44.3907H105.528V29.214C105.528 27.3429 103.865 25.6797 101.994 25.6797H83.2827V19.6505C83.2827 16.7399 82.0353 13.8293 79.9563 11.7503C77.8773 9.67134 74.9667 8.63184 72.0561 8.63184C66.027 8.83974 61.2453 14.0372 61.2453 20.0663V25.6797H42.5343C40.6632 25.6797 39 27.135 39 29.214V40.8564C39 41.688 39.4158 42.7275 40.0395 43.3512C40.6632 43.9749 41.4948 44.3907 42.5343 44.3907H44.4054C50.4345 44.3907 55.632 48.9645 55.8399 55.2015C55.8399 58.1121 54.8004 61.0227 52.7214 63.1017C50.6424 65.1807 47.7318 66.4281 44.8212 66.4281H42.5343C40.6632 66.4281 39 68.0913 39 69.9624V88.6734C39 90.1287 40.6632 91.7919 42.5343 91.7919H57.711C58.5426 91.7919 59.5821 91.3761 60.2058 90.7524C60.8295 90.1287 61.2453 89.2971 61.2453 88.2576V86.5944C61.2453 80.5653 66.027 75.3678 72.0561 75.1599C74.9667 75.1599 77.8773 76.1994 79.9563 78.2784C82.0353 80.3574 83.2827 83.0601 83.2827 86.1786V88.4655C83.2827 89.2971 83.6985 90.3366 84.3222 90.9603C84.9459 91.584 85.7775 91.9998 86.817 91.9998H101.994C103.865 91.9998 105.528 90.3366 105.528 88.4655V66.2202H111.141C114.052 66.2202 116.963 64.9728 119.042 62.8938C121.121 60.8148 122.16 57.9042 122.16 54.9936C121.952 48.9645 116.755 44.1828 110.726 44.3907Z" fill="#DBDEEE"/>
<g id="Vector_2" filter="url(#filter0_b_744_325181)">
<path d="M87 67C87 70.283 87.6466 73.5339 88.903 76.5671C90.1594 79.6002 92.0009 82.3562 94.3223 84.6777C96.6438 86.9991 99.3998 88.8406 102.433 90.097C105.466 91.3534 108.717 92 112 92C115.283 92 118.534 91.3534 121.567 90.097C124.6 88.8406 127.356 86.9991 129.678 84.6777C131.999 82.3562 133.841 79.6002 135.097 76.5671C136.353 73.5339 137 70.283 137 67C137 63.717 136.353 60.4661 135.097 57.4329C133.841 54.3998 131.999 51.6438 129.678 49.3223C127.356 47.0009 124.6 45.1594 121.567 43.903C118.534 42.6466 115.283 42 112 42C108.717 42 105.466 42.6466 102.433 43.903C99.3998 45.1594 96.6438 47.0009 94.3223 49.3223C92.0009 51.6438 90.1594 54.3998 88.903 57.4329C87.6466 60.4661 87 63.717 87 67Z" fill="#EDEFF9" fill-opacity="0.6"/>
</g>
<g id="Vector_3" filter="url(#filter1_d_744_325181)">
<path d="M123.399 64.5353L121.317 64.067C121.161 63.5468 120.94 63.0525 120.693 62.5713L121.825 60.6853C122.241 60.009 122.462 59.0205 121.825 58.3832L120.68 57.2386C120.367 56.9395 119.964 56.7834 119.534 56.7964C119.105 56.7964 118.663 56.9395 118.324 57.1606L116.489 58.3312C116.008 58.084 115.513 57.8759 115.006 57.7069L114.537 55.5998C114.394 54.8324 113.718 54 112.82 54H111.193C110.295 54 109.749 54.8454 109.567 55.6258L109.046 57.7069C108.499 57.8759 107.966 58.1101 107.458 58.3702L105.585 57.1736C105.233 56.9395 104.804 56.8094 104.374 56.8094C103.945 56.7964 103.542 56.9525 103.229 57.2516L102.084 58.3962C101.446 59.0335 101.668 60.022 102.084 60.6983L103.268 62.6753C103.047 63.1306 102.852 63.5858 102.696 64.067L100.614 64.5353C99.8328 64.6783 99 65.3547 99 66.2521V67.8779C99 68.7754 99.8458 69.3217 100.627 69.5038L102.735 70.024C102.878 70.4662 103.06 70.8954 103.268 71.3247L102.084 73.3017C101.668 73.978 101.446 74.9665 102.084 75.6038L103.229 76.7484C103.542 77.0605 103.958 77.1906 104.374 77.1906C104.804 77.1906 105.246 77.0475 105.585 76.8264L107.458 75.6298C107.966 75.903 108.499 76.1241 109.046 76.2931L109.567 78.3742C109.749 79.1546 110.295 80 111.193 80H112.82C113.718 80 114.394 79.1676 114.537 78.3872L115.006 76.2671C115.513 76.098 116.008 75.8899 116.476 75.6558L118.311 76.8264C118.637 77.0475 119.079 77.1906 119.521 77.1906C119.951 77.2036 120.367 77.0475 120.667 76.7484L121.812 75.6038C122.449 74.9665 122.228 73.978 121.812 73.3017L120.68 71.4157C120.901 70.9735 121.109 70.5053 121.265 70.024L123.373 69.5038C124.154 69.3217 125 68.7754 125 67.8779V66.2521C125.013 65.3547 124.167 64.6783 123.399 64.5353ZM112.026 70.9345C109.853 70.9345 108.096 69.1786 108.096 67.0195C108.096 64.8474 109.853 63.0915 112.026 63.0915C114.199 63.0915 115.956 64.8474 115.956 67.0195C115.956 69.1786 114.199 70.9345 112.026 70.9345Z" fill="white"/>
</g>
<path id="Stroke 38" fill-rule="evenodd" clip-rule="evenodd" d="M32.334 14.0316C32.334 15.3483 31.2662 16.4148 29.9492 16.4148C28.6323 16.4148 27.5645 15.3483 27.5645 14.0316C27.5645 12.7155 28.6323 11.6484 29.9492 11.6484C31.2662 11.6484 32.334 12.7155 32.334 14.0316Z" stroke="#E4EBF1" stroke-width="2.07911" stroke-linecap="round"/>
<g id="Group 1822">
<path id="Stroke 18" d="M14.415 27.6367V29.7666" stroke="#E4EBF1" stroke-width="2.07911" stroke-linecap="round"/>
<path id="Stroke 19" d="M8.01953 34.0264H10.1514" stroke="#E4EBF1" stroke-width="2.07911" stroke-linecap="round"/>
<path id="Stroke 20" d="M14.415 39.7051V37.5752" stroke="#E4EBF1" stroke-width="2.07911" stroke-linecap="round"/>
<path id="Stroke 21" d="M20.1006 34.0264H17.9688" stroke="#E4EBF1" stroke-width="2.07911" stroke-linecap="round"/>
</g>
<path id="Fill 26" fill-rule="evenodd" clip-rule="evenodd" d="M145.453 45.1659C147.279 44.5968 150.079 42.3655 150.726 39.9648C151.314 42.087 153.777 44.5968 156 44.7867C153.498 45.6717 151.106 48.3009 150.726 50.3664C150.468 48.2611 147.16 45.4728 145.453 45.1659Z" fill="#EBECEE"/>
<path id="Fill 28" fill-rule="evenodd" clip-rule="evenodd" d="M127 30.1032C127.913 29.8186 129.312 28.7033 129.636 27.5029C129.93 28.5634 131.161 29.8186 132.273 29.9139C131.022 30.3558 129.826 31.6706 129.636 32.7034C129.507 31.6508 127.853 30.2563 127 30.1032Z" fill="#EBECEE"/>
</g>
<defs>
<filter id="filter0_b_744_325181" x="77" y="32" width="70" height="70" filterUnits="userSpaceOnUse" color-interpolation-filters="sRGB">
<feFlood flood-opacity="0" result="BackgroundImageFix"/>
<feGaussianBlur in="BackgroundImageFix" stdDeviation="5"/>
<feComposite in2="SourceAlpha" operator="in" result="effect1_backgroundBlur_744_325181"/>
<feBlend mode="normal" in="SourceGraphic" in2="effect1_backgroundBlur_744_325181" result="shape"/>
</filter>
<filter id="filter1_d_744_325181" x="95" y="50" width="34" height="34" filterUnits="userSpaceOnUse" color-interpolation-filters="sRGB">
<feFlood flood-opacity="0" result="BackgroundImageFix"/>
<feColorMatrix in="SourceAlpha" type="matrix" values="0 0 0 0 0 0 0 0 0 0 0 0 0 0 0 0 0 0 127 0" result="hardAlpha"/>
<feOffset/>
<feGaussianBlur stdDeviation="2"/>
<feComposite in2="hardAlpha" operator="out"/>
<feColorMatrix type="matrix" values="0 0 0 0 0.858824 0 0 0 0 0.870588 0 0 0 0 0.933333 0 0 0 1 0"/>
<feBlend mode="normal" in2="BackgroundImageFix" result="effect1_dropShadow_744_325181"/>
<feBlend mode="normal" in="SourceGraphic" in2="effect1_dropShadow_744_325181" result="shape"/>
</filter>
</defs>
</svg>
