<!-- Generated by IcoMoon.io -->
<svg version="1.1" xmlns="http://www.w3.org/2000/svg" viewBox="0 0 375 375">
<title>dis</title>
<path fill="#5765f2" d="M375 187.5c0 103.553-83.947 187.5-187.5 187.5s-187.5-83.947-187.5-187.5c0-103.553 83.947-187.5 187.5-187.5s187.5 83.947 187.5 187.5z"></path>
<path fill="#fff" d="M269.012 116.486c-15.279-6.988-31.506-12.082-48.443-14.924-2.132 3.672-4.501 8.647-6.159 12.555-18.015-2.606-35.9-2.606-53.666 0-1.658-3.908-4.146-8.883-6.16-12.555-17.055 2.843-33.282 7.936-48.454 14.924-30.676 45.245-38.967 89.423-34.822 133.010 20.372 14.805 40.034 23.807 59.351 29.73 4.738-6.397 9.002-13.267 12.673-20.491-6.988-2.606-13.621-5.804-20.017-9.595 1.658-1.184 3.316-2.486 4.856-3.79 38.612 17.648 80.435 17.648 118.573 0 1.658 1.303 3.198 2.606 4.856 3.79-6.396 3.791-13.028 6.988-20.017 9.595 3.672 7.224 7.936 14.094 12.673 20.491 19.307-5.923 39.086-14.925 59.352-29.73 5.093-50.456-8.066-94.28-34.597-133.010zM148.662 222.61c-11.608 0-21.083-10.541-21.083-23.452s9.238-23.452 21.083-23.452c11.725 0 21.319 10.542 21.082 23.452 0 12.91-9.356 23.452-21.082 23.452zM226.491 222.61c-11.609 0-21.095-10.541-21.095-23.452s9.25-23.452 21.095-23.452c11.725 0 21.319 10.542 21.082 23.452 0 12.91-9.238 23.452-21.082 23.452z"></path>
</svg>
