<!-- Generated by IcoMoon.io -->
<svg version="1.1" xmlns="http://www.w3.org/2000/svg" viewBox="0 0 368 375">
<title>ethscan</title>
<path fill="currentColor" d="M77.718 176.033c0.001-2.046 0.405-4.073 1.191-5.963 0.785-1.89 1.937-3.605 3.387-5.049 1.451-1.443 3.172-2.587 5.065-3.363s3.922-1.171 5.969-1.162l25.886 0.085c4.127 0 8.085 1.64 11.004 4.557s4.558 6.877 4.558 11.004v97.878c2.914-0.865 6.657-1.787 10.752-2.751 2.845-0.668 5.38-2.278 7.195-4.569 1.814-2.29 2.802-5.127 2.801-8.049v-121.414c0-4.128 1.64-8.086 4.558-11.005 2.918-2.919 6.876-4.559 11.004-4.56h25.938c4.127 0.001 8.085 1.64 11.004 4.56s4.558 6.877 4.558 11.005v112.684c0 0 6.494-2.628 12.819-5.298 2.35-0.994 4.355-2.657 5.765-4.783s2.164-4.62 2.166-7.171v-134.336c0-4.126 1.639-8.084 4.557-11.003s6.875-4.558 11.001-4.559h25.938c4.127 0 8.085 1.64 11.004 4.558 2.918 2.918 4.557 6.876 4.557 11.004v110.623c22.487-16.297 45.275-35.897 63.359-59.465 2.625-3.421 4.361-7.438 5.054-11.693 0.693-4.254 0.323-8.615-1.079-12.692-8.371-24.085-21.676-46.156-39.067-64.804s-38.483-33.458-61.926-43.485c-23.443-10.028-48.722-15.051-74.218-14.748s-50.648 5.925-73.846 16.506c-23.198 10.581-43.933 25.889-60.876 44.944s-29.721 41.436-37.518 65.713c-7.796 24.276-10.438 49.913-7.758 75.27 2.681 25.356 10.625 49.874 23.325 71.984 2.212 3.814 5.467 6.918 9.382 8.945 3.915 2.029 8.327 2.898 12.719 2.506 4.906-0.431 11.014-1.043 18.277-1.896 3.161-0.359 6.080-1.868 8.201-4.241s3.293-5.442 3.296-8.624l-0.004-97.143z"></path>
<path fill="currentColor" d="M77.151 333.022c27.34 19.889 59.648 31.829 93.353 34.496 33.704 2.664 67.488-4.044 97.615-19.389s55.421-38.724 73.087-67.552c17.662-28.828 27.007-61.981 26.998-95.791 0-4.218-0.196-8.393-0.476-12.542-66.957 99.861-190.585 146.547-290.57 160.762z"></path>
</svg>
