<svg xmlns="http://www.w3.org/2000/svg" viewBox="0 0 1245.62 319.47"><defs><style>.cls-1{fill:#000;}.cls-2{fill:#000;}</style></defs><g id="图层_2" data-name="图层 2"><g id="图层_1-2" data-name="图层 1"><polygon class="cls-1" points="96.06 177.61 96.06 115.43 0 67.84 0 128.09 96.06 177.61"/><polygon class="cls-1" points="2.23 184.68 2.98 243.51 144.47 319.47 144.47 259.9 2.23 184.68"/><polygon class="cls-1" points="144.32 0 144.32 59.21 289.87 129.52 289.87 67.84 144.32 0"/><polygon class="cls-2" points="0 67.84 144.32 0 144.32 59.21 61.41 98.37 0 67.84"/><polygon class="cls-2" points="144.47 259.9 144.32 319.47 286.17 244.23 286.17 185.02 144.47 259.9"/><polygon class="cls-1" points="229.79 214.93 191.4 195.73 191.4 137.76 286.18 185.04 229.79 214.93"/><path class="cls-1" d="M456.71,89.81h30.72V210q-.07,16.53-7,28.43a46.59,46.59,0,0,1-19.33,18.29q-12.4,6.39-28.85,6.39a65.2,65.2,0,0,1-27-5.39,43.69,43.69,0,0,1-19-16q-7-10.61-7-26.38H410a23.61,23.61,0,0,0,3.05,11.94A19.78,19.78,0,0,0,421.3,235a26.43,26.43,0,0,0,12.11,2.67A23.9,23.9,0,0,0,446,234.55a19.83,19.83,0,0,0,7.89-9.31,38.76,38.76,0,0,0,2.8-15.2Z"/><path class="cls-1" d="M615.23,166.46l-27.55,3a22.55,22.55,0,0,0-4-7.85,20.64,20.64,0,0,0-7.73-5.92,27.84,27.84,0,0,0-11.85-2.26q-9.43,0-15.82,4.09t-6.31,10.61a11.07,11.07,0,0,0,4.13,9.1q4.22,3.51,14,5.76l21.88,4.67q18.2,3.93,27.09,12.45t9,22.29a34.84,34.84,0,0,1-7.06,21.33q-7,9.22-19.33,14.41t-28.39,5.17q-23.54,0-37.9-9.89t-17.12-27.6L537.66,223q2,8.69,8.52,13.11t17,4.43q10.77,0,17.32-4.43T587,225.15a11.46,11.46,0,0,0-4.22-9.1q-4.21-3.59-13.06-5.51L547.85,206q-18.45-3.84-27.3-13t-8.77-23.17a32.89,32.89,0,0,1,6.47-20.59q6.56-8.72,18.29-13.52t27.09-4.8q22.54,0,35.53,9.6A40.47,40.47,0,0,1,615.23,166.46Z"/><path class="cls-1" d="M753,308.9H722.66V240.6H721.4a50.2,50.2,0,0,1-6.76,9.9A36.9,36.9,0,0,1,703,259.39q-7.26,3.67-18.28,3.67a48.59,48.59,0,0,1-27.06-7.76q-11.94-7.77-18.87-22.55t-6.93-35.9q0-21.37,7.06-36.11T658,138.44a49.38,49.38,0,0,1,26.8-7.55q11.26,0,18.53,3.8a35.59,35.59,0,0,1,11.53,9.1,56,56,0,0,1,6.59,10h1.84V132.56H753ZM723.24,196.68a61.4,61.4,0,0,0-3.46-21.62,31.13,31.13,0,0,0-10.19-14.28q-6.72-5.1-16.49-5.09-10.11,0-16.87,5.26a31.74,31.74,0,0,0-10.18,14.52,60.8,60.8,0,0,0-3.43,21.21,61.61,61.61,0,0,0,3.47,21.42,32.77,32.77,0,0,0,10.27,14.78q6.79,5.38,16.74,5.38A26,26,0,0,0,709.46,233a31.94,31.94,0,0,0,10.27-14.57A61.82,61.82,0,0,0,723.24,196.68Z"/><path class="cls-1" d="M859.81,206.87V132.56H890V260.81H860.72V238h-1.33a38.66,38.66,0,0,1-14.24,17.62q-9.89,6.86-24.34,6.85a43.27,43.27,0,0,1-22.25-5.64,38.49,38.49,0,0,1-15.07-16.45q-5.43-10.81-5.43-26.17V132.56h30.23v77q0,12.19,6.68,19.37t17.53,7.18a27.71,27.71,0,0,0,12.94-3.25,26.61,26.61,0,0,0,10.32-9.73Q859.81,216.65,859.81,206.87Z"/><path class="cls-1" d="M952.12,263.4A52.84,52.84,0,0,1,930.2,259a35.28,35.28,0,0,1-15.36-13q-5.64-8.59-5.64-21.21,0-10.86,4-17.95a31,31,0,0,1,10.94-11.36A56.14,56.14,0,0,1,939.8,189a130.94,130.94,0,0,1,18.08-3.21q11.28-1.17,18.29-2.13t10.23-3a7,7,0,0,0,3.21-6.39v-.5q0-9.44-5.59-14.61T967.9,154q-11.1,0-17.58,4.84a23.94,23.94,0,0,0-8.72,11.44l-28.22-4a45.33,45.33,0,0,1,11-19.58,48.62,48.62,0,0,1,18.79-11.86,72.6,72.6,0,0,1,24.54-4,79.91,79.91,0,0,1,18.46,2.17A52.62,52.62,0,0,1,1003,140.2a36.75,36.75,0,0,1,12.23,13.48q4.63,8.52,4.64,21.29v85.84H990.78V243.19h-1a36.52,36.52,0,0,1-20.17,17.41A49.9,49.9,0,0,1,952.12,263.4ZM960,241.19a32.49,32.49,0,0,0,15.78-3.64,26.53,26.53,0,0,0,10.31-9.64,24.91,24.91,0,0,0,3.63-13.11V199.69a14.1,14.1,0,0,1-4.8,2.17,70.09,70.09,0,0,1-7.55,1.75c-2.79.5-5.54.95-8.27,1.34l-7.1,1a52.63,52.63,0,0,0-12.1,3,20.22,20.22,0,0,0-8.44,5.8,14.45,14.45,0,0,0-3.09,9.56q0,8.35,6.1,12.61T960,241.19Z"/><path class="cls-1" d="M1044.43,260.81V132.56h29.31v21.37h1.34a32.07,32.07,0,0,1,12.06-17.16,33.1,33.1,0,0,1,19.58-6.05q2.51,0,5.64.21a43.4,43.4,0,0,1,5.22.62v27.81a32.91,32.91,0,0,0-6.06-1.21,61.46,61.46,0,0,0-8-.54,30.68,30.68,0,0,0-14.82,3.54,26.52,26.52,0,0,0-10.31,9.81,27.5,27.5,0,0,0-3.76,14.45v75.4Z"/><path class="cls-1" d="M1188.6,263.31q-19.29,0-33.28-8.06a53.89,53.89,0,0,1-21.5-22.87q-7.52-14.82-7.51-34.95,0-19.78,7.55-34.77A56.92,56.92,0,0,1,1155,139.28q13.6-8.4,32-8.39a65.58,65.58,0,0,1,22.42,3.8,51.46,51.46,0,0,1,18.7,11.73A55.19,55.19,0,0,1,1241,166.58q4.68,12.24,4.67,29.1V205H1140.5V184.58h76.15a32.67,32.67,0,0,0-3.76-15.49,27.48,27.48,0,0,0-10.22-10.73,29.09,29.09,0,0,0-15.24-3.93,29.61,29.61,0,0,0-16.28,4.47,31.19,31.19,0,0,0-10.9,11.69,33.64,33.64,0,0,0-4,15.82V204.2q0,11.19,4.09,19.16a28.84,28.84,0,0,0,11.44,12.19,34,34,0,0,0,17.2,4.22,35.87,35.87,0,0,0,11.94-1.88,25.8,25.8,0,0,0,9.27-5.56,23.22,23.22,0,0,0,5.93-9.1l28.22,3.18a43.84,43.84,0,0,1-10.14,19.49,49.49,49.49,0,0,1-19.08,12.86A72.43,72.43,0,0,1,1188.6,263.31Z"/></g></g></svg>