<!-- Generated by IcoMoon.io -->
<svg version="1.1" xmlns="http://www.w3.org/2000/svg" viewBox="0 0 375 375">
<title>meta</title>
<path fill="#e17726" d="M343.333 20.834l-136.875 101.25 25.52-59.687 111.355-41.562z"></path>
<path fill="#e27625" d="M27.709 20.834l135.625 102.083-24.271-60.416-111.354-41.667zM294.063 255.521l-36.459 55.625 78.021 21.458 22.292-75.833-63.854-1.25zM13.229 256.771l22.188 75.833 77.812-21.458-36.25-55.625-63.75 1.25z"></path>
<path fill="#e27625" d="M109.063 161.563l-21.667 32.709 77.083 3.542-2.5-83.021-52.916 46.875v-0.104zM261.98 161.667l-53.75-47.917-1.771 84.063 77.083-3.542-21.563-32.605zM113.229 311.146l46.771-22.5-40.208-31.25-6.563 53.75zM211.146 288.542l46.458 22.604-6.25-53.855-40.208 31.25z"></path>
<path fill="#d5bfb2" d="M257.604 311.146l-46.458-22.5 3.75 30.208-0.417 12.812 43.125-20.521zM113.229 311.146l43.333 20.521-0.313-12.812 3.75-30.208-46.771 22.5z"></path>
<path fill="#233447" d="M157.292 237.292l-38.542-11.25 27.292-12.5 11.354 23.75h-0.104zM213.646 237.292l11.458-23.854 27.396 12.5-38.854 11.458v-0.104z"></path>
<path fill="#cc6228" d="M113.229 311.146l6.771-55.625-43.021 1.25 36.25 54.375zM251.042 255.521l6.563 55.625 36.458-54.375-43.021-1.25zM283.646 194.271l-77.083 3.542 7.083 39.583 11.458-23.958 27.396 12.5 31.146-31.667zM118.75 226.042l27.291-12.5 11.354 23.75 7.188-39.583-77.083-3.438 31.25 31.771z"></path>
<path fill="#e27525" d="M87.5 194.271l32.291 63.021-1.041-31.25-31.25-31.771zM252.5 226.042l-1.25 31.25 32.292-63.021-31.042 31.771zM164.584 197.813l-7.292 39.583 9.167 46.667 2.083-61.563-3.958-24.687zM206.458 197.813l-3.75 24.583 1.875 61.667 9.062-46.771-7.187-39.583v0.104z"></path>
<path fill="#f5841f" d="M213.646 237.291l-9.062 46.771 6.562 4.583 40.104-31.25 1.25-31.354-38.855 11.25zM118.75 226.041l1.042 31.25 40.208 31.25 6.459-4.479-9.063-46.771-38.646-11.25z"></path>
<path fill="#c0ac9d" d="M214.583 331.667l0.313-12.812-3.542-2.917h-51.667l-3.438 2.917 0.313 12.812-43.333-20.521 15.208 12.5 30.729 21.146h52.604l30.833-21.25 15-12.396-43.125 20.521h0.104z"></path>
<path fill="#161616" d="M211.146 288.542l-6.562-4.479h-38.125l-6.458 4.583-3.75 30.208 3.437-2.917h51.667l3.542 2.917-3.75-30.208v-0.104z"></path>
<path fill="#763e1a" d="M349.167 128.646l11.458-55.729-17.291-52.083-132.292 97.917 50.938 42.812 71.875 20.938 15.833-18.438-6.875-5 10.938-10-8.333-6.458 10.937-8.333-7.292-5.625h0.104zM10.417 72.813l11.667 55.833-7.5 5.521 11.146 8.333-8.333 6.563 10.833 10-6.875 5 15.833 18.438 71.875-20.833 50.938-43.021-132.292-97.812-17.292 51.979z"></path>
<path fill="#f5841f" d="M333.854 182.5l-71.875-20.833 21.667 32.604-32.292 63.021 42.709-0.521h63.854l-24.062-74.271zM109.063 161.563l-71.875 20.937-23.958 74.271h63.854l42.708 0.521-32.291-63.021 21.667-32.708h-0.104zM206.458 197.813l4.687-79.166 20.833-56.25h-92.917l20.833 56.25 4.688 79.166 1.771 24.792v61.458h38.229l0.208-61.458 1.667-24.792z"></path>
</svg>
