<!-- Generated by IcoMoon.io -->
<svg version="1.1" xmlns="http://www.w3.org/2000/svg" fill="currentColor" viewBox="0 0 375 375">
<title>polygon</title>
<path d="M280.594 124.789c-6.855-3.916-15.666-3.916-23.498 0l-54.831 32.31-37.206 20.562-53.851 32.309c-6.854 3.917-15.666 3.917-23.499 0l-42.102-25.456c-6.854-3.916-11.749-11.748-11.749-20.561v-48.955c0-7.833 3.916-15.666 11.749-20.561l42.102-24.478c6.854-3.916 15.666-3.916 23.499 0l42.102 25.457c6.854 3.916 11.749 11.749 11.749 20.561v32.31l37.206-21.54v-33.29c0-7.833-3.916-15.666-11.748-20.561l-78.33-46.018c-6.854-3.916-15.666-3.916-23.499 0l-80.287 46.997c-7.833 3.916-11.75 11.749-11.75 19.582v92.036c0 7.833 3.916 15.666 11.75 20.561l79.308 46.017c6.854 3.917 15.666 3.917 23.499 0l53.851-31.331 37.206-21.541 53.852-31.331c6.853-3.916 15.666-3.916 23.498 0l42.101 24.478c6.855 3.917 11.75 11.75 11.75 20.561v48.956c0 7.833-3.917 15.666-11.75 20.561l-41.122 24.476c-6.855 3.917-15.666 3.917-23.498 0l-42.103-24.476c-6.853-3.917-11.748-11.75-11.748-20.561v-31.333l-37.206 21.541v32.311c0 7.833 3.916 15.666 11.748 20.561l79.309 46.019c6.853 3.916 15.666 3.916 23.498 0l79.308-46.019c6.853-3.916 11.748-11.748 11.748-20.561v-93.016c0-7.833-3.916-15.666-11.748-20.561l-79.308-46.017z"></path>
</svg>
