<!-- Generated by IcoMoon.io -->
<svg version="1.1" xmlns="http://www.w3.org/2000/svg" viewBox="0 0 375 375">
<title>Twitter</title>
<path fill="#08a2e4" d="M365.057 77.419c-13.346 5.79-27.46 9.617-41.903 11.363 15.238-9.103 26.656-23.423 32.138-40.305-14.319 8.524-29.993 14.529-46.342 17.756-10.928-11.851-25.481-19.739-41.375-22.428s-32.231-0.026-46.449 7.57c-14.218 7.596-25.513 19.697-32.112 34.404s-8.131 31.189-4.355 46.86c-28.952-1.465-57.272-9.003-83.12-22.126s-48.647-31.537-66.915-54.045c-6.407 11.189-9.774 23.86-9.766 36.754-0.023 11.974 2.916 23.768 8.554 34.332s13.801 19.569 23.762 26.215c-11.577-0.315-22.907-3.422-33.026-9.056v0.888c0.087 16.778 5.966 33.010 16.643 45.951s25.496 21.798 41.951 25.072c-6.334 1.927-12.911 2.944-19.531 3.019-4.583-0.054-9.155-0.469-13.672-1.244 4.686 14.432 13.754 27.045 25.942 36.082s26.891 14.052 42.062 14.344c-25.618 20.158-57.246 31.159-89.844 31.25-5.935 0.019-11.866-0.337-17.756-1.066 33.282 21.489 72.067 32.896 111.683 32.848 27.338 0.283 54.46-4.882 79.779-15.197s48.329-25.572 67.686-44.879 34.672-42.278 45.052-67.571c10.38-25.292 15.616-52.4 15.402-79.738 0-3.019 0-6.215 0-9.411 13.933-10.391 25.949-23.128 35.511-37.642v0z"></path>
</svg>
