<svg width="30" height="30" viewBox="0 0 30 30" fill="none" xmlns="http://www.w3.org/2000/svg">
<path fill-rule="evenodd" clip-rule="evenodd" d="M15 24C10.0289 24 6 19.9711 6 15C6 10.0289 10.0289 6 15 6C19.9711 6 24 10.0289 24 15C24 19.9711 19.9711 24 15 24ZM15 9.74941C14.5852 9.74941 14.2494 10.0852 14.2494 10.5V16.4994C14.2494 16.9143 14.5852 17.25 15 17.25C15.4148 17.25 15.7506 16.9143 15.7506 16.4994V10.5C15.7506 10.0852 15.4148 9.74941 15 9.74941ZM15.7506 19.5C15.7506 19.9148 15.4148 20.2506 15 20.2506C14.5852 20.2506 14.2494 19.9148 14.2494 19.5C14.2494 19.0852 14.5852 18.7494 15 18.7494C15.4148 18.7494 15.7506 19.0852 15.7506 19.5Z" fill="#F41070"/>
</svg>
