<svg width="30" height="30" viewBox="0 0 30 30" fill="none" xmlns="http://www.w3.org/2000/svg">
<path fill-rule="evenodd" clip-rule="evenodd" d="M6 15C6 19.9705 10.0295 24 15 24C19.9705 24 24 19.9705 24 15C24 10.0295 19.9705 6 15 6C10.0295 6 6 10.0295 6 15ZM10.82 14.9679L13.177 17.175L13.1773 17.1753L18.3618 12.3192C18.6222 12.0754 19.0443 12.0754 19.3047 12.3192C19.5651 12.5631 19.5651 12.9584 19.3047 13.2022L13.6485 18.4992C13.5181 18.6209 13.3476 18.6818 13.177 18.6818C13.0065 18.6818 12.8359 18.6209 12.7059 18.4992L9.87712 15.8509C9.70868 15.6931 9.6429 15.4632 9.70455 15.2478C9.7662 15.0323 9.94592 14.864 10.176 14.8063C10.4061 14.7485 10.6516 14.8101 10.82 14.9679Z" fill="#5CD331"/>
</svg>