<svg xmlns="http://www.w3.org/2000/svg" width="1em" height="1em" fill="none" viewBox="0 0 300 300"><path fill="url(#astar_svg__a)" d="M299.648 139.821C294.026 57.173 222.47-5.27 139.821.351c-41.172 2.801-77.323 21.97-102.55 50.716l-.07-.05c-.17.235-.329.467-.498.702C11.645 80.605-2.449 119.013.352 160.179c.266 3.923.728 7.783 1.286 11.61v.002a150.527 150.527 0 0 0 1.39 8.024l.001.004.027.135c.455 2.245.96 4.469 1.513 6.675v.004l.002.005c17.323 69.085 82.051 118.014 155.608 113.01 82.648-5.621 145.091-77.179 139.469-159.827Zm-32.65 2.221a117.06 117.06 0 0 1-1.76 29.723c-.023-.055-.04-.113-.063-.167v-.001c-10.874-26.581-32.385-45.771-51.302-56.372 3.829-45.04-11.451-64.015-28.745-67.102a21.5 21.5 0 0 0-1.424-.228c-13.725-1.76-26.277 7.941-28.035 21.666-1.761 13.726 7.941 26.278 21.666 28.039 1.197.151 2.381.193 3.554.175.076 1.52.124 3.135.137 4.824-15.99-3.962-30.938-4.738-44.566-3.513-5.096.34-10.196.982-15.268 1.93 1.701-15.209 7.407-32.284 18.479-44.78 10.703-12.078 26.616-19.002 43.975-17.225 3.291.337 6.802 1.145 9.963 2.206.145.049.3.09.443.14l.007-.01c40.208 16.38 69.799 54.54 72.939 100.695Zm-104.549 22.911a2.082 2.082 0 0 0-.033.049c-3.579 5.162-7.836 10.252-12.833 15.175-7.49-7.97-13.508-16.553-18.073-25.432-.234-.476-.484-.928-.712-1.412l-.026-.053c-2.682-5.683-4.962-11.917-6.727-18.708 10.659-2.508 21.112-3.43 31.094-2.944.529.035 1.046.045 1.579.089l.059.004c6.252.518 12.78 1.658 19.533 3.52-3.157 10.48-7.584 19.99-12.994 28.389-.295.441-.562.883-.867 1.323ZM111.194 39.359c-.028.036-.059.07-.087.107-17.574 22.696-23.441 50.903-23.17 72.582-40.917 19.204-49.71 41.924-43.737 58.444.157.452.327.901.515 1.347 5.339 12.767 20.017 18.786 32.781 13.446 12.767-5.338 18.787-20.016 13.45-32.782a25.044 25.044 0 0 0-1.626-3.166 114.088 114.088 0 0 1 4.157-2.56c4.563 15.832 11.314 29.224 19.191 40.415a130.221 130.221 0 0 0 9.285 12.234c-14.023 6.134-31.667 9.732-48.028 6.391-15.813-3.23-29.765-13.549-36.905-29.471-1.354-3.018-2.41-6.462-3.071-9.73-.407-2.856-.748-5.734-.947-8.658-3.655-53.731 29.68-101.566 78.192-118.599Zm46.764 227.639c-31.907 2.17-61.733-8.713-84.275-28.058 28.443 3.871 55.804-5.152 74.443-16.227 37.106 25.855 61.187 22.112 72.51 8.676.314-.362.617-.733.909-1.12 8.388-11.006 6.262-26.727-4.745-35.112-11.007-8.388-26.728-6.261-35.115 4.744a24.982 24.982 0 0 0-1.929 2.99 113.612 113.612 0 0 1-4.267-2.304c11.44-11.874 19.591-24.439 25.348-36.863a130.4 130.4 0 0 0 5.964-14.188c12.33 9.078 24.279 22.565 29.568 38.413 5.109 15.309 3.149 32.552-7.069 46.697-1.937 2.681-4.393 5.318-6.893 7.525l-.107.099c-17.877 14.05-39.996 23.072-64.342 24.728Z"></path><path fill="url(#astar_svg__b)" d="M185.128 48.123c-.47-.091-.943-.168-1.424-.228a25.026 25.026 0 0 0-7.118.118c14.35 7.806 24.812 29.557 19.312 72.461-1.822 14.21-6.048 27.732-12.149 40.141-4.945 10.669-11.671 21.44-20.714 31.791a117.452 117.452 0 0 0 12.454 8.181c11.44-11.874 19.591-24.439 25.348-36.863 6.102-12.408 10.327-25.931 12.149-40.14 6.549-51.085-9.529-72.19-27.858-75.461Z" opacity="0.9" style="mix-blend-mode: overlay;"></path><path fill="#fff" d="M195.898 120.474c5.5-42.904-4.962-64.655-19.312-72.461-.56.089-1.11.208-1.659.334 14.049 8.076 24.157 29.806 18.731 72.127-1.822 14.21-6.047 27.732-12.149 40.141-4.78 10.316-11.245 20.724-19.84 30.759.458.354.912.691 1.366 1.032 9.043-10.351 15.77-21.122 20.714-31.791 6.101-12.409 10.327-25.931 12.149-40.141Z" opacity="0.8" style="mix-blend-mode: overlay;"></path><path fill="url(#astar_svg__c)" d="M141.356 217.784c-1.348-1.027-2.646-2.103-3.944-3.178-21.176 8.835-50.532 14.374-79.68 7.61 4.773 6.084 10.1 11.702 15.951 16.724 28.443 3.871 55.804-5.152 74.443-16.226a197.308 197.308 0 0 1-6.77-4.93Z" opacity="0.5" style="mix-blend-mode: overlay;"></path><path fill="url(#astar_svg__d)" d="M137.412 214.606c-.648-.538-1.301-1.07-1.937-1.619-21.337 8.526-50.826 13.623-79.909 6.375.709.962 1.43 1.915 2.166 2.854 29.148 6.764 58.504 1.225 79.68-7.61Z" opacity="0.6" style="mix-blend-mode: overlay;"></path><path fill="url(#astar_svg__e)" d="M44.207 170.517c.157.452.327.9.515 1.346a25.012 25.012 0 0 0 3.661 6.106c-.414-16.33 13.191-36.266 53.098-52.954 13.217-5.528 27.04-8.63 40.837-9.55 11.712-1.053 24.404-.612 37.889 2.043.649-5.389.893-10.419.858-14.876-16.003-3.97-30.961-4.747-44.598-3.52-13.797.919-27.621 4.021-40.838 9.548-47.515 19.871-57.753 44.347-51.422 61.857Z" opacity="0.9" style="mix-blend-mode: overlay;"></path><path fill="#fff" d="M101.481 125.015c-39.906 16.688-53.512 36.624-53.098 52.954.357.441.736.857 1.12 1.269-.031-16.203 13.733-35.822 53.097-52.284 13.217-5.527 27.041-8.629 40.838-9.549 11.324-1.018 23.571-.624 36.558 1.802.078-.573.143-1.135.211-1.699-13.485-2.655-26.177-3.096-37.889-2.043-13.797.92-27.62 4.022-40.837 9.55Z" opacity="0.8" style="mix-blend-mode: overlay;"></path><path fill="url(#astar_svg__f)" d="M213.024 123.594c-.215 1.681-.498 3.343-.78 5.005 18.239 13.921 37.714 36.574 46.43 65.199 2.883-7.175 5.085-14.598 6.508-22.176-10.869-26.567-32.363-45.752-51.274-56.356a194.189 194.189 0 0 1-.884 8.328Z" opacity="0.4" style="mix-blend-mode: overlay;"></path><path fill="url(#astar_svg__g)" d="M212.244 128.599c-.141.83-.276 1.662-.434 2.487 18.053 14.214 37.212 37.204 45.476 66.015a114.71 114.71 0 0 0 1.388-3.303c-8.716-28.625-28.191-51.278-46.43-65.199Z" opacity="0.5" style="mix-blend-mode: overlay;"></path><path fill="url(#astar_svg__h)" d="M220.653 231.355c.314-.362.617-.733.909-1.12a25.018 25.018 0 0 0 3.457-6.223c-13.935 8.524-38.002 6.709-72.408-19.507-11.396-8.682-20.994-19.103-28.689-30.591-6.768-9.617-12.732-20.828-17.176-33.834a117.39 117.39 0 0 0-13.312 6.695c4.564 15.843 11.37 29.186 19.251 40.383 7.695 11.489 17.293 21.909 28.688 30.592 40.966 31.214 67.282 27.842 79.28 13.605Z" opacity="0.9" style="mix-blend-mode: overlay;"></path><path fill="#fff" d="M152.611 204.505c34.406 26.216 58.473 28.031 72.408 19.507.203-.53.375-1.066.54-1.604-14.018 8.128-37.89 6.017-71.829-19.842-11.395-8.683-20.993-19.103-28.688-30.591-6.544-9.298-12.325-20.102-16.719-32.562-.534.219-1.054.444-1.577.667 4.444 13.006 10.408 24.217 17.176 33.834 7.695 11.488 17.293 21.909 28.689 30.591Z" opacity="0.8" style="mix-blend-mode: overlay;"></path><path fill="url(#astar_svg__i)" d="M95.608 108.616c1.564-.654 3.145-1.24 4.725-1.826 2.936-22.757 12.817-50.95 33.249-72.81-7.655 1.091-15.184 2.895-22.459 5.452-17.573 22.697-23.44 50.904-23.169 72.582 2.442-1.145 4.98-2.28 7.654-3.398Z" opacity="0.3" style="mix-blend-mode: overlay;"></path><path fill="url(#astar_svg__j)" d="M100.333 106.79c.79-.293 1.577-.592 2.371-.869 3.283-22.74 13.614-50.828 34.433-72.39-1.188.132-2.373.28-3.555.449-20.432 21.86-30.313 50.053-33.249 72.81Z" opacity="0.4" style="mix-blend-mode: overlay;"></path><path fill="url(#astar_svg__k)" d="M139.821.352c-41.172 2.8-77.323 21.97-102.55 50.715-.19.218-.38.435-.569.654l.002-.002c4.91 4.871 20.962 14.478 27.467 18.483 12.774-13.736 28.831-24.455 47.023-30.843a96.28 96.28 0 0 1 3.983-4.826c16.943-19.12 40.082-29.225 66.919-29.225 2.987 0 9.071.475 9.202.485-16.27-4.675-33.61-6.657-51.477-5.441Z" opacity="0.4" style="mix-blend-mode: multiply;"></path><path fill="url(#astar_svg__l)" d="M157.958 266.998c-31.907 2.17-61.733-8.713-84.275-28.058a96.958 96.958 0 0 1-6.307-1.059c-25.03-5.114-45.351-20.099-58.77-43.341a87.942 87.942 0 0 1-4.034-7.9c17.323 69.084 82.05 118.012 155.607 113.008.326-7.574-1.907-25.15-2.221-32.65Z" opacity="0.4" style="mix-blend-mode: multiply;"></path><path fill="url(#astar_svg__m)" d="M299.648 139.821c-4.608-.472-27.116 1.305-32.65 2.221a117.06 117.06 0 0 1-1.76 29.723 95.937 95.937 0 0 1 2.175 5.824c8.086 24.233 5.268 49.325-8.15 72.567a88.204 88.204 0 0 1-4.729 7.311l-.096.132a3.16 3.16 0 0 0 .109-.094c30.466-29.641 48.212-71.953 45.101-117.684Z" opacity="0.4" style="mix-blend-mode: multiply;"></path><path fill="url(#astar_svg__n)" d="M183.646 39.01c3.291.338 6.802 1.146 9.963 2.207.145.049.3.09.443.14l.007-.01c12.94 5.272 24.77 12.81 34.983 22.133l.066.051c4.922-5.627 14.399-11.81 14.399-11.81s-14.512-14.844-36.706-19.451c-15.538-3.225-50.584-6.351-72.687 31.261l.217-.202c1.635-2.471 3.374-4.873 5.34-7.092 10.703-12.08 26.616-19.003 43.975-17.226Z" opacity="0.5" style="mix-blend-mode: multiply;"></path><path fill="url(#astar_svg__o)" d="M229.296 234.633c-1.937 2.681-4.392 5.318-6.892 7.525-.115.101-.228.214-.343.314l.005.011c-11.035 8.57-23.478 15.047-36.658 19.23l-.078.031c2.412 7.076 3.029 18.375 3.029 18.375s20.111-5.145 35.198-22.063c10.562-11.844 30.792-40.631 9.27-78.579l.067.289c1.322 2.652 2.533 5.358 3.472 8.17 5.109 15.309 3.149 32.552-7.07 46.697Z" opacity="0.5" style="mix-blend-mode: multiply;"></path><path fill="url(#astar_svg__p)" d="M37.072 176.391c-1.354-3.019-2.41-6.464-3.071-9.732-.03-.15-.072-.305-.1-.454l-.012-.001c-1.905-13.842-1.293-27.856 1.675-41.362l.012-.083c-7.334-1.449-17.428-6.565-17.428-6.565s-5.6 19.99 1.509 41.514c4.975 15.069 19.791 46.983 63.416 47.318l-.284-.087c-2.958-.18-5.907-.485-8.811-1.078-15.813-3.23-29.765-13.549-36.906-29.47Z" opacity="0.5" style="mix-blend-mode: multiply;"></path><path fill="url(#astar_svg__q)" d="M177.335 97.6c1.197.151 2.381.193 3.554.175 0 0-.783-15.586-2.697-23.582-1.914-7.996-4.736-13.292-7.837-16.289-2.221-2.147-9.233-4.821-14.686 11.657-1.761 13.726 7.941 26.278 21.666 28.039Z" opacity="0.6" style="mix-blend-mode: multiply;"></path><path fill="url(#astar_svg__r)" d="M90.953 152.528a25.031 25.031 0 0 0-1.626-3.166s-13.106 8.471-19.074 14.127c-5.968 5.655-9.143 10.747-10.188 14.931-.749 2.997.441 10.407 17.439 6.89 12.766-5.338 18.786-20.016 13.449-32.782Z" opacity="0.5" style="mix-blend-mode: multiply;"></path><path fill="url(#astar_svg__s)" d="M181.705 199.86a25.198 25.198 0 0 0-1.929 2.991s13.89 7.114 21.772 9.455c7.881 2.341 13.879 2.544 18.025 1.358 2.97-.85 8.792-5.586-2.753-18.547-11.006-8.388-26.727-6.262-35.115 4.743Z" opacity="0.6" style="mix-blend-mode: multiply;"></path><path fill="url(#astar_svg__t)" d="M176.31 135.241c-3.157 10.48-7.584 19.99-12.994 28.389-.295.441-.562.883-.867 1.323a2.082 2.082 0 0 0-.033.049c-3.579 5.162-7.836 10.252-12.833 15.175 3.434 3.653 7.148 7.19 11.226 10.546a116.35 116.35 0 0 0 14.68 9.864c11.44-11.874 19.591-24.439 25.348-36.863a130.4 130.4 0 0 0 5.964-14.188c-5.278-3.885-10.624-6.976-15.55-9.076a117.876 117.876 0 0 0-14.941-5.219Z" opacity="0.3" style="mix-blend-mode: multiply;"></path><path fill="url(#astar_svg__u)" d="M73.683 238.94c28.443 3.871 55.804-5.152 74.443-16.226a197.308 197.308 0 0 1-6.77-4.93 126.401 126.401 0 0 1-19.403-18.358c-14.023 6.134-31.667 9.732-48.028 6.391-15.813-3.23-29.765-13.549-36.905-29.471-1.354-3.018-2.41-6.462-3.071-9.73 4.132 28.996 18.764 54.327 39.734 72.324Z" opacity="0.3" style="mix-blend-mode: multiply;"></path><path fill="url(#astar_svg__v)" d="M149.583 180.177c-7.49-7.97-13.507-16.553-18.073-25.432-.234-.476-.484-.928-.712-1.412l-.026-.053c-2.682-5.683-4.962-11.917-6.727-18.708-4.87 1.146-9.779 2.591-14.713 4.44a116.452 116.452 0 0 0-15.855 7.765c4.563 15.832 11.314 29.224 19.191 40.415a130.221 130.221 0 0 0 9.285 12.234c6.013-2.629 11.371-5.718 15.658-8.938a117.817 117.817 0 0 0 11.972-10.311Z" opacity="0.3" style="mix-blend-mode: multiply;"></path><path fill="url(#astar_svg__w)" d="M111.107 39.466c-17.574 22.696-23.441 50.903-23.17 72.582 2.45-1.15 5-2.29 7.686-3.413a126.45 126.45 0 0 1 25.569-7.619c1.701-15.209 7.407-32.284 18.479-44.78 10.703-12.078 26.616-19.002 43.975-17.225 3.291.337 6.802 1.145 9.963 2.206.146.049.3.09.443.14l.007-.01c-15.992-6.514-33.659-9.593-52.017-8.345a116.931 116.931 0 0 0-30.848 6.357c-.027.036-.059.07-.087.107Z" opacity="0.3" style="mix-blend-mode: multiply;"></path><path fill="url(#astar_svg__x)" d="M265.175 171.597c-10.874-26.581-32.385-45.771-51.302-56.372a195.967 195.967 0 0 1-.887 8.359 126.402 126.402 0 0 1-6.185 25.952c12.33 9.078 24.279 22.565 29.568 38.413 5.109 15.309 3.149 32.552-7.069 46.697-1.937 2.681-4.393 5.318-6.893 7.525l-.108.099c22.023-17.308 37.598-42.254 42.939-70.505-.023-.055-.04-.113-.063-.167v-.001Z" opacity="0.3" style="mix-blend-mode: multiply;"></path><path fill="url(#astar_svg__y)" d="M121.103 119.055a117.825 117.825 0 0 0 2.942 15.517c10.659-2.508 21.112-3.43 31.094-2.944.529.035 1.046.045 1.579.089l.059.004c6.252.518 12.78 1.658 19.533 3.52 1.445-4.794 2.649-9.772 3.515-14.973a116.426 116.426 0 0 0 1.201-17.669c-15.99-3.962-30.938-4.738-44.566-3.513-5.096.34-10.196.982-15.268 1.93-.73 6.525-.735 12.713-.089 18.039Z" opacity="0.3" style="mix-blend-mode: multiply;"></path><defs><linearGradient id="astar_svg__a" x1="47.634" x2="238.908" y1="252.373" y2="61.098" gradientUnits="userSpaceOnUse"><stop offset="0.001" stop-color="#E6007A"></stop><stop offset="0.207" stop-color="#703AC2"></stop><stop offset="0.456" stop-color="#0070EB"></stop><stop offset="0.768" stop-color="#0297FB"></stop><stop offset="1" stop-color="#0AE2FF"></stop></linearGradient><linearGradient id="astar_svg__d" x1="58.658" x2="90.643" y1="219.827" y2="219.383" gradientUnits="userSpaceOnUse"><stop stop-color="#fff" stop-opacity="0"></stop><stop offset="1" stop-color="#fff"></stop></linearGradient><linearGradient id="astar_svg__g" x1="256.143" x2="239.766" y1="194.191" y2="166.713" gradientUnits="userSpaceOnUse"><stop stop-color="#fff" stop-opacity="0"></stop><stop offset="1" stop-color="#fff"></stop></linearGradient><linearGradient id="astar_svg__j" x1="135.188" x2="119.58" y1="35.975" y2="63.898" gradientUnits="userSpaceOnUse"><stop stop-color="#fff" stop-opacity="0"></stop><stop offset="1" stop-color="#fff"></stop></linearGradient><linearGradient id="astar_svg__k" x1="142.142" x2="93.275" y1="21.781" y2="35.997" gradientUnits="userSpaceOnUse"><stop stop-color="#231F20"></stop><stop offset="1" stop-color="#fff"></stop></linearGradient><linearGradient id="astar_svg__l" x1="49.793" x2="90.663" y1="208.156" y2="250.803" gradientUnits="userSpaceOnUse"><stop stop-color="#231F20"></stop><stop offset="1" stop-color="#fff"></stop></linearGradient><linearGradient id="astar_svg__m" x1="269.146" x2="283.361" y1="201.728" y2="158.488" gradientUnits="userSpaceOnUse"><stop stop-color="#231F20"></stop><stop offset="1" stop-color="#fff"></stop></linearGradient><linearGradient id="astar_svg__n" x1="164.408" x2="229.924" y1="46.508" y2="61.51" gradientUnits="userSpaceOnUse"><stop stop-color="#231F20"></stop><stop offset="1" stop-color="#fff"></stop></linearGradient><linearGradient id="astar_svg__o" x1="232.422" x2="186.673" y1="214.224" y2="263.462" gradientUnits="userSpaceOnUse"><stop stop-color="#231F20"></stop><stop offset="1" stop-color="#fff"></stop></linearGradient><linearGradient id="astar_svg__p" x1="53.184" x2="33.417" y1="189.302" y2="125.063" gradientUnits="userSpaceOnUse"><stop stop-color="#231F20"></stop><stop offset="1" stop-color="#fff"></stop></linearGradient><linearGradient id="astar_svg__q" x1="178.731" x2="158" y1="70.673" y2="91.404" gradientUnits="userSpaceOnUse"><stop stop-color="#231F20"></stop><stop offset="1" stop-color="#fff"></stop></linearGradient><linearGradient id="astar_svg__r" x1="66.935" x2="95.254" y1="164.782" y2="172.37" gradientUnits="userSpaceOnUse"><stop stop-color="#231F20"></stop><stop offset="1" stop-color="#fff"></stop></linearGradient><linearGradient id="astar_svg__s" x1="204.327" x2="196.738" y1="214.534" y2="186.214" gradientUnits="userSpaceOnUse"><stop stop-color="#231F20"></stop><stop offset="1" stop-color="#fff"></stop></linearGradient><linearGradient id="astar_svg__t" x1="161.22" x2="173.659" y1="189.352" y2="172.174" gradientUnits="userSpaceOnUse"><stop stop-color="#231F20"></stop><stop offset="1" stop-color="#fff"></stop></linearGradient><linearGradient id="astar_svg__u" x1="118.389" x2="93.512" y1="181.915" y2="193.761" gradientUnits="userSpaceOnUse"><stop stop-color="#231F20"></stop><stop offset="1" stop-color="#fff"></stop></linearGradient><linearGradient id="astar_svg__v" x1="109.362" x2="117.062" y1="140.504" y2="156.496" gradientUnits="userSpaceOnUse"><stop stop-color="#231F20"></stop><stop offset="1" stop-color="#fff"></stop></linearGradient><linearGradient id="astar_svg__w" x1="145.183" x2="139.852" y1="91.112" y2="72.75" gradientUnits="userSpaceOnUse"><stop stop-color="#231F20"></stop><stop offset="1" stop-color="#fff"></stop></linearGradient><linearGradient id="astar_svg__x" x1="202.637" x2="218.038" y1="175.182" y2="178.736" gradientUnits="userSpaceOnUse"><stop stop-color="#231F20"></stop><stop offset="1" stop-color="#fff"></stop></linearGradient><linearGradient id="astar_svg__y" x1="178.468" x2="158.922" y1="123.158" y2="119.604" gradientUnits="userSpaceOnUse"><stop stop-color="#231F20"></stop><stop offset="1" stop-color="#fff"></stop></linearGradient><radialGradient id="astar_svg__b" cx="0" cy="0" r="1" gradientTransform="translate(192.756 119.637) scale(57.0329)" gradientUnits="userSpaceOnUse"><stop stop-color="#fff"></stop><stop offset="1" stop-color="#fff" stop-opacity="0"></stop></radialGradient><radialGradient id="astar_svg__c" cx="0" cy="0" r="1" gradientTransform="translate(108.454 225.44) scale(33.1822)" gradientUnits="userSpaceOnUse"><stop stop-color="#fff"></stop><stop offset="1" stop-color="#fff" stop-opacity="0"></stop></radialGradient><radialGradient id="astar_svg__e" cx="0" cy="0" r="1" gradientTransform="rotate(-120 88.158 34.538) scale(57.0329)" gradientUnits="userSpaceOnUse"><stop stop-color="#fff"></stop><stop offset="1" stop-color="#fff" stop-opacity="0"></stop></radialGradient><radialGradient id="astar_svg__f" cx="0" cy="0" r="1" gradientTransform="rotate(-120 160.852 5.972) scale(33.1822)" gradientUnits="userSpaceOnUse"><stop stop-color="#fff"></stop><stop offset="1" stop-color="#fff" stop-opacity="0"></stop></radialGradient><radialGradient id="astar_svg__h" cx="0" cy="0" r="1" gradientTransform="rotate(120 18.497 143.723) scale(57.0329)" gradientUnits="userSpaceOnUse"><stop stop-color="#fff"></stop><stop offset="1" stop-color="#fff" stop-opacity="0"></stop></radialGradient><radialGradient id="astar_svg__i" cx="0" cy="0" r="1" gradientTransform="rotate(120 30.69 68.582) scale(33.1822)" gradientUnits="userSpaceOnUse"><stop stop-color="#fff"></stop><stop offset="1" stop-color="#fff" stop-opacity="0"></stop></radialGradient></defs></svg>