<svg width="300" height="300" viewBox="0 0 300 300" fill="none" xmlns="http://www.w3.org/2000/svg">
<path d="M299.648 139.821C294.026 57.1731 222.47 -5.27009 139.821 0.351692C98.6489 3.1521 62.4983 22.3218 37.2713 51.0674L37.2715 51.0673L37.2011 51.0165C37.0311 51.2517 36.8723 51.4837 36.7035 51.7188C11.645 80.6047 -2.44854 119.013 0.351528 160.179C0.618351 164.102 1.08009 167.962 1.63804 171.789C1.63821 171.79 1.63821 171.79 1.63838 171.791C1.66351 171.964 1.68915 172.136 1.71345 172.309C2.09063 174.834 2.52857 177.336 3.02826 179.815C3.02859 179.816 3.02876 179.818 3.02909 179.819C3.03825 179.864 3.0469 179.909 3.05572 179.954C3.51064 182.199 4.01599 184.423 4.56894 186.629L4.56994 186.633C4.57044 186.635 4.57094 186.637 4.57128 186.638C21.8945 255.723 86.6221 304.652 160.179 299.648C242.827 294.027 305.27 222.469 299.648 139.821V139.821ZM266.998 142.042C267.69 152.217 267.05 162.18 265.238 171.765C265.215 171.71 265.198 171.652 265.175 171.598V171.597C254.301 145.016 232.79 125.826 213.873 115.225C217.702 70.1849 202.422 51.2099 185.128 48.1225C184.658 48.032 184.185 47.9548 183.704 47.8952C169.979 46.1348 157.427 55.8365 155.669 69.5612C153.908 83.2866 163.61 95.8387 177.335 97.5997C178.532 97.7512 179.716 97.7933 180.889 97.7748C180.965 99.2952 181.013 100.91 181.026 102.599C165.036 98.6366 150.088 97.861 136.46 99.0863C131.364 99.426 126.264 100.068 121.192 101.016C122.893 85.8072 128.599 68.7324 139.671 56.2368C150.374 44.1576 166.287 37.2342 183.646 39.0109C186.937 39.3476 190.448 40.1556 193.609 41.2172C193.754 41.266 193.909 41.3073 194.052 41.3572C194.054 41.3544 194.057 41.3506 194.059 41.3477C234.267 57.7274 263.858 95.8868 266.998 142.042ZM162.449 164.953C162.438 164.969 162.427 164.985 162.416 165.002C158.837 170.164 154.58 175.254 149.583 180.177C142.093 172.207 136.075 163.624 131.51 154.745C131.276 154.269 131.026 153.817 130.798 153.333C130.789 153.316 130.781 153.298 130.772 153.28C128.09 147.597 125.81 141.363 124.045 134.572C134.704 132.064 145.157 131.142 155.139 131.628C155.668 131.663 156.185 131.673 156.718 131.717C156.737 131.718 156.757 131.72 156.777 131.721C163.029 132.239 169.557 133.379 176.31 135.241C173.153 145.721 168.726 155.231 163.316 163.63C163.021 164.071 162.754 164.513 162.449 164.953H162.449ZM111.194 39.3593C111.166 39.3954 111.135 39.4295 111.107 39.4657L111.107 39.4658C93.5329 62.1624 87.6658 90.3693 87.9371 112.048C47.0196 131.252 38.2272 153.972 44.2004 170.492C44.3569 170.944 44.5268 171.393 44.7154 171.839C50.0537 184.606 64.7316 190.625 77.4965 185.285C90.2633 179.947 96.2827 165.269 90.9458 152.503C90.4782 151.39 89.9226 150.343 89.3202 149.337C90.6134 148.501 92.0021 147.643 93.4767 146.777C98.0402 162.609 104.791 176.001 112.668 187.192C115.505 191.428 118.604 195.515 121.953 199.426C107.93 205.56 90.2861 209.158 73.9251 205.817C58.1124 202.587 44.1603 192.268 37.0195 176.346C35.6659 173.328 34.6104 169.884 33.9489 166.616C33.5419 163.76 33.2009 160.882 33.0021 157.958C29.3472 104.227 62.6827 56.3923 111.194 39.3593V39.3593ZM157.958 266.998C126.051 269.168 96.225 258.285 73.6832 238.94C102.126 242.811 129.487 233.788 148.126 222.713C185.232 248.568 209.313 244.825 220.636 231.389C220.95 231.027 221.253 230.656 221.545 230.269C229.933 219.263 227.807 203.542 216.8 195.157C205.793 186.769 190.072 188.896 181.685 199.901C180.955 200.862 180.326 201.866 179.756 202.891C178.395 202.194 176.966 201.425 175.489 200.587C186.929 188.713 195.08 176.148 200.837 163.724C203.091 159.141 205.085 154.403 206.801 149.536C219.131 158.614 231.08 172.101 236.369 187.949C241.478 203.258 239.518 220.501 229.3 234.646C227.363 237.327 224.907 239.964 222.407 242.171C222.371 242.203 222.335 242.237 222.3 242.27C204.423 256.32 182.304 265.342 157.958 266.998H157.958Z" fill="black"/>
</svg>