<!-- Generated by IcoMoon.io -->
<svg version="1.1" xmlns="http://www.w3.org/2000/svg" viewBox="0 0 1024 1024">
<title>op</title>
<g id="icomoon-ignore">
</g>
<path fill="#ff0420" d="M1024 512c0 282.77-229.23 512-512 512s-512-229.23-512-512c0-282.77 229.23-512 512-512s512 229.23 512 512z"></path>
<path fill="#fff" d="M362.701 647.987c-30.515 0-55.501-7.168-74.957-21.504-19.251-14.541-28.877-35.43-28.877-62.259 0-5.734 0.614-12.493 1.843-20.685 3.277-18.432 7.987-40.55 14.131-66.56 17.408-70.451 62.464-105.677 134.963-105.677 19.661 0 37.478 3.277 53.043 10.035 15.565 6.349 27.853 16.179 36.864 29.286 9.011 12.902 13.517 28.262 13.517 46.080 0 5.325-0.614 12.083-1.843 20.275-3.891 22.733-8.397 45.056-13.926 66.56-9.011 35.021-24.371 61.44-46.49 78.848-21.914 17.203-51.405 25.6-88.269 25.6zM368.23 592.691c14.336 0 26.419-4.301 36.454-12.698 10.24-8.397 17.613-21.299 21.914-38.912 5.939-24.166 10.445-45.056 13.517-63.078 1.024-5.325 1.638-10.854 1.638-16.589 0-23.347-12.083-35.021-36.454-35.021-14.336 0-26.624 4.301-36.864 12.698-10.035 8.397-17.203 21.299-21.504 38.912-4.71 17.203-9.216 38.093-13.926 63.078-1.024 5.12-1.638 10.445-1.638 16.179-0.205 23.757 12.288 35.43 36.864 35.43z"></path>
<path fill="#fff" d="M531.046 644.301c-2.867 0-4.915-0.819-6.554-2.662-1.229-2.048-1.638-4.301-1.229-6.963l53.043-249.856c0.41-2.867 1.843-5.12 4.301-6.963 2.253-1.843 4.71-2.662 7.373-2.662h102.195c28.467 0 51.2 5.939 68.403 17.613 17.408 11.878 26.214 28.877 26.214 51.2 0 6.349-0.819 13.107-2.253 20.070-6.349 29.491-19.251 51.2-38.912 65.331-19.251 14.131-45.67 21.094-79.258 21.094h-51.814l-17.613 84.173c-0.614 2.867-1.843 5.12-4.301 6.963-2.253 1.843-4.71 2.662-7.373 2.662h-52.224zM667.034 497.459c10.854 0 20.070-2.867 28.058-8.806 8.192-5.939 13.517-14.336 16.179-25.395 0.819-4.301 1.229-8.192 1.229-11.469 0-7.373-2.253-13.107-6.554-16.998-4.301-4.096-11.878-6.144-22.323-6.144h-46.080l-14.541 68.813h44.032z"></path>
</svg>
