<!-- Generated by IcoMoon.io -->
<svg version="1.1" xmlns="http://www.w3.org/2000/svg" fill="currentColor" viewBox="0 0 32 32">
<title>opensea</title>
<path d="M16.14 0.001c-8.947-0.075-16.214 7.192-16.139 16.139 0.075 8.688 7.174 15.788 15.859 15.859 8.947 0.077 16.217-7.192 16.139-16.139-0.072-8.686-7.171-15.785-15.859-15.859z"></path>
<path fill="#fff" d="M11.292 9.026c0.963 1.224 1.54 2.771 1.54 4.451 0 1.454-0.431 2.809-1.174 3.94h-5.216l4.85-8.391z"></path>
<path fill="#fff" d="M27.182 19.277c0 0.070-0.038 0.13-0.103 0.158-0.354 0.15-1.52 0.692-2.006 1.367-1.251 1.743-2.207 4.481-4.344 4.481h-8.915c-3.157 0-5.798-2.505-5.795-5.843 0-0.083 0.070-0.15 0.153-0.15h4.225c0.145 0 0.261 0.118 0.261 0.261v0.815c0 0.434 0.351 0.785 0.785 0.785h3.205v-1.866h-2.189c1.259-1.595 2.009-3.609 2.009-5.8 0-2.445-0.938-4.675-2.473-6.342 0.928 0.108 1.816 0.294 2.653 0.539v-0.519c0-0.539 0.436-0.976 0.976-0.976s0.976 0.436 0.976 0.976v1.251c2.992 1.397 4.95 3.714 4.95 6.335 0 1.537-0.672 2.969-1.833 4.173-0.223 0.231-0.532 0.361-0.855 0.361h-2.262v1.863h2.839c0.612 0 1.71-1.161 2.232-1.861 0 0 0.023-0.035 0.083-0.053s5.214-1.201 5.214-1.201c0.108-0.030 0.216 0.053 0.216 0.163v1.083l-0-0.001z"></path>
</svg>
