<!-- Generated by IcoMoon.io -->
<svg version="1.1" xmlns="http://www.w3.org/2000/svg" fill="currentColor" viewBox="0 0 32 32">
<title>polygon</title>
<path d="M16 0c8.837 0 16 7.163 16 16s-7.163 16-16 16c-8.837 0-16-7.163-16-16s7.163-16 16-16z"></path>
<path fill="#fff" d="M21.486 12.372c-0.39-0.222-0.891-0.222-1.337 0l-3.119 1.828-2.117 1.163-3.064 1.828c-0.39 0.221-0.891 0.221-1.337 0l-2.395-1.44c-0.39-0.222-0.668-0.665-0.668-1.163v-2.77c0-0.443 0.223-0.886 0.668-1.163l2.395-1.385c0.39-0.222 0.891-0.222 1.337 0l2.395 1.44c0.39 0.222 0.668 0.665 0.668 1.163v1.828l2.117-1.219v-1.883c0-0.443-0.223-0.886-0.668-1.163l-4.456-2.603c-0.39-0.222-0.891-0.222-1.337 0l-4.567 2.659c-0.446 0.222-0.668 0.665-0.668 1.108v5.207c0 0.443 0.223 0.886 0.668 1.163l4.512 2.603c0.39 0.222 0.891 0.222 1.337 0l3.064-1.773 2.117-1.219 3.064-1.773c0.39-0.221 0.891-0.221 1.337 0l2.395 1.385c0.39 0.222 0.668 0.665 0.668 1.163v2.77c0 0.443-0.223 0.886-0.668 1.163l-2.34 1.385c-0.39 0.222-0.891 0.222-1.337 0l-2.395-1.385c-0.39-0.222-0.668-0.665-0.668-1.163v-1.773l-2.117 1.219v1.828c0 0.443 0.223 0.886 0.668 1.163l4.512 2.603c0.39 0.221 0.891 0.221 1.337 0l4.512-2.603c0.39-0.221 0.668-0.665 0.668-1.163v-5.262c0-0.443-0.223-0.886-0.668-1.163l-4.512-2.603z"></path>
</svg>
