<!-- Generated by IcoMoon.io -->
<svg version="1.1" xmlns="http://www.w3.org/2000/svg" fill="currentColor" viewBox="0 0 32 32">
<title>twitter</title>
<path d="M31.078 6.666c-1.133 0.492-2.332 0.817-3.559 0.965 1.294-0.773 2.264-1.989 2.729-3.423-1.216 0.724-2.547 1.234-3.936 1.508-0.928-1.006-2.164-1.676-3.514-1.905s-2.737-0.002-3.945 0.643-2.167 1.673-2.727 2.922c-0.56 1.249-0.691 2.649-0.37 3.98-2.459-0.124-4.864-0.765-7.059-1.879s-4.131-2.678-5.683-4.59c-0.544 0.95-0.83 2.026-0.829 3.121-0.002 1.017 0.248 2.018 0.726 2.916s1.172 1.662 2.018 2.226c-0.983-0.027-1.945-0.29-2.805-0.769v0.075c0.007 1.425 0.507 2.803 1.413 3.902s2.165 1.851 3.563 2.129c-0.538 0.164-1.096 0.25-1.659 0.256-0.389-0.005-0.777-0.040-1.161-0.106 0.398 1.226 1.168 2.297 2.203 3.064s2.284 1.193 3.572 1.218c-2.176 1.712-4.862 2.646-7.63 2.654-0.504 0.002-1.008-0.028-1.508-0.090 2.826 1.825 6.12 2.794 9.485 2.79 2.322 0.024 4.625-0.415 6.775-1.291s4.104-2.172 5.748-3.811c1.644-1.64 2.944-3.59 3.826-5.738s1.326-4.45 1.308-6.772c0-0.256 0-0.528 0-0.799 1.183-0.882 2.204-1.964 3.016-3.197v0z"></path>
</svg>
