<!-- Generated by IcoMoon.io -->
<svg version="1.1" xmlns="http://www.w3.org/2000/svg" stroke="currentColor" viewBox="0 0 32 32">
<title>website</title>
<path fill="none" stroke-linejoin="round" stroke-linecap="round" stroke-miterlimit="4" stroke-width="2.6667" d="M16 21.8c8.008 0 14.5-2.596 14.5-5.8s-6.492-5.8-14.5-5.8-14.5 2.597-14.5 5.8c0 3.204 6.492 5.8 14.5 5.8z"></path>
<path fill="none" stroke-linejoin="round" stroke-linecap="round" stroke-miterlimit="4" stroke-width="2.6667" d="M21.8 16c0 8.008-2.596 14.5-5.8 14.5s-5.8-6.492-5.8-14.5 2.597-14.5 5.8-14.5c3.204 0 5.8 6.492 5.8 14.5z"></path>
<path fill="none" stroke-linejoin="round" stroke-linecap="butt" stroke-miterlimit="4" stroke-width="2.6667" d="M16 30.5c8.008 0 14.5-6.492 14.5-14.5s-6.492-14.5-14.5-14.5c-8.008 0-14.5 6.492-14.5 14.5s6.492 14.5 14.5 14.5z"></path>
</svg>
